<?xml version="1.0" encoding="utf-8"?>
<!-- Generator: Adobe Illustrator 28.0.0, SVG Export Plug-In . SVG Version: 6.00 Build 0)  -->
<svg version="1.1" id="Camada_1" xmlns="http://www.w3.org/2000/svg" xmlns:xlink="http://www.w3.org/1999/xlink" x="0px" y="0px"
	 viewBox="0 0 69.7 69.61" style="enable-background:new 0 0 69.7 69.61;" xml:space="preserve"> 
<style type="text/css">
	.st0{display:none;}
	.st1{display:inline;fill:#B0B6BC;}
	.st2{display:inline;fill:#C4C9CF;}
	.st3{display:inline;fill:#FAFAFA;}
	.st4{fill:url(#SVGID_1_);}
	.st5{fill:#466084;}
	.st6{fill:#2E3F71;}
	.st7{fill:#6D87B1;}
	.st8{fill:#FAFAFA;}
	.st9{fill:#0D152B;}
	.st10{fill:#506D9F;}
	.st11{fill:#0C0C0A;}
	.st12{fill:#909EC3;}
	.st13{fill:url(#SVGID_00000000205097158773860890000007428125230160995996_);}
	.st14{fill:#A4B2D5;}
	.st15{fill:#DEE3E9;}
	.st16{fill:#C3D5E8;}
	.st17{fill:#C5D0EC;}
	.st18{fill:#B8ECFD;}
	.st19{fill:#E0EBFD;}
	.st20{fill:#6496D5;}
	.st21{fill:#7DA2C4;}
	.st22{fill:#122F56;}
	.st23{fill:#9FC9EA;}
	.st24{fill:#9DB9D8;}
	.st25{fill:#2098CC;}
	.st26{fill:#8EE6F8;}
	.st27{fill:#154578;}
	.st28{fill:#255695;}
	.st29{fill:#7AC3E7;}
	.st30{fill:#D5F2FB;}
	.st31{fill:#43AAD3;}
	.st32{fill:#0C121A;}
	.st33{fill:#1765A0;}
	.st34{fill:#A3D9F3;}
	.st35{fill:#0A0909;}
	.st36{fill:#EDD1BC;}
	.st37{fill:#F7E3CD;}
	.st38{fill:#BA9A9C;}
	.st39{fill:#937988;}
	.st40{fill:#A98E98;}
	.st41{fill:#D2B0A2;}
	.st42{fill:#B92E33;}
	.st43{fill:#EA6A4B;}
	.st44{fill:#E05345;}
	.st45{fill:#DA7B40;}
	.st46{fill:#FAF8F7;}
	.st47{fill:#BABBBD;}
	.st48{fill:#D7D5D7;}
	.st49{fill:#908F9B;}
	.st50{fill:#AAA5AD;}
	.st51{fill:#4D9290;}
	.st52{fill:#BEAAAE;}
	.st53{fill:#5E5F74;}
	.st54{fill:#645B73;}
	.st55{fill:#807997;}
	.st56{fill:#480B02;}
	.st57{fill:#C9CCAC;}
	.st58{fill:#E17C1F;}
	.st59{fill:#A08EA4;}
	.st60{fill:#B86F35;}
	.st61{fill:#E9C8A4;}
	.st62{fill:#9E2611;}
	.st63{display:inline;fill:#EAEBEE;}
	.st64{fill:#3F3B42;}
	.st65{fill:#484856;}
	.st66{fill:#F1865F;}
	.st67{fill:#E25D43;}
	.st68{fill:#190F0D;}
	.st69{fill:#080706;}
	.st70{fill:#BAB8B4;}
	.st71{fill:#7889A1;}
	.st72{fill:#28262F;}
	.st73{fill:#131822;}
	.st74{fill:#536F8D;}
	.st75{fill:#C73C3A;}
	.st76{fill:#A19D9E;}
	.st77{fill:#92888E;}
	.st78{fill:#73341B;}
	.st79{fill:#4A1C1F;}
	.st80{fill:#A91D24;}
	.st81{fill:#48120B;}
	.st82{fill:#A15330;}
	.st83{fill:#250C09;}
	.st84{fill:#19151D;}
	.st85{fill:#831A19;}
	.st86{fill:#671819;}
	.st87{fill:#D46E28;}
	.st88{fill:#E99F35;}
	.st89{fill:#E79546;}
	.st90{fill:#994F40;}
	.st91{fill:#D2CBC6;}
	.st92{fill:#BB4930;}
	.st93{fill:#37485C;}
	.st94{fill:#495B6E;}
	.st95{fill:#25170E;}
	.st96{fill:#202935;}
	.st97{fill:#632112;}
	.st98{fill:#3F4862;}
	.st99{fill:#B5A9A5;}
	.st100{fill:#7D7F83;}
	.st101{fill:#869DB4;}
	.st102{fill:#283951;}
	.st103{fill:#89432B;}
	.st104{fill:#65738D;}
	.st105{fill:#2B2526;}
	.st106{fill:#A63E28;}
	.st107{fill:#F4C774;}
	.st108{fill:#8E4B1C;}
	.st109{fill:#30180E;}
	.st110{fill:#AE6226;}
	.st111{fill:#BE7A2B;}
	.st112{fill:#F3A959;}
	.st113{fill:#513018;}
	.st114{fill:#DCAC41;}
	.st115{fill:#203342;}
	.st116{fill:#C7CCCF;}
	.st117{fill:#96BCCE;}
	.st118{fill:#131729;}
	.st119{fill:#90352A;}
	.st120{fill:#773138;}
	.st121{fill:#688398;}
	.st122{fill:#344A71;}
	.st123{fill:#375F91;}
	.st124{fill:#693611;}
	.st125{fill:#646A73;}
	.st126{display:inline;fill:#B5B8BC;}
	.st127{display:inline;fill:#F8F9F9;}
	.st128{display:inline;fill:#D0D3D7;}
	.st129{fill:#F8F9F9;}
	.st130{fill:#090908;}
	.st131{fill:#AD2C3E;}
	.st132{fill:#D0D3D7;}
	.st133{fill:#43120C;}
	.st134{fill:#3D171A;}
	.st135{fill:#5E1E15;}
	.st136{fill:#EEC89C;}
	.st137{fill:#FBC3E5;}
	.st138{fill:#CB545A;}
	.st139{fill:#CD6076;}
	.st140{fill:#20191C;}
	.st141{fill:#8E706C;}
	.st142{fill:#B69E98;}
	.st143{fill:#2F2831;}
	.st144{fill:#725B5C;}
	.st145{fill:#A52349;}
	.st146{fill:#EBD4B4;}
	.st147{fill:#C33C28;}
	.st148{fill:#99817B;}
	.st149{fill:#FCC49A;}
	.st150{fill:#3B2E30;}
	.st151{fill:#D2988D;}
	.st152{fill:#DE6D13;}
	.st153{fill:#D04619;}
	.st154{fill:#F4BC55;}
	.st155{fill:#321F30;}
	.st156{fill:#DED0C9;}
	.st157{fill:#897F66;}
	.st158{fill:#4D3C3C;}
	.st159{fill:#5D5050;}
	.st160{fill:#968271;}
	.st161{fill:#5E4648;}
	.st162{fill:#C1B8B6;}
	.st163{fill:#C7CFC6;}
	.st164{fill:#F8B26A;}
	.st165{fill:#CF5C10;}
	.st166{fill:#F2A83B;}
	.st167{fill:#EBED55;}
	.st168{fill:#F2CB56;}
	.st169{fill:#FCE8A0;}
	.st170{fill:#240601;}
	.st171{fill:#295687;}
	.st172{fill:#59769C;}
	.st173{fill:#85A2C8;}
	.st174{fill:#1A2952;}
	.st175{fill:#376499;}
	.st176{fill:#F3E97D;}
	.st177{fill:#F3901B;}
	.st178{fill:#3F4D71;}
	.st179{fill:#254072;}
	.st180{fill:#7789AA;}
	.st181{fill:#7294B3;}
	.st182{fill:#546186;}
	.st183{fill:#8F867F;}
	.st184{fill:#D97B7B;}
	.st185{fill:#EECFBB;}
	.st186{fill:#AD2C68;}
	.st187{fill:#D47763;}
	.st188{fill:#EAB4A0;}
	.st189{fill:#E0BBB2;}
	.st190{fill:#EDE4E1;}
	.st191{fill:#D1A798;}
	.st192{fill:#CABFAF;}
	.st193{fill:#7B675C;}
	.st194{fill:#878A85;}
	.st195{fill:#BC8D7E;}
	.st196{fill:#693B1E;}
	.st197{fill:#3D1D05;}
	.st198{fill:#F3B8B8;}
	.st199{fill:#D1CCED;}
	.st200{fill:#C83E54;}
	.st201{fill:#84340E;}
	.st202{fill:#DACDE1;}
	.st203{fill:#E7E3EE;}
	.st204{fill:#14141A;}
	.st205{fill:#5C4B73;}
	.st206{fill:#C6B9CF;}
	.st207{fill:#81709B;}
	.st208{fill:#1F1D2E;}
	.st209{fill:#453B60;}
	.st210{fill:#4E4B64;}
	.st211{fill:#6D5F89;}
	.st212{fill:#AE9DC6;}
	.st213{fill:#B3A6B8;}
	.st214{fill:#302843;}
	.st215{fill:#121515;}
	.st216{fill:#565656;}
	.st217{fill:#858387;}
	.st218{fill:#8B8A8E;}
	.st219{fill:#5F5A66;}
	.st220{fill:#917FAC;}
</style>
<g>
	<path class="st35" d="M0.19,69.61C0.1,34.98,0.1,34.98,0,0.36c17.08-0.25,34.18-0.27,51.26-0.32c6.1-0.02,12.22-0.14,18.31,0.19
		c0.06,34.6,0.06,34.6,0.13,69.2"/>
	<g>
		<path class="st36" d="M66.28,5.87c0.13,29.05,0.13,29.05,0.25,58.11c-0.18,0.27-0.38,0.17-0.63,0.19
			c-0.13,0.01-1.97-0.11-2.53-0.13c-0.04,0-0.25-0.37-0.51-0.38c0-3.25,0-6.51,0-9.76c0-3.21-0.12-6.43-0.13-9.63
			c-0.01-7.71,0.23-15.42,0-23.13c-0.09-0.13-0.47-0.04-0.63-0.06c0.19-2.66-0.37-2.34-0.38-2.47c-0.05-0.75,0.27-2.38,0.13-3.55
			c-1.13-0.23-2.49,0.2-2.41-0.32c1.16,0,2.26,0.06,3.42-0.13c0.18-0.03,0.09,0.36,0.25,0.19c0.2-2.89-0.21-5.86-0.13-8.74
			c0-0.1,0.25,0.01,0.25-0.19C64.76,5.87,64.76,5.87,66.28,5.87z"/>
		<path class="st36" d="M6.46,5.87c0.13,7.35,0.13,7.35,0.25,14.7c0.18-0.05,0.24,0.09,0.38,0.13c-0.06,5.1-0.06,5.1-0.13,10.2
			c1.39,0.03,1.39,0.03,2.79,0.06c0,0.19,0.26,0.09,0.25,0.19c-0.01,0.52,0.14,1.87,0.13,1.96c-0.01,0.08-0.18,0.67-0.32,0.76
			c-1.43,0.03-1.43,0.03-2.85,0.06c-0.01,5.22,0.01,10.43,0,15.65c0,0.87-0.25,1.15-0.25,1.96c0,1.13,0.13,2.27,0.13,3.42
			c0,0.1,0.25,0,0.25,0.19c0,0.02-0.25,0.1-0.25,0.19c0,3.25,0.31,6.32,0.25,8.3c0,0.03-0.22,0.2-0.25,0.63c-1.46,0-1.46,0-2.91,0
			C3.49,47.19,3.35,22.84,3.8,5.87C4.53,5.79,6.04,5.98,6.46,5.87z"/>
		<path class="st37" d="M63.24,3.21c-0.02,0.89,0.03,1.78,0,2.66c-0.01,0.2-0.25,0.09-0.25,0.19c-0.09,2.88,0.33,5.85,0.13,8.74
			c-0.16,0.17-0.07-0.22-0.25-0.19c0-4.21,0-4.21,0-8.43c-0.22-0.32-6.81,0.07-7.73,0.06c-1.53-0.01-3.04,0.01-4.56,0
			c-0.47,0-1.02-0.13-1.52-0.13c-1.27,0-2.55,0.13-3.8,0.13c-6.93-0.01-13.86-0.11-20.78-0.13c-1.43,0-2.88,0.01-4.31,0
			c-0.56,0-1.18-0.12-1.77-0.13c-1.27,0-2.53-0.01-3.8,0c-2.53,0.02-5.07-0.06-7.6,0.06c-0.07,2.85,0.09,5.71,0,8.55
			c0,0.02-0.25,0.1-0.25,0.19c-0.06,1.92,0.05,3.85,0,5.77c-0.13-7.35-0.13-7.35-0.25-14.7c0.08-0.02,0.21,0.05,0.38-0.19
			c0-1.24,0-1.24,0-2.47C25.63,2.83,44.45,3.13,63.24,3.21z"/>
		<path class="st36" d="M59.31,63.78c1.18,0.07,2.31,0.1,3.49,0.13c0.1,0,0.05-0.25,0.06-0.25c0.26,0.01,0.47,0.38,0.51,0.38
			c-0.49-0.05-0.16,1.76-0.25,3.04c-18.74,0.47-37.53-0.66-56.27,0c0.05-0.92-0.06-1.87,0-2.79c0.03-0.44,0.25-0.6,0.25-0.63
			c-0.18,0.26,1.65,0.37,2.09,0.38c0.81,0.01,0.66-0.25,0.7-0.25c0.07,0-0.19,0.13,1.33,0.13c0.1,0,0-0.25,0.19-0.25
			c0.01,0-0.04,0.25,0.06,0.25c0.99,0,2.01-0.13,2.98-0.13c1.51,0,3.04,0.13,4.56,0.13c0.46,0,0.93,0,1.39,0c1.35,0,2.7,0,4.06,0
			c7.01,0,14.03,0.02,21.04,0c1.23,0,2.45,0.01,3.68,0c0.55,0,1.1,0,1.65,0c1.36-0.01,2.7-0.1,4.06-0.13
			c0.57-0.01,2.21,0.31,2.72,0.13c0.1-0.19,0.1-0.19,0.19-0.38C57.94,64.06,58.22,63.72,59.31,63.78z"/>
		<path class="st38" d="M63.37,64.04c0.57,0.02,2.41,0.14,2.53,0.13c0,1.43,0,1.43,0,2.85c-0.09,0.13-2.4,0.05-2.79,0.06
			C63.21,65.79,62.88,63.99,63.37,64.04z"/>
		<path class="st39" d="M6.84,64.29c-0.06,0.92,0.05,1.86,0,2.79c-1.43,0-1.43,0-2.85,0c-0.47-0.21-0.05-2.37-0.06-2.79
			C5.39,64.29,5.39,64.29,6.84,64.29z"/>
		<path class="st40" d="M6.84,3.21c0,1.24,0,1.24,0,2.47c-0.17,0.24-0.3,0.17-0.38,0.19c-0.42,0.11-1.94-0.08-2.66,0
			C3.81,5.49,3.47,3.4,3.74,3.21C4.77,3.19,5.81,3.23,6.84,3.21z"/>
		<path class="st39" d="M66.28,5.87c-1.52,0-1.52,0-3.04,0c0.03-0.88-0.02-1.78,0-2.66c1.43,0,1.43,0,2.85,0
			C66.19,4.54,66.19,4.54,66.28,5.87z"/>
		<path class="st35" d="M62.1,21.08c0.17,0.02,0.54-0.07,0.63,0.06c0.23,7.71-0.01,15.42,0,23.13c-1.65,0-1.65,0-3.3,0
			c0.03-2.04,0.02-4.05-0.13-6.08c-0.05-0.75,0.09-1.53-0.06-2.28c-0.28-0.2-3.19,0.14-3.74,0.13c-0.64-0.02-1.37-0.2-2.03-0.19
			c0.1-1.36,0.1-1.36,0.19-2.72c2.95-0.03,2.95-0.03,5.89-0.06c-0.05-3.31,0.06-6.63,0-9.95c-0.01-0.63,0.02-1.27,0-1.9
			C60.12,21.04,61.57,21,62.1,21.08z"/>
		<path class="st35" d="M62.86,53.9c0,3.25,0,6.51,0,9.76c-0.01,0,0.04,0.26-0.06,0.25c-1.18-0.03-2.31-0.06-3.49-0.13
			c0.59-3.36-2.04-3.44-1.52-0.25c-0.1,0.19-0.1,0.19-0.19,0.38c-0.52,0.18-2.16-0.14-2.72-0.13c0-1.33,0-1.33,0-2.66
			c0-1.43,0-1.43,0-2.85c0.25-0.34,1.08-0.15,1.9-0.19c0.83-0.04,2.38,0.15,2.53-0.19c0-2,0-2,0-3.99
			C60.49,53.87,61.68,53.92,62.86,53.9z"/>
		<path class="st35" d="M62.86,14.61c-1.16,0.19-2.26,0.12-3.42,0.13c-0.04,0-0.08,0-0.13,0c-0.04,0-0.08,0-0.13,0
			c-0.16-0.84-0.1-1.69-0.13-2.53c-0.02-0.73,0.14-2.77-0.19-2.91c-1.78-0.79-1.09,1.99-1.2,2.91c-0.64-0.06-1.42,0.08-2.03,0
			c-0.25-0.03-0.45,0.09-0.63-0.19c0.04-0.99-0.03-1.99,0-2.98c0.03-0.92,0.24-1.86,0.13-2.79c0.92,0.01,7.51-0.38,7.73-0.06
			C62.86,10.4,62.86,10.4,62.86,14.61z"/>
		<path class="st38" d="M59.44,44.27c1.65,0,1.65,0,3.3,0c0.01,3.21,0.13,6.42,0.13,9.63c-1.18,0.02-2.37-0.03-3.55,0
			c-0.04,0-0.08,0-0.13,0c-0.2,0.02-0.13-0.54-0.13-1.14c0-0.93-0.02-1.86,0-2.79c0.04-1.82,0.22-3.63,0.13-5.45
			C59.31,44.39,59.31,44.39,59.44,44.27z"/>
		<path class="st41" d="M62.1,21.08c-0.53-0.08-1.97-0.04-2.53,0.13c-0.06-2.14-0.45-4.3-0.25-6.46c0.04,0,0.08,0,0.13,0
			c-0.08,0.52,1.28,0.09,2.41,0.32c0.15,1.17-0.18,2.8-0.13,3.55C61.73,18.74,62.29,18.42,62.1,21.08z"/>
		<path class="st35" d="M15.46,35.65c-0.11,0,0.47,0.19-2.03,0.25c-1.12,0.03-2.24-0.02-3.36,0c-0.13,0.09-0.05,1.72-0.06,2.03
			c-0.11,3.86,0.08,7.74,0,11.6c-1.52,0.03-1.52,0.03-3.04,0.06c0.01-5.22-0.01-10.43,0-15.65c1.43-0.03,1.43-0.03,2.85-0.06
			c0.14-0.09,0.31-0.68,0.32-0.76c2.63,0.06,2.63,0.06,5.26,0.13C15.43,34.45,15.43,34.45,15.46,35.65z"/>
		<path class="st35" d="M9.89,55.29c0,1.3,0,1.3,0,2.6c0.22,0.32,0.81,0.16,1.39,0.19c1.05,0.06,2.12-0.04,3.17,0
			c0,1.65,0,1.65,0,3.3c0,1.2,0,1.2,0,2.41c-0.97,0-1.99,0.13-2.98,0.13c-0.1,0-0.05-0.25-0.06-0.25c0.53-2.98-2.1-2.89-1.52,0.13
			c-0.04,0,0.11,0.27-0.7,0.25c-0.45-0.01-2.27-0.12-2.09-0.38c0.06-1.98-0.26-5.05-0.25-8.3c0-0.09,0.25-0.17,0.25-0.19
			C8.02,55.04,8.98,55.29,9.89,55.29z"/>
		<path class="st35" d="M7.48,20.7c0.69,0.09,1.61-0.06,2.34,0c0.33,0.15,0.16,1.56,0.19,2.28c0.09,2.62,0.03,5.3,0,7.92
			c0,0.1-0.25,0.05-0.25,0.06c-1.39-0.03-1.39-0.03-2.79-0.06c0.06-5.1,0.06-5.1,0.13-10.2C7.2,20.72,7.35,20.68,7.48,20.7z"/>
		<path class="st35" d="M45.24,6.25c0,1.39,0,1.39,0,2.79c-2.94,0.01-5.87-0.01-8.81,0c-0.03,4.85-0.03,4.85-0.06,9.7
			c-1.55,0.1-1.55,0.1-3.1,0.19c-0.1-4.91-0.1-4.91-0.19-9.82C28.83,9,28.83,9,24.59,8.91c-0.06-0.06-0.06-0.06-0.13-0.13
			c0-1.33,0-1.33,0-2.66C31.39,6.14,38.32,6.23,45.24,6.25z"/>
		<path class="st35" d="M14.57,5.99c-0.23,0.96-0.09,1.94-0.13,2.91c-0.04,0.9-0.17,1.75-0.13,2.66c0.02,0.38-0.01,0.76,0,1.14
			c-0.95-0.1-1.44,0.13-1.52,0.13c-0.42,0-1.06-0.21-1.52-0.19c-0.14-2.15,0.53-3.75-0.95-3.36c-0.91,0.24-0.24,4.35-0.44,5.39
			c-1.46-0.03-1.46-0.03-2.91-0.06c0.09-2.85-0.07-5.71,0-8.55C9.5,5.93,12.04,6.01,14.57,5.99z"/>
		<path class="st42" d="M55.13,6.25c0.11,0.93-0.1,1.87-0.13,2.79c-2.22,0-2.22,0-4.44,0c0-1.39,0-1.39,0-2.79
			C52.09,6.25,53.6,6.24,55.13,6.25z"/>
		<path class="st43" d="M24.46,6.12c0,1.33,0,1.33,0,2.66c-1.43,0.37-2.89,0-4.31,0c0-1.33,0-1.33,0-2.66
			C21.58,6.13,23.02,6.12,24.46,6.12z"/>
		<path class="st42" d="M18.38,5.99c0,1.39,0,1.39,0,2.79c-1.29,0-2.63,0.26-3.93,0.13c0.04-0.97-0.1-1.95,0.13-2.91
			C15.84,5.99,17.11,5.99,18.38,5.99z"/>
		<path class="st42" d="M49.05,6.12c0,1.46,0,1.46,0,2.91c-1.18,0-2.37,0-3.55,0c-0.08,0-0.17,0-0.25,0c0-1.39,0-1.39,0-2.79
			C46.49,6.25,47.78,6.12,49.05,6.12z"/>
		<path class="st35" d="M20.15,6.12c0,1.33,0,1.33,0,2.66c-0.33,0-0.76,0.13-1.14,0.13c-0.51,0-0.59-0.13-0.63-0.13
			c0-1.39,0-1.39,0-2.79C18.97,6,19.59,6.12,20.15,6.12z"/>
		<path class="st35" d="M50.57,6.25c0,1.39,0,1.39,0,2.79c-0.76,0-0.76,0-1.52,0c0-1.46,0-1.46,0-2.91
			C49.55,6.12,50.1,6.25,50.57,6.25z"/>
		<path class="st35" d="M36.5,58.84c0.01,0.4-0.3,2.04-0.13,2.34c1.18,0.41,1.81,0.06,1.9,0.06c0.89,0.01,1.77,0,2.66,0
			c0.55,0,1.1,0,1.65,0c0.97,0,1.94,0.01,2.91,0c0,1.33,0,1.33,0,2.66c-7.01,0.02-14.03,0-21.04,0c0-1.27,0-1.27,0-2.53
			c2.81-0.02,5.62,0.02,8.43,0c0.13-4.31,0.13-4.31,0.25-8.62c1.62,0.03,1.62,0.03,3.23,0.06C36.28,54.83,36.44,56.83,36.5,58.84z"
			/>
		<path class="st44" d="M19.01,61.5c0,1.2,0,1.2,0,2.41c-1.52,0-3.06-0.13-4.56-0.13c0-1.2,0-1.2,0-2.41
			C15.96,61.24,17.51,61.5,19.01,61.5z"/>
		<path class="st45" d="M54.88,61.12c0,1.33,0,1.33,0,2.66c-1.35,0.03-2.7,0.12-4.06,0.13c0-1.33,0-1.33,0-2.66
			C52.16,61.22,53.52,61.01,54.88,61.12z"/>
		<path class="st44" d="M24.46,61.38c0,1.27,0,1.27,0,2.53c-1.35,0-2.7,0-4.06,0c0.06-1.2,0.06-1.2,0.13-2.41
			C21.82,61.5,23.16,61.39,24.46,61.38z"/>
		<path class="st45" d="M49.05,61.25c0.04,0,0.08,0,0.13,0c0,1.33,0,1.33,0,2.66c-1.22,0.01-2.45,0-3.68,0c0-1.33,0-1.33,0-2.66
			c0.33,0,0.24-0.13,0.25-0.13C46.82,61.11,47.95,61.27,49.05,61.25z"/>
		<path class="st35" d="M50.82,61.25c0,1.33,0,1.33,0,2.66c-0.55,0-1.1,0-1.65,0c0-1.33,0-1.33,0-2.66
			C49.72,61.24,50.28,61.26,50.82,61.25z"/>
		<path class="st35" d="M20.53,61.5c-0.06,1.2-0.06,1.2-0.13,2.41c-0.46,0-0.93,0-1.39,0c0-1.2,0-1.2,0-2.41
			C19.52,61.5,20.02,61.5,20.53,61.5z"/>
		<path class="st46" d="M59.31,63.78c-1.09-0.07-1.37,0.27-1.52-0.25C57.27,60.34,59.9,60.43,59.31,63.78z"/>
		<path class="st46" d="M11.41,63.66c-0.19,0-0.09,0.25-0.19,0.25c-1.52,0-1.26-0.13-1.33-0.13C9.31,60.76,11.93,60.67,11.41,63.66z
			"/>
		<path class="st47" d="M51.45,22.98c0.01,0.04,0.31-0.25,0.51,0.51c-0.3,1.48,2.35,1.31,1.77-0.38c1.96-0.1,3.87-0.01,5.83,0
			c0.06,3.31-0.05,6.63,0,9.95c-2.95,0.03-2.95,0.03-5.89,0.06c-0.1,1.36-0.1,1.36-0.19,2.72c0.66-0.01,1.38,0.17,2.03,0.19
			c0.05,0.34-0.1,2.04,0.06,2.15c0.15,0.11,3.21-0.08,3.74,0c0.14,2.04,0.16,4.05,0.13,6.08c-0.13,0.13-0.13,0.13-0.25,0.25
			c-0.37-0.51-1.48,0-2.09-0.38c-0.93,0.16,0.13,5.2-0.57,5.83c-2.09-0.06-6.52,0.24-6.84,0.13c-0.05-0.02-0.46-0.53-0.51-0.89
			c0.19-0.09,0.15-0.99,0.13-1.65c0.07,0.34,1.03,0.17,1.08,0.13c0.35-0.33,0.09-8.25,0.19-9.44c-1.17-0.1-1.17-0.1-2.34-0.19
			c-0.25-2.33,0.62-2.39-1.96-2.28c0.01-0.68-0.01-1.35,0-2.03c2.52,0.2,1.05-1.17,1.77-4.44c2.33,0.13,1.11-0.1,1.71-1.65
			c2.88,0.49,1.95-1.33,1.77-1.39c-0.09-0.03-1.63,0.11-1.96,0.13c-0.03,0-0.35-0.16-0.51-0.13c0.14-1.49-0.25-1.44-0.25-1.52
			c0-0.01,0.25,0.04,0.25-0.06c0-0.56-0.04-1.15,0-1.71C50.25,22.98,50.25,22.98,51.45,22.98z"/>
		<path class="st48" d="M59.18,14.74c0.04,0,0.08,0,0.13,0c-0.2,2.16,0.2,4.32,0.25,6.46c0.02,0.63-0.01,1.27,0,1.9
			c-1.96-0.01-3.87-0.1-5.83,0c-0.68,0.03-1.57-0.62-1.77,0.38c-0.19-0.76-0.49-0.47-0.51-0.51c-0.03-0.1-0.12-1.76-0.13-2.03
			c0-0.29,0.15-2.34,0.32-2.41c1.93-0.03,1.93-0.03,3.87-0.06c0-1.25-0.01-2.49,0-3.74C56.73,14.74,57.96,14.74,59.18,14.74z"/>
		<path class="st49" d="M59.31,38.18c-0.53-0.08-3.59,0.11-3.74,0c-0.16-0.12-0.01-1.82-0.06-2.15c0.55,0.02,3.46-0.33,3.74-0.13
			C59.4,36.65,59.26,37.43,59.31,38.18z"/>
		<path class="st46" d="M56.65,54.03c0.04,0,0.08,0,0.13,0c0,2.03,0,2.03,0,4.06c-0.82,0.04-1.65-0.15-1.9,0.19
			c0,1.43,0,1.43,0,2.85c-1.35-0.12-2.71,0.1-4.06,0.13c-0.54,0.01-1.1-0.01-1.65,0c-0.04,0-0.08,0-0.13,0c0-1.52,0-1.52,0-3.04
			c0.18,0,0.36-0.25,0.38-0.25c1.79-0.07,3.59,0.05,5.39,0c0.1-1.93,0.1-1.93,0.19-3.87C55.09,53.96,56.38,54.04,56.65,54.03z"/>
		<path class="st37" d="M56.78,58.08c0-2.03,0-2.03,0-4.06c0.8-0.03,1.62-0.11,2.41-0.13c0.04,0,0.08,0,0.13,0c0,2,0,2,0,3.99
			C59.16,58.23,57.61,58.04,56.78,58.08z"/>
		<path class="st37" d="M49.05,9.04c0.76,0,0.76,0,1.52,0c2.22,0,2.22,0,4.44,0c-0.03,0.99,0.04,1.99,0,2.98
			c0.18,0.28,0.39,0.16,0.63,0.19c-0.01,0.07-0.13,0.36-0.13,0.38c-3.2,0-3.2,0-6.4,0c-0.03,4.21-0.03,4.21-0.06,8.43
			c-0.12,0.17-2.56,0-3.04,0.06c0.43-4.08-1.16-1.92-1.52-2.72c-0.08-0.19-0.08-3.87,0-4.06c0.17-0.39,0.8,0.02,1.14-0.38
			c0.16-0.19-0.38-4.21-0.13-4.88C46.68,9.03,47.86,9.04,49.05,9.04z"/>
		<path class="st50" d="M57.66,12.2c0.7,0,0.7,0,1.39,0c0.03,0.85-0.03,1.69,0.13,2.53c-1.23,0-2.45,0-3.68,0
			c0-0.71-0.05-1.45,0-2.15c0-0.02,0.12-0.31,0.13-0.38C56.25,12.28,57.02,12.15,57.66,12.2z"/>
		<path class="st51" d="M59.06,12.2c-0.7,0-0.7,0-1.39,0c0.12-0.92-0.57-3.71,1.2-2.91C59.2,9.44,59.03,11.47,59.06,12.2z"/>
		<path class="st48" d="M59.18,44.52c0.09,1.82-0.09,3.63-0.13,5.45c-0.72,0.2-1.54,0.15-2.28,0.13c-0.12,0-0.13-0.12-0.25-0.13
			c0.7-0.63-0.36-5.67,0.57-5.83C57.71,44.52,58.81,44.01,59.18,44.52z"/>
		<path class="st46" d="M59.06,49.97c-0.02,0.93,0,1.86,0,2.79c-1.14,0-1.14,0-2.28,0c0.01-0.89-0.01-1.77,0-2.66
			C57.51,50.12,58.34,50.18,59.06,49.97z"/>
		<path class="st52" d="M59.06,52.76c0,0.6-0.07,1.16,0.13,1.14c-0.79,0.02-1.61,0.1-2.41,0.13c-0.04,0-0.08,0-0.13,0
			c0.21-0.38,0.12-0.85,0.13-1.27C57.92,52.76,57.92,52.76,59.06,52.76z"/>
		<path class="st46" d="M45.24,9.04c0.08,0,0.17,0,0.25,0c-0.26,0.67,0.28,4.69,0.13,4.88c-0.34,0.4-0.97-0.01-1.14,0.38
			c-0.08,0.19-0.08,3.87,0,4.06c0.36,0.81,1.95-1.35,1.52,2.72c-0.27,0.03-0.56-0.11-0.76,0.19c0,1.71,0,1.71,0,3.42
			c0.09,0.13,0.81,0.05,1.01,0.06c-0.22,0.92-0.02,1.86,0,2.79c0.03,2.06,0.04,4.15,0,6.21c-0.01,0.68,0.01,1.35,0,2.03
			c-0.03,1.44-0.25,0.95-0.25,1.01c-0.31,0.04-0.75-0.06-1.01,0c-0.63-0.33-0.38-2.44-0.38-3.3c0-0.86,0.01-1.67,0-2.53
			c-0.02-2.01,0.02-4.01,0-6.02c-1.31-0.13-2.62-0.05-3.93-0.06c-0.1-1.58-0.1-1.58-0.19-3.17c-6.25-0.33-3.86,0.74-4.44,1.14
			c-0.15,0.1-2.84-0.13-2.98,0.06c-0.07,0.1,0.05,1.68,0,2.09c-1.16,0.01-7.67-0.13-8.05,0c-0.1,0.03-0.06,0.17-0.06,0.25
			c0-0.02-0.12,0.12-0.13-0.38c0-0.17,0.21-2.29,0.25-3.36c-1.52-0.03-1.52-0.03-3.04-0.06c-0.13-0.13-0.13-0.13-0.25-0.25
			c0-4.12,0-4.12,0-8.24c0.44,0,2.65,0.13,2.79-0.19c0-1.93,0-1.93,0-3.87C28.83,9,28.83,9,33.08,9.1c0.1,4.91,0.1,4.91,0.19,9.82
			c1.55-0.1,1.55-0.1,3.1-0.19c0.03-4.85,0.03-4.85,0.06-9.7C39.37,9.03,42.31,9.05,45.24,9.04z"/>
		<path class="st46" d="M32.06,43c0.1,1.33,0.1,1.33,0.19,2.66c0.76,0.13,5.59-0.17,5.83,0c0.46,0.32-1.06,1.35,1.96,1.2
			c0.1,3.01,0.1,3.01,0.19,6.02c1.9,0,3.8,0,5.7,0c0.1,0,0,0.25,0.19,0.25c0,1.01,0,1.01,0,2.03c-0.09,0-0.11,0.11-0.38,0.13
			c-0.65,0.03-1.31-0.02-1.96,0c-0.31,0.22-0.16,0.57-0.19,0.89c-4.09,0.27-2.6-0.63-2.98-0.89c-0.12-0.09-2.57,0.06-3.04,0
			c0.14,0.53-0.16,3.1-0.06,3.23c0.16,0.23,0.58-0.21,0.76,0.32c-0.89,0-0.89,0-1.77,0c-0.06-2.01-0.22-4.01-0.13-6.02
			c-1.62-0.03-1.62-0.03-3.23-0.06c-0.13,4.31-0.13,4.31-0.25,8.62c-2.81,0.02-5.62-0.02-8.43,0c-1.3,0.01-2.64,0.13-3.93,0.13
			c-0.51,0-1.01,0-1.52,0c-1.5,0-3.05-0.26-4.56-0.13c0-1.65,0-1.65,0-3.3c0.13-0.13,0.13-0.13,0.25-0.25
			c2.53-0.03,2.53-0.03,5.07-0.06c0-1.58,0-1.58,0-3.17c1.14-0.19,1.14-0.19,2.28-0.38c0-2.09,0-2.09,0-4.18
			c1.39-0.13,1.39-0.13,2.79-0.25c0-1.93,0-1.93,0-3.87c0.13,0,0.25,0,0.38,0c1.88,0.01,3.76-0.01,5.64,0
			c0.26-0.44,0.11-2.73,0.19-2.85C31.16,42.91,31.85,43.05,32.06,43z"/>
		<path class="st35" d="M40.68,24.88c1.31,0.02,2.62-0.07,3.93,0.06c0.02,2.01-0.02,4.01,0,6.02c-0.89,0-1.77,0-2.66,0
			c-0.1-1.65-0.1-1.65-0.19-3.3c-1.17,0.1-1.17,0.1-2.34,0.19c0,1.49,0,1.49,0,2.98c-0.75,0-1.53-0.01-2.28,0c0-1.62,0-1.62,0-3.23
			c-0.14-0.31-0.89-0.16-1.39-0.19c-0.41-0.02-0.85-0.01-1.27,0c-0.29,0.01-1.81-0.06-1.9,0.06c-0.03,1.2,0.04,2.41,0,3.61
			c-1.33-0.06-1.33-0.06-2.66-0.13c0.38-4.04-0.06-3.49-2.22-3.42c-0.03,0.48-0.17,3.46-0.06,3.61c0.15,0.21,1.55-0.11,1.9,0.19
			c0,1.08,0,1.08,0,2.15c-0.67,0.02-1.34,0.12-2.03,0.13c-0.52,0.06-0.15-1.4-0.19-2.41c-1.17,0-1.17,0-2.34,0
			c0-1.98,0.02-3.97,0-5.96c0-0.09-0.03-0.22,0.06-0.25c0.38-0.13,6.88,0.01,8.05,0C35.61,24.97,38.14,24.84,40.68,24.88z"/>
		<path class="st35" d="M21.8,12.97c0,4.12,0,4.12,0,8.24c-1.2,0.03-1.2,0.03-2.41,0.06c0.09-0.92-0.07-1.82-0.13-2.72
			c-0.06-0.94,0.04-1.91,0-2.85c-0.09-0.13-2.05-0.05-2.41-0.06c-0.87-0.04-1.66-0.04-2.53-0.13c0.06-1.33,0.06-1.33,0.13-2.66
			C16.89,12.71,19.36,12.96,21.8,12.97z"/>
		<path class="st35" d="M24.84,24.88c-1.46-0.03-1.46-0.03-2.91-0.06c0.06-1.68,0.06-1.68,0.13-3.36c1.52,0.03,1.52,0.03,3.04,0.06
			C25.05,22.59,24.84,24.71,24.84,24.88z"/>
		<path class="st38" d="M14.7,55.17c0,1.33,0,1.33,0,2.66c-0.13,0.13-0.13,0.13-0.25,0.25c-1.05-0.04-2.12,0.06-3.17,0
			c0-1.39,0-1.39,0-2.79C12.4,55.29,13.57,55.04,14.7,55.17z"/>
		<path class="st46" d="M27.12,33.75c0,1.58,0,1.58,0,3.17c-0.52-0.02-1.71,0.06-1.9,0c-0.02-0.01,0.06-0.12-0.38-0.19
			c-0.01-0.99,0.01-1.99,0-2.98C25.59,33.41,26.38,33.76,27.12,33.75z"/>
		<path class="st39" d="M19.26,18.54c-1.2-0.1-1.2-0.1-2.41-0.19c0-1.36,0-1.36,0-2.72c0.36,0.01,2.31-0.07,2.41,0.06
			C19.31,16.64,19.2,17.6,19.26,18.54z"/>
		<path class="st45" d="M27.5,33.62c-0.02,0,0.11,0.12-0.38,0.13c-0.74,0.01-1.53-0.34-2.28,0c-0.01-0.85,0.12-1.71,0.13-2.53
			c1.17,0,1.17,0,2.34,0C27.35,32.23,26.99,33.68,27.5,33.62z"/>
		<path class="st53" d="M14.32,12.71c0.06,0.06,0.06,0.06,0.13,0.13c-0.06,1.33-0.06,1.33-0.13,2.66c-0.27-0.03-1.42,0.08-1.52-0.06
			c0-1.3,0-1.3,0-2.6C12.88,12.84,13.37,12.61,14.32,12.71z"/>
		<path class="st36" d="M11.28,55.29c0,1.39,0,1.39,0,2.79c-0.58-0.03-1.17,0.13-1.39-0.19c0-1.3,0-1.3,0-2.6
			C10.35,55.3,10.81,55.3,11.28,55.29z"/>
		<g>
			<path class="st48" d="M10.01,22.98c-0.03-0.72,0.14-2.14-0.19-2.28c-0.73-0.06-1.65,0.09-2.34,0c1.24-0.06,1.24-0.06,2.47-0.13
				c0.13-0.09-0.02-2.6,0.06-2.72c0.05-0.08,1.64-0.11,1.71-0.06c0.2,0.14-0.02,4.39,0.06,5.01C11.67,23.24,10.92,22.87,10.01,22.98
				z"/>
			<g>
				<path class="st48" d="M13.31,37.93c0.03-0.66,0.24-1.35,0.13-2.03c2.5-0.06,1.92-0.26,2.03-0.25c0.12,0,0.14,0.35,2.28,0.32
					c0,1.08,0,1.08,0,2.15c-0.19,0.43-2,0.03-2.22,0.19c-0.51,0.36,1.12,2.43-2.03,1.9C13.2,40.08,13.29,38.3,13.31,37.93z"/>
				<path class="st49" d="M13.43,35.9c0.11,0.68-0.1,1.37-0.13,2.03c-1.65,0-1.65,0-3.3,0c0.01-0.3-0.06-1.94,0.06-2.03
					C11.19,35.88,12.32,35.93,13.43,35.9z"/>
			</g>
			<g>
				<path class="st47" d="M12.8,12.84c0,1.3,0,1.3,0,2.6c0.1,0.14,1.25,0.04,1.52,0.06c0.88,0.09,1.66,0.09,2.53,0.13
					c0,1.36,0,1.36,0,2.72c1.2,0.1,1.2,0.1,2.41,0.19c0.06,0.91,0.22,1.81,0.13,2.72c1.2-0.03,1.2-0.03,2.41-0.06
					c0.13,0.13,0.13,0.13,0.25,0.25c-0.06,1.68-0.06,1.68-0.13,3.36c1.46,0.03,1.46,0.03,2.91,0.06c0.01,0.5,0.13,0.36,0.13,0.38
					c0.02,1.98,0,3.97,0,5.96c0,0.82-0.13,1.69-0.13,2.53c0.01,0.99-0.01,1.99,0,2.98c0.44,0.07,0.36,0.18,0.38,0.19
					c0,4.5,0,4.5,0,9c-0.13,0-0.25,0-0.38,0c-0.49,0-1.93-0.31-2.34-0.13c-0.74,0.33,1.08,1.94-2.15,1.52
					c-0.06,1.33-0.06,1.33-0.13,2.66c-2.66,0-2.66,0-5.32,0c-0.1,2.6-0.1,2.6-0.19,5.2c-1.13-0.13-2.3,0.12-3.42,0.13
					c-0.46,0-0.93,0-1.39,0c-0.9-0.01-1.87-0.26-2.79-0.13c0-0.19-0.25-0.09-0.25-0.19c0-1.15-0.13-2.3-0.13-3.42
					c0-0.82,0.25-1.09,0.25-1.96c1.52-0.03,1.52-0.03,3.04-0.06c0.08-3.86-0.11-7.74,0-11.6c1.65,0,1.65,0,3.3,0
					c-0.02,0.37-0.11,2.15,0.19,2.28c3.15,0.53,1.52-1.54,2.03-1.9c0.22-0.16,2.03,0.24,2.22-0.19c0-1.08,0-1.08,0-2.15
					c-2.14,0.03-2.16-0.31-2.28-0.32c-0.03-1.2-0.03-1.2-0.06-2.41c-2.63-0.06-2.63-0.06-5.26-0.13c0.01-0.1-0.14-1.45-0.13-1.96
					c0-0.1-0.26,0-0.25-0.19c0-0.01,0.25,0.04,0.25-0.06c0.03-2.62,0.09-5.3,0-7.92c0.91-0.1,1.66,0.26,1.77-0.19
					c-0.09-0.62,0.14-4.86-0.06-5.01c-0.07-0.05-1.66-0.01-1.71,0.06c-0.09,0.12,0.07,2.63-0.06,2.72
					c-1.24,0.06-1.24,0.06-2.47,0.13c-0.12-0.02-0.28,0.03-0.38,0c-0.14-0.04-0.2-0.18-0.38-0.13c0.05-1.92-0.06-3.85,0-5.77
					c0-0.09,0.25-0.17,0.25-0.19c1.46,0.03,1.46,0.03,2.91,0.06c0.21-1.04-0.46-5.15,0.44-5.39c1.48-0.39,0.81,1.21,0.95,3.36
					C11.74,12.63,12.38,12.84,12.8,12.84z"/>
				<path class="st48" d="M14.51,19.3c1.13-0.8,1.56,1.22,1.14,1.52C14.52,21.62,14.09,19.6,14.51,19.3z"/>
			</g>
		</g>
		<path class="st36" d="M24.46,8.78c0.06,0.06,0.06,0.06,0.13,0.13c0,1.93,0,1.93,0,3.87c-0.14,0.32-2.35,0.19-2.79,0.19
			c-2.44-0.01-4.9-0.26-7.35-0.13c-0.06-0.06-0.06-0.06-0.13-0.13c-0.01-0.38,0.02-0.76,0-1.14c2.31,0,2.31,0,4.63,0
			c0.03-1.33,0.03-1.33,0.06-2.66c0.38,0,0.81-0.13,1.14-0.13C21.57,8.78,23.03,9.15,24.46,8.78z"/>
		<path class="st46" d="M19.01,8.91c-0.03,1.33-0.03,1.33-0.06,2.66c-2.31,0-2.31,0-4.63,0c-0.05-0.91,0.09-1.77,0.13-2.66
			c1.3,0.13,2.64-0.13,3.93-0.13C18.42,8.78,18.5,8.91,19.01,8.91z"/>
		<path class="st36" d="M43.6,56.18c-0.03,0.27-0.05,1.94,0.19,2.03c0.65,0,1.31,0,1.96,0c0,1.46,0,1.46,0,2.91
			c-0.01,0,0.08,0.12-0.25,0.13c-0.97,0.01-1.94,0-2.91,0c-0.06-0.45,0.08-2.61,0-2.72c-0.06-0.08-1.52-0.11-1.58-0.06
			c-0.17,0.12,0,2.39-0.06,2.79c-0.89,0-1.77,0.01-2.66,0c-0.07-0.64,0.1-2.13,0-2.41c-0.19-0.53-0.6-0.08-0.76-0.32
			c-0.09-0.13,0.2-2.7,0.06-3.23c0.47,0.06,2.92-0.09,3.04,0C40.99,55.55,39.51,56.45,43.6,56.18z"/>
		<path class="st54" d="M38.27,58.84c0.1,0.28-0.07,1.77,0,2.41c-0.1,0-0.72,0.35-1.9-0.06c-0.18-0.3,0.14-1.94,0.13-2.34
			C37.39,58.84,37.39,58.84,38.27,58.84z"/>
		<path class="st55" d="M42.58,61.25c-0.55,0-1.1,0-1.65,0c0.06-0.4-0.1-2.67,0.06-2.79c0.06-0.05,1.53-0.02,1.58,0.06
			C42.66,58.64,42.52,60.8,42.58,61.25z"/>
		<path class="st56" d="M49.05,58.21c0,1.52,0,1.52,0,3.04c-1.1,0.02-2.22-0.14-3.3-0.13c0-1.46,0-1.46,0-2.91
			c0.17,0,0.12-0.13,0.13-0.13C46.91,58.08,48.03,58.23,49.05,58.21z"/>
		<path class="st36" d="M37.13,36.79c0.01,0.85-0.35,6.21-0.13,6.53c1.33-0.03,1.33-0.03,2.66-0.06c0.13,0.13,0.13,0.13,0.25,0.25
			c-0.06,1.11-0.06,1.11-0.13,2.22c0.57,0.47,2.01,0.06,2.15,0.06c0.85,0.03,1.73,0.24,2.6,0.13c0.13-0.08,0.04-0.37,0.06-0.51
			c0.16,0.41,0.42,0.44,0.89,0.51c0.03,1.71,0.03,1.71,0.06,3.42c1.81-0.06,1.81-0.06,3.61-0.13c0.04,0.35,0.46,0.87,0.51,0.89
			c-0.58-0.28-0.36,1.19-0.38,2.79c-1.03,0-2.07,0-3.1,0c-0.1,0-0.05,0.25-0.06,0.25c-0.19,0-0.09-0.25-0.19-0.25
			c-1.9,0-3.8,0-5.7,0c-0.1-3.01-0.1-3.01-0.19-6.02c-3.02,0.15-1.51-0.88-1.96-1.2c-0.24-0.17-5.07,0.13-5.83,0
			c-0.1-1.33-0.1-1.33-0.19-2.66c0.11-0.03,0.31,0.06,0.38-0.06c0.05-0.09-0.02-0.69,0-0.95c2.95,0.48,1.63-1.09,1.9-5.01
			c0.23-0.52,2.47,0.18,2.53-0.44C36.88,36.56,37.13,36.6,37.13,36.79z"/>
		<path class="st48" d="M49.3,47.56c-0.03-0.71,0.13-1.42-0.19-1.65c-0.27-0.12-2.87,0.1-3.61,0c-0.46-0.06-0.72-0.09-0.89-0.51
			c0.07-0.36-0.02-1.3,0-1.9c0-0.04,0-0.08,0-0.13c0.63,0.06,0.63,0.06,1.27,0.13c0,0.72,0.1,1.63-0.19,2.28c1.65,0,1.65,0,3.3,0
			c0.69-3.99-1.13-1.99-1.9-2.53c-0.49-0.35,0.86-3.26-1.2-2.66c0.04-1.27,0.09-2.53,0.13-3.8c0-0.06,0.22,0.43,0.25-1.01
			c2.59-0.11,1.71-0.05,1.96,2.28c1.17,0.1,1.17,0.1,2.34,0.19c-0.1,1.19,0.16,9.12-0.19,9.44C50.33,47.73,49.37,47.9,49.3,47.56z"
			/>
		<path class="st35" d="M49.3,47.56c0.03,0.66,0.06,1.56-0.13,1.65c-1.81,0.06-1.81,0.06-3.61,0.13c-0.03-1.71-0.03-1.71-0.06-3.42
			c0.74,0.1,3.34-0.12,3.61,0C49.43,46.15,49.27,46.86,49.3,47.56z"/>
		<path class="st46" d="M48.79,24.75c0,0.08,0.4,0.03,0.25,1.52c-1.9,0.42,0.61,2.98,0.51,0.13c0.34-0.02,1.87-0.16,1.96-0.13
			c0.17,0.06,1.11,1.89-1.77,1.39c-0.6,1.54,0.62,1.78-1.71,1.65c-0.29-0.35,0.01-1.63-0.19-1.77c-0.09-0.06-1.2,0.04-1.58,0
			c-0.02-0.92-0.22-1.87,0-2.79C47.09,24.82,47.95,24.7,48.79,24.75z"/>
		<path class="st48" d="M48.03,29.31c-0.72,3.27,0.74,4.63-1.77,4.44c0.04-2.06,0.03-4.15,0-6.21c0.38,0.04,1.5-0.06,1.58,0
			C48.05,27.68,47.74,28.96,48.03,29.31z"/>
		<path class="st46" d="M51.33,20.95c0,0.26,0.1,1.93,0.13,2.03c-1.2,0-1.2,0-2.41,0C49.2,20.94,48.48,20.85,51.33,20.95z"/>
		<path class="st46" d="M53.73,23.1c0.57,1.69-2.07,1.86-1.77,0.38C52.16,22.49,53.05,23.14,53.73,23.1z"/>
		<path class="st48" d="M49.55,26.4c0.1,2.86-2.41,0.29-0.51-0.13C49.2,26.24,49.53,26.4,49.55,26.4z"/>
		<path class="st36" d="M49.3,55.29c0,0.87-0.11,1.82,0.13,2.66c-0.02,0-0.2,0.25-0.38,0.25c-1.01,0.02-2.13-0.13-3.17-0.13
			c-0.06-1.39-0.06-1.39-0.13-2.79c0.27-0.01,0.29-0.12,0.38-0.13C47.14,55.14,48.26,55.45,49.3,55.29z"/>
		<path class="st36" d="M40.68,24.88c-2.54-0.04-5.07,0.1-7.6,0.13c0.05-0.41-0.07-1.99,0-2.09c0.14-0.2,2.83,0.04,2.98-0.06
			c0.58-0.41-1.82-1.47,4.44-1.14C40.59,23.29,40.59,23.29,40.68,24.88z"/>
		<path class="st57" d="M44.61,33.5c0,0.85-0.25,2.97,0.38,3.3c-0.02,0-0.05,0.15-0.38,0.25c-0.01-0.2-0.25-0.24-0.25-0.25
			c-0.03-0.44,0.08-3.07-0.06-3.17c-1.17,0.03-1.17,0.03-2.34,0.06c-0.06,1.55-0.06,1.55-0.13,3.1c-2.34,0-2.34,0-4.69,0
			c0-0.19-0.25-0.24-0.25-0.25c-0.02-1.01,0.16-2.03,0-3.04c0.84,0.03,1.69-0.01,2.53,0c0.67,0.4-0.11,2.8,0.44,3.04
			c0.11,0.05,1.78,0.01,1.84-0.06c0.09-0.12,0.03-2.47-0.13-2.98c0.27,0,0.28-0.13,0.38-0.13C42.81,33.37,43.73,33.63,44.61,33.5z"
			/>
		<path class="st46" d="M46,36.79c-0.03,1.27-0.08,2.53-0.13,3.8c-0.03,0.97,0,1.95,0,2.91c-0.63-0.06-0.63-0.06-1.27-0.13
			c0.05-1.75,0.1-4.71,0-6.34c0.33-0.1,0.36-0.25,0.38-0.25C45.26,36.73,45.69,36.83,46,36.79z"/>
		<path class="st58" d="M41.95,30.96c0.89,0,1.77,0,2.66,0c0.01,0.86,0,1.68,0,2.53c-0.88,0.13-1.8-0.13-2.66-0.13
			c-0.09-0.94,0.23-2.06-0.25-2.41C41.78,30.96,41.86,30.96,41.95,30.96z"/>
		<path class="st40" d="M49.3,52.89c-0.01,0.8,0,1.61,0,2.41c-1.03,0.16-2.16-0.16-3.17-0.13c0-1.01,0-1.01,0-2.03
			c0.01,0-0.04-0.25,0.06-0.25C47.23,52.88,48.26,52.89,49.3,52.89z"/>
		<path class="st59" d="M45.75,55.29c0.06,1.39,0.06,1.39,0.13,2.79c-0.01,0,0.04,0.13-0.13,0.13c-0.65,0-1.31,0-1.96,0
			c-0.24-0.08-0.22-1.76-0.19-2.03c0.03-0.32-0.12-0.67,0.19-0.89C44.44,55.27,45.1,55.32,45.75,55.29z"/>
		<path class="st46" d="M34.47,27.41c0.03,1.22-0.04,2.45,0,3.68c0.01,0.36-0.07,2.32,0.06,2.41c0.78,0.02,1.56-0.03,2.34,0
			c0.16,1.01-0.02,2.03,0,3.04c-0.07,0.62-2.31-0.07-2.53,0.44c-0.27,3.92,1.05,5.49-1.9,5.01c0.12-1.63-0.09-3.37,0-5.01
			c-0.09-0.13-2.51-0.05-2.91-0.06c0.16-1.7-0.47-3.28,0.63-3.3c0.74-0.03,2.26,0.14,2.41-0.19c0.02-0.78-0.02-1.56,0-2.34
			c0.04-1.2-0.03-2.41,0-3.61C32.66,27.35,34.18,27.42,34.47,27.41z"/>
		<path class="st60" d="M39.41,30.83c0.1,0,0.11,0.13,0.38,0.13c-0.06,1.27-0.06,1.27-0.13,2.53c-0.08,0-0.17,0-0.25,0
			c-0.84-0.01-1.69,0.03-2.53,0c-0.78-0.03-1.56,0.02-2.34,0c-0.13-0.09-0.05-2.05-0.06-2.41c0.38-0.22,0.85-0.12,1.27-0.13
			c1.01-0.02,1.32-0.13,1.39-0.13C37.88,30.83,38.66,30.83,39.41,30.83z"/>
		<path class="st46" d="M29.91,30.96c-0.19,0.19-0.19,0.19-0.38,0.38c-0.35-0.3-1.75,0.02-1.9-0.19c-0.1-0.15,0.03-3.13,0.06-3.61
			C29.85,27.47,30.29,26.92,29.91,30.96z"/>
		<path class="st46" d="M41.95,30.96c-0.08,0-0.17,0-0.25,0c-0.63,0-1.27,0-1.9,0c-0.27,0-0.28-0.13-0.38-0.13c0-1.49,0-1.49,0-2.98
			c1.17-0.1,1.17-0.1,2.34-0.19C41.85,29.31,41.85,29.31,41.95,30.96z"/>
		<path class="st61" d="M30.16,33.62c-1.1,0.01-0.48,1.6-0.63,3.3c-0.8-0.02-1.61,0.03-2.41,0c0-1.58,0-1.58,0-3.17
			c0.49,0,0.36-0.13,0.38-0.13c0.68-0.01,1.36-0.11,2.03-0.13C29.59,33.49,29.66,33.64,30.16,33.62z"/>
		<path class="st58" d="M32.57,31.09c-0.02,0.78,0.02,1.56,0,2.34c-0.15,0.33-1.67,0.16-2.41,0.19c-0.5,0.02-0.58-0.13-0.63-0.13
			c0-1.08,0-1.08,0-2.15c0.19-0.19,0.19-0.19,0.38-0.38C31.24,31.02,31.24,31.02,32.57,31.09z"/>
		<path class="st46" d="M37.13,30.83c-0.07,0-0.38,0.1-1.39,0.13c0-1.77,0-1.77,0-3.55c0.5,0.03,1.25-0.12,1.39,0.19
			C37.13,29.22,37.13,29.22,37.13,30.83z"/>
		<path class="st37" d="M35.74,27.41c0,1.77,0,1.77,0,3.55c-0.42,0.01-0.89-0.09-1.27,0.13c-0.04-1.22,0.03-2.45,0-3.68
			C34.89,27.4,35.33,27.39,35.74,27.41z"/>
		<g>
			<path class="st35" d="M24.84,45.92c0,1.93,0,1.93,0,3.87c-1.39,0.13-1.39,0.13-2.79,0.25c0,2.09,0,2.09,0,4.18
				c-1.14,0.19-1.14,0.19-2.28,0.38c0,1.58,0,1.58,0,3.17c-2.53,0.03-2.53,0.03-5.07,0.06c0-1.33,0-1.33,0-2.66
				c0.1-2.6,0.1-2.6,0.19-5.2c2.66,0,2.66,0,5.32,0c0.06-1.33,0.06-1.33,0.13-2.66c3.23,0.42,1.41-1.19,2.15-1.52
				C22.9,45.61,24.35,45.91,24.84,45.92z"/>
			<path class="st46" d="M17.3,52.38c0.1-0.04,1.46-0.08,1.58,0.19c-0.14,1.88,0.75,3.51-1.77,2.66
				C17.2,54.79,16.91,52.55,17.3,52.38z"/>
		</g>
		<g>
			<path class="st35" d="M27.12,36.92c0.8,0.03,1.61-0.02,2.41,0c0.41,0.01,2.82-0.07,2.91,0.06c-0.09,1.64,0.12,3.38,0,5.01
				c-0.02,0.26,0.05,0.86,0,0.95c-0.07,0.12-0.27,0.04-0.38,0.06c-0.22,0.05-0.9-0.09-1.01,0.06c-0.08,0.12,0.07,2.42-0.19,2.85
				c-1.88-0.01-3.76,0.01-5.64,0c0-4.5,0-4.5,0-9C25.41,36.98,26.6,36.9,27.12,36.92z"/>
			<path class="st46" d="M27.82,39.33c1.11,0.1,1.11,0.1,2.22,0.19c-0.1,1.74-0.1,1.74-0.19,3.49c-1.11-0.03-1.11-0.03-2.22-0.06
				C27.72,41.13,27.72,41.13,27.82,39.33z"/>
		</g>
		<g>
			<path class="st35" d="M41.82,36.79c1.27,0,1.27,0,2.53,0c0,0.02,0.24,0.05,0.25,0.25c0.1,1.63,0.05,4.59,0,6.34
				c0,0.04,0,0.08,0,0.13c-1.27-0.06-1.27-0.06-2.53-0.13c-0.1-1.77-0.1-1.77-0.19-3.55c-1.11,0.03-1.11,0.03-2.22,0.06
				c0,1.68,0,1.68,0,3.36c-1.33,0.03-1.33,0.03-2.66,0.06c-0.23-0.32,0.14-5.68,0.13-6.53C39.48,36.79,39.48,36.79,41.82,36.79z"/>
			<path class="st46" d="M42.08,43.38c-0.06,0.06-0.06,0.06-0.13,0.13c-1.01,0-1.01,0-2.03,0c-0.13-0.13-0.13-0.13-0.25-0.25
				c0-1.68,0-1.68,0-3.36c1.11-0.03,1.11-0.03,2.22-0.06C41.98,41.61,41.98,41.61,42.08,43.38z"/>
			<path class="st62" d="M44.61,43.51c-0.02,0.6,0.07,1.54,0,1.9c-0.03,0.14,0.06,0.43-0.06,0.51c-0.87,0.11-1.74-0.09-2.6-0.13
				c0-1.14,0-1.14,0-2.28c0.06-0.06,0.06-0.06,0.13-0.13C43.34,43.44,43.34,43.44,44.61,43.51z"/>
			<path class="st35" d="M41.95,43.51c0,1.14,0,1.14,0,2.28c-0.15-0.01-1.58,0.4-2.15-0.06c0.06-1.11,0.06-1.11,0.13-2.22
				C40.93,43.51,40.93,43.51,41.95,43.51z"/>
		</g>
		<g>
			<path class="st35" d="M55.51,12.58c-0.05,0.71,0,1.44,0,2.15c-0.01,1.25,0,2.49,0,3.74c-1.93,0.03-1.93,0.03-3.87,0.06
				c-0.16,0.07-0.32,2.12-0.32,2.41c-2.85-0.1-2.13-0.01-2.28,2.03c-0.04,0.56,0,1.15,0,1.71c0,0.1-0.25,0.05-0.25,0.06
				c-0.84-0.05-1.7,0.07-2.53,0c-0.21-0.02-0.92,0.07-1.01-0.06c0-1.71,0-1.71,0-3.42c0.2-0.3,0.49-0.16,0.76-0.19
				c0.48-0.06,2.92,0.11,3.04-0.06c0.03-4.21,0.03-4.21,0.06-8.43C52.31,12.58,52.31,12.58,55.51,12.58z"/>
			<path class="st46" d="M51.64,14.87c0.16-0.07,1.35-0.05,1.46,0.19c0.07,0.15,0.07,3.24-0.19,3.36c-0.16,0.07-1.35,0.05-1.46-0.19
				C51.39,18.07,51.38,14.98,51.64,14.87z"/>
		</g>
		<g>
			<path class="st35" d="M56.52,49.97c0.12,0,0.13,0.12,0.25,0.13c-0.01,0.89,0.01,1.77,0,2.66c-0.01,0.42,0.08,0.89-0.13,1.27
				c-0.27,0.01-1.56-0.07-1.65,0.06c-0.1,1.93-0.1,1.93-0.19,3.87c-1.79,0.05-3.6-0.07-5.39,0c-0.23-0.85-0.13-1.79-0.13-2.66
				c0-0.8-0.01-1.61,0-2.41c0.02-1.6-0.2-3.06,0.38-2.79C50,50.21,54.43,49.91,56.52,49.97z"/>
			<path class="st46" d="M51.64,52.51c2.17-0.97,1.46,2.83,1.27,2.91C50.74,56.39,51.45,52.59,51.64,52.51z"/>
		</g>
		<path class="st48" d="M45.88,43.51c0-0.97-0.03-1.95,0-2.91c2.07-0.6,0.71,2.31,1.2,2.66c0.77,0.55,2.59-1.46,1.9,2.53
			c-1.65,0-1.65,0-3.3,0C45.98,45.14,45.88,44.23,45.88,43.51z"/>
		<path class="st46" d="M44.36,36.79c-1.27,0-1.27,0-2.53,0c0.06-1.55,0.06-1.55,0.13-3.1c1.17-0.03,1.17-0.03,2.34-0.06
			C44.43,33.72,44.32,36.35,44.36,36.79z"/>
		<path class="st57" d="M39.67,33.5c0.63,0,1.27,0,1.9,0c0.15,0.51,0.21,2.86,0.13,2.98c-0.05,0.07-1.72,0.11-1.84,0.06
			c-0.55-0.25,0.22-2.65-0.44-3.04C39.5,33.5,39.58,33.5,39.67,33.5z"/>
		<path class="st35" d="M41.69,30.96c0.49,0.34,0.16,1.47,0.25,2.41c-0.1,0-0.11,0.13-0.38,0.13c-0.63,0-1.27,0-1.9,0
			c0.06-1.27,0.06-1.27,0.13-2.53C40.43,30.96,41.06,30.96,41.69,30.96z"/>
	</g>
</g>
</svg>
