<?xml version="1.0" encoding="utf-8"?>
<!-- Generator: Adobe Illustrator 28.0.0, SVG Export Plug-In . SVG Version: 6.00 Build 0)  -->
<svg version="1.1" id="Camada_1" xmlns="http://www.w3.org/2000/svg" xmlns:xlink="http://www.w3.org/1999/xlink" x="0px" y="0px"
	 viewBox="0 0 66.05 40.78" style="enable-background:new 0 0 66.05 40.78;" xml:space="preserve"> 
<style type="text/css">
	.st0{display:none;}
	.st1{display:inline;fill:#B0B6BC;}
	.st2{display:inline;fill:#C4C9CF;}
	.st3{display:inline;fill:#FAFAFA;}
	.st4{fill:url(#SVGID_1_);}
	.st5{fill:#466084;}
	.st6{fill:#2E3F71;}
	.st7{fill:#6D87B1;}
	.st8{fill:#FAFAFA;}
	.st9{fill:#0D152B;}
	.st10{fill:#506D9F;}
	.st11{fill:#0C0C0A;}
	.st12{fill:#909EC3;}
	.st13{fill:url(#SVGID_00000084512557408015200730000012076315328287721371_);}
	.st14{fill:#A4B2D5;}
	.st15{fill:#DEE3E9;}
	.st16{fill:#C3D5E8;}
	.st17{fill:#C5D0EC;}
	.st18{fill:#B8ECFD;}
	.st19{fill:#E0EBFD;}
	.st20{fill:#6496D5;}
	.st21{fill:#7DA2C4;}
	.st22{fill:#122F56;}
	.st23{fill:#9FC9EA;}
	.st24{fill:#9DB9D8;}
	.st25{fill:#2098CC;}
	.st26{fill:#8EE6F8;}
	.st27{fill:#154578;}
	.st28{fill:#255695;}
	.st29{fill:#7AC3E7;}
	.st30{fill:#D5F2FB;}
	.st31{fill:#43AAD3;}
	.st32{fill:#0C121A;}
	.st33{fill:#1765A0;}
	.st34{fill:#A3D9F3;}
	.st35{fill:#0A0909;}
	.st36{fill:#EDD1BC;}
	.st37{fill:#F7E3CD;}
	.st38{fill:#BA9A9C;}
	.st39{fill:#937988;}
	.st40{fill:#A98E98;}
	.st41{fill:#D2B0A2;}
	.st42{fill:#B92E33;}
	.st43{fill:#EA6A4B;}
	.st44{fill:#E05345;}
	.st45{fill:#DA7B40;}
	.st46{fill:#FAF8F7;}
	.st47{fill:#BABBBD;}
	.st48{fill:#D7D5D7;}
	.st49{fill:#908F9B;}
	.st50{fill:#AAA5AD;}
	.st51{fill:#4D9290;}
	.st52{fill:#BEAAAE;}
	.st53{fill:#5E5F74;}
	.st54{fill:#645B73;}
	.st55{fill:#807997;}
	.st56{fill:#480B02;}
	.st57{fill:#C9CCAC;}
	.st58{fill:#E17C1F;}
	.st59{fill:#A08EA4;}
	.st60{fill:#B86F35;}
	.st61{fill:#E9C8A4;}
	.st62{fill:#9E2611;}
	.st63{display:inline;fill:#EAEBEE;}
	.st64{fill:#3F3B42;}
	.st65{fill:#484856;}
	.st66{fill:#F1865F;}
	.st67{fill:#E25D43;}
	.st68{fill:#190F0D;}
	.st69{fill:#080706;}
	.st70{fill:#BAB8B4;}
	.st71{fill:#7889A1;}
	.st72{fill:#28262F;}
	.st73{fill:#131822;}
	.st74{fill:#536F8D;}
	.st75{fill:#C73C3A;}
	.st76{fill:#A19D9E;}
	.st77{fill:#92888E;}
	.st78{fill:#73341B;}
	.st79{fill:#4A1C1F;}
	.st80{fill:#A91D24;}
	.st81{fill:#48120B;}
	.st82{fill:#A15330;}
	.st83{fill:#250C09;}
	.st84{fill:#19151D;}
	.st85{fill:#831A19;}
	.st86{fill:#671819;}
	.st87{fill:#D46E28;}
	.st88{fill:#E99F35;}
	.st89{fill:#E79546;}
	.st90{fill:#994F40;}
	.st91{fill:#D2CBC6;}
	.st92{fill:#BB4930;}
	.st93{fill:#37485C;}
	.st94{fill:#495B6E;}
	.st95{fill:#25170E;}
	.st96{fill:#202935;}
	.st97{fill:#632112;}
	.st98{fill:#3F4862;}
	.st99{fill:#B5A9A5;}
	.st100{fill:#7D7F83;}
	.st101{fill:#869DB4;}
	.st102{fill:#283951;}
	.st103{fill:#89432B;}
	.st104{fill:#65738D;}
	.st105{fill:#2B2526;}
	.st106{fill:#A63E28;}
	.st107{fill:#F4C774;}
	.st108{fill:#8E4B1C;}
	.st109{fill:#30180E;}
	.st110{fill:#AE6226;}
	.st111{fill:#BE7A2B;}
	.st112{fill:#F3A959;}
	.st113{fill:#513018;}
	.st114{fill:#DCAC41;}
	.st115{fill:#203342;}
	.st116{fill:#C7CCCF;}
	.st117{fill:#96BCCE;}
	.st118{fill:#131729;}
	.st119{fill:#90352A;}
	.st120{fill:#773138;}
	.st121{fill:#688398;}
	.st122{fill:#344A71;}
	.st123{fill:#375F91;}
	.st124{fill:#693611;}
	.st125{fill:#646A73;}
	.st126{display:inline;fill:#B5B8BC;}
	.st127{display:inline;fill:#F8F9F9;}
	.st128{display:inline;fill:#D0D3D7;}
	.st129{fill:#F8F9F9;}
	.st130{fill:#090908;}
	.st131{fill:#AD2C3E;}
	.st132{fill:#D0D3D7;}
	.st133{fill:#43120C;}
	.st134{fill:#3D171A;}
	.st135{fill:#5E1E15;}
	.st136{fill:#EEC89C;}
	.st137{fill:#FBC3E5;}
	.st138{fill:#CB545A;}
	.st139{fill:#CD6076;}
	.st140{fill:#20191C;}
	.st141{fill:#8E706C;}
	.st142{fill:#B69E98;}
	.st143{fill:#2F2831;}
	.st144{fill:#725B5C;}
	.st145{fill:#A52349;}
	.st146{fill:#EBD4B4;}
	.st147{fill:#C33C28;}
	.st148{fill:#99817B;}
	.st149{fill:#FCC49A;}
	.st150{fill:#3B2E30;}
	.st151{fill:#D2988D;}
	.st152{fill:#DE6D13;}
	.st153{fill:#D04619;}
	.st154{fill:#F4BC55;}
	.st155{fill:#321F30;}
	.st156{fill:#DED0C9;}
	.st157{fill:#897F66;}
	.st158{fill:#4D3C3C;}
	.st159{fill:#5D5050;}
	.st160{fill:#968271;}
	.st161{fill:#5E4648;}
	.st162{fill:#C1B8B6;}
	.st163{fill:#C7CFC6;}
	.st164{fill:#F8B26A;}
	.st165{fill:#CF5C10;}
	.st166{fill:#F2A83B;}
	.st167{fill:#EBED55;}
	.st168{fill:#F2CB56;}
	.st169{fill:#FCE8A0;}
	.st170{fill:#240601;}
	.st171{fill:#295687;}
	.st172{fill:#59769C;}
	.st173{fill:#85A2C8;}
	.st174{fill:#1A2952;}
	.st175{fill:#376499;}
	.st176{fill:#F3E97D;}
	.st177{fill:#F3901B;}
	.st178{fill:#3F4D71;}
	.st179{fill:#254072;}
	.st180{fill:#7789AA;}
	.st181{fill:#7294B3;}
	.st182{fill:#546186;}
	.st183{fill:#8F867F;}
	.st184{fill:#D97B7B;}
	.st185{fill:#EECFBB;}
	.st186{fill:#AD2C68;}
	.st187{fill:#D47763;}
	.st188{fill:#EAB4A0;}
	.st189{fill:#E0BBB2;}
	.st190{fill:#EDE4E1;}
	.st191{fill:#D1A798;}
	.st192{fill:#CABFAF;}
	.st193{fill:#7B675C;}
	.st194{fill:#878A85;}
	.st195{fill:#BC8D7E;}
	.st196{fill:#693B1E;}
	.st197{fill:#3D1D05;}
	.st198{fill:#F3B8B8;}
	.st199{fill:#D1CCED;}
	.st200{fill:#C83E54;}
	.st201{fill:#84340E;}
	.st202{fill:#DACDE1;}
	.st203{fill:#E7E3EE;}
	.st204{fill:#14141A;}
	.st205{fill:#5C4B73;}
	.st206{fill:#C6B9CF;}
	.st207{fill:#81709B;}
	.st208{fill:#1F1D2E;}
	.st209{fill:#453B60;}
	.st210{fill:#4E4B64;}
	.st211{fill:#6D5F89;}
	.st212{fill:#AE9DC6;}
	.st213{fill:#B3A6B8;}
	.st214{fill:#302843;}
	.st215{fill:#121515;}
	.st216{fill:#565656;}
	.st217{fill:#858387;}
	.st218{fill:#8B8A8E;}
	.st219{fill:#5F5A66;}
	.st220{fill:#917FAC;}
</style>
<g>
	<linearGradient id="SVGID_1_" gradientUnits="userSpaceOnUse" x1="54.5559" y1="31.4733" x2="26.5618" y2="36.3042">
		<stop  offset="0" style="stop-color:#324071"/>
		<stop  offset="1" style="stop-color:#375B8F"/>
	</linearGradient>
	<path class="st4" d="M35.57,30.18c1.01,0,2.13,0.23,3.14,0.24c1.36,0.01,2.75-0.14,4.08-0.12c2.43,0.03,7.01-0.15,8.64,0
		c0.91,0.09,2.09,0.76,2.84,0.47c0.39,0.26,0.4-0.5,0.47,1.3c0,0.04-0.36,0.32,0.06,0.71c0.45-0.03,0.91,0.04,1.36,0
		c-0.06,2.37-0.06,2.37-0.12,4.73c-4.18,0.28-2.45-0.63-2.9-0.95c-0.29-0.2-3.18,0.15-3.73,0.12c-0.03,0-0.5-0.1-0.59-0.12
		c0.3-2.79-1.43-1.03-1.89-2.07c-0.09-0.19,0.37-1.28-0.95-0.89c-0.85-1.25-1.52-0.7-1.66-0.89c-0.09-0.12,0.17-0.97-0.18-1.12
		c-1.16-0.51-1.19,0.33-1.01,1.18c-6.46,0.12-12.95-0.16-19.41,0c-1.01,0.03-0.9-0.12-0.95-0.12c-0.22-0.81,1.62-0.99,2.01-2.37
		C28.38,30.07,31.99,30.18,35.57,30.18z"/>
	<path class="st5" d="M53.92,18.35c-0.02,2.18,0.08,4.34-0.12,6.51c-1.37-0.18-1.19,0.26-0.95,1.54c-0.98,0.08-2.03-0.05-3.02,0
		c-0.09,0-0.16,0.24-0.18,0.24c-0.39,0.02-0.79-0.01-1.18,0c-1.93-0.11-3.87,0.09-5.8,0.12c-0.04,0-0.08,0-0.12,0
		c0.54-1.6-1.88-0.74-4.38-0.95c-0.02-1.89,0.02-3.79,0-5.68c0.77,0,0.77,0,1.54,0c0,0.08,0,0.16,0,0.24
		c-0.07,1.39-0.18,1.97,0.83,1.78c-0.02,0.28-0.04,1.94,0.06,2.01c1.6,0.02,3.2-0.03,4.79,0c1.55,0.03,3.12,0.23,4.68,0.12
		c0.24-0.17-0.06-2.56-0.06-2.96c-0.02-2.72,0.11-1.38,1.01-1.78c0.41-0.18,0.05-0.79,0.06-0.83c0.01-0.1,0.11-0.11,0.12-0.36
		C52.56,18.35,52.56,18.35,53.92,18.35z"/>
	<path class="st6" d="M64.33,29.24c0.66,5.49-1.93,0.7-1.83,4.38c-1.95-0.06-1.95-0.06-3.91-0.12c-0.12-0.08-0.05-1.5-0.06-1.78
		c1.4,0.23,0.85-0.62,0.95-2.25c0.56-0.2,2.51-0.35,3.2-0.36C62.76,29.12,63.61,29.34,64.33,29.24z"/>
	<path class="st5" d="M60.19,18.35c-0.17,0.45-0.01,0.88,0,1.3c0.14,5.39-0.68,2.78-1.6,3.43c-0.49,0.35,0.96,2.85-1.54,2.25
		c-0.09-3.49-0.09-3.49-0.18-6.98C57.98,18.35,59.09,18.32,60.19,18.35z"/>
	<g>
		<path class="st5" d="M59.72,14.8c0.07,0-0.48,0.13,1.18,0.24c-0.07,0.33,0.16,1.51-0.18,1.66c-0.42,0.19-8.03-0.07-9.17-0.12
			c0.06-2.9,0.06-2.9,0.12-5.8c4.37-0.13,2.12,0.72,2.78,1.18c0.12,0.08,1.36-0.11,1.48,0.06c0.4,0.57-1.16,1.08,1.89,1.3
			C57.59,15.76,58.25,14.69,59.72,14.8z"/>
		<path class="st7" d="M51.67,10.77c-0.06,2.9-0.06,2.9-0.12,5.8c-0.49-0.02-0.99,0.01-1.48,0c-0.03-0.52-0.11-1.03-0.18-1.54
			c-0.05-0.43,0.04-0.92,0-1.36c-0.36-0.41-0.9-0.05-0.95-0.06c-0.04-0.01,0.38-0.08-0.71-0.12c-0.07-1.13,0.2-2.46-0.24-2.37
			c0.76-0.02,1.61-0.2,2.37-0.24C50.47,10.89,50.87,10.8,51.67,10.77z"/>
	</g>
	<path class="st6" d="M57,32.79c-0.11,1.28,0.3,0.83,0.71,0.95c0.14,0.04,0.43,0.1,0.59,0.12c-0.35,0.78,0.67,0.66,1.36,0.59
		c0.1-0.01,0.05-0.24,0.06-0.24c0.13-0.01,0.35,0.19,0.59-0.06c-0.09,1.04-0.09,1.04-0.18,2.07c-3.59-0.43-1.6,1.2-2.37,1.54
		c-0.12,0.05-1.3-0.02-1.72,0c0-0.12,0-0.12,0-0.24c0.06-2.37,0.06-2.37,0.12-4.73C56.45,32.76,56.83,32.83,57,32.79z"/>
	<path class="st8" d="M51.2,18.35c-0.01,0.25-0.11,0.26-0.12,0.36c-1.81,0-1.81,0-3.61,0c-0.03-1.6-0.03-1.6-0.06-3.2
		c1.87-0.29,0.93,0.96,1.24,1.18c0.1,0.07,1.93-0.05,2.37,0C51.3,16.81,51.2,18.05,51.2,18.35z"/>
	<path class="st9" d="M48.47,26.63c0.07,1.64,0.61,0.89,1.3,1.3c-0.18,0-0.18,0-0.36,0c-1.22-0.1-6.17,0.14-6.57,0
		c-0.09-0.03-0.06-0.15-0.06-0.24c-0.01-0.32,0.07-0.65-0.12-0.95C44.6,26.73,46.54,26.52,48.47,26.63z"/>
	<path class="st10" d="M64.45,20.95c-4.64,0.46-0.58-1.7-4.26-1.3c-0.01-0.42-0.17-0.85,0-1.3c4.34,0.12,1.87,0.45,2.6,1.48
		c0.13,0.18,1.27-0.03,1.48,0.06C64.56,20.01,64.43,20.69,64.45,20.95z"/>
	<path class="st10" d="M63.39,23.32c-0.28,6.54,0.58,4.27,0.95,4.79c0.05,0.07-0.03,0.87,0,1.12c-0.72,0.11-1.57-0.12-1.66-0.12
		c0-2.81,0-2.81,0-5.62C62.86,23.21,63.14,23.35,63.39,23.32z"/>
	<path class="st5" d="M56.05,37.52c0,0.12,0,0.12,0,0.24c-2.18,0.09-4.39-0.07-6.57,0c-0.03-0.53-0.03-0.53-0.06-1.07
		c0.55,0.03,3.44-0.32,3.73-0.12C53.6,36.89,51.87,37.8,56.05,37.52z"/>
	<path class="st10" d="M45.99,33.62c-0.14,0.04-0.31,0.21-0.36,0.36c-1.15-0.06-1.15-0.06-2.31-0.12c-0.04-0.37-0.1-0.7-0.18-1.07
		c-0.18-0.85-0.15-1.7,1.01-1.18c0.35,0.15,0.09,1,0.18,1.12C44.46,32.91,45.14,32.37,45.99,33.62z"/>
	<path class="st7" d="M48.83,36.58c-1.07-0.25-0.28-0.2-0.77-0.59c-0.06-0.05-0.52,0.05-0.59,0c-0.17-0.12,0.1-0.8-0.24-0.95
		c-0.46-0.2-2.1,0.6-1.6-1.07c0.04-0.14,0.21-0.31,0.36-0.36c1.31-0.4,0.86,0.7,0.95,0.89C47.4,35.54,49.13,33.79,48.83,36.58z"/>
	<path class="st9" d="M23.74,32.79c-0.02,0.69,0.12,1.28-0.24,1.89c-0.59,0-0.59,0-1.18,0c-0.04-0.21-0.44-0.48-0.47-0.83
		c-0.08-0.87,0.18-1.1,0.95-1.18C22.84,32.66,22.73,32.81,23.74,32.79z"/>
	<path class="st10" d="M59.48,29.47c-0.1,1.63,0.45,2.48-0.95,2.25c0-0.08,0-0.16,0-0.24c0-0.65,0-1.3,0-1.95
		C59.01,29.5,59.01,29.5,59.48,29.47z"/>
	<path class="st10" d="M57.71,32.31c-0.93,0.18-0.66,0.46-0.71,0.47c-0.17,0.04-0.55-0.02-0.83,0c-0.45,0.04-0.91-0.03-1.36,0
		c-0.42-0.39-0.06-0.67-0.06-0.71C55.3,32.17,57.5,31.86,57.71,32.31z"/>
	<path class="st8" d="M49.89,15.03c-1.27,0.1-0.91-0.04-0.95-1.42c0.05,0.01,0.59-0.35,0.95,0.06
		C49.93,14.11,49.84,14.6,49.89,15.03z"/>
	<path class="st7" d="M57.71,33.73c-0.41-0.11-0.82,0.34-0.71-0.95c0.05-0.01-0.22-0.29,0.71-0.47
		C57.78,32.47,57.66,33.35,57.71,33.73z"/>
	<path class="st7" d="M59.72,34.21c-0.01,0,0.04,0.23-0.06,0.24c-0.7,0.07-1.71,0.18-1.36-0.59C59.09,33.97,59.86,33.58,59.72,34.21
		z"/>
	<g>
		<path class="st11" d="M55.69,40.78c-1.93,0.07,0.54-2.23-3.02-1.12c0.03-0.78-1.14-0.45-1.72-0.47c-0.26-0.01-1.31,0.04-1.36,0
			c-0.19-0.13,0.12-1.02-0.24-1.18c-0.24-0.11-2,0.11-2.25,0c-0.57-0.25,0.81-0.84-1.83-0.95c0.39-2.05-1.29-0.84-2.07-1.18
			c-0.37-0.16-0.04-1.16-0.24-1.3c-0.56-0.39-17.73,0.12-19.47,0.12c0.35-0.61,0.22-1.2,0.24-1.89c6.46-0.16,12.95,0.12,19.41,0
			c0.08,0.37,0.14,0.7,0.18,1.07c1.15,0.06,1.15,0.06,2.31,0.12c-0.5,1.67,1.14,0.86,1.6,1.07c0.34,0.15,0.07,0.83,0.24,0.95
			c0.07,0.05,0.53-0.05,0.59,0c0.49,0.39-0.3,0.34,0.77,0.59c0.09,0.02,0.56,0.12,0.59,0.12c0.03,0.53,0.03,0.53,0.06,1.07
			c2.18-0.07,4.39,0.09,6.57,0c0.41-0.02,1.6,0.05,1.72,0c0.76-0.34-1.22-1.97,2.37-1.54c0.09-1.04,0.09-1.04,0.18-2.07
			c-0.24,0.25-0.47,0.05-0.59,0.06c0.15-0.63-0.63-0.24-1.42-0.36c-0.16-0.02-0.45-0.08-0.59-0.12c-0.05-0.39,0.07-1.26,0-1.42
			c-0.2-0.46-2.41-0.14-2.96-0.24c-0.08-1.8-0.08-1.04-0.47-1.3c-0.4-0.27-1.92-0.96-3.08-1.66c-0.24-0.15-0.47-0.32-0.71-0.47
			c-0.31-0.2-0.6-0.32-0.71-0.71c-0.69-0.41-1.23,0.34-1.3-1.3c0.39-0.01,0.79,0.02,1.18,0c0.21,1.18,3.91,2.89,5.5,3.79
			c0.08,0.05,0.42-0.05,0.47,0c0.46,0.41-1.25,1.35,2.9,1.07c0,0.08,0,0.16,0,0.24c0.01,0.27-0.06,1.69,0.06,1.78
			c1.95,0.06,1.95,0.06,3.91,0.12c-0.1-3.68,2.5,1.12,1.83-4.38c-0.03-0.26,0.05-1.05,0-1.12c-0.36-0.52-1.23,1.75-0.95-4.79
			c0.93-0.13,1.29,0.67,1.07-2.37c-0.02-0.26,0.11-0.94-0.18-1.07c-0.21-0.09-1.35,0.12-1.48-0.06c-0.73-1.03,1.73-1.36-2.6-1.48
			c-1.1-0.03-2.21,0-3.31,0c-0.99,0-1.97,0-2.96,0c-1.36,0-1.36,0-2.72,0c0.01-0.29,0.1-1.53-0.18-1.66c-0.44-0.05-2.27,0.07-2.37,0
			c-0.32-0.22,0.62-1.47-1.24-1.18c0-0.95,0-0.95,0-1.89c0.04,0-0.06-0.15,0.83-0.12c1.09,0.03,0.67,0.11,0.71,0.12
			c0.04,1.38-0.33,1.52,0.95,1.42c0.06,0.51,0.15,1.02,0.18,1.54c0.49,0.01,0.99-0.02,1.48,0c1.14,0.05,8.75,0.3,9.17,0.12
			c0.34-0.15,0.11-1.33,0.18-1.66c0.32,0.02,1.92-0.07,2.01,0.06c0.03,1.75,0.03,1.75,0.06,3.49c1.51,0.03,1.51,0.03,3.02,0.06
			c-0.14,0.82,0.18,6.13,0,6.39c-0.12,0.17-1.06-0.05-1.18,0.12c-0.07,0.1-0.07,2.38,0,2.49c0.12,0.17,1.06-0.05,1.18,0.12
			c0.18,0.25-0.18,5.57,0,6.1c-0.53,0.24-1.37,0.08-2.01,0.12c-0.55,0.03-1.09-0.12-1.3,0.18c0,1.66,0,1.66,0,3.31L55.69,40.78z"/>
		<g>
			<path class="st7" d="M54.27,30.78c-0.75,0.29-1.93-0.39-2.84-0.47c-0.26-0.14-0.4-0.41-0.59-0.59c0.18-0.3,0.18-0.3,0.36-0.59
				C52.36,29.82,53.87,30.5,54.27,30.78z"/>
			<path class="st12" d="M49.78,27.93c0.11,0.39,0.4,0.51,0.71,0.71c-0.18,0.18-0.18,0.18-0.36,0.36c-0.16-0.14-0.63,0.54-0.71-1.07
				C49.6,27.93,49.6,27.93,49.78,27.93z"/>
		</g>
	</g>
	<path class="st7" d="M51.2,29.12c-0.18,0.3-0.18,0.3-0.36,0.59c-0.24-0.23-0.48-0.51-0.71-0.71c0.18-0.18,0.18-0.18,0.36-0.36
		C50.72,28.8,50.95,28.97,51.2,29.12z"/>
	
		<linearGradient id="SVGID_00000124874146385032987920000002081490976305124745_" gradientUnits="userSpaceOnUse" x1="25.579" y1="22.8644" x2="2.9072" y2="31.8388">
		<stop  offset="0" style="stop-color:#6572A6"/>
		<stop  offset="1" style="stop-color:#465586"/>
	</linearGradient>
	<path style="fill:url(#SVGID_00000124874146385032987920000002081490976305124745_);" d="M27.29,23.2c0,0.78,0.24,1.63,0.12,2.43
		c-1.23,0.62-2.69-0.6-2.37,1.12c-0.08,0-0.16,0-0.24,0c-0.28,0.01-1.2,0.23-1.48,0.24c-1.11,0.04-8.06-0.24-8.4,0
		c-0.14,0.1-0.02,0.74-0.06,0.95c-0.25,0.01-0.26,0.11-0.36,0.12c-0.02,0,0.14-0.33-0.41-0.24c-0.44,0.77-1.15,0.9-1.3,1.78
		c-4.3-0.35-2.31,1.17-2.78,1.83c-0.22,0.31-2.06-0.44-1.95,0.65c-1-0.25-0.22,1.09-0.71,1.3c-0.16,0.07-3.39,0.07-3.55,0
		c-0.56-0.25,0.8-1.23-2.01-0.95c-0.4-0.18-0.11-2.41-0.06-2.84c0.35-0.04,1,0.06,1.12,0c0.34-0.15,0.12-1.03,0.18-1.3
		c0.78-0.07,1.52-0.19,2.31-0.12c0.06,1.01,0.06,1.01,0.12,2.01c3.91,0.09,2.6-0.08,2.9-0.77c0.31-0.7,0.72,0.93,0.83-1.6
		c0.03-0.71-0.02-1.42,0-2.13c0.38-0.02,0.81,0.04,1.18,0c-0.06,1-0.24,2.55,1.24,1.89c0.35-0.16,0.1-1.76,0.18-2.13
		c0.16-0.01,0.92-0.23,1.07-0.24c0.58-0.04,3.8,0.11,3.97,0c0.17-0.12-0.05-1.06,0.12-1.18c0.75-0.53,0.99,0.68,1.07,0.71
		c0.31,0.13,5.73-0.1,6.75,0C25.26,23.04,24.09,22.81,27.29,23.2z"/>
	<path class="st14" d="M23.62,27.82c-0.31,1.21,1.31,1.23,1.12,0c-0.1,0.95,1.27,0.5,3.14,0.59c2.65,0.13,5.28,0.15,7.93,0.12
		c0.02,0.71,0.1,1.61-0.24,1.66c-3.58-0.01-7.19-0.11-10.77,0.12c-0.06,0-0.39-0.21-1.24-0.12c-1.4,0.19-7.1,2.73-8.52,3.55
		c-0.14,0.08,0.02,0.4-0.12,0.47c-1.72-0.1-3.43,0.08-5.15,0.12c-0.08,0-0.16,0-0.24,0c-0.31-2.43,0.94-1.24,1.36-1.54
		c0.04-0.03,0.14-0.78,0.18-0.95c0.11-0.48,0.06-0.7,0.12-1.07c1.47-0.19,3.86,0.75,2.72-1.42c0.27-0.05,0.45-0.12,0.47-0.12
		c0.37-0.01,0.95,1.24,1.07-1.3C17.6,27.85,22.65,28.03,23.62,27.82z"/>
	<path class="st12" d="M24.8,30.3c-0.39,1.38-2.23,1.56-2.01,2.37c-0.77,0.08-1.02,0.31-0.95,1.18c-3.46-0.4-0.16,1.56-3.37,1.18
		c-0.15,2.28-1.43,0.82-1.72,1.48c-0.08,0.19,0.11,1-0.06,1.12c-0.28,0.2-6.08,0.02-6.92,0c0-1.66,0-1.66,0-3.31
		c1.71-0.04,3.43-0.21,5.15-0.12c0.14-0.08-0.02-0.4,0.12-0.47c1.43-0.82,7.12-3.36,8.52-3.55C24.41,30.09,24.74,30.31,24.8,30.3z"
		/>
	<path class="st7" d="M4.44,19.65c0.06,2.93,0.06,2.93,0.12,5.86c1.36,0.03,1.36,0.03,2.72,0.06c0.25-0.09,0.55,0.2,0.59,0.36
		c0.31,1.15-0.85,2.18,1.3,1.89c-0.11,2.52-0.52,0.9-0.83,1.6c-0.3,0.69,1.01,0.86-2.9,0.77c-0.06-1.01-0.06-1.01-0.12-2.01
		c-0.78-0.07-1.53,0.05-2.31,0.12c-0.45,0.04-0.54-0.13-0.59-0.12c-0.11-0.66,0.14-4.71,0-4.91c-0.08-0.12-1.1,0.49-0.71-1.95
		c2.88,0.33,1.39-1.05,1.78-1.6C3.59,19.57,4.24,19.68,4.44,19.65z"/>
	<path class="st12" d="M11.66,18.47c0,0.47,0,0.47,0,0.95c0.2,2.53-0.67,4.61,1.07,4.14c0,0.51,0.24,1.12,0.12,1.66
		c-0.15,0.01-0.91,0.23-1.07,0.24c-0.06,0-0.37-0.21-1.24-0.12c-0.25,0.17-0.16,0.35-0.18,0.36c-0.37,0.04-0.8-0.02-1.18,0
		c-0.81,0.04-1.41-0.14-1.3,0.24c-0.04-0.16-0.34-0.45-0.59-0.36c0.1-1.97-0.14-4.09,0-6.04c0-0.05,0.2-0.12,0.12-1.07
		C8.81,18.44,10.26,18.55,11.66,18.47z"/>
	<path class="st10" d="M9.53,34.33c0.08,0,0.16,0,0.24,0c0,1.66,0,1.66,0,3.31c-3.21-0.09-1.34-0.39-1.95-0.83
		c-0.14-0.1-2.37,0.1-2.6,0c-0.27-0.12-0.27-0.95,0-1.07c0.19-0.08,1,0.11,1.12-0.06c0.07-0.09-0.05-1.07,0-1.36
		C7.4,34.3,8.47,34.36,9.53,34.33z"/>
	<path class="st15" d="M18.17,15.74c0,0.04,0.26,0.56,0.12,0.89c-0.28,0.64-1.28-0.99-1.12,2.19c-1.08,0.23-4.27-0.59-4.44,0.71
		c-0.53-0.06-0.53-0.06-1.07-0.12c0-0.47,0-0.47,0-0.95c0.3-0.02,1.41,0.12,1.54-0.18c0.1-0.22-0.12-1.47,0.06-1.6
		c0.15-0.11,3.18,0.11,3.43,0C17.21,16.46,16.11,15.48,18.17,15.74z"/>
	<path class="st16" d="M7.4,18.47c0.08,0.95-0.11,1.01-0.12,1.07c-0.97-0.01-1.87-0.03-2.84,0.12c-0.2,0.03-0.85-0.07-0.95,0.06
		c-0.39,0.55,1.1,1.93-1.78,1.6c0.14-0.86,0.25-0.14,0.36-0.41c-0.36-1.68,0.83-0.73,1.07-1.07C4.03,18.57,0.82,18.57,7.4,18.47z"/>
	<path class="st15" d="M8.82,14.32c0,1.07,0,1.07,0,2.13c-3.85-0.04-3.98,0.59-4.02-1.3c0.5-0.02,1.01-0.28,1.54,0
		c0.14,0.77,1.06,0.52,1.12,0.47c0.19-0.14-0.13-1.14,0.24-1.3C7.84,14.26,8.5,14.37,8.82,14.32z"/>
	<path class="st15" d="M11.07,31.84c-0.04,0.17-0.14,0.92-0.18,0.95c-0.42,0.29-1.67-0.89-1.36,1.54c-1.06,0.03-2.13-0.02-3.2,0
		c0.25-1.34,2.16,0.73,1.95-1.78C10.54,32.83,8.71,31.54,11.07,31.84z"/>
	<path class="st16" d="M13.91,29.35c1.14,2.18-1.25,1.23-2.72,1.42c0.03-0.17-0.07-0.62,0.06-0.71c2.82,0.22,1.71-0.5,2.01-0.71
		C13.32,29.31,13.73,29.39,13.91,29.35z"/>
	<path class="st8" d="M3.02,28.29c-0.06,0.27,0.16,1.15-0.18,1.3c-0.13,0.06-0.77-0.04-1.12,0c0.04-0.41-0.03-0.83,0-1.24
		c0.75-0.05,0.67-0.17,0.71-0.18C2.48,28.16,2.57,28.33,3.02,28.29z"/>
	<path class="st17" d="M14.86,27.93c0.2-0.01,0.4,0.01,0.59,0c-0.11,2.54-0.7,1.29-1.07,1.3c0.06-0.59,0.06-0.59,0.12-1.18
		C14.59,28.05,14.6,27.95,14.86,27.93z"/>
	<g>
		<path class="st11" d="M3.38,37.46c0-1.66,0-1.66,0-3.31c-0.22-0.31-0.83-0.14-1.42-0.18c-0.55-0.04-1.34-0.03-1.89,0
			c0.15-0.87-0.2-6.53,0-6.81c0.11-0.16,0.72,0.04,0.83-0.12c0.05-0.07,0.05-1.7,0-1.78c-0.11-0.16-0.72,0.04-0.83-0.12
			c-0.19-0.27,0.14-5.68,0-6.51c1.27-0.03,1.27-0.03,2.54-0.06C2.7,16.9,2.7,16.9,2.78,15.21c0.09-0.12,1.7-0.05,2.01-0.06
			c0.04,1.89,0.17,1.26,4.02,1.3c2.27,0.02,4.54-0.02,6.81,0c0-0.55,0.16-1.33,0.18-1.78c2.25,0.31,1.14-0.97,1.42-1.36
			c0.06-0.08,0.97-0.09,1.01-0.06c0.1,0.07,0.07,1.83,0.06,2.13c-0.01,0.25-0.11,0.26-0.12,0.36c-2.06-0.27-0.96,0.72-1.48,0.95
			c-0.25,0.11-3.28-0.11-3.43,0c-0.18,0.13,0.04,1.38-0.06,1.6c-0.13,0.3-1.24,0.16-1.54,0.18c-1.41,0.08-2.85-0.02-4.26,0
			c-6.58,0.1-3.37,0.1-4.26,1.36c-0.24,0.34-1.43-0.61-1.07,1.07c-0.1,0.28-0.22-0.44-0.36,0.41c-0.39,2.44,0.63,1.83,0.71,1.95
			c0.14,0.2-0.11,4.25,0,4.91c-0.04,0.01,0.04,0.12-0.71,0.18c-0.03,0.41,0.04,0.84,0,1.24c-0.05,0.43-0.34,2.66,0.06,2.84
			c2.81-0.28,1.46,0.7,2.01,0.95c0.16,0.07,3.39,0.07,3.55,0c0.49-0.22-0.29-1.55,0.71-1.3c-0.1-1.09,1.73-0.34,1.95-0.65
			c0.47-0.66-1.52-2.18,2.78-1.83c0.15-0.87,0.87-1.01,1.3-1.78c0.56-0.09,0.39,0.24,0.41,0.24c-0.06,0.59-0.06,0.59-0.12,1.18
			c-0.02,0-0.21,0.07-0.47,0.12c-0.18,0.04-0.59-0.05-0.65,0c-0.31,0.22,0.81,0.93-2.01,0.71c-0.13,0.09-0.03,0.54-0.06,0.71
			c-0.05,0.37-0.01,0.59-0.12,1.07c-2.36-0.3-0.53,0.99-2.78,0.71c0.21,2.51-1.7,0.43-1.95,1.78c-0.05,0.29,0.07,1.27,0,1.36
			c-0.12,0.17-0.94-0.02-1.12,0.06c-0.27,0.12-0.27,0.95,0,1.07c0.23,0.1,2.46-0.1,2.6,0c0.62,0.44-1.26,0.74,1.95,0.83
			c0.84,0.02,6.64,0.2,6.92,0c0.17-0.12-0.02-0.94,0.06-1.12c0.29-0.66,1.57,0.8,1.72-1.48c3.22,0.38-0.09-1.59,3.37-1.18
			c0.03,0.34,0.43,0.62,0.47,0.83c0.35,1.82-0.6,0.83-1.12,1.07c-0.42,0.19-0.03,0.97-0.06,1.01c-0.13,0.17-1.18-0.03-1.36,0.06
			c-0.32,0.16-0.03,0.65-0.36,0.83c-0.26,0.15-0.8-0.44-0.65,0.83c-0.63-0.01-1.26-0.1-1.89-0.12c-2.4-0.08-0.98,0.25-1.48,0.59
			c-0.16,0.11-3.75,0.01-3.91,0.12c-0.18,0.13,0.11,0.91-0.24,1.07c-0.18,0.08-0.89-0.11-1.01,0.06L3.38,37.46z"/>
	</g>
	<path class="st11" d="M45.28,5.44c-1.1-0.03-2.31,0.12-3.43,0.12c-2.34,0.01-4-0.57-3.67,0.59c-0.67-0.3,0.72-0.59-2.13-0.59
		c-0.53,0-0.53,0-1.07,0c0-0.04-0.09-0.67-0.12-0.83c-0.08-0.57,0.26-0.93-0.47-0.83c-0.05-0.31,0.09-1.79-0.06-1.89
		c-0.11-0.08-1.68-0.37-1.24,1.07c-1.23-0.26-0.2-0.81-0.77-1.07c-1.97-0.87-0.07,2.04-2.54,1.42c-0.04-1.1-0.27-2.21-0.06-3.31
		c3.97-0.06,3.97-0.06,7.93-0.12c0.44,3.04-0.51,1.38-2.54,2.07c0.09,0.92,0.09,0.92,0.18,1.83c1.23,0.22,9.54-0.29,9.94,0
		C45.37,4.01,45.23,5.17,45.28,5.44z"/>
	<path class="st11" d="M15.69,8.29c0,0.13,0.24,0.95,0.24,1.07c0,0.41-0.16,1.11-0.24,1.54c-1.04,0-2.31-0.07-3.31,0
		c-0.21,0.01-0.98-0.06-1.07,0.06c-0.06,0.08,0.04,1.24,0,1.6c-0.12,0-0.24,0-0.36,0c-0.34,0.01-1.26-0.05-1.36,0
		c-0.34,0.15-0.12,1.22-0.18,1.54c-0.04,0,0.3,0.1-0.59,0.24c-0.33,0.05-0.98-0.06-1.12,0c-0.37,0.16-0.04,1.16-0.24,1.3
		c-0.06,0.04-0.98,0.3-1.12-0.47c-0.11-0.58,0.08-1.9,0-2.66c1.04-0.03,1.04-0.03,2.07-0.06c0.12-1.07,0.12-1.07,0.24-2.13
		c1.54,0,1.54,0,3.08,0c0.12-1.01,0.12-1.01,0.24-2.01C13.82,8.29,13.82,8.29,15.69,8.29z"/>
	<path class="st11" d="M59.72,14.8c-1.47-0.11-2.13,0.97-1.89-1.48c-3.05-0.22-1.49-0.73-1.89-1.3c-0.12-0.17-1.36,0.02-1.48-0.06
		c-0.66-0.47,1.59-1.31-2.78-1.18c-0.8,0.02-1.2,0.11-1.3,0.12c-0.2-0.43-0.12-1.05-0.12-1.54c0-0.32,0.11-0.67,0.12-0.95
		c1.92,0,1.92,0,3.85,0c0.12,1.07,0.12,1.07,0.24,2.13c1.54,0,1.54,0,3.08,0C57.19,14.73,60.31,9.95,59.72,14.8z"/>
	<path class="st11" d="M28.94,3.79c-0.22,0.39-0.8,1.56-0.83,1.78c-1.3,0-1.3,0-2.6,0c-0.87,0.01-1.74-0.01-2.6,0
		c-0.93,0.01-1.94-0.15-2.84-0.12c0.05-0.28-0.09-1.55,0.06-1.66C20.48,3.53,27.84,3.98,28.94,3.79z"/>
	<path class="st11" d="M50.25,7.58c-1.34,0-2.68,0.01-4.02,0c-0.12,0-0.24,0-0.36,0c0.06-0.95,0.06-0.95,0.12-1.89
		c1.44,0.04,2.88-0.03,4.32,0C50.55,5.85,50.25,7.29,50.25,7.58z"/>
	<path class="st16" d="M45.99,5.68c-0.06,0.95-0.06,0.95-0.12,1.89c-0.9-0.01-2.9,0.03-3.08,0c-0.14-0.02-0.86-0.08-0.89-0.12
		c-0.13-0.16-0.03-0.5-0.06-0.71c-0.05-0.37,0.03-0.81,0-1.18c1.12,0,2.34-0.15,3.43-0.12C45.32,5.45,45.95,5.68,45.99,5.68z"/>
	<path class="st11" d="M19.71,5.68c0.06,0.89,0.06,0.89,0.12,1.78c-0.31,0-0.22,0.12-0.24,0.12c-0.65-0.01-3.47-0.07-3.67-0.12
		c-0.67-0.17-0.35-1.7-0.18-1.78C17.06,5.64,18.39,5.73,19.71,5.68z"/>
	<path class="st18" d="M19.59,7.58c0.45-0.12,0.2,1.58,0.06,1.66c-0.16,0.09-3.22,0.1-3.73,0.12c0-0.11-0.23-0.94-0.24-1.07
		c-0.01-0.3,0.08-0.57,0.24-0.83C16.12,7.51,18.94,7.57,19.59,7.58z"/>
	<path class="st18" d="M22.91,5.56c0,0.95,0,0.95,0,1.89c-1.02,0.03-2.05,0.01-3.08,0c-0.06-0.89-0.06-0.89-0.12-1.78
		c0.37-0.01,0.17-0.23,0.36-0.24C20.97,5.42,21.98,5.57,22.91,5.56z"/>
	<path class="st10" d="M42.56,26.75c0.04,0,0.08,0,0.12,0c0.19,0.29,0.11,0.63,0.12,0.95c0.02,0.87-0.01,1.74,0,2.6
		c-1.34-0.02-2.73,0.13-4.08,0.12c-1.01-0.01-2.13-0.23-3.14-0.24c0.34-0.04,0.26-0.95,0.24-1.66c0-0.08,0-0.16,0-0.24
		c0.65-0.11,4.6,0.14,4.79,0c0.15-0.1,0.01-1.16,0.06-1.42C41.27,26.86,41.93,26.76,42.56,26.75z"/>
	<path class="st5" d="M49.42,27.93c0.08,1.6,0.55,0.92,0.71,1.07c0.23,0.2,0.47,0.48,0.71,0.71c0.2,0.19,0.33,0.45,0.59,0.59
		c-1.63-0.15-6.21,0.03-8.64,0c-0.01-0.87,0.02-1.74,0-2.6c0,0.08-0.03,0.21,0.06,0.24C43.25,28.07,48.2,27.83,49.42,27.93z"/>
	<path class="st10" d="M50.01,21.31c0,0.4,0.3,2.79,0.06,2.96c-1.56,0.11-3.12-0.09-4.68-0.12c0.5,0.06,0.06-1.25,0.3-1.42
		c0.13-0.09,1.91,0.1,2.13,0C48.54,22.41,46.73,20.91,50.01,21.31z"/>
	<g>
		<path class="st14" d="M39.71,20.12c-0.77,0-0.77,0-1.54,0c-0.04-3.49-0.15-6.92,0-10.42c0.89,0.09,0.89,0.09,1.78,0.18
			c-0.1,3.31,0.14,6.64,0,9.94C39.95,19.89,39.72,20.1,39.71,20.12z"/>
		<g>
			<path class="st12" d="M39.36,7.69c1.29,0.1,1.03,0.41,2.25,1.48c0.2,0.18-0.35,0.71,1.54,0.53c0.36,1.83,0.25,1.33,2.01,1.42
				c-0.09,0.26,0.07,1.62,0,2.19c0.07,0.17,1.94,0.28,2.25,0.3c0,0.95,0,0.95,0,1.89c0.03,1.6,0.03,1.6,0.06,3.2
				c1.81,0,1.81,0,3.61,0c0,0.04,0.35,0.65-0.06,0.83c-0.9,0.4-1.03-0.94-1.01,1.78c-3.29-0.4-1.47,1.1-2.19,1.42
				c-0.22,0.1-2-0.09-2.13,0c-0.24,0.17,0.21,1.48-0.3,1.42c-1.6-0.03-3.2,0.02-4.79,0c-0.1-0.07-0.07-1.73-0.06-2.01
				c0.01-0.14,1.03-2.48-0.83-1.78c0-0.08,0-0.16,0-0.24c0-0.02,0.23-0.23,0.24-0.3c0.14-3.3-0.1-6.64,0-9.94
				c-0.89-0.09-0.89-0.09-1.78-0.18c0.03-0.67-0.05-1.35,0-2.01C38.57,7.72,38.97,7.66,39.36,7.69z"/>
			<path class="st15" d="M42.38,20.24c0.12-0.08,2.41,0.06,2.84,0c0.36,2.47-0.19,1.65-2.72,1.78
				C42.2,21.88,42.31,20.29,42.38,20.24z"/>
		</g>
	</g>
	<path class="st19" d="M42.79,8.88c0.17,0.03,0.31-0.07,0.47,0.18c-0.16,0.12-0.15,0.48-0.12,0.65c-1.88,0.17-1.34-0.36-1.54-0.53
		c-1.22-1.07-0.96-1.38-2.25-1.48c0.41-0.12,0.41-0.12,0.83-0.24c1.17,0.86,1.5,1.38,1.6,1.42C41.96,8.94,42.51,8.82,42.79,8.88z"/>
	<path class="st8" d="M40.54,22.13c-1,0.2-0.89-0.39-0.83-1.78C41.57,19.65,40.55,21.99,40.54,22.13z"/>
	<path class="st8" d="M39.6,6.87c0.29,0.7,0.09,0.23,0.59,0.59c-0.41,0.12-0.41,0.12-0.83,0.24c-0.39-0.03-0.79,0.02-1.18,0
		c0.01-0.22-0.06-0.97,0.06-1.07C38.41,6.5,39.31,6.9,39.6,6.87z"/>
	<g>
		<path class="st6" d="M56.88,18.35c0.09,3.49,0.09,3.49,0.18,6.98c2.49,0.6,1.05-1.9,1.54-2.25c0.92-0.66,1.74,1.96,1.6-3.43
			c3.68-0.4-0.38,1.77,4.26,1.3c0.22,3.04-0.13,2.24-1.07,2.37c-0.25,0.03-0.52-0.11-0.71,0.18c0,2.81,0,2.81,0,5.62
			c-0.69,0.01-2.64,0.15-3.2,0.36c-0.47,0.03-0.47,0.03-0.95,0.06c0,0.65,0,1.3,0,1.95c-4.15,0.28-2.44-0.66-2.9-1.07
			c-0.05-0.05-0.39,0.05-0.47,0c-1.6-0.89-5.3-2.61-5.5-3.79c0.01,0,0.09-0.23,0.18-0.24c0.99-0.05,2.04,0.08,3.02,0
			c0.19-0.02,0.86,0.06,0.95-0.06c0.03-0.49-0.04-0.99,0-1.48c0.19-2.17,0.1-4.33,0.12-6.51C54.9,18.35,55.89,18.35,56.88,18.35z"/>
		<path class="st20" d="M55.04,25.57c0.05-0.03,1.07-0.02,1.12,0.06c0.08,0.11,0.05,2.59-0.06,2.66c-0.05,0.03-1.07,0.02-1.12-0.06
			C54.91,28.12,54.93,25.64,55.04,25.57z"/>
	</g>
	<path class="st21" d="M53.8,24.86c-0.04,0.49,0.03,0.99,0,1.48c-0.09,0.12-0.75,0.04-0.95,0.06C52.61,25.11,52.43,24.68,53.8,24.86
		z"/>
	<path class="st22" d="M42.56,26.75c-0.63,0.01-1.29,0.11-1.89,0.12c-0.8,0.01-1.66-0.13-2.49-0.12c0-0.47,0-0.47,0-0.95
		C40.68,26.01,43.09,25.15,42.56,26.75z"/>
	<g>
		<path class="st23" d="M50.25,7.58c0,0.46,0.12,0.79,0.12,0.83c-0.01,0.28-0.12,0.62-0.12,0.95c-2.01,0-2.01,0-4.02,0
			c0.04-0.59-0.03-1.19,0-1.78C47.57,7.58,48.91,7.57,50.25,7.58z"/>
		<path class="st10" d="M45.87,7.58c0.12,0,0.24,0,0.36,0c-0.03,0.59,0.04,1.19,0,1.78c-0.01,0.22-0.08,1.42-0.12,1.48
			c-0.16,0.23-0.77-0.21-0.95,0.3c-1.76-0.09-1.66,0.4-2.01-1.42c-0.03-0.17-0.04-0.53,0.12-0.65c-0.16-0.25-0.3-0.15-0.47-0.18
			c0-0.65,0-0.65,0-1.3C42.97,7.6,44.97,7.57,45.87,7.58z"/>
		<path class="st5" d="M50.25,9.35c0,0.49-0.08,1.1,0.12,1.54c-0.76,0.03-1.61,0.21-2.37,0.24c-0.89,0.03-1.95,0.05-2.84,0
			c0.18-0.51,0.78-0.06,0.95-0.3c0.04-0.06,0.1-1.26,0.12-1.48C48.24,9.35,48.24,9.35,50.25,9.35z"/>
	</g>
	<g>
		<path class="st8" d="M48,11.13c0.44-0.1,0.16,1.23,0.24,2.37c-0.89-0.03-0.79,0.12-0.83,0.12c-0.31-0.01-2.17-0.13-2.25-0.3
			c0.07-0.57-0.09-1.93,0-2.19C46.05,11.17,47.11,11.16,48,11.13z"/>
		<path class="st11" d="M46.28,11.48c1.14-0.81,1.2,1.48,0.95,1.66C46.1,13.94,46.04,11.66,46.28,11.48z"/>
	</g>
	<path class="st10" d="M19.83,7.46c1.02,0.01,2.06,0.03,3.08,0c0.24-0.01,0.48,0.01,0.71,0c0,0.71,0,0.71,0,1.42
		c-0.32,0.23-0.46,0.42-0.71,0.59c-0.21,0.15-0.39,0.32-0.59,0.47c-0.4,0.3-0.74,0.21-0.77,0.24c-0.3,0.24-0.13,0.52-0.18,0.59
		c-0.06,0.09,0.16,0.13-0.24,0.24c-0.21,0.06-2.21,0-2.84,0c-0.74,0-1.49-0.11-2.25-0.12c-0.12,0-0.24,0-0.36,0
		c0.08-0.43,0.24-1.12,0.24-1.54c0.51-0.02,3.56-0.03,3.73-0.12c0.14-0.08,0.4-1.77-0.06-1.66C19.61,7.58,19.52,7.45,19.83,7.46z"/>
	<g>
		<path class="st14" d="M28.23,7.46c-0.05,1.71,0.29,12.16,0,12.72c-0.12,0.24-0.87,0.12-0.95,0.24c-0.08,0.11,0,2.4,0,2.78
			c-3.2-0.39-2.03-0.16-2.54,1.54c-1.02-0.1-6.44,0.13-6.75,0c-0.07-0.03-0.32-1.24-1.07-0.71c-0.17,0.12,0.05,1.06-0.12,1.18
			c-0.16,0.11-3.38-0.04-3.97,0c0.13-0.54-0.12-1.15-0.12-1.66c0-0.64-0.03-3.82,0-4.02c0.17-1.3,3.36-0.48,4.44-0.71
			c-0.15-3.18,0.84-1.55,1.12-2.19c0.14-0.33-0.12-0.84-0.12-0.89c0.01-0.09,0.11-0.1,0.12-0.36c1.18,0.56,0.59-1.32,0.59-1.89
			c1.9,0.55,0.94-1.38,1.18-1.72c0.19-0.27,1.65,0.41,1.07-0.77c0.4-0.11,0.18-0.14,0.24-0.24c0.94,0.46,1.67-0.2,0.95-0.83
			c0.2-0.15,0.38-0.33,0.59-0.47c0.51,0.88,2.4-1.19,3.26-1.18c0.1-0.09,0.07-0.55,0.06-0.71C27.23,7.52,27.23,7.52,28.23,7.46z"/>
		<path class="st8" d="M19.89,20.48c0.45-0.13,3.26,0.1,4.26,0c0.97,3.02-0.93,1.77-4.62,2.01C19.53,21.82,19.16,20.69,19.89,20.48z
			"/>
	</g>
	<path class="st7" d="M28.11,5.56c-0.01,0.09,0.16,0.54,0.12,1.89c-1.01,0.06-1.01,0.06-2.01,0.12c-0.01-0.15,0.06-0.49-0.06-0.59
		c-0.04-0.04-0.38,0.09-0.65-0.12c0.03-0.37-0.21-0.64,0-1.3C26.81,5.56,26.81,5.56,28.11,5.56z"/>
	<path class="st17" d="M12.73,19.53c-0.03,0.2,0,3.38,0,4.02c-1.74,0.47-0.87-1.61-1.07-4.14C12.19,19.47,12.19,19.47,12.73,19.53z"
		/>
	<path class="st8" d="M21.13,11.01c0.59,1.18-0.87,0.5-1.07,0.77c-0.24,0.34,0.72,2.26-1.18,1.72c-0.12-0.03-0.36,0.04-0.41,0
		c-0.12-0.09-0.02-0.3-0.06-0.36c1.48,0.5,1.37-2.73-0.24-1.78c0.01-0.18,0.04-0.21,0.12-0.36C18.92,11.01,20.92,11.07,21.13,11.01z
		"/>
	<path class="st8" d="M26.22,7.58c0.01,0.16,0.04,0.62-0.06,0.71c-0.86-0.01-2.75,2.06-3.26,1.18c0.25-0.18,0.39-0.36,0.71-0.59
		c1.35-0.97,1.51-0.22,1.78-1.78c0.06-0.33,0.12-0.22,0.12-0.24c0.27,0.21,0.61,0.08,0.65,0.12C26.28,7.09,26.21,7.42,26.22,7.58z"
		/>
	<path class="st15" d="M21.37,10.77c0.05-0.07-0.13-0.35,0.18-0.59c0.03-0.02,0.37,0.06,0.77-0.24
		C23.03,10.57,22.31,11.23,21.37,10.77z"/>
	<path class="st9" d="M23.62,27.82c-0.97,0.22-6.02,0.04-8.17,0.12c-0.2,0.01-0.4-0.01-0.59,0c0.04-0.21-0.08-0.85,0.06-0.95
		c0.34-0.24,7.3,0.04,8.4,0c0.28-0.01,1.2-0.23,1.48-0.24c0.18,1.34-0.44,0.63-1.12,0.83C23.57,27.61,23.63,27.81,23.62,27.82z"/>
	<path class="st15" d="M27.88,26.63c0,0.89,0,0.89,0,1.78c-1.87-0.09-3.24,0.36-3.14-0.59c0.18,1.23-1.44,1.21-1.12,0
		c0.01,0-0.04-0.21,0.06-0.24c0.68-0.2,1.31,0.51,1.12-0.83c0.08,0,0.16,0,0.24,0C25.99,26.72,26.93,26.63,27.88,26.63z"/>
	<path class="st16" d="M11.78,25.45c-0.08,0.37,0.18,1.97-0.18,2.13c-1.48,0.66-1.31-0.9-1.24-1.89c0.02,0-0.07-0.19,0.18-0.36
		C11.41,25.24,11.72,25.45,11.78,25.45z"/>
	<path class="st16" d="M9.18,25.69c-0.02,0.71,0.03,1.42,0,2.13c-2.15,0.29-0.99-0.74-1.3-1.89C7.76,25.54,8.36,25.72,9.18,25.69z"
		/>
	<path class="st7" d="M35.69,26.63c-0.11,0.55,0.09,1.12,0.12,1.66c0,0.08,0,0.16,0,0.24c-2.65,0.03-5.28,0.01-7.93-0.12
		c0-0.89,0-0.89,0-1.78C30.48,26.61,33.09,26.67,35.69,26.63z"/>
	<path class="st14" d="M7.28,19.53c-0.14,1.95,0.1,4.07,0,6.04c-1.36-0.03-1.36-0.03-2.72-0.06c-0.06-2.93-0.06-2.93-0.12-5.86
		C5.41,19.5,6.31,19.52,7.28,19.53z"/>
	<path class="st8" d="M10.95,12.55c0.24,2.55-0.66,1.43-1.54,1.54c0.06-0.32-0.16-1.39,0.18-1.54C9.69,12.5,10.61,12.56,10.95,12.55
		z"/>
	<g>
		<path class="st12" d="M15.69,10.89c0.12,0,0.24,0,0.36,0c-0.75,0.3-0.21,2.91-0.24,3.79c-0.01,0.45-0.18,1.22-0.18,1.78
			c-2.27-0.02-4.54,0.02-6.81,0c0-1.07,0-1.07,0-2.13c0.9-0.13,0.55-0.23,0.59-0.24c0.88-0.1,1.78,1.02,1.54-1.54
			c0.12,0,0.24,0,0.36,0c0.05,0,0.9,0.3,1.07,0.06c0.06-0.09-0.04-1.35,0-1.72C13.37,10.82,14.64,10.89,15.69,10.89z"/>
		<path class="st24" d="M18.29,11.01c-0.08,0.15-0.1,0.18-0.12,0.36c-0.06,0.76-0.08,1.28,0.24,1.78c0.04,0.06-0.07,0.27,0.06,0.36
			c0.05,0.04,0.3-0.03,0.41,0c-0.01,0.58,0.59,2.45-0.59,1.89c0.01-0.3,0.04-2.06-0.06-2.13c-0.04-0.03-0.95-0.03-1.01,0.06
			c-0.28,0.39,0.83,1.67-1.42,1.36c0.03-0.88-0.51-3.49,0.24-3.79C16.8,10.89,17.55,11,18.29,11.01z"/>
		<path class="st16" d="M12.37,10.89c-0.04,0.37,0.06,1.63,0,1.72c-0.17,0.24-1.01-0.06-1.07-0.06c0.04-0.35-0.06-1.51,0-1.6
			C11.39,10.83,12.17,10.9,12.37,10.89z"/>
	</g>
	<path class="st11" d="M18.41,13.14c-0.31-0.5-0.3-1.01-0.24-1.78C19.78,10.41,19.89,13.64,18.41,13.14z"/>
	<path class="st9" d="M38.18,6.16c0.02,0.01,0.15-0.01,0.47,0.12c-0.1,0.37-0.64,0.11-0.83,0.53c-0.24,0.53,0.43,10.21,0.12,11.72
		c-1.12,0.09-1.12,0.09-2.25,0.18c0.01-0.03-0.01-0.08,0-0.12c0.01-0.02,0.32,0.01,0.36-0.18c0.11-0.61-0.08-1.85,0-2.6
		c-0.07-0.16-1.21-0.29-1.42-0.3c-0.35-2.49,1.13-1.21,1.6-1.54c0.12-0.09,0.05-0.97,0.06-1.18c0.04-0.74-0.13-1.63,0.12-2.31
		c-1.02-0.2-1.23-0.41-1.3-0.41c0-0.24,0-0.24,0-0.47c2.02,0.21,1.09-0.45,1.42-1.83c-0.21-0.3-0.81-0.15-1.42-0.18
		c0-0.65,0-0.65,0-1.3c0.91-0.02,1.02,0.22,0.95-0.71C38.89,5.56,37.51,5.85,38.18,6.16z"/>
	<path class="st14" d="M38.18,26.75c0.83-0.01,1.68,0.13,2.49,0.12c-0.05,0.26,0.09,1.32-0.06,1.42c-0.2,0.14-4.15-0.11-4.79,0
		c-0.03-0.53-0.22-1.1-0.12-1.66C36.78,26.62,37.59,26.76,38.18,26.75z"/>
	<path class="st11" d="M41.85,6.75c0.03,0.21-0.07,0.55,0.06,0.71c0.03,0.04,0.75,0.1,0.89,0.12c0,0.65,0,0.65,0,1.3
		c-0.28-0.05-0.84,0.06-1.01,0c-0.1-0.04-0.43-0.56-1.6-1.42c-0.5-0.37-0.3,0.11-0.59-0.59c-0.01-0.02,0.33-0.04-0.12-0.36
		C40.26,6.68,41.03,6.82,41.85,6.75z"/>
	<path class="st10" d="M41.85,5.56c0.03,0.38-0.05,0.82,0,1.18c-0.81,0.07-1.58-0.06-2.37-0.24c-0.22-0.05-0.62-0.16-0.83-0.24
		c-0.32-0.12-0.45-0.11-0.47-0.12C37.85,4.99,39.51,5.57,41.85,5.56z"/>
	<path class="st7" d="M25.51,5.56c-0.21,0.66,0.03,0.93,0,1.3c0,0.01-0.06-0.1-0.12,0.24c-0.7-1.04-0.55,0.28-0.65,0.36
		c-0.05,0.04-0.87-0.02-1.12,0c-0.23,0.01-0.47-0.01-0.71,0c0-0.95,0-0.95,0-1.89C23.77,5.55,24.64,5.57,25.51,5.56z"/>
	<path class="st11" d="M25.39,7.1c-0.26,1.56-0.43,0.8-1.78,1.78c0-0.71,0-0.71,0-1.42c0.25-0.02,1.07,0.04,1.12,0
		C24.84,7.39,24.7,6.06,25.39,7.1z"/>
	<g>
		<path class="st11" d="M34.62,18.58c0.53,0,0.53,0,1.07,0c-0.01,0.04,0.01,0.09,0,0.12c-0.2,0.44,0.08,0.64-0.06,0.71
			c-2.47-0.22-5.89,0.64-5.03-0.83c0.04,0.01,0.08,0,0.12,0C31.84,18.7,33.42,18.5,34.62,18.58z"/>
		<g>
			<path class="st25" d="M33.09,3.08c0.55,0.12,0.85-0.03,0.89,0c0.39,0.28-0.05,0.88,0.41,0.83c0.73-0.1,0.39,0.26,0.47,0.83
				c-1.26-0.17-0.89,0.28-1.07,1.42c-0.03,0.16-0.12,0.11-0.12,0.12c-0.09-0.39-0.8-0.2-1.54-0.24c-0.75-0.04-1.5-0.12-2.25-0.12
				c-0.01-0.69,0.02-1.38,0-2.07c0-0.1-0.24-0.05-0.24-0.06c-0.01-0.45,0.12-0.34,0.12-0.36c2.48,0.62,0.57-2.29,2.54-1.42
				C32.89,2.26,31.85,2.82,33.09,3.08z"/>
			<path class="st25" d="M32.14,6.04c0,1.39,0,1.39,0,2.78c1.22,0.27,1.46-0.18,1.54-0.18c0.03,0-0.25,0.16,0.47,0.24
				c-0.05,0.34,0.07,0.98,0,1.18c-0.01,0.02-0.33,0.35-0.36,0.36c-0.29,0.09-1.53-0.12-1.66,0.06c0.06,0.5-0.08,1.98,0,2.13
				c0.28,0.55,1.57-0.06,1.66-0.06c0.06,0-0.41,0.19,0.95,0.24c0.06,1.6-0.16,1.32-1.3,1.42c-0.06,0.01-0.2-0.05-0.71,0
				c-1.22,0.12-1.43-0.38-1.07,1.42c-1.37,0.34-0.69,1.16-0.71,1.24c-0.04,0.21-0.9,0.24-0.12,0.3c-0.06,0.71-0.06,0.71-0.12,1.42
				c-0.04,0-0.08,0.01-0.12,0c-0.16-0.03-0.5,0.06-0.59-0.06c-0.24-4.2-0.05-8.4-0.12-12.61C30.64,5.92,31.39,6,32.14,6.04z"/>
			<path class="st25" d="M34.39,3.91c-0.47,0.05-0.03-0.54-0.41-0.83c-0.04-0.03-0.34,0.12-0.89,0c-0.44-1.44,1.13-1.14,1.24-1.07
				C34.48,2.12,34.34,3.6,34.39,3.91z"/>
			<path class="st23" d="M34.86,4.73c0.02,0.16,0.12,0.79,0.12,0.83c0,0.07-0.19,0.2-0.12,0.59c-0.35-0.03-0.71,0.02-1.07,0
				C33.98,5.01,33.6,4.56,34.86,4.73z"/>
			<path class="st20" d="M36.05,5.56c0.08,0.93-0.03,0.69-0.95,0.71c-0.11,0-0.12-0.11-0.24-0.12c-0.07-0.39,0.12-0.52,0.12-0.59
				C35.51,5.56,35.51,5.56,36.05,5.56z"/>
			<path class="st26" d="M33.68,6.27c-0.05,0.38,0.03,0.8,0,1.18c0,0.59,0,0.59,0,1.18c-0.08,0-0.32,0.44-1.54,0.18
				c0-1.39,0-1.39,0-2.78C32.88,6.07,33.59,5.89,33.68,6.27z"/>
			<path class="st22" d="M34.86,6.16c0.12,0.01,0.13,0.12,0.24,0.12c0,0.65,0,0.65,0,1.3c-0.48-0.02-0.95,0.02-1.42-0.12
				c0.03-0.38-0.05-0.81,0-1.18c0-0.01,0.09,0.04,0.12-0.12C34.15,6.18,34.51,6.13,34.86,6.16z"/>
			<path class="st25" d="M35.69,18.58c-0.53,0-0.53,0-1.07,0c0.36-2.2-0.71-1.22-3.79-1.42c-0.79-0.05,0.08-0.08,0.12-0.3
				c0.02-0.09-0.66-0.9,0.71-1.24c0.22-0.06,0.73,0.03,1.07,0c0.23-0.02,0.48,0.01,0.71,0c0.35-0.01,0.89-0.13,1.18-0.12
				c0.21,0.01,1.35,0.14,1.42,0.3c-0.08,0.75,0.11,1.99,0,2.6C36.01,18.59,35.7,18.56,35.69,18.58z"/>
			<path class="st27" d="M35.1,10.06c0.07,0.01,0.28,0.22,1.3,0.41c-0.25,0.68-0.07,1.57-0.12,2.31c-0.51-0.01-1.03,0.02-1.54,0
				c-1.35-0.05-0.89-0.23-0.95-0.24c0-1.07,0-1.07,0-2.13c0.02-0.01,0.35-0.33,0.36-0.36C34.81,10.38,35.05,10.06,35.1,10.06z"/>
			<path class="st18" d="M34.62,18.58c-1.2-0.09-2.78,0.12-3.91,0c0.06-0.71,0.06-0.71,0.12-1.42
				C33.92,17.36,34.99,16.38,34.62,18.58z"/>
			<path class="st28" d="M35.1,7.58c0.61,0.03,1.21-0.12,1.42,0.18c-0.33,1.38,0.6,2.05-1.42,1.83c0.21-1.14-0.8-0.69-0.95-0.71
				c-0.73-0.08-0.44-0.24-0.47-0.24c0-0.59,0-0.59,0-1.18C34.15,7.59,34.62,7.56,35.1,7.58z"/>
			<path class="st26" d="M33.8,10.42c0,1.07,0,1.07,0,2.13c-0.09,0-1.37,0.61-1.66,0.06c-0.08-0.15,0.06-1.63,0-2.13
				C32.27,10.29,33.5,10.51,33.8,10.42z"/>
			<path class="st29" d="M36.28,12.78c-0.01,0.22,0.06,1.1-0.06,1.18c-0.46,0.33-1.95-0.95-1.6,1.54c-0.29-0.01-0.84,0.11-1.18,0.12
				c0-0.71,0-0.71,0-1.42c1.14-0.1,1.37,0.18,1.3-1.42C35.25,12.8,35.77,12.77,36.28,12.78z"/>
			<path class="st30" d="M32.73,14.2c0,0.71,0,0.71,0,1.42c-0.34,0.03-0.84-0.06-1.07,0C31.3,13.83,31.51,14.33,32.73,14.2z"/>
			<path class="st8" d="M35.1,9.59c0,0.24,0,0.24,0,0.47c-0.05-0.01-0.29,0.32-0.95,0c0.07-0.2-0.05-0.84,0-1.18
				C34.3,8.89,35.31,8.45,35.1,9.59z"/>
			<path class="st31" d="M33.44,14.2c0,0.71,0,0.71,0,1.42c-0.23,0.01-0.48-0.02-0.71,0c0-0.71,0-0.71,0-1.42
				C33.24,14.15,33.38,14.21,33.44,14.2z"/>
		</g>
		<g>
			<path class="st32" d="M29.65,3.79c0,0.01,0.23-0.04,0.24,0.06c0.02,0.69-0.01,1.38,0,2.07c0.07,4.2-0.12,8.41,0.12,12.61
				c0.09,0.12,0.44,0.03,0.59,0.06c-0.85,1.47,2.56,0.61,5.03,0.83c0.14-0.07-0.14-0.27,0.06-0.71c1.12-0.09,1.12-0.09,2.25-0.18
				c0.31-1.51-0.36-11.19-0.12-11.72c0.19-0.42,0.72-0.16,0.83-0.53c0.21,0.08,0.61,0.19,0.83,0.24c0.45,0.31,0.11,0.34,0.12,0.36
				c-0.29,0.04-1.18-0.37-1.36-0.24c-0.12,0.09-0.04,0.85-0.06,1.07c-0.05,0.66,0.03,1.35,0,2.01c-0.15,3.49-0.04,6.93,0,10.42
				c0.02,1.89-0.02,3.79,0,5.68c0,0.47,0,0.47,0,0.95c-0.58,0.01-1.39-0.13-2.49-0.12c-2.6,0.04-5.21-0.03-7.81,0
				c-0.95,0-1.89,0.09-2.84,0.12c-0.32-1.73,1.14-0.5,2.37-1.12c0.12-0.8-0.12-1.65-0.12-2.43c0-0.38-0.08-2.67,0-2.78
				c0.08-0.11,0.83,0,0.95-0.24c0.29-0.57-0.05-11.01,0-12.72c0.04-1.36-0.13-1.8-0.12-1.89c0.03-0.22,0.61-1.38,0.83-1.78
				C29.3,3.79,29.3,3.79,29.65,3.79z"/>
			<g>
				<path class="st33" d="M36.87,20.48c0,0.5-0.01,3.58-0.12,3.73c-0.11,0.16-0.69-0.09-0.83,0.24c-0.08,0.18,0.11,0.89-0.06,1.01
					c-0.28,0.2-6.1-0.15-6.98,0c-0.3-0.14-0.15-1.25-0.18-1.89c1.47,0.08,2.92-0.06,4.38-0.12c0.69-0.03,3.2,0.08,3.37,0
					c0.03-1.48,0.03-1.48,0.06-2.96C36.64,20.48,36.76,20.48,36.87,20.48z"/>
				<path class="st25" d="M32.97,20.48c0.12,0,0.12,0,0.24,0c-0.06,1.48-0.06,1.48-0.12,2.96c-1.46,0.06-2.91,0.2-4.38,0.12
					c-0.04-1.05,0.03-2.04,0.12-3.08C30.9,20.48,30.9,20.48,32.97,20.48z"/>
				<path class="st34" d="M33.09,19.53C33.03,20,33.03,20,32.97,20.48c-2.07,0-2.07,0-4.14,0c0-0.05-0.35-0.59,0.06-0.95
					C30.28,19.54,31.69,19.51,33.09,19.53z"/>
				<path class="st29" d="M36.87,20.48c-0.12,0-0.24,0-0.36,0c-1.1,0-2.21,0-3.31,0c-0.12,0-0.12,0-0.24,0
					c0.06-0.47,0.06-0.47,0.12-0.95c1.24,0.02,2.49-0.01,3.73,0C36.92,19.61,36.88,20.29,36.87,20.48z"/>
				<path class="st33" d="M36.52,20.48c-0.03,1.48-0.03,1.48-0.06,2.96c-0.17,0.08-2.68-0.03-3.37,0c0.06-1.48,0.06-1.48,0.12-2.96
					C34.31,20.48,35.41,20.48,36.52,20.48z"/>
			</g>
		</g>
	</g>
</g>
</svg>
