<?xml version="1.0" encoding="utf-8"?>
<!-- Generator: Adobe Illustrator 28.0.0, SVG Export Plug-In . SVG Version: 6.00 Build 0)  -->
<svg version="1.1" id="Camada_1" xmlns="http://www.w3.org/2000/svg" xmlns:xlink="http://www.w3.org/1999/xlink" x="0px" y="0px"
	 viewBox="0 0 69.83 69.61" style="enable-background:new 0 0 69.83 69.61;" xml:space="preserve"> 
<style type="text/css">
	.st0{display:none;}
	.st1{display:inline;fill:#B0B6BC;}
	.st2{display:inline;fill:#C4C9CF;}
	.st3{display:inline;fill:#FAFAFA;}
	.st4{fill:url(#SVGID_1_);}
	.st5{fill:#466084;}
	.st6{fill:#2E3F71;}
	.st7{fill:#6D87B1;}
	.st8{fill:#FAFAFA;}
	.st9{fill:#0D152B;}
	.st10{fill:#506D9F;}
	.st11{fill:#0C0C0A;}
	.st12{fill:#909EC3;}
	.st13{fill:url(#SVGID_00000078009783896299269550000014648966940735845029_);}
	.st14{fill:#A4B2D5;}
	.st15{fill:#DEE3E9;}
	.st16{fill:#C3D5E8;}
	.st17{fill:#C5D0EC;}
	.st18{fill:#B8ECFD;}
	.st19{fill:#E0EBFD;}
	.st20{fill:#6496D5;}
	.st21{fill:#7DA2C4;}
	.st22{fill:#122F56;}
	.st23{fill:#9FC9EA;}
	.st24{fill:#9DB9D8;}
	.st25{fill:#2098CC;}
	.st26{fill:#8EE6F8;}
	.st27{fill:#154578;}
	.st28{fill:#255695;}
	.st29{fill:#7AC3E7;}
	.st30{fill:#D5F2FB;}
	.st31{fill:#43AAD3;}
	.st32{fill:#0C121A;}
	.st33{fill:#1765A0;}
	.st34{fill:#A3D9F3;}
	.st35{fill:#0A0909;}
	.st36{fill:#EDD1BC;}
	.st37{fill:#F7E3CD;}
	.st38{fill:#BA9A9C;}
	.st39{fill:#937988;}
	.st40{fill:#A98E98;}
	.st41{fill:#D2B0A2;}
	.st42{fill:#B92E33;}
	.st43{fill:#EA6A4B;}
	.st44{fill:#E05345;}
	.st45{fill:#DA7B40;}
	.st46{fill:#FAF8F7;}
	.st47{fill:#BABBBD;}
	.st48{fill:#D7D5D7;}
	.st49{fill:#908F9B;}
	.st50{fill:#AAA5AD;}
	.st51{fill:#4D9290;}
	.st52{fill:#BEAAAE;}
	.st53{fill:#5E5F74;}
	.st54{fill:#645B73;}
	.st55{fill:#807997;}
	.st56{fill:#480B02;}
	.st57{fill:#C9CCAC;}
	.st58{fill:#E17C1F;}
	.st59{fill:#A08EA4;}
	.st60{fill:#B86F35;}
	.st61{fill:#E9C8A4;}
	.st62{fill:#9E2611;}
	.st63{display:inline;fill:#EAEBEE;}
	.st64{fill:#3F3B42;}
	.st65{fill:#484856;}
	.st66{fill:#F1865F;}
	.st67{fill:#E25D43;}
	.st68{fill:#190F0D;}
	.st69{fill:#080706;}
	.st70{fill:#BAB8B4;}
	.st71{fill:#7889A1;}
	.st72{fill:#28262F;}
	.st73{fill:#131822;}
	.st74{fill:#536F8D;}
	.st75{fill:#C73C3A;}
	.st76{fill:#A19D9E;}
	.st77{fill:#92888E;}
	.st78{fill:#73341B;}
	.st79{fill:#4A1C1F;}
	.st80{fill:#A91D24;}
	.st81{fill:#48120B;}
	.st82{fill:#A15330;}
	.st83{fill:#250C09;}
	.st84{fill:#19151D;}
	.st85{fill:#831A19;}
	.st86{fill:#671819;}
	.st87{fill:#D46E28;}
	.st88{fill:#E99F35;}
	.st89{fill:#E79546;}
	.st90{fill:#994F40;}
	.st91{fill:#D2CBC6;}
	.st92{fill:#BB4930;}
	.st93{fill:#37485C;}
	.st94{fill:#495B6E;}
	.st95{fill:#25170E;}
	.st96{fill:#202935;}
	.st97{fill:#632112;}
	.st98{fill:#3F4862;}
	.st99{fill:#B5A9A5;}
	.st100{fill:#7D7F83;}
	.st101{fill:#869DB4;}
	.st102{fill:#283951;}
	.st103{fill:#89432B;}
	.st104{fill:#65738D;}
	.st105{fill:#2B2526;}
	.st106{fill:#A63E28;}
	.st107{fill:#F4C774;}
	.st108{fill:#8E4B1C;}
	.st109{fill:#30180E;}
	.st110{fill:#AE6226;}
	.st111{fill:#BE7A2B;}
	.st112{fill:#F3A959;}
	.st113{fill:#513018;}
	.st114{fill:#DCAC41;}
	.st115{fill:#203342;}
	.st116{fill:#C7CCCF;}
	.st117{fill:#96BCCE;}
	.st118{fill:#131729;}
	.st119{fill:#90352A;}
	.st120{fill:#773138;}
	.st121{fill:#688398;}
	.st122{fill:#344A71;}
	.st123{fill:#375F91;}
	.st124{fill:#693611;}
	.st125{fill:#646A73;}
	.st126{display:inline;fill:#B5B8BC;}
	.st127{display:inline;fill:#F8F9F9;}
	.st128{display:inline;fill:#D0D3D7;}
	.st129{fill:#F8F9F9;}
	.st130{fill:#090908;}
	.st131{fill:#AD2C3E;}
	.st132{fill:#D0D3D7;}
	.st133{fill:#43120C;}
	.st134{fill:#3D171A;}
	.st135{fill:#5E1E15;}
	.st136{fill:#EEC89C;}
	.st137{fill:#FBC3E5;}
	.st138{fill:#CB545A;}
	.st139{fill:#CD6076;}
	.st140{fill:#20191C;}
	.st141{fill:#8E706C;}
	.st142{fill:#B69E98;}
	.st143{fill:#2F2831;}
	.st144{fill:#725B5C;}
	.st145{fill:#A52349;}
	.st146{fill:#EBD4B4;}
	.st147{fill:#C33C28;}
	.st148{fill:#99817B;}
	.st149{fill:#FCC49A;}
	.st150{fill:#3B2E30;}
	.st151{fill:#D2988D;}
	.st152{fill:#DE6D13;}
	.st153{fill:#D04619;}
	.st154{fill:#F4BC55;}
	.st155{fill:#321F30;}
	.st156{fill:#DED0C9;}
	.st157{fill:#897F66;}
	.st158{fill:#4D3C3C;}
	.st159{fill:#5D5050;}
	.st160{fill:#968271;}
	.st161{fill:#5E4648;}
	.st162{fill:#C1B8B6;}
	.st163{fill:#C7CFC6;}
	.st164{fill:#F8B26A;}
	.st165{fill:#CF5C10;}
	.st166{fill:#F2A83B;}
	.st167{fill:#EBED55;}
	.st168{fill:#F2CB56;}
	.st169{fill:#FCE8A0;}
	.st170{fill:#240601;}
	.st171{fill:#295687;}
	.st172{fill:#59769C;}
	.st173{fill:#85A2C8;}
	.st174{fill:#1A2952;}
	.st175{fill:#376499;}
	.st176{fill:#F3E97D;}
	.st177{fill:#F3901B;}
	.st178{fill:#3F4D71;}
	.st179{fill:#254072;}
	.st180{fill:#7789AA;}
	.st181{fill:#7294B3;}
	.st182{fill:#546186;}
	.st183{fill:#8F867F;}
	.st184{fill:#D97B7B;}
	.st185{fill:#EECFBB;}
	.st186{fill:#AD2C68;}
	.st187{fill:#D47763;}
	.st188{fill:#EAB4A0;}
	.st189{fill:#E0BBB2;}
	.st190{fill:#EDE4E1;}
	.st191{fill:#D1A798;}
	.st192{fill:#CABFAF;}
	.st193{fill:#7B675C;}
	.st194{fill:#878A85;}
	.st195{fill:#BC8D7E;}
	.st196{fill:#693B1E;}
	.st197{fill:#3D1D05;}
	.st198{fill:#F3B8B8;}
	.st199{fill:#D1CCED;}
	.st200{fill:#C83E54;}
	.st201{fill:#84340E;}
	.st202{fill:#DACDE1;}
	.st203{fill:#E7E3EE;}
	.st204{fill:#14141A;}
	.st205{fill:#5C4B73;}
	.st206{fill:#C6B9CF;}
	.st207{fill:#81709B;}
	.st208{fill:#1F1D2E;}
	.st209{fill:#453B60;}
	.st210{fill:#4E4B64;}
	.st211{fill:#6D5F89;}
	.st212{fill:#AE9DC6;}
	.st213{fill:#B3A6B8;}
	.st214{fill:#302843;}
	.st215{fill:#121515;}
	.st216{fill:#565656;}
	.st217{fill:#858387;}
	.st218{fill:#8B8A8E;}
	.st219{fill:#5F5A66;}
	.st220{fill:#917FAC;}
</style>
<g>
	<g>
		<path class="st35" d="M0.19,69.61C0.1,34.98,0.1,34.98,0,0.36c17.08-0.25,34.18-0.27,51.26-0.32c6.1-0.02,12.22-0.14,18.31,0.19
			c0.06,34.6,0.06,34.6,0.13,69.2"/>
	</g>
	<rect x="4.83" y="4.58" class="st36" width="59.99" height="60.86"/>
	<g>
		<g>
			<g>
				<path class="st202" d="M60.24,13.41c-0.08,0.06-0.03,1.15-0.04,1.35c-1.03,0.04-1.03,0.04-2.07,0.08
					c-0.04-0.44,0.06-1.07,0-1.43c0.96-0.02,0.96-0.02,1.91-0.04c0.02-0.78-0.03-1.57,0-2.35c0-0.01,0.16-0.15,0.16-0.16"/>
				<path class="st202" d="M64.18,16.12c-0.21,0-0.15-0.08-0.16-0.08"/>
				<path class="st203" d="M69.75,16.04c0,0.38,0.08,0.8,0.08,1.19"/>
				<path class="st204" d="M8.45,42.71c0.01,0.69-0.01,1.38,0,2.07c-0.04,0-0.1,0.07-0.72,0.08c-0.4,0-0.8,0-1.19,0
					c-0.01-0.26,0.01-0.53,0-0.8c0-0.68,0-0.68,0-1.35C7.11,42.71,7.91,42.72,8.45,42.71z"/>
				<path class="st204" d="M60.04,8.4c-0.66-0.01-1.33,0-1.99,0c-0.34,0-0.69,0-1.03,0c-0.78,0.01-1.53-0.09-1.43,0.16
					c-0.01-0.03-0.21-0.18-0.24-0.24c0.05-0.01,0.13,0.03,0.24-0.12"/>
				<path class="st202" d="M60.28,8.48c-0.01,0,0.07-0.08-0.24-0.08"/>
				<path class="st202" d="M55.58,8.2c-0.11,0.15-0.19,0.11-0.24,0.12c-0.59,0.16-3.42-0.04-4.22-0.08c0.02-0.37-0.01-0.74,0-1.11"
					/>
				<path class="st205" d="M51.12,5.93c-0.01,0.4,0.01,0.8,0,1.19c-0.01,0.37,0.02,0.74,0,1.11c-0.57-0.03-1.14,0.02-1.71,0
					c-0.14-1.86-0.7-0.42-0.76-2.15C48.66,5.76,50.9,5.71,51.12,5.93z"/>
				<path class="st202" d="M6.54,42.71c0,0.68,0,0.68,0,1.35C5.23,44.1,5.86,42.7,6.54,42.71z"/>
				<path class="st206" d="M6.54,44.06c0.01,0.26-0.01,0.53,0,0.8c0,0.05,0,0.11,0,0.16C6.2,44.68,5.23,44.1,6.54,44.06z"/>
				<path class="st204" d="M64.02,16.04c-0.45-0.01-0.89,0.01-1.35,0c-0.81-0.02-0.98,0.08-1.03,0.08c-0.33,0-0.93-0.16-1.35-0.08
					c0-0.01-0.08,0.05-0.08-0.16c0.01-0.37-0.01-0.74,0-1.11c0.01-0.21-0.04-1.3,0.04-1.35"/>
				<path class="st204" d="M60.2,10.87c0-0.07-0.08-0.49-0.08-1.19c0-0.56-0.08-1.16,0.16-1.19"/>
				<path class="st204" d="M60.04,11.03c-0.03,0.78,0.02,1.57,0,2.35c-0.96,0.02-0.96,0.02-1.91,0.04c0-0.01-0.14-0.05-0.16-0.12
					c-0.1-0.43,0.28-0.78-0.48-0.68c0.02-0.53-0.01-1.06,0-1.59C58.34,11.03,59.19,11.02,60.04,11.03z"/>
				<path class="st202" d="M60.2,14.77c-0.01,0.37,0.01,0.74,0,1.11c-0.11,0.44-1.14,0.16-2.07,0.24c-0.03-0.42,0.04-0.85,0-1.27
					C59.16,14.81,59.16,14.81,60.2,14.77z"/>
				<path class="st207" d="M58.13,13.41c0.06,0.36-0.04,0.99,0,1.43c-0.32,0-0.32,0-0.64,0c0-0.77-0.03-1.45,0-2.23
					c0.76-0.1,0.38,0.25,0.48,0.68C57.99,13.37,58.13,13.4,58.13,13.41z"/>
				<path class="st203" d="M7.97,18.67c0.01,0.48-0.01,1.2,0,1.43c-1.31,0-1.31,0-2.63,0c0.02-0.4-0.01-0.8,0-1.19
					c0-0.01,0.16-0.22,0.16-0.24C6.74,18.67,6.74,18.67,7.97,18.67z"/>
				<path class="st202" d="M7.97,20.1c0.01,0.12,0.14,0.61,0.16,0.8c-0.95,0.16-1.91,0.06-2.87,0.08c0.02-0.28,0.06-0.58,0.08-0.88
					C6.66,20.1,6.66,20.1,7.97,20.1z"/>
				<path class="st204" d="M65.93,18.75c-0.21,0-0.42,0-0.64,0c-0.37,0-0.76-0.08-1.11-0.08c0-0.6,0-0.6,0-1.19
					c0-0.68,0-0.68,0-1.35"/>
				<path class="st203" d="M65.29,18.75c-0.02,0.64-0.02,0.64-0.04,1.27c-0.78,0-1.57,0-2.35,0c0-0.4,0-0.8,0-1.19
					c0.35,0.01,0.92-0.16,1.27-0.16C64.53,18.67,64.92,18.74,65.29,18.75z"/>
				<path class="st203" d="M65.53,21.29c0.09,0.37,0.07,0.74,0.08,1.11c-1.31,0-1.31,0-2.63,0c-0.01-0.29,0.01-0.58,0-0.88
					c0-0.08,0-0.16,0-0.24C63.83,21.28,64.68,21.31,65.53,21.29z"/>
				<path class="st206" d="M67.76,25.12c0.02,0.44-0.07,0.95,0.08,1.35c-0.81,0-1.62-0.02-2.43,0c-0.06,0,0,0.16-0.12,0.16
					c-0.39,0.01-0.86-0.09-1.27-0.08c0-0.76,0-0.76,0-1.51c0.1,0.01,0.07-0.06,0.08-0.08C64.97,25.31,66.63,25.02,67.76,25.12z"/>
				<path class="st203" d="M65.61,24c0.7,0.01,1.41-0.01,2.11,0c0.08,0.06,0.03,0.94,0.04,1.11c-1.13-0.09-2.79,0.19-3.66-0.16
					c0.05-0.11-0.03-0.69,0-0.96C64.6,24.01,65.11,23.99,65.61,24z"/>
				<path class="st206" d="M65.61,22.41c0.01,0.53-0.04,1.06,0,1.59c-0.5-0.01-1.01,0-1.51,0c-0.34,0-0.69,0.01-1.03,0
					c-0.14-0.43-0.08-0.97-0.08-1.43c0-0.05,0-0.11,0-0.16C64.3,22.41,64.3,22.41,65.61,22.41z"/>
				<path class="st204" d="M64.02,26.55c0.42-0.01,0.88,0.09,1.27,0.08c0.03,0.66-0.04,1.33,0,1.99c0,0.31-1.24,0.1-2.07,0.16
					c-0.03-0.69-0.06-1.38-0.08-2.07C63.06,26.47,63.46,26.56,64.02,26.55z"/>
				<path class="st203" d="M65.45,28.86c0.02,0.45-0.01,0.9,0,1.35c-0.71-0.02-1.44,0.03-2.15,0c-0.16-0.43-0.06-0.97-0.08-1.43
					c0.83-0.06,2.07,0.15,2.07-0.16C65.29,28.63,65.45,28.84,65.45,28.86z"/>
				<path class="st202" d="M67.84,34.35c0.01,0.45-0.01,0.9,0,1.35c-0.9,0.09-1.82-0.09-2.71-0.08c-0.05-0.49,0.04-0.95,0.08-1.43
					c0-0.01,0.07,0.03,0.08-0.08c0.8,0.14,1.62,0.08,2.43,0.08C67.78,34.19,67.72,34.35,67.84,34.35z"/>
				<path class="st204" d="M64.65,31.72c0.64-0.04,0.6,0.08,0.64,0.08c0,0.56,0,0.56,0,1.11c-0.02,0.4,0.03,0.8,0,1.19
					c-0.01,0.11-0.08,0.07-0.08,0.08c-0.96,0-0.96,0-1.91,0c0-0.01-0.07,0.01-0.16-0.12c0-1.11,0-1.11,0-2.23
					C63.24,31.62,64.13,31.75,64.65,31.72z"/>
				<path class="st202" d="M65.45,30.21c0.01,0.79-0.09,1.53,0.16,1.43c-0.02,0-0.22,0.15-0.32,0.16c-0.03,0,0.01-0.12-0.64-0.08
					c-0.32-0.21-1.33,0.02-1.43-0.12c-0.04-0.06,0.03-1.12,0-1.39c0.03,0,0.05,0,0.08,0C64.02,30.24,64.74,30.19,65.45,30.21z"/>
				<path class="st203" d="M65.21,34.19c-0.04,0.48-0.13,0.95-0.08,1.43c-0.01,0,0.03,0.16-0.04,0.16
					c-0.58,0.01-1.13-0.11-1.71-0.08c-0.03-0.51-0.05-1.01-0.08-1.51C64.26,34.19,64.26,34.19,65.21,34.19z"/>
				<path class="st207" d="M7.34,31.8c0.01,0.77,0,1.54,0,2.31c0,1.17-0.07,2.34-0.08,3.5c-0.76-0.04-0.76-0.04-1.51-0.08
					c0-0.13,0-0.27,0-0.4c0-0.5,0-1.01,0-1.51c0-0.72,0-0.72,0-1.43c0.02,0,0.25-0.06,0.32-0.08c0.76-0.18,0.56-0.37,0.88-1.23
					c0.04-0.11,0.35,0.12,0.4-1.55C7.34,31.48,7.34,31.64,7.34,31.8z"/>
				<path class="st208" d="M7.26,37.61c-0.01,0.79-0.1,1.67-0.08,1.91c-0.45,0-1.43-1.67-1.43-1.99C6.5,37.57,6.5,37.57,7.26,37.61z
					"/>
				<path class="st203" d="M7.18,39.52c0.01,0.08,0.35-0.44,0.24,1.39C7.36,41,6.73,39.53,7.18,39.52z"/>
				<path class="st209" d="M35.76,3.06c0.12,0,0.06,0.16,0.12,0.16c0.78,0.02,1.57,0.06,2.35,0.08c0,0.6,0,0.6,0,1.19
					c-3.66,0-3.66,0-7.32,0c-0.02-0.6,0.11-1.12-0.16-1.27c0.08-0.08,0.08-0.08,0.16-0.16C32.51,3.32,34.15,3.03,35.76,3.06z"/>
				<path class="st205" d="M23.1,5.85c0,0.14,0.13,0.26,0.08,0.48c-0.67,0.03-1.36-0.02-2.03,0c-0.06,0.94-0.06,0.94-0.12,1.87
					c-0.82,0.02-0.82,0.02-1.63,0.04c-0.02-1.19-0.02-1.19-0.04-2.39C20.61,5.85,21.85,5.88,23.1,5.85z"/>
				<g>
					<path class="st204" d="M27.08,3.54c-0.02,0.4,0.02,0.8,0,1.19C27.12,4.87,27,4.9,27,4.98c-1.87,0-1.87,0-3.74,0
						c0-0.01-0.08,0.05-0.08-0.16c-0.01-0.48,0.01-0.96,0-1.43C24.21,3.31,26.97,3.11,27.08,3.54z"/>
					<path class="st210" d="M27,4.98c0,0.09,0.16,0.92,0.16,1.03C27.16,6.14,27,6,27,6.25c-1.28-0.04-2.54,0.02-3.82,0.08
						c0.05-0.22-0.08-0.34-0.08-0.48c0-0.12,0.16-0.76,0.16-0.88C25.13,4.98,25.13,4.98,27,4.98z"/>
				</g>
				<path class="st205" d="M55.34,8.32c0.03,0.06,0.23,0.21,0.24,0.24c0.04,0.15-0.01,0.72,0,1.03c0,0.03,0,0.05,0,0.08
					c-0.49-0.13-1.01-0.08-1.51-0.08c-0.98-0.01-1.96-0.09-2.95-0.08c-0.22-0.34-0.01-0.98,0-1.27C51.92,8.28,54.75,8.48,55.34,8.32
					z"/>
				<g>
					<path class="st202" d="M57.01,9.59c0.33,0,0.69,0.08,1.03,0.08c0.69,0,1.38,0,2.07,0c0,0.7,0.08,1.13,0.08,1.19
						c0,0.01-0.16,0.15-0.16,0.16c-0.85,0-1.7,0.01-2.55,0c-0.62,0-1.25,0-1.87,0c-0.06,0-0.03-0.16-0.04-0.16c0-0.4,0-0.8,0-1.19
						c0-0.03,0-0.05,0-0.08C56.06,9.77,56.55,9.59,57.01,9.59z"/>
					<path class="st203" d="M60.04,8.4c0.31,0,0.23,0.08,0.24,0.08c-0.24,0.04-0.16,0.63-0.16,1.19c-0.69,0-1.38,0-2.07,0
						c0-0.64,0-0.64,0-1.27C58.71,8.4,59.37,8.39,60.04,8.4z"/>
					<path class="st203" d="M57.01,8.4c0,0.6,0,0.6,0,1.19c-0.46-0.01-0.96,0.18-1.43,0c-0.01-0.31,0.04-0.89,0-1.03
						C55.48,8.31,56.23,8.4,57.01,8.4z"/>
					<path class="st202" d="M58.05,8.4c0,0.64,0,0.64,0,1.27c-0.35,0-0.7-0.07-1.03-0.08c0-0.6,0-0.6,0-1.19
						C57.36,8.4,57.7,8.4,58.05,8.4z"/>
				</g>
				<path class="st204" d="M40.14,6.09c1.6,0.04,3.18,0.1,4.78,0.08c1.24-0.02,2.49-0.15,3.74-0.08c0.06,1.73,0.61,0.29,0.76,2.15
					c0.57,0.02,1.14-0.03,1.71,0c-0.01,0.29-0.22,0.94,0,1.27c-0.06,0-0.03,0.17-1.03,0.24c-0.59-0.15-1.23-0.07-1.83-0.08
					c-0.66-0.01-0.76-0.08-0.8-0.08c0.14-0.9-0.55-0.42-1-0.56c-0.03-0.01-0.1-0.24-0.12-0.24c0.38-1.33-0.24-0.91-2.47-0.96
					c-0.08,0-0.16,0-0.24,0c-1.41-0.03-2.81-0.04-4.22-0.08c-0.43-0.01-0.84-0.07-1.27-0.08c0-0.23-0.09-0.73-0.08-0.88
					c0-0.04,0.12,0.26,0.16-0.72C38.86,6.12,39.51,6.07,40.14,6.09z"/>
				<g>
					<path class="st204" d="M44.75,3.38c0.03,0.48-0.01,0.96,0,1.43c0,0.05,0,0.11,0,0.16c-2.31,0-2.31,0-4.62,0
						c0-0.11,0-0.21,0-0.32c0-0.44,0.09-0.93,0.08-1.35C41.72,3.21,43.25,3.39,44.75,3.38z"/>
					<path class="st210" d="M44.75,4.98c0.01,0.44-0.1,0.91,0.16,1.19c-1.6,0.02-3.18-0.04-4.78-0.08c0-0.56,0-0.56,0-1.11
						C42.44,4.98,42.44,4.98,44.75,4.98z"/>
				</g>
				<path class="st209" d="M60.28,16.04c-0.01,0.47-0.07,0.95-0.08,1.43c0,0.08,0,0.16,0,0.24c-0.86,0-0.86,0-1.71,0
					c-0.12-1.12-0.35-1.43-0.36-1.51c0-0.03,0-0.05,0-0.08c0.93-0.07,1.96,0.2,2.07-0.24C60.19,16.09,60.28,16.03,60.28,16.04z"/>
				<path class="st209" d="M55.58,9.67c0,0.4,0,0.8,0,1.19c-0.08,0-0.13,0.27-1.51,0.16c0-0.72,0-0.72,0-1.43
					C54.57,9.6,55.09,9.54,55.58,9.67z"/>
				<path class="st208" d="M58.13,14.85c0.04,0.42-0.03,0.85,0,1.27c0,0.03,0,0.05,0,0.08c-0.95,0.04-0.76,0.01-0.8-0.64
					c-0.03-0.41,0.16-0.68,0.16-0.72C57.81,14.85,57.81,14.85,58.13,14.85z"/>
				<path class="st209" d="M8.05,23.68c0,0.14,0.23,0.04,0.24,0.12c0.14,1.77-0.24,0.92-0.4,1.27c-0.06,0.13,0.05,0.8,0,0.88
					c-0.28,0.4-0.49-0.81-0.56,1.23c-0.4,0-0.4,0-0.8,0c-0.28,0-0.28,0-0.56,0c0.07-0.97-0.11-1.18-0.08-1.23
					c0.13-0.24,0.37,0.5,0.4-1c0-0.13,0-0.27,0-0.4c0.56-0.07,1.6,0.31,1.19-0.64C7.53,23.91,7.49,23.58,8.05,23.68z"/>
				<path class="st211" d="M6.54,27.19c0.12,0.5,0.03,1.04-0.16,1.51c-0.24,0-0.24,0-0.48,0c0-0.52,0.04-1,0.08-1.51
					C6.26,27.19,6.26,27.19,6.54,27.19z"/>
				<g>
					<path class="st202" d="M8.21,21.06c0.04,0.44-0.03,0.91,0,1.35c-0.03,0-0.05,0-0.08,0c-0.98,0.04-1.97-0.03-2.95,0
						c0.01-0.48,0.05-0.95,0.08-1.43c0.95-0.02,1.92,0.08,2.87-0.08C8.15,21.11,8.21,21.05,8.21,21.06z"/>
				</g>
				<path class="st211" d="M7.5,23.92c0.41,0.94-0.63,0.57-1.19,0.64c0-0.24,0-0.24,0-0.48c0.01,0-0.03-0.16,0.04-0.16
					C6.7,23.9,7.3,23.97,7.5,23.92z"/>
				<path class="st212" d="M9.09,18.67c0,0.28,0,0.28,0,0.56c0,0.84,0,0.84,0,1.67c-0.35,0.19-0.77-0.03-0.88,0.16
					c0-0.01-0.06,0.06-0.08-0.16c-0.02-0.19-0.15-0.68-0.16-0.8c-0.01-0.24,0.01-0.95,0-1.43c0-0.08,0.08-0.08,0.08-0.16
					C8.2,18.76,8.6,18.66,9.09,18.67z"/>
				<path class="st205" d="M15.62,11.03c0,0.52,0,0.52,0,1.03c-0.66,0-1.36,0.17-2.03,0.08c-0.05,0.28-0.12,0.23-0.12,0.24
					c-0.32-0.04-0.32-0.04-0.64-0.08c0.03-0.45-0.02-0.9,0-1.35c0.04-0.04,0.04-0.04,0.08-0.08C13.39,11.13,14.75,11.04,15.62,11.03
					z"/>
				<path class="st213" d="M10.36,17.47c0,0.21,0.02,0.44,0,0.64c-0.01,0.12,0.04,0.5-0.04,0.56c-0.41-0.01-0.82,0.01-1.23,0
					c-0.49-0.01-0.89,0.09-1.03-0.16c0-0.34,0-0.69,0-1.03C9.21,17.47,9.21,17.47,10.36,17.47z"/>
				<path class="st209" d="M13.55,16.2c0.01,0.16,0,0.32,0,0.48c-2.01-0.47,0.1,1.55-1.83,1.47c-0.05,0.57,0.08,0.57,0.08,0.6
					c-0.03,0.29-0.14,0.6-0.08,0.92c-0.06,0.08-0.36,0.03-0.48,0.04c-0.11,0.01-0.51,0.02-0.56,0c-0.53-0.19,0.33-0.83-1.59-0.48
					c0-0.28,0-0.28,0-0.56c0.41,0.01,0.82-0.01,1.23,0c0.08-0.06,0.03-0.43,0.04-0.56c1.89,0.32,0.83-0.99,1.11-1.39
					c0.2-0.28,0.82,0.4,0.96-0.44C12.99,16.24,12.99,16.24,13.55,16.2z"/>
				<path class="st209" d="M62.9,18.83c0,0.4,0,0.8,0,1.19c-0.51,0-1.11-0.06-1.59,0.08c0.15-0.79-0.16-0.67-0.16-0.72
					c0-0.04,0.14-0.21,0.08-0.72c0.54,0.01,1.09-0.01,1.63,0C62.93,18.67,62.9,18.83,62.9,18.83z"/>
				<path class="st209" d="M10.12,20.5c-0.33,1.41-0.96,0.75-0.8,1.83c-0.03,0-0.05,0-0.08,0c-0.33,0.03-0.71,0.07-1.03,0.08
					c-0.03-0.44,0.04-0.91,0-1.35c0.1-0.19,0.53,0.03,0.88-0.16C9.31,20.77,8.98,20.41,10.12,20.5z"/>
				<path class="st209" d="M10.68,19.7c-0.42,0.13-0.16,0.75-0.16,0.8c0,0.03,0,0.05,0,0.08c-0.16,0.03-0.24-0.07-0.4-0.08
					c-1.15-0.09-0.81,0.28-1.03,0.4c0-0.84,0-0.84,0-1.67C11.01,18.87,10.16,19.51,10.68,19.7z"/>
				<path class="st207" d="M62.98,22.57c0,0.46-0.06,1.01,0.08,1.43c-0.03,0-0.05,0-0.08,0c-0.42-0.01-0.85,0.02-1.27,0
					c-0.03,0-0.05,0-0.08,0c0.07-0.45,0.23-0.99,0.24-1.43C62.43,22.57,62.43,22.57,62.98,22.57z"/>
				<path class="st207" d="M62.98,24c0.03,0.26-0.05,0.84,0,0.96c-0.12,0.24-0.61,0.01-1.27,0.08c0.01-0.32-0.13-0.7,0-1.03
					C62.13,24.02,62.56,23.99,62.98,24z"/>
				<path class="st214" d="M60.28,19.38c0.44,0,0.44,0,0.88,0c0,0.04,0.31-0.07,0.16,0.72c-0.02,0.09,0.04,0.27-0.04,0.32
					c-0.33-0.03-0.77,0.05-1.07,0C59.93,19.26,60.27,19.44,60.28,19.38z"/>
				<path class="st208" d="M62.98,21.53c0.01,0.29-0.01,0.58,0,0.88c0,0.05,0,0.11,0,0.16c-0.56,0-0.56,0-1.11,0
					c0.01-0.29-0.01-0.58,0-0.88C61.79,21.42,62.35,21.57,62.98,21.53z"/>
				<g>
					<path class="st203" d="M64.02,16.04c0.01,0-0.05,0.08,0.16,0.08c0,0.68,0,0.68,0,1.35c-0.5,0-1.01,0-1.51,0
						c0-0.72,0-0.72,0-1.43C63.13,16.05,63.57,16.03,64.02,16.04z"/>
					<path class="st203" d="M61.63,16.12c-0.04,0.64-0.04,0.64-0.08,1.27c-0.43,0-0.91,0.16-1.35,0.08
						c0.01-0.48,0.07-0.97,0.08-1.43C60.7,15.96,61.3,16.12,61.63,16.12z"/>
					<path class="st202" d="M62.66,16.04c0,0.72,0,0.72,0,1.43c-0.37,0-0.76-0.08-1.11-0.08c0.04-0.64,0.04-0.64,0.08-1.27
						C61.68,16.12,61.85,16.02,62.66,16.04z"/>
					<path class="st213" d="M62.66,17.47c0.5,0,1.01,0,1.51,0c0,0.6,0,0.6,0,1.19c-0.35,0-0.92,0.17-1.27,0.16
						c-0.01,0,0.03-0.16-0.04-0.16c-0.54-0.01-1.09,0.01-1.63,0c-0.52,0-0.52,0-1.03,0c0.01-0.32,0-0.64,0-0.96
						c0-0.08,0-0.16,0-0.24c0.44,0.08,0.93-0.08,1.35-0.08C61.9,17.39,62.29,17.47,62.66,17.47z"/>
				</g>
				<path class="st211" d="M64.02,25.04c0,0.76,0,0.76,0,1.51c-0.55,0.01-0.96-0.08-0.88,0.16c-0.02-0.55-0.15-1.11-0.08-1.67
					C63.54,25.04,63.54,25.04,64.02,25.04z"/>
				<path class="st208" d="M64.1,24c-0.03,0.26,0.05,0.84,0,0.96c-0.01,0.02,0.02,0.09-0.08,0.08c-0.48,0-0.48,0-0.96,0
					c-0.1,0.01-0.07-0.06-0.08-0.08c-0.05-0.11,0.03-0.69,0-0.96c0.03,0,0.05,0,0.08,0C63.41,24.01,63.75,24,64.1,24z"/>
				<path class="st203" d="M67.44,31.64c0.11,1.76,0.02,1.19-2.15,1.27c0-0.56,0-0.56,0-1.11c0.1,0,0.3-0.16,0.32-0.16
					C66.22,31.62,66.83,31.64,67.44,31.64z"/>
				<path class="st204" d="M38.23,4.5c0,0.04,0,0.04,0,0.08c-0.01,0.5,0.02,1.01,0,1.51c-0.03,0.98-0.16,0.67-0.16,0.72
					c-1.49,0.1-2.94-0.17-4.42-0.08c-0.03,0-0.12,0.16-0.16,0.16c-0.27,0.02-1.3-0.12-1.35-0.08c-0.07,0.05-0.64,0.84,0.52,0.8
					c-0.4,0.01-0.8-0.01-1.19,0c-0.02,0-0.08,0.07-0.48,0.08c1.9-1.59,0.23,0.1-0.32-1.67c0.09-0.02,0.26,0.04,0.32-0.04
					c-0.07-0.46-0.06-0.93-0.08-1.39c0-0.03,0-0.05,0-0.08C34.56,4.5,34.56,4.5,38.23,4.5z"/>
				<g>
					<path class="st203" d="M40.22,3.3c0.01,0.42-0.08,0.91-0.08,1.35c-0.96-0.04-0.96-0.04-1.91-0.08c0-0.04,0-0.04,0-0.08
						c0-0.6,0-0.6,0-1.19c0.79,0.02,1.93,0.07,1.83-0.16C40.06,3.16,40.22,3.29,40.22,3.3z"/>
					<path class="st213" d="M40.14,4.66c0,0.11,0,0.21,0,0.32c0,0.56,0,0.56,0,1.11c-0.63-0.02-1.28,0.03-1.91,0
						c0.02-0.5-0.01-1.01,0-1.51C39.18,4.62,39.18,4.62,40.14,4.66z"/>
				</g>
				<path class="st208" d="M30.66,6.01c0.55,1.77,2.22,0.08,0.32,1.67C29.65,7.72,28.33,7.77,27,7.84c-0.03,0-0.05,0-0.08,0
					c0.35-0.47,0.07-1.08,0.08-1.59c0-0.24,0.16-0.11,0.16-0.24C28.09,5.93,30.03,6.12,30.66,6.01z"/>
				<path class="st209" d="M17.21,9.67c0-0.64,0-0.64,0-1.27c2.05-0.01,2.35-0.66,2.11,1.27C18.62,9.68,17.91,9.66,17.21,9.67z"/>
				<path class="st208" d="M20.63,9.67c0.27,0.58-0.65,0.88-0.4,1.23c0.09,0.13,0.62-0.11,0.56,0.2c-0.43,0.01-0.85-0.07-1.27-0.08
					c-0.24-0.01-0.48,0.01-0.72,0c-0.29-0.02-0.59,0.02-0.88,0c-0.37-0.02-0.71,0.07-0.72-0.08c0.73-0.03,1.46,0.02,2.19,0
					c0.18-0.07-0.05-0.99,0.12-1.15C19.75,9.58,20.32,9.69,20.63,9.67z"/>
				<g>
					<path class="st202" d="M14.58,9.67c0.48,0,0.48,0,0.96,0c0.56-0.01,1.11,0.01,1.67,0c0,0.64,0,0.64,0,1.27
						c-0.53,0.02-1.05,0.07-1.59,0.08c-0.87,0.01-2.23,0.1-2.71-0.16c0-0.6,0-0.6,0-1.19C13.75,9.67,13.75,9.67,14.58,9.67z"/>
					<path class="st203" d="M14.58,8.4c0,0.64,0,0.64,0,1.27c-0.84,0-0.84,0-1.67,0c0-0.56,0-0.56,0-1.11c0.09,0,0.3-0.16,0.32-0.16
						C13.68,8.39,14.13,8.4,14.58,8.4z"/>
					<path class="st203" d="M17.21,8.4c0,0.64,0,0.64,0,1.27c-0.56,0.01-1.11-0.01-1.67,0c0.04-0.64,0.04-0.64,0.08-1.27
						C16.15,8.39,16.68,8.4,17.21,8.4z"/>
					<path class="st202" d="M15.62,8.4c-0.04,0.64-0.04,0.64-0.08,1.27c-0.48,0-0.48,0-0.96,0c0-0.64,0-0.64,0-1.27
						C14.93,8.39,15.27,8.4,15.62,8.4z"/>
				</g>
				<g>
					<path class="st203" d="M28.75,3.3c0,0.68,0,0.68,0,1.35c-0.55,0.02-1.12,0.16-1.67,0.08c0.02-0.4-0.02-0.8,0-1.19
						c0-0.01,0.16-0.22,0.16-0.24C28,3.3,28,3.3,28.75,3.3z"/>
					<path class="st203" d="M30.74,3.22c0.26,0.16,0.14,0.67,0.16,1.27c0,0.03,0,0.05,0,0.08c-0.71,0.16-1.44,0.05-2.15,0.08
						c0-0.68,0-0.68,0-1.35C29.75,3.26,29.75,3.26,30.74,3.22z"/>
					<path class="st213" d="M30.9,4.58c0.02,0.46,0.01,0.93,0.08,1.39c-0.05,0.08-0.23,0.02-0.32,0.04c-0.63,0.11-2.57-0.08-3.5,0
						C27.16,5.9,27,5.07,27,4.98c0-0.08,0.12-0.11,0.08-0.24c0.56,0.08,1.12-0.06,1.67-0.08C29.47,4.63,30.19,4.73,30.9,4.58z"/>
				</g>
				<path class="st208" d="M54.07,9.59c0,0.72,0,0.72,0,1.43c0.01,0.26-0.01,0.53,0,0.8c0,0.03,0,0.05,0,0.08
					c-0.07,0.01-0.07-0.02-0.08-0.08c-0.02-0.15,0.05-0.73-0.04-0.8c-0.05-0.04-1.11,0.01-1.31,0c-0.4-0.01-0.8,0.01-1.19,0
					c-0.08,0-0.16,0-0.24,0c-0.32-1.27-1.06-0.03-1.11-1.27c1.01-0.07,0.98-0.24,1.03-0.24C52.1,9.5,53.08,9.58,54.07,9.59z"/>
				<path class="st208" d="M38.07,6.81c-0.01,0.15,0.08,0.65,0.08,0.88c-0.66-0.01-1.37-0.09-2.03-0.16
					c-1.16-0.06-2.31,0.06-3.46,0.08c-1.16,0.04-0.58-0.75-0.52-0.8c0.06-0.04,1.08,0.1,1.35,0.08c0.03,0,0.13-0.16,0.16-0.16
					C35.12,6.64,36.57,6.9,38.07,6.81z"/>
				<path class="st214" d="M46.35,8.8c-0.57-0.12-1.11-0.03-1.67-0.08c-0.15-0.01-0.46,0.05-0.56-0.04
					c-0.03-0.03-0.15-0.71-0.24-0.84C46.11,7.88,46.72,7.47,46.35,8.8z"/>
				<path class="st214" d="M56.77,12.62c0,0.72,0.07,0.61-1.51,0.48c-0.35-0.03-0.72,0.02-1.07,0c-0.09-0.04-0.11-0.6-0.12-0.72
					c-0.02-0.16,0.01-0.32,0-0.48c0-0.03,0-0.05,0-0.08c1.33,0.04,1.33,0.04,2.67,0.08C56.81,11.95,56.77,12.49,56.77,12.62z"/>
				<path class="st205" d="M7.34,27.19c-0.02,0.52-0.03,0.99-0.08,1.51c-0.44,0-0.44,0-0.88,0c0.19-0.47,0.28-1.02,0.16-1.51
					C6.94,27.19,6.94,27.19,7.34,27.19z"/>
				<path class="st212" d="M13.47,12.38c-0.04,0.12,0.01,0.92,0,1.27c-0.02,0.61,0.08,1.23-0.08,1.83c-0.16-0.05-0.67,0.03-0.96,0
					c0.01-0.27-0.08-0.56-0.08-0.8c0-0.06,0.15-0.61,0.08-1.11c0.02,0-0.12-0.17,0.32-0.2c0.02-0.33-0.03-0.67,0-1
					c0-0.01,0.07,0.03,0.08-0.08C13.15,12.34,13.15,12.34,13.47,12.38z"/>
				<path class="st208" d="M17.93,11.03c0.15,1.28-0.4,0.39-0.76,1.27c-0.46-0.14-0.96-0.08-1.43-0.08c-0.06,0,0-0.16-0.12-0.16
					c0-0.52,0-0.52,0-1.03c0.54-0.01,1.06-0.06,1.59-0.08C17.21,11.09,17.56,11,17.93,11.03z"/>
				<path class="st214" d="M18.8,11.03c0.01,1.54-0.56,0.34-1.11,1.35c-0.12,0.01-0.24-0.01-0.36,0c-0.07,0.06-0.04,0.29-0.04,0.4
					c-0.36,0.42-0.94,0.69-0.08,0.8c-0.48,0.02-0.96-0.02-1.43,0c-0.77,0.03-1.54,0-2.31,0.08c0.01-0.35-0.04-1.15,0-1.27
					c0-0.01,0.07,0.04,0.12-0.24c0.67,0.09,1.37-0.08,2.03-0.08c0.12,0,0.06,0.16,0.12,0.16c0.47,0,0.97-0.06,1.43,0.08
					c0.36-0.88,0.9,0.01,0.76-1.27C18.22,11.04,18.51,11.01,18.8,11.03z"/>
				<path class="st205" d="M10.36,16.04c0.68,0.02,1.39,0.22,2.07,0c-0.01,0.08,0.01,0.16,0,0.24c-0.14,0.84-0.76,0.16-0.96,0.44
					c-0.29,0.41,0.78,1.71-1.11,1.39c0.02-0.2,0-0.43,0-0.64c0.01-0.6,0.08-1.29-0.16-1.43C10.26,16.04,10.31,16.04,10.36,16.04z"/>
				<path class="st209" d="M15.78,13.57c-0.18,0.78-1.13,1.24-1.27,1.39c-0.28,0.3,0.31,0.61-0.96,0.68
					c-0.01-0.09-0.08-0.14-0.16-0.16c0.16-0.6,0.05-1.23,0.08-1.83C14.24,13.57,15,13.61,15.78,13.57z"/>
				<path class="st208" d="M13.39,15.48c0.08,0.02,0.15,0.07,0.16,0.16c0.01,0.18-0.01,0.37,0,0.56c-0.56,0.04-0.56,0.04-1.11,0.08
					c0.01-0.08-0.01-0.16,0-0.24c0.01-0.18-0.01-0.37,0-0.56C12.72,15.52,13.23,15.43,13.39,15.48z"/>
				<g>
					<path class="st204" d="M9.77,47.48c0.09,0.06,0.03,1.93,0.04,2.23c-0.28,0-0.28,0-0.56,0c-0.34,0-0.69,0-1.03,0
						c-0.54,0-1.09,0-1.63,0c-0.2,0.09-0.11,0.89-0.12,1.27"/>
					<path class="st204" d="M16.65,57.52c0,0.05-0.01,0.11,0,0.16c0.03,0.2,0.01,0.75,0,1.03"/>
					<path class="st206" d="M12.19,56.08c0.37,0.01,0.74,0,1.11,0c0.48,0,0.96,0.01,1.43,0c0.36,0,0.66,0.02,1.03,0
						c0.11,0,0.21,0.01,0.32,0c-0.03,0.5-0.2,0.89-0.56,1.23c0.51,0.14,1.17-0.12,1.11,0.2"/>
					<g>
						<path class="st204" d="M37.51,63.17c0,0.32,0,0.32,0,0.64c-0.02,0.6-0.02,0.6-0.04,1.19c-0.84,0.01-1.67-0.01-2.51,0
							c-0.34,0-0.69,0-1.03,0c-0.48,0-0.48,0-0.96,0c-0.8,0-0.8,0-1.59,0c0.01-0.42-0.01-0.85,0-1.27c0-0.22-0.05-0.44,0.08-0.64
							C33.46,63.17,35.51,63.27,37.51,63.17z"/>
					</g>
					<path class="st206" d="M6.54,45.02c0.01,0.16-0.04,0.9,0.04,0.96c0.33,0.03,0.77-0.05,1.07,0c0.42,0.06,1.14,0.21,1.11,0.76
						C8.72,47.64,6.2,44.68,6.54,45.02z"/>
					<path class="st202" d="M6.46,50.99c0.58,0.21,1.19,0,1.75,0c0.29,0,0.58,0,0.88,0c0.04,0,0.12,0.08,0.8,0.08
						c0.53,0,1.06,0,1.59,0c0.84,0,0.84,0,1.67,0c-0.02,0.7-0.08,1.44-0.08,1.51"/>
					<path class="st206" d="M24.29,61.26c0.29,0,0.61-0.08,0.88-0.08c0.48,0,0.96,0,1.43,0c0.05,0,0.11,0,0.16,0
						c0.57,0,1.17,0.16,1.75,0.08c0.02,0.51,0.09,1.09,0.08,1.59c-0.69-0.16-1.39,0.01-2.07,0c-0.43,0-1.77-0.28-1.91,0.08
						c0-0.01-0.07,0.04-0.12-0.24c-0.62-0.06-1.36,0.15-1.87-0.16c0.04-0.46,0.05-0.9,0.08-1.35
						C23.22,61.31,23.77,61.25,24.29,61.26z"/>
					<path class="st204" d="M61.63,45.02c0.68,0,1.4-0.06,2.07,0.08c0,0.27,0,0.53,0,0.8c0,0.46,0.06,1.01-0.08,1.43
						c-1.05-0.02-2.52,0.12-3.03-0.16c0.03-0.42-0.02-0.85,0-1.27c0-0.36,0-0.36,0-0.72C60.65,45.18,60.24,45.02,61.63,45.02z"/>
					<path class="st213" d="M49.13,58.71c0.4,0,0.4,0,0.8,0c0.76,0,0.76,0,1.51,0c0.01,0.37-0.01,0.74,0,1.11
						c-0.07,0.28-0.52,0.29-0.88,0.32c-0.34,0.03-0.69-0.01-1.03,0c-0.82-0.04-0.82-0.04-1.63-0.08c-0.06-0.68-0.06-0.68-0.12-1.35
						c0.03,0,0.05,0,0.08,0C48.28,58.72,48.71,58.7,49.13,58.71z"/>
					<path class="st204" d="M26.52,62.85c0,0.4,0,0.4,0,0.8c0,0.72,0,0.72,0,1.43c-0.04,0.04-0.04,0.04-0.08,0.08
						c-0.61,0.01-1.22-0.02-1.83,0c-0.02-0.47,0.03-0.96,0-1.43c-0.02-0.25,0.04-0.69,0-0.8C24.75,62.57,26.1,62.85,26.52,62.85z"/>
					<path class="st203" d="M63.62,47.33c0.08,0,0.08,0.08,0.16,0.08c0,0.56,0,0.56,0,1.11c-1.67,0-1.67,0-3.34,0
						c0-0.39,0.06-0.74,0.08-1.11c0.02-0.32,0.08-0.23,0.08-0.24C61.1,47.45,62.57,47.31,63.62,47.33z"/>
					<path class="st215" d="M63.3,37.53c0,0.04,0.12-0.22,0.16,0.8c0.01,0.37-0.01,0.74,0,1.11c-0.19-0.01-0.37,0-0.56,0
						c-0.52,0-0.52,0-1.03,0c0-0.01-0.16,0.02-0.16-0.04c0-0.58,0-1.17,0-1.75C62.51,37.59,62.51,37.59,63.3,37.53z"/>
					<path class="st206" d="M63.7,43.58c0,0.42,0,0.85,0,1.27c0,0.08,0,0.16,0,0.24c-0.67-0.14-1.39-0.08-2.07-0.08
						c0.37-0.08,0.24-0.76,0.24-1.43C62.48,43.6,63.09,43.57,63.7,43.58z"/>
					<g>
						<path class="st202" d="M28.43,65.16c0,0.45,0,0.9,0,1.35c-1,0-1,0-1.99,0c0-0.64,0-0.64,0-1.27
							C27.1,65.1,27.77,65.16,28.43,65.16z"/>
						<path class="st203" d="M24.61,65.16c0.61-0.02,1.22,0.01,1.83,0c0,0.04,0,0.04,0,0.08c0,0.64,0,0.64,0,1.27
							c-0.96,0-0.96,0-1.91,0c0-0.39,0.06-0.97-0.08-1.27C24.46,65.24,24.4,65.16,24.61,65.16z"/>
					</g>
					<path class="st202" d="M63.7,42.31c0,0.64,0,0.64,0,1.27c-0.61-0.01-1.22,0.02-1.83,0c0-0.42,0-0.85,0-1.27
						c0.16-0.01,0.32,0.01,0.48,0C62.82,42.28,63.25,42.32,63.7,42.31z"/>
					<path class="st203" d="M13.15,51.07c-0.84,0-0.84,0-1.67,0c0.06-0.68,0.06-0.68,0.12-1.35c0.8,0,0.8,0,1.59,0
						c0.1,0.05,0.12,1.11,0.12,1.23C13.31,51.01,13.15,51.06,13.15,51.07z"/>
					<path class="st203" d="M18.32,58.71c-0.84,0-0.84,0-1.67,0c0.01-0.28,0.03-0.83,0-1.03c0.13-0.6,1.02-0.34,1.63-0.4
						C18.3,57.99,18.3,57.99,18.32,58.71z"/>
					<path class="st203" d="M32.97,65c0,0.64,0,0.64,0,1.27c-0.54,0-1.12,0.16-1.67,0.08c0-0.4-0.01-0.8,0-1.19
						c0-0.08,0.08-0.08,0.08-0.16C32.18,65,32.18,65,32.97,65z"/>
					<path class="st203" d="M13.07,52.58c0,0.11,0.16,0.22,0.16,0.24c0,0.29-0.01,0.58,0,0.88"/>
					<path class="st203" d="M56.53,57.44c0.42,0,0.85,0,1.27,0c0,0.68,0,0.68,0,1.35c-0.8,0-0.8,0-1.59,0c0-0.4,0.06-0.97-0.08-1.27
						C56.19,57.51,56.51,57.44,56.53,57.44z"/>
					<g>
						<path class="st204" d="M14.74,54.73c-0.68,0-0.68,0-1.35,0c0-0.06-0.14,0.36-0.16-1.03c-0.01-0.29,0-0.58,0-0.88
							c0.84-0.02,0.84-0.02,1.67-0.04c-0.02,0.64,0.03,1.28,0,1.91C14.9,54.75,14.74,54.72,14.74,54.73z"/>
						<path class="st203" d="M14.74,54.73c0,0.07,0.22,0.86,0,1.35c-0.48,0.01-0.96,0-1.43,0c-0.28-1.16,0.08-1.28,0.08-1.35
							C14.06,54.73,14.06,54.73,14.74,54.73z"/>
					</g>
					<path class="st202" d="M54.46,54.97c1.38-0.13,1.81,0.16,1.91,0.16c0,0.44,0,0.44,0,0.88c-0.08,0-0.08,0-0.16,0
						c-0.63,0.08-1.29-0.08-1.91-0.08C54.23,54.72,54.46,55.02,54.46,54.97z"/>
					<path class="st203" d="M22.7,58.63c-0.42,0.01-0.85-0.02-1.27,0c0.07-0.2-0.04-1.26,0-1.31c0.08-0.11,1.19-0.25,1.31-0.2
						c0.19,0.09,0.13,1.24,0.12,1.47C22.86,58.66,22.7,58.62,22.7,58.63z"/>
					<path class="st203" d="M26.6,61.18c-0.48,0-0.96,0-1.43,0c0.06-0.68,0.06-0.68,0.12-1.35c0.26,0.03,1.21-0.04,1.27,0
						C26.67,59.9,26.57,60.96,26.6,61.18z"/>
					<path class="st203" d="M53.43,55.92c-0.04,0-0.12,0.1-0.72,0.08c-0.16-0.01-0.9,0.04-0.96-0.04c-0.03-0.05-0.01-1.12,0.04-1.15
						c0.06-0.05,1.53-0.05,1.59,0C53.49,54.88,53.4,55.73,53.43,55.92z"/>
					<path class="st203" d="M41.25,61.26c-0.11,0-0.21,0-0.32,0c-0.44-0.02-0.89,0.09-1.03-0.12c0.06-0.66,0.06-0.66,0.12-1.31
						c0.66,0.06,0.66,0.06,1.31,0.12C41.29,60.6,41.29,60.6,41.25,61.26z"/>
					<path class="st203" d="M51.44,57.59c0,0.56,0,0.56,0,1.11c-0.76,0-0.76,0-1.51,0c0.02-0.64,0.02-0.64,0.04-1.27
						C50.94,57.27,51.36,57.59,51.44,57.59z"/>
					<path class="st203" d="M55.82,52.18c0,0.2,0.04,1.26,0,1.31c-0.07,0.1-1.14,0.01-1.35,0.04c0-0.2-0.2-1.24-0.04-1.35
						C54.49,52.14,55.55,52.21,55.82,52.18z"/>
					<path class="st203" d="M24.29,61.26c-0.53,0-1.07,0.06-1.59-0.08c0.01-0.23-0.06-0.85,0-0.96c0.01-0.01-0.02-0.09,0.08-0.08
						c0.15-0.07,1.41-0.13,1.47-0.08C24.36,60.13,24.26,61.06,24.29,61.26z"/>
					<path class="st203" d="M49.13,58.71c-0.42-0.01-0.85,0.01-1.27,0c0-0.66,0-0.66,0-1.31c0.62-0.06,0.62-0.06,1.23-0.12
						C49.11,57.99,49.11,57.99,49.13,58.71z"/>
					<path class="st203" d="M57.41,50.03c0,0.52,0,0.52,0,1.03c-0.8,0-0.8,0-1.59,0c0-0.09-0.25-0.8,0.04-1.11
						C56.52,49.88,57.33,50.03,57.41,50.03z"/>
					<path class="st203" d="M16.09,56.08c-0.1,0.01-0.21,0-0.32,0c-0.04-0.66-0.04-0.66-0.08-1.31c1.49-0.31,1.29-0.06,1.27,1.27
						C16.91,56.13,16.25,56.06,16.09,56.08z"/>
					<path class="st203" d="M28.59,62.85c-0.01,0.28-0.07,0.54-0.08,0.8c-1,0-1,0-1.99,0c0-0.4,0-0.4,0-0.8
						C27.2,62.86,27.9,62.69,28.59,62.85z"/>
					<path class="st203" d="M42.21,62.77c0,0.44,0,0.44,0,0.88c-0.92,0-0.92,0-1.83,0c-0.02-0.09-0.18,0.08-0.08-0.8
						C40.92,62.7,41.57,62.78,42.21,62.77z"/>
					<path class="st203" d="M20.55,58.63c-0.36,0.01-0.74,0.08-1.11,0.08c-0.39-1.99,0.93-1.63,1.11-1.47
						C20.63,57.3,20.51,58.42,20.55,58.63z"/>
					<path class="st203" d="M8.45,44.78c0.19,0,1.34,0.04,1.39,0.08c0.05,0.03,0.07,1.03,0.04,1.07c-0.07,0.1-1.25,0-1.47,0.04
						C8.35,45.57,8.46,45.17,8.45,44.78z"/>
					<path class="st203" d="M28.51,61.26c-0.58,0.08-1.18-0.08-1.75-0.08c0.01-1.31,0.33-0.78,1.71-0.88
						C28.64,60.66,28.5,61,28.51,61.26z"/>
					<path class="st203" d="M61.87,42.31c0,0.42,0,0.85,0,1.27c-0.41-0.01-0.82,0.01-1.23,0C60.47,41.84,60.56,42.41,61.87,42.31z"
						/>
					<path class="st203" d="M62.9,39.44c0,0.64,0,0.64,0,1.27c-0.03,0,0.04,0.13-0.56,0.08c-0.13-0.01-0.58,0.04-0.64-0.04
						c-0.09-1.24,0.16-1.24,0.16-1.31C62.39,39.44,62.39,39.44,62.9,39.44z"/>
					<path class="st203" d="M46.9,58.71c-0.03,0-0.05,0-0.08,0c-0.17-0.01-0.98,0.04-1.03-0.04c0.03-0.22-0.06-1.32,0.04-1.39
						c0.04-0.03,1.04-0.01,1.07,0.04C46.95,57.38,46.87,58.44,46.9,58.71z"/>
					<path class="st202" d="M47.78,58.71c0.06,0.68,0.06,0.68,0.12,1.35c0.82,0.04,0.82,0.04,1.63,0.08
						c-0.57,0.02-1.19,0.08-1.75,0.08c-0.29,0-0.58,0.01-0.88,0c-0.04-0.76-0.04-0.76-0.08-1.51c0.03,0,0.05,0,0.08,0
						C47.19,58.72,47.49,58.7,47.78,58.71z"/>
					<path class="st203" d="M58.84,47.48c0,0.48,0,0.48,0,0.96c-0.87-0.23-2.01,0.35-1.59-1c0.03-0.09,1.11-0.1,1.47-0.12
						C58.78,47.32,58.72,47.49,58.84,47.48z"/>
					<path class="st203" d="M37.51,63.8c0-0.32,0-0.32,0-0.64c0.09,0,1.37-0.42,1.79-0.24c0.15,0.07,0.16,0.66,0.12,0.76
						C39.31,63.93,37.8,63.75,37.51,63.8z"/>
					<path class="st203" d="M60.59,45.18c0,0.36,0,0.36,0,0.72c-0.94-0.2-2.39,0.28-1.91-0.84c0.04-0.08,1.56-0.04,1.79-0.04
						C60.54,45.02,60.47,45.18,60.59,45.18z"/>
					<path class="st203" d="M34.96,65c0,0.64,0,0.64,0,1.27c-0.34,0-0.69,0-1.03,0c0-0.64,0-0.64,0-1.27
						C34.27,64.99,34.62,65,34.96,65z"/>
					<path class="st203" d="M7.74,44.86c-0.04,0.56-0.04,0.56-0.08,1.11c-0.31-0.05-0.74,0.03-1.07,0
						c-0.08-0.06-0.03-0.79-0.04-0.96c0-0.05,0-0.11,0-0.16C6.94,44.86,7.34,44.86,7.74,44.86z"/>
					<path class="st203" d="M31.46,63.09c-0.13,0.2-0.08,0.42-0.08,0.64c-0.34-0.07-1.54,0.07-1.63,0
						c-0.06-0.04-0.06-0.65-0.04-0.68C29.8,62.92,31.2,63.08,31.46,63.09z"/>
					<path class="st202" d="M9.81,49.71c0.01,0.44,0.11,0.91,0.08,1.35c-0.67,0-0.76-0.08-0.8-0.08c0.05-0.5-0.14-1.07,0.16-1.27
						C9.53,49.71,9.53,49.71,9.81,49.71z"/>
					<path class="st202" d="M63.78,48.52c0,0.64,0,0.64,0,1.27c-0.21,0-0.15,0.08-0.16,0.08c-1.05,0.01-2.1-0.01-3.14,0
						c-0.06-0.04-0.04-1.13-0.04-1.35C62.11,48.52,62.11,48.52,63.78,48.52z"/>
					<path class="st202" d="M66.49,45.97c0.01,0.23,0.07,1.35-0.12,1.43c-0.86-0.1-1.73,0-2.59,0c-0.08,0-0.08-0.08-0.16-0.08
						c0.14-0.43,0.08-0.97,0.08-1.43C65.09,45.93,65.09,45.93,66.49,45.97z"/>
					<path class="st203" d="M66.49,45.97c-1.39-0.04-1.39-0.04-2.79-0.08c0-0.27,0-0.53,0-0.8c0-0.08,0-0.16,0-0.24
						c1.37,0,1.37,0,2.75,0C66.53,44.91,66.48,45.8,66.49,45.97z"/>
					<g>
						<path class="st205" d="M43.88,65.16c0.09-0.01,0.07,0.05,0.08,0.08c0.01,0.04-0.16,0.77-0.2,0.8
							c-0.06,0.04-1.32,0.05-1.39-0.12C41.91,64.89,43.18,65.18,43.88,65.16z"/>
					</g>
					<path class="st212" d="M63.06,25.04c-0.07,0.56,0.06,1.12,0.08,1.67c0.02,0.69,0.05,1.38,0.08,2.07c0.02,0.47-0.08,1,0.08,1.43
						c-0.03,0-0.05,0-0.08,0c-0.33-0.02-0.54-0.01-0.88-0.08c-0.29-0.87,0.28-1.29-0.8-1.51c-0.01-0.67,0.07-1.39,0.08-2.07
						c0-0.13,0-0.27,0-0.4c0-0.37,0.07-0.76,0.08-1.11c0.66-0.07,1.16,0.16,1.27-0.08C62.99,24.98,62.97,25.04,63.06,25.04z"/>
					<path class="st202" d="M13.23,53.69c0.02,1.39,0.16,0.98,0.16,1.03c0,0.07-0.35,0.2-0.08,1.35c-0.37,0-0.74,0.01-1.11,0"/>
					<path class="st203" d="M8.21,49.71c0,0.64,0,0.64,0,1.27c-0.57,0-1.17,0.21-1.75,0c0.01-0.38-0.08-1.19,0.12-1.27
						C7.13,49.71,7.67,49.71,8.21,49.71z"/>
					<path class="st202" d="M9.25,49.71c-0.3,0.2-0.11,0.78-0.16,1.27c-0.29,0-0.58,0-0.88,0c0-0.64,0-0.64,0-1.27
						C8.56,49.71,8.9,49.71,9.25,49.71z"/>
					<path class="st204" d="M22.7,60.22c-0.06,0.1,0.01,0.72,0,0.96c-0.03,0.46-0.04,0.89-0.08,1.35c0,0.03,0,0.05,0,0.08
						c-0.66,0-1.33,0-1.99,0c-0.04-0.76-0.04-0.76-0.08-1.51c0-0.44,0-0.44,0-0.88C21.26,60.21,21.99,60,22.7,60.22z"/>
					<path class="st203" d="M20.55,60.22c0,0.44,0,0.44,0,0.88c-0.69,0.1-2.38,0.4-1.83-0.84C18.85,59.97,20.28,60.23,20.55,60.22z"
						/>
					<g>
						<path class="st202" d="M16.65,58.71c0.84,0,0.84,0,1.67,0c0.37,0,0.74,0,1.11,0c0.37,0,0.75-0.07,1.11-0.08
							c0.29-0.01,0.57,0.01,0.88,0c0.42-0.02,0.85,0.01,1.27,0c-0.02,0.45-0.02,1.1,0.08,1.51c-0.1-0.01-0.07,0.07-0.08,0.08
							c-0.71-0.22-1.44-0.02-2.15,0c-0.27,0.01-1.7-0.26-1.83,0.04c-0.55,1.24,1.14,0.94,1.83,0.84c0.04,0.76,0.04,0.76,0.08,1.51
							c-0.13,0-0.26,0-0.4,0"/>
					</g>
					<path class="st202" d="M57.41,52.18c0.36-0.04,0.81,0.01,1.19,0c-0.06,0.72-0.06,0.72-0.12,1.43c-0.8,0-0.8,0-1.59,0
						c-0.02-0.66-0.02-0.66-0.04-1.31C56.99,52.1,57.21,52.2,57.41,52.18z"/>
					<path class="st203" d="M60.99,52.18c-0.06,0.72-0.06,0.72-0.12,1.43c-0.72,0-0.72,0-1.43,0c-0.06-0.72-0.06-0.72-0.12-1.43
						C59.88,52.17,60.44,52.17,60.99,52.18z"/>
					<path class="st202" d="M58.84,57.44c0,0.68,0,0.68,0,1.35c-0.34,0.02-0.69-0.01-1.03,0c0-0.68,0-0.68,0-1.35
						C58.15,57.43,58.5,57.44,58.84,57.44z"/>
					<path class="st203" d="M61.63,57.44c0,0.64,0,0.64,0,1.27c-0.16,0-0.84,0.2-0.96,0.04c-0.04-0.06,0.03-1.05,0-1.31
						C60.99,57.44,61.31,57.43,61.63,57.44z"/>
					<path class="st203" d="M59.72,57.52c-0.03,0.25,0.04,1.17,0,1.23c-0.06,0.08-0.72,0.03-0.88,0.04c0-0.68,0-0.68,0-1.35
						C59.13,57.44,59.45,57.52,59.72,57.52z"/>
					<path class="st203" d="M52.79,59.98c-0.06,0.64-0.06,0.64-0.12,1.27c-1.75,0.11-1.12-0.07-1.15-1.27
						C52.16,59.98,52.16,59.98,52.79,59.98z"/>
					<path class="st203" d="M54.7,59.98c0,0.6,0,0.6,0,1.19c-0.16-0.01-0.94,0.09-1.03-0.04c-0.04-0.06,0.03-0.91,0-1.15
						C54.01,59.99,54.36,59.97,54.7,59.98z"/>
					<path class="st202" d="M63.46,39.44c0.44,0.01,0.88-0.01,1.31,0c0.35,1.73-0.46,1.27-1.87,1.27c0-0.64,0-0.64,0-1.27
						C63.09,39.45,63.28,39.44,63.46,39.44z"/>
					<path class="st202" d="M33.93,65c0,0.64,0,0.64,0,1.27c-0.32,0-0.64,0-0.96,0c0-0.64,0-0.64,0-1.27C33.45,65,33.45,65,33.93,65
						z"/>
					<path class="st202" d="M49.53,60.14c0.34-0.01,0.7,0.03,1.03,0c-0.03,0.18,0.06,0.96-0.04,1.03c-0.11,0.08-2.27,0.04-2.67,0
						c-0.01-0.3-0.15-0.64-0.08-0.96C48.34,60.22,48.96,60.17,49.53,60.14z"/>
					<path class="st205" d="M6.38,28.7c0.44,0,0.44,0,0.88,0c0,0.04,0.23,0.3-0.04,0.72c-0.46,0.02-0.46,0.02-0.92,0.04
						c0.5,0.02,0.5,0.02,1,0.04c0.14,0.48-0.04,0.76-0.04,0.8c-0.45,0.07-0.92-0.06-1.35-0.08c0-0.68,0-0.68,0-1.35
						c0-0.05,0-0.11,0-0.16C6.14,28.7,6.14,28.7,6.38,28.7z"/>
					<path class="st205" d="M56.06,15.56c0.64,0,0.64,0,1.27,0c0.04,0.64-0.16,0.67,0.8,0.64c0.01,0.08,0.24,0.39,0.36,1.51
						c0.86,0,0.86,0,1.71,0c0,0.32,0.01,0.64,0,0.96c-0.02,0.92,0.08,0.68,0.08,0.72c0,0.06-0.35-0.13-0.08,1.03
						c-0.4-0.06,0.05-0.89-0.28-1.03c-0.12-0.05-0.8,0.05-0.88,0c-0.11-0.08,0.01-0.69-0.04-0.76c-0.08-0.11-0.64,0.03-0.72-0.08
						c-0.05-0.08,0.07-0.62-0.04-0.76c-0.09-0.11-0.84-0.05-0.88-0.08c-0.27-0.19,0.53-0.53-0.84-0.72
						c-0.01-0.71,0.16-0.77-0.56-0.72C55.96,15.19,56.06,15.6,56.06,15.56z"/>
					<path class="st207" d="M61.87,21.69c-0.01,0.29,0.01,0.58,0,0.88c-0.01,0.44-0.17,0.99-0.24,1.43
						c-1.27-0.09-0.47-0.12-0.72-0.68c-0.16-0.36-0.74,0.61-0.56-1.75c0.66-0.06,0.66-0.06,1.31-0.12
						C61.77,21.57,61.77,21.57,61.87,21.69z"/>
					<path class="st205" d="M13.55,16.68c0.02,0.61,0.08,0.68,0.08,0.72c-0.11,1.19-0.83,0.38-1.03,0.68
						c-0.16,0.22,0.47,0.84-0.8,0.68c0-0.03-0.13-0.02-0.08-0.6C13.64,18.23,11.53,16.21,13.55,16.68z"/>
					<path class="st211" d="M7.26,30.29c0,0.01,0.07-0.08,0.08,0.24c0.01,0.26-0.01,0.53,0,0.8c-0.05,1.67-0.36,1.44-0.4,1.55
						c-0.31,0.87-0.12,1.05-0.88,1.23c-0.12-1.23,0.3-3.41-0.32-3.18c0-0.22-0.12-0.53,0-0.64c0.08,0,0.08-0.08,0.16-0.08
						C6.34,30.23,6.8,30.36,7.26,30.29z"/>
					<path class="st214" d="M26.92,7.84c0.03,0,0.05,0,0.08,0c0.24,1.78-1.85,0.08-2.31,1.51c-0.13,0.01-0.42-0.17-0.4,0.2
						c1.34,0.15,0.19,0.11-1.27,0.12c-0.34,0-0.69-0.01-1.03,0c0.7-0.98,1-0.6,1.31-0.8c0.29-0.18,0.42-0.92,0.48-0.96
						C23.92,7.85,26.48,7.86,26.92,7.84z"/>
					<path class="st214" d="M50.09,9.75c0.06,1.25,0.79,0.01,1.11,1.27c-0.32-0.01-1.86,0.04-1.95,0c-0.11-0.05,0.15-0.26-0.04-0.52
						c-0.12-0.17-0.97-0.27-0.96-0.84C48.86,9.68,49.5,9.6,50.09,9.75z"/>
					<path class="st209" d="M55.26,13.09c1.58,0.13,1.52,0.25,1.51-0.48c0.77-0.16,0.45,0.36,0.44,1.51c-0.34-0.04-1.41,0.05-1.51,0
						C55.65,14.1,55.43,13.24,55.26,13.09z"/>
					<g>
						<path class="st216" d="M63.38,37.22c0.01,0.25-0.08,0.27-0.08,0.32c-0.8,0.06-0.8,0.06-1.59,0.12c0,0.58,0,1.17,0,1.75
							c0,0.06,0.16,0.03,0.16,0.04c0,0.07-0.25,0.07-0.16,1.31c0.06,0.08,0.5,0.03,0.64,0.04c0,0.76,0,0.76,0,1.51
							c-0.16,0.01-0.32-0.01-0.48,0c-1.31,0.1-1.4-0.47-1.23,1.27c0.41,0.01,0.82-0.01,1.23,0c0,0.67,0.13,1.35-0.24,1.43
							c-1.39,0.01-0.98,0.16-1.03,0.16c-0.12,0-0.06-0.16-0.12-0.16c-0.23,0-1.76-0.04-1.79,0.04c-0.48,1.12,0.97,0.64,1.91,0.84
							c-0.02,0.42,0.03,0.85,0,1.27c0,0.01-0.06-0.08-0.08,0.24c-0.48-0.13-1.12-0.09-1.63-0.08c-0.07,0-0.03,0.16-0.04,0.16
							c-0.12,0-0.06-0.16-0.12-0.16c-0.37,0.02-1.45,0.03-1.47,0.12c-0.42,1.34,0.72,0.76,1.59,1c0,0.74,0,0.74,0,1.47
							c-0.47,0-0.97,0.11-1.43,0.12c-0.08,0-0.89-0.15-1.55-0.08c-0.29,0.32-0.04,1.03-0.04,1.11c0,0.37,0.01,0.74,0,1.11
							c-0.27,0.03-1.33-0.04-1.39,0c-0.16,0.12,0.04,1.15,0.04,1.35c0,0.43,0.04,1.06,0,1.43c-0.01,0.05-0.24-0.25-0.16,0.96
							c-0.29,0-0.58,0-0.88,0c-0.03-0.19,0.06-1.04-0.04-1.11c-0.06-0.05-1.53-0.05-1.59,0c-0.05,0.03-0.07,1.11-0.04,1.15
							c0.06,0.08,0.8,0.03,0.96,0.04c0.17,0.31-0.31,0.88-0.24,1.07c0.18,0.5,2.97,0.19,3.54,0.28c0.36-0.13,0.15-0.76,0.2-1.35
							c0.08,0,0.08,0,0.16,0c0.04,0.73-0.13,1.51,0.16,1.43c-0.02,0-0.35,0.08-0.4,0.08c-1.55,0.01-3.15,0.11-4.7,0.08
							c-0.08,0-0.5-0.33-1.47-0.16c-0.02,0.64-0.02,0.64-0.04,1.27c-0.4,0-0.4,0-0.8,0c-0.02-0.72-0.02-0.72-0.04-1.43
							c-0.62,0.06-0.62,0.06-1.23,0.12c0,0.66,0,0.66,0,1.31c-0.03,0-0.05,0-0.08,0c-0.29-0.01-0.58,0.01-0.88,0
							c-0.03-0.27,0.04-1.33,0-1.39c-0.03-0.05-1.03-0.07-1.07-0.04c-0.1,0.07-0.01,1.18-0.04,1.39c0.06,0.08,0.86,0.03,1.03,0.04
							c0.04,0.76,0.04,0.76,0.08,1.51c-0.29-0.01-0.59,0.02-0.88,0c-0.08,0-1.54-0.37-1.63-0.24c-0.11,0.16,0,0.93-0.04,1.19
							c-0.28,0.01-0.58,0.07-0.88,0.08c-0.04-1.51,0.38-1.56-1.19-1.39c0,0.7,0,0.7,0,1.39c-0.34,0-0.69,0.01-1.03,0
							c0.04-0.66,0.04-0.66,0.08-1.31c-0.66-0.06-0.66-0.06-1.31-0.12c-0.06,0.66-0.06,0.66-0.12,1.31c0.15,0.21,0.59,0.1,1.03,0.12
							c-0.17,1.19-0.76,1.35-0.8,1.47c-0.02,0.05,0.17,0.01,0.16,0.12c-0.1,0.88,0.06,0.7,0.08,0.8c0.05,0.25,0.15,1.16,0.2,1.19
							c0.76,0.04,0.76,0.04,1.51,0.08c0,0.08,0,0.08,0,0.16c-2.27,0-2.27,0-4.54,0c-0.13,0.15,0.04,0.15,0.04,0.16
							c-0.04,0.27,0.01,0.76,0,1.11c-0.87,0.08-1.76-0.08-2.63-0.08c0-0.64,0-0.64,0-1.27c0.84-0.01,1.67,0.01,2.51,0
							c0.02-0.6,0.02-0.6,0.04-1.19c0.29-0.06,1.8,0.13,1.91-0.12c0.04-0.09,0.03-0.69-0.12-0.76c-0.42-0.19-1.7,0.23-1.79,0.24
							c-2,0.1-4.05,0-6.05-0.08c-0.26-0.01-1.66-0.17-1.75-0.04c-0.02,0.03-0.02,0.64,0.04,0.68c0.09,0.07,1.29-0.07,1.63,0
							c-0.01,0.42,0.01,0.85,0,1.27c0,0.08-0.08,0.08-0.08,0.16c-0.95-0.05-1.91,0-2.87,0c-0.66,0-1.34-0.06-1.99,0.08
							c0-0.04,0-0.04,0-0.08c0.04-0.04,0.04-0.04,0.08-0.08c0.94,0,0.94,0,1.87,0c0.22-0.1,0.1-1.1,0.12-1.43
							c0.01-0.26,0.07-0.52,0.08-0.8c0.01-0.5-0.06-1.08-0.08-1.59c-0.01-0.26,0.13-0.6-0.04-0.96c-1.38,0.1-1.7-0.43-1.71,0.88
							c-0.05,0-0.11,0-0.16,0c-0.03-0.21,0.06-1.28-0.04-1.35c-0.06-0.04-1.02,0.03-1.27,0c-0.06,0.68-0.06,0.68-0.12,1.35
							c-0.26,0-0.58,0.08-0.88,0.08c-0.03-0.2,0.06-1.12-0.04-1.19c-0.07-0.05-1.32,0.01-1.47,0.08c-0.1-0.41-0.1-1.06-0.08-1.51
							c0-0.01,0.16,0.03,0.16-0.04c0.01-0.24,0.07-1.38-0.12-1.47c-0.12-0.06-1.24,0.09-1.31,0.2c-0.04,0.05,0.07,1.11,0,1.31
							c-0.31,0.01-0.59-0.01-0.88,0c-0.04-0.21,0.08-1.33,0-1.39c-0.18-0.16-1.5-0.52-1.11,1.47c-0.37,0-0.74,0-1.11,0
							c-0.02-0.72-0.02-0.72-0.04-1.43c-0.61,0.05-1.5-0.2-1.63,0.4c-0.01-0.05,0-0.11,0-0.16c0.05-0.32-0.6-0.06-1.11-0.2
							c0.36-0.34,0.53-0.74,0.56-1.23c0.16-0.02,0.81,0.05,0.88-0.04c0.02-1.34,0.22-1.58-1.27-1.27c0.04,0.66,0.04,0.66,0.08,1.31
							c-0.37,0.02-0.67,0-1.03,0c0.22-0.49,0-1.29,0-1.35c0-0.01,0.16,0.03,0.16-0.04c0.03-0.63-0.02-1.28,0-1.91
							c-0.84,0.02-0.84,0.02-1.67,0.04c0-0.01-0.16-0.13-0.16-0.24c0-0.08,0.06-0.81,0.08-1.51c0-0.01,0.16-0.06,0.16-0.12
							c0-0.12-0.02-1.19-0.12-1.23c-0.8,0-0.8,0-1.59,0c-0.06,0.68-0.06,0.68-0.12,1.35c-0.53,0-1.06,0-1.59,0
							c0.03-0.45-0.06-0.91-0.08-1.35c-0.01-0.3,0.05-2.16-0.04-2.23c-1.55,0.03-1.04,0.16-1-0.76c0.03-0.55-0.7-0.69-1.11-0.76
							c0.04-0.56,0.04-0.56,0.08-1.11c0.62-0.01,0.68-0.08,0.72-0.08c0,0.39-0.1,0.79-0.04,1.19c0.22-0.04,1.4,0.06,1.47-0.04
							c0.03-0.04,0.01-1.04-0.04-1.07c-0.06-0.04-1.2-0.07-1.39-0.08c-0.01-0.69,0.01-1.38,0-2.07c0.02,0-0.11-0.06,0.4-0.08
							c0.36-0.02,0.72,0.01,1.07,0c0.06-0.1,0.06-0.1,0.12-0.2c-0.16-2.06,0.8-2.46,0.8-5.33c0-0.1-0.61-0.99,0.4-1.59
							c0.38-1.98,0.71,0.03,0.96-0.48c0.06-0.12,0.24-2.11,0.32-2.55c0.74-1.92,1.13-1.63,1.27-1.83c0.21-0.29,0.15-1.82,2.07-3.03
							c0.5-0.74,0.5-0.74,1-1.47c1.04-0.16,1.04-0.98,1.83-1.03c0.42-0.9,1.41-0.58,1.83-1.83c1.06-0.15,1.83-1.04,2.63-1.35
							c0.22-1.01,1.95-1.36,2.87-1.83c1.43-1.23,1.43-1.23,2.87-2.47c1.29-0.75,3.02-0.45,3.82-0.8c0.37-0.16,0.09-0.7,3.03-0.88
							c3.4-0.2,5.71,0.41,8.84,1.51c1.14,1.2,2.8,1.12,3.66,1.83c1.25,1.72,3.05,2.91,4.38,4.54c1.18,0.45,1.98,1.4,3.03,2.07
							c1.15,1.78,2.65,2.73,2.75,2.91c0.14,0.25,0,1.1,0.56,1.59c0.04,0.76,0.04,0.76,0.08,1.51c1,0.68,0.04,1,0.08,1.27
							c0.01,0.1,0.52,0.22,0.32,0.96c0.61,0.26,0.62,3.45,0.96,3.66c0.39,0.24,0.83-0.41,1.11,0.48c0.1,2.04,0.06-0.78,0.36-0.92
							C62.34,37.41,63,37.63,63.38,37.22z"/>
						<path class="st217" d="M61.63,26.55c-0.01,0.68-0.09,1.4-0.08,2.07c0.01,0.51,0.02,1.33,0.6,1.59
							c0.09,0.04,0.13-0.09,0.2-0.08c0.34,0.07,0.54,0.06,0.88,0.08c0.03,0.27-0.04,1.33,0,1.39c0.1,0.14,1.12-0.09,1.43,0.12
							c-0.52,0.03-1.42-0.1-1.51,0.12c0,1.11,0,1.11,0,2.23c0.09,0.13,0.16,0.11,0.16,0.12c0.03,0.51,0.05,1.01,0.08,1.51
							c0.03,0.5-0.01,1.01,0,1.51c-0.38,0.41-1.04,0.19-1.55,0.16c-0.29,0.14-0.26,2.96-0.36,0.92c-0.28-0.88-0.73-0.24-1.11-0.48
							c-0.33-0.21-0.34-3.4-0.96-3.66c0.2-0.74-0.3-0.86-0.32-0.96C59.04,32.92,60,32.6,59,31.92c-0.04-0.76-0.04-0.76-0.08-1.51
							c-0.56-0.49-0.42-1.34-0.56-1.59c-0.1-0.18-1.6-1.13-2.75-2.91c-1.04-0.67-1.85-1.62-3.03-2.07
							c-1.33-1.63-3.13-2.82-4.38-4.54c-0.87-0.71-2.52-0.64-3.66-1.83c-3.13-1.1-5.44-1.72-8.84-1.51
							c-2.93,0.18-2.66,0.71-3.03,0.88c-0.8,0.35-2.53,0.04-3.82,0.8c-1.43,1.23-1.43,1.23-2.87,2.47
							c-0.92,0.47-2.64,0.82-2.87,1.83c-0.8,0.32-1.57,1.2-2.63,1.35c-0.42,1.25-1.41,0.93-1.83,1.83
							c-0.79,0.05-0.79,0.87-1.83,1.03c-0.5,0.74-0.5,0.74-1,1.47c-1.92,1.21-1.86,2.73-2.07,3.03c-0.14,0.21-0.53-0.08-1.27,1.83
							c-0.08,0.44-0.26,2.43-0.32,2.55c-0.24,0.51-0.57-1.5-0.96,0.48c-1.01,0.6-0.4,1.49-0.4,1.59c0,2.87-0.96,3.28-0.8,5.33
							c-0.06,0.1-0.06,0.1-0.12,0.2c-0.36,0.01-0.72-0.02-1.07,0C8.57,39.86,8.66,37,8.53,34.19c-0.04-0.79,0.01-1.66,0-1.75
							c0.05,0.07,0.39-0.86,0.4-0.92c0.12-0.68,0.17-2.16,0.32-2.87c0.02-0.09,0.5-1.67,0.64-1.51c-0.2-2.06,0.79-0.54,1-1.87
							c1.16,0.3,0.23-0.62,1.39-0.92c-0.33-1.06,0.69-0.63,0.76-0.68c0.05-0.03,0.11-0.69,0.76-0.76c-0.38-2.62,1.24-0.78,1.07-2.51
							c1.31,0.2,0.66-0.64,0.88-0.8c0.06-0.04,0.65,0.04,0.72,0c0.19-0.14-0.38-0.89,0.8-0.72c0.17-0.11,0.11-0.23,0.12-0.24
							c0.04-0.01,0.12,0.17,0.44,0c0.61-0.79,1.77-1.67,2.71-1.91c0.56-0.73,1.05-0.54,1.51-1.43c1.08-0.21,1.51-0.98,2.47-1.51
							c3.05-1.55,6.33-2.56,9.71-3.1c2.87,0.18,6.57,0,9,1.59c3.35,0.56,5.29,2.22,8.04,3.82c0.77,1.05,1.39,1.06,1.83,1.43
							c1.24,1.23,2.43,2.51,3.66,3.74c0.09,0.09,0.6,0.28,0.84,0.52C59.05,23.31,60.21,25.03,61.63,26.55z"/>
						<path class="st206" d="M54.31,55.92c0.62,0,1.28,0.16,1.91,0.08c-0.05,0.6,0.16,1.23-0.2,1.35c-0.58-0.09-3.36,0.22-3.54-0.28
							c-0.07-0.19,0.41-0.76,0.24-1.07c0.6,0.02,0.68-0.08,0.72-0.08C53.73,55.93,54.01,55.92,54.31,55.92z"/>
						<path class="st206" d="M28.51,63.65c-0.02,0.34,0.1,1.34-0.12,1.43c-0.94,0-0.94,0-1.87,0c0-0.72,0-0.72,0-1.43
							C27.52,63.65,27.52,63.65,28.51,63.65z"/>
						<path class="st206" d="M42.21,63.65c-0.06,0.8-0.06,0.8-0.12,1.59c-2.25,0-2.25,0-4.5,0c0-0.01-0.17-0.01-0.04-0.16
							c2.27,0,2.27,0,4.54,0c0-0.08,0-0.08,0-0.16c-0.76-0.04-0.76-0.04-1.51-0.08c-0.05-0.04-0.15-0.94-0.2-1.19
							C41.29,63.65,41.29,63.65,42.21,63.65z"/>
						<path class="st203" d="M46.03,60.22c0,0.48,0,0.48,0,0.96c-0.56,0.01-1.12-0.02-1.67,0c0.04-0.27-0.07-1.03,0.04-1.19
							C44.49,59.85,45.94,60.22,46.03,60.22z"/>
						<path class="st203" d="M43.48,61.26c-0.4,0.01-0.8,0-1.19,0c0-0.7,0-0.7,0-1.39C43.86,59.7,43.43,59.75,43.48,61.26z"/>
						<path class="st218" d="M43.56,9.27c0.76,0.04,0.97-0.23,1.39,0.48c1.11-0.25,0.77,1.11,2.63,0.88
							c0.31,0.67,0.79-0.02,1.51,1.11c1.46,0.17,2.26,1.21,2.39,1.27c0.16,0.08,0.76-0.02,0.8,0c0.06,0.03,0.14,0.38,0.88,0.88
							c0.12,0.08,0.61,0.12,0.96,0.4c0.64,0.52-0.1,0.74,1.75,0.64c0.01,0.62,0.2,0.59,0.2,0.64c0,0.04-0.1-0.37-0.08,0.72
							c0,0.04-0.21,0.19-0.08,0.76c0.17,0.12,0.48-0.06,0.64-0.04c1.37,0.19,0.56,0.53,0.84,0.72c0.04,0.03,0.79-0.03,0.88,0.08
							c0.11,0.14-0.01,0.68,0.04,0.76c0.08,0.11,0.64-0.03,0.72,0.08c0.05,0.07-0.07,0.68,0.04,0.76c0.07,0.05,0.75-0.05,0.88,0
							c0.33,0.15-0.12,0.97,0.28,1.03c0.3,0.05,0.74-0.03,1.07,0c0.08-0.05,0.02-0.23,0.04-0.32c0.49-0.14,1.08-0.08,1.59-0.08
							c0,0.43,0.07,0.86,0.08,1.27c0,0.08,0,0.16,0,0.24c-0.63,0.03-1.19-0.11-1.11,0.16c-0.1-0.12-0.1-0.12-0.2-0.24
							c-0.66,0.06-0.66,0.06-1.31,0.12c-0.18,2.36,0.4,1.39,0.56,1.75c0.24,0.56-0.56,0.58,0.72,0.68c0.03,0,0.05,0,0.08,0
							c-0.13,0.33,0.01,0.71,0,1.03c-0.01,0.36-0.07,0.74-0.08,1.11c-0.92-1.21-0.92-1.21-1.83-2.43c-1.96-2.32-4.48-3.96-6.41-6.33
							c-1.11-0.45-1.51-1.13-1.91-1.43c-0.78-0.59-1.87-1.04-2.47-1.83c-1.78-0.97-3.63-1.76-5.65-2.07
							c-3.13-1.95-6.98-1.46-10.51-1.51c-1.19,0.39-2.46,0.53-3.66,0.88c-0.31,0.09-1.32,0.87-1.75,0.4
							c-0.8,0.88-3.44,1.3-4.46,2.71c-1.39,0.43-1.36,1.06-1.43,1.11c-1.32,0.97-2.43,1.1-2.47,1.51c-1.02-0.03-0.8,0.69-0.88,0.8
							c-0.16,0.23-1.03-0.47-0.84,0.72c-0.01,0,0.05,0.13-0.12,0.24c-1.17-0.18-0.6,0.58-0.8,0.72c-0.06,0.04-0.65-0.04-0.72,0
							c-0.22,0.15,0.43,1-0.88,0.8c0.17,1.73-1.46-0.11-1.07,2.51c-0.65,0.06-0.71,0.73-0.76,0.76c-0.07,0.04-1.09-0.39-0.76,0.68
							c-1.16,0.3-0.23,1.22-1.39,0.92c-0.21,1.33-1.2-0.19-1,1.87c-0.13-0.16-0.62,1.43-0.64,1.51c-0.15,0.71-0.2,2.19-0.32,2.87
							c-0.01,0.05-0.35,0.99-0.4,0.92c-0.01-0.11-0.06-0.57-0.08-0.6c-0.06-0.08-0.29-0.02-0.4-0.04c-0.17-2.14,0.41-1.34,0.56-1.55
							c0.05-0.07-0.08-1.03-0.08-1.71c0.01-1.55,0.05-3.1,0.08-4.66c0.11-0.33,1.07,0.37,0.64-1.55c0.03,0,0.05,0,0.08,0
							c0.4-0.04,0.86,0.1,1.19-0.2c-0.08-0.52-0.01-1.04,0-1.55c0-0.03,0-0.05,0-0.08c0.31,0.14,0.69-0.47,0.72-0.8
							c0.11-0.01,0.42,0.04,0.48-0.04c-0.06-0.31,0.05-0.63,0.08-0.92c1.27,0.16,0.64-0.45,0.8-0.68c0.21-0.3,0.93,0.51,1.03-0.68
							c0.64,0.11,0.65-0.47,0.88-0.76c0.14-0.17,0.43-0.33,0.48-0.4c0.03-0.04-0.03-0.35,0-0.4c0.05-0.06,0.58,0,0.6-0.52
							c0.08,0.05,0.53,0.09,0.56,0.08c0.16-0.08,2.09-2.04,2.95-1.99c0.71-0.58,0.66-0.93,0.72-0.96c0.2-0.11,0.98,0.13,1.11,0.08
							c0.04-0.02,0.2-0.41,0.64-0.72c0.06-0.04,0.61,0.23,0.92-0.8c0.03,0,0.05,0,0.08,0c0.26-0.02,0.99,0.04,1.07,0
							c0.04-0.02,0.44-0.7,0.48-0.72c0.04-0.02,0.67,0.09,0.88,0c0.09-0.04,1.56-0.92,1.47-1.03c0.24-0.02,0.49-0.06,0.72-0.08
							c0.68-0.05,1.39-0.03,2.07-0.08c1.06-0.07,2.63-0.3,3.22-0.32c2.73-0.09,5.47,0.18,8.2,0.16C40.43,9.51,42.22,9.2,43.56,9.27z
							"/>
						<path class="st219" d="M61.63,26.15c0,0.13,0,0.27,0,0.4c-1.42-1.51-2.58-3.23-4.06-4.74c-0.23-0.24-0.75-0.43-0.84-0.52
							c-1.23-1.23-2.42-2.52-3.66-3.74c-0.44-0.37-1.06-0.38-1.83-1.43c-2.75-1.6-4.69-3.26-8.04-3.82c-2.42-1.59-6.13-1.41-9-1.59
							c-3.39,0.54-6.66,1.55-9.71,3.1c-0.95,0.54-1.39,1.3-2.47,1.51c-0.46,0.89-0.96,0.7-1.51,1.43c-0.94,0.24-2.09,1.12-2.71,1.91
							c-0.31,0.17-0.4-0.01-0.44,0c-0.19-1.18,0.68-0.49,0.84-0.72c0.07-0.1-0.14-0.82,0.88-0.8c0.03-0.42,1.15-0.54,2.47-1.51
							c0.08-0.06,0.05-0.68,1.43-1.11c1.02-1.41,3.66-1.82,4.46-2.71c0.43,0.47,1.44-0.31,1.75-0.4c1.2-0.34,2.47-0.49,3.66-0.88
							c3.53,0.05,7.38-0.44,10.51,1.51c2.02,0.31,3.87,1.1,5.65,2.07c0.6,0.79,1.69,1.24,2.47,1.83c0.4,0.3,0.8,0.98,1.91,1.43
							c1.93,2.37,4.45,4.01,6.41,6.33C60.71,24.94,60.71,24.94,61.63,26.15z"/>
						<path class="st220" d="M8.05,31.8c0.1,0.02,0.34-0.04,0.4,0.04c0.02,0.02,0.07,0.49,0.08,0.6c0.01,0.09-0.04,0.96,0,1.75
							c-0.6-0.04-0.6-0.04-1.19-0.08c0-0.77,0.01-1.54,0-2.31C7.56,31.83,7.84,31.77,8.05,31.8z"/>
						<path class="st212" d="M62.35,30.13c-0.07-0.01-0.11,0.12-0.2,0.08c-0.58-0.26-0.59-1.08-0.6-1.59
							C62.62,28.85,62.05,29.27,62.35,30.13z"/>
						<path class="st205" d="M43.88,7.84c0.09,0.13,0.21,0.81,0.24,0.84c0.1,0.09,0.41,0.03,0.56,0.04
							c0.11,1.14,0.99,0.21,1.15,1.03c0.08,0.03,1.41-0.16,1.63-0.16c0.04,0,0.13,0.07,0.8,0.08c-0.02,0.56,0.83,0.66,0.96,0.84
							c0.18,0.26-0.07,0.46,0.04,0.52c0.09,0.04,1.64-0.01,1.95,0c0.08,0,0.16,0,0.24,0c0.06,1.28,0.92,0.64,1.15,0.88
							c0.24,0.24-0.51,0.43,1.47,0.48c0.01,0.12,0.03,0.68,0.12,0.72c0.36,0.02,0.72-0.03,1.07,0c0.17,0.15,0.39,1.01,0.44,1.03
							c0.1,0.05,1.18-0.04,1.51,0c0.02-1.15,0.33-1.68-0.44-1.51c0-0.13,0.04-0.66-0.04-0.72c-1.33-0.04-1.33-0.04-2.67-0.08
							c-0.01-0.26,0.01-0.53,0-0.8c1.39,0.11,1.43-0.16,1.51-0.16c0.01,0-0.02,0.16,0.04,0.16c0.62,0,1.25,0,1.87,0
							c-0.01,0.53,0.02,1.06,0,1.59c-0.03,0.77,0,1.46,0,2.23c0,0.04-0.18,0.3-0.16,0.72c-0.64,0-0.64,0-1.27,0
							c0-0.05-0.19-0.02-0.2-0.64c-1.85,0.1-1.11-0.12-1.75-0.64c-0.34-0.28-0.83-0.32-0.96-0.4c-0.73-0.5-0.82-0.85-0.88-0.88
							c-0.04-0.02-0.63,0.08-0.8,0c-0.13-0.06-0.92-1.11-2.39-1.27c-0.72-1.13-1.2-0.45-1.51-1.11c-1.86,0.24-1.51-1.12-2.63-0.88
							c-0.43-0.7-0.64-0.44-1.39-0.48c-0.58-0.23-0.9,0.23-1.03-0.64c0.49-0.01,0.98,0.03,1.47,0c-0.18-0.4-0.18-0.4-0.36-0.8
							C43.72,7.84,43.8,7.84,43.88,7.84z"/>
						<path class="st211" d="M9.25,22.33c0.43,1.92-0.53,1.23-0.64,1.55c-0.03,1.55-0.07,3.1-0.08,4.66
							c-1.24,0.11,0.42,1.75-1.19,1.99c-0.01-0.32-0.08-0.23-0.08-0.24c0-0.04,0.18-0.32,0.04-0.8c-0.5-0.02-0.5-0.02-1-0.04
							c0.46-0.02,0.46-0.02,0.92-0.04C7.48,29,7.25,28.73,7.26,28.7c0.05-0.52,0.06-0.99,0.08-1.51c0.07-2.04,0.27-0.83,0.56-1.23
							c0.05-0.07-0.06-0.75,0-0.88c0.15-0.35,0.54,0.5,0.4-1.27c-0.01-0.08-0.24,0.02-0.24-0.12c0.04-0.64,0.04-0.64,0.08-1.27
							c0.03,0,0.05,0,0.08,0C8.54,22.39,8.92,22.36,9.25,22.33z"/>
						<path class="st205" d="M20.79,11.1c0.54-0.01,1.13-0.04,1.67-0.08c-0.31,1.03-0.86,0.76-0.92,0.8
							c-0.43,0.3-0.59,0.7-0.64,0.72c-0.14,0.05-0.91-0.19-1.11-0.08c-0.05,0.03-0.01,0.37-0.72,0.96
							c-0.85-0.05-2.78,1.91-2.95,1.99c-0.03,0.01-0.48-0.03-0.56-0.08c-0.02,0.52-0.55,0.46-0.6,0.52c-0.03,0.05,0.03,0.35,0,0.4
							c-0.05,0.06-0.34,0.23-0.48,0.4c-0.22,0.28-0.24,0.87-0.88,0.76c0-0.04-0.06-0.11-0.08-0.72c0-0.16,0.01-0.32,0-0.48
							c-0.01-0.18,0.01-0.37,0-0.56c1.26-0.07,0.68-0.38,0.96-0.68c0.14-0.15,1.1-0.62,1.27-1.39c0.48-0.02,0.96,0.02,1.43,0
							c0.32-0.25,0.08-0.75,0.08-0.8c0-0.11-0.03-0.34,0.04-0.4c0.12-0.01,0.24,0.01,0.36,0c0.37-0.03,0.98,0.17,1.15,0.08
							c0.08-0.04,0.1-0.52,0.16-0.56c0.48-0.29,0.53,0.53,0.52-0.88C19.94,11.04,20.36,11.11,20.79,11.1z"/>
						<path class="st205" d="M38.15,7.68c0.43,0.01,0.84,0.07,1.27,0.08c0.56,0.7,1.25,0.4,1.83,0.88c-0.42,0-1.6,0.28-1.63-0.16
							c-0.23,0.13-0.41,0.02-0.6-0.08c0-0.05,0.02-0.14-0.04-0.16c-0.33-0.1-0.31-0.03,0.04,0.16c-0.35,0.29-0.32-0.15-0.36-0.16
							c-0.34-0.08-1.15,0.03-1.67,0c-0.01,0-0.22-0.16-0.24-0.16c-0.66-0.03-3.82,0.03-4.5,0.08c-0.41,0.03-0.56-0.14-0.4,0.32
							c-1,0.22-2.28-0.25-2.63,0.64c-0.68,0.05-1.39,0.03-2.07,0.08c0.03-0.89,0.94-0.47,2.11-0.56c0.02-0.98,1.68,0.12,2.19-1.03
							c0.4-0.01,0.8,0.01,1.19,0c1.15-0.02,2.31-0.14,3.46-0.08C36.77,7.59,37.49,7.67,38.15,7.68z"/>
						<path class="st207" d="M39.02,8.4c0.19,0.1,0.37,0.21,0.6,0.08c0.03,0.44,1.21,0.16,1.63,0.16c0.42,0,0.85,0.01,1.27,0
							c0.14,0.87,0.46,0.4,1.03,0.64c-1.34-0.07-3.13,0.23-2.91-0.32c-2.73,0.02-5.47-0.25-8.2-0.16c-0.59,0.02-2.16,0.25-3.22,0.32
							c0.35-0.88,1.63-0.41,2.63-0.64c0.27-0.06,0.46,0.16,0.4-0.32c0.67-0.05,3.84-0.11,4.5-0.08c0.01,0,0.22,0.16,0.24,0.16
							c0.52,0.03,1.33-0.08,1.67,0C38.7,8.25,38.67,8.68,39.02,8.4z"/>
						<path class="st209" d="M27.16,9.19c-0.23,0.02-0.48,0.06-0.72,0.08c-0.58,0.04-1.18,0.03-1.75,0.08
							c0.46-1.44,2.54,0.26,2.31-1.51c1.33-0.07,2.65-0.12,3.98-0.16c0.4-0.01,0.45-0.08,0.48-0.08c-0.51,1.15-2.17,0.05-2.19,1.03
							C28.1,8.73,27.19,8.3,27.16,9.19z"/>
						<path class="st205" d="M24.69,9.35c0.57-0.05,1.17-0.04,1.75-0.08c0.09,0.12-1.39,1-1.47,1.03c-0.2,0.09-0.84-0.02-0.88,0
							c-0.04,0.02-0.44,0.7-0.48,0.72c-0.09,0.04-0.81-0.02-1.07,0c-2.03-0.31,0.43-0.48,0.48-1.35c1.47-0.01,2.61,0.03,1.27-0.12
							C24.27,9.18,24.57,9.36,24.69,9.35z"/>
						<path class="st209" d="M21.99,9.67c0.34-0.01,0.69,0,1.03,0c-0.05,0.88-2.5,1.04-0.48,1.35c-0.03,0-0.05,0-0.08,0
							c-0.54,0.04-1.13,0.07-1.67,0.08c0.06-0.31-0.46-0.07-0.56-0.2c-0.25-0.36,0.67-0.65,0.4-1.23
							C21.06,9.65,21.55,9.68,21.99,9.67z"/>
						<path class="st207" d="M8.53,28.54c0,0.68,0.13,1.64,0.08,1.71c-0.15,0.21-0.73-0.59-0.56,1.55c-0.22-0.03-0.49,0.02-0.72,0
							c0-0.16,0-0.32,0-0.48c-0.01-0.26,0.01-0.53,0-0.8C8.95,30.29,7.29,28.65,8.53,28.54z"/>
						<path class="st211" d="M10.52,20.58c-0.01,0.52-0.08,1.04,0,1.55c-0.33,0.3-0.79,0.16-1.19,0.2c-0.16-1.08,0.46-0.43,0.8-1.83
							C10.28,20.51,10.36,20.61,10.52,20.58z"/>
						<path class="st207" d="M56.53,17c-0.15-0.02-0.47,0.16-0.64,0.04c-0.13-0.57,0.08-0.72,0.08-0.76
							C56.69,16.23,56.53,16.28,56.53,17z"/>
						<path class="st205" d="M10.68,19.7c0.05,0.02,0.45,0.01,0.56,0c-0.03,0.33-0.41,0.93-0.72,0.8
							C10.52,20.45,10.26,19.83,10.68,19.7z"/>
						<path class="st209" d="M43.64,7.84c0.18,0.4,0.18,0.4,0.36,0.8c-0.49,0.03-0.98-0.01-1.47,0c-0.42,0.01-0.85,0-1.27,0
							c-0.58-0.48-1.27-0.18-1.83-0.88C40.83,7.81,42.23,7.81,43.64,7.84z"/>
						<path class="st209" d="M46.35,8.8c0.01,0,0.09,0.23,0.12,0.24c0.44,0.13,1.14-0.35,1,0.56c-0.22-0.01-1.56,0.19-1.63,0.16
							c-0.16-0.82-1.04,0.1-1.15-1.03C45.24,8.77,45.77,8.67,46.35,8.8z"/>
						<path class="st209" d="M52.63,11.03c0.05,1.1,0.37,0.75,1.35,0.8c0.01,0.06,0.01,0.09,0.08,0.08c0.01,0.16-0.02,0.32,0,0.48
							c-1.99-0.04-1.24-0.24-1.47-0.48c-0.24-0.24-1.09,0.4-1.15-0.88C51.84,11.03,52.24,11.01,52.63,11.03z"/>
						<path class="st209" d="M19.52,11.03c0.01,1.41-0.03,0.58-0.52,0.88c-0.06,0.03-0.08,0.51-0.16,0.56
							c-0.17,0.09-0.79-0.11-1.15-0.08c0.55-1.01,1.13,0.19,1.11-1.35C19.04,11.04,19.28,11.02,19.52,11.03z"/>
						<path class="st209" d="M17.21,13.57c-0.86-0.1-0.28-0.37,0.08-0.8C17.29,12.82,17.53,13.32,17.21,13.57z"/>
						<path class="st211" d="M32.25,8.16c0.06,0.48-0.13,0.26-0.4,0.32C31.69,8.02,31.84,8.19,32.25,8.16z"/>
						<path class="st211" d="M39.02,8.4c-0.35-0.18-0.37-0.26-0.04-0.16C39.04,8.26,39.02,8.34,39.02,8.4z"/>
					</g>
				</g>
				<path class="st207" d="M61.23,18.67c0.06,0.5-0.08,0.68-0.08,0.72c-0.44,0-0.44,0-0.88,0c0-0.04-0.1,0.21-0.08-0.72
					C60.71,18.67,60.71,18.67,61.23,18.67z"/>
				<path class="st203" d="M12.43,13.57c0.07,0.5-0.08,1.06-0.08,1.11c-1-0.04-1-0.04-1.99-0.08c-0.01-0.3,0.04-0.82,0-0.96
					C10.65,13.26,12.33,13.6,12.43,13.57z"/>
				<path class="st213" d="M12.35,14.69c0,0.24,0.09,0.52,0.08,0.8c-0.01,0.18,0.01,0.37,0,0.56c-0.68,0.22-1.39,0.02-2.07,0
					c-0.01-0.48,0.02-0.96,0-1.43C11.36,14.65,11.36,14.65,12.35,14.69z"/>
				<path class="st208" d="M53.99,11.82c-0.99-0.05-1.31,0.31-1.35-0.8c0.21,0.01,1.26-0.04,1.31,0
					C54.04,11.09,53.97,11.67,53.99,11.82z"/>
			</g>
		</g>
	</g>
	<path class="st36" d="M66.1,5.73c0.13,29.05,0.13,29.05,0.25,58.11c-0.18,0.27-0.38,0.17-0.63,0.19c-0.13,0.01-1.97-0.11-2.53-0.13
		c-0.04,0-0.25-0.37-0.51-0.38c0-3.25,0-6.51,0-9.76c0-3.21-0.12-6.43-0.13-9.63c-0.01-7.71,0.23-15.42,0-23.13
		c-0.09-0.13-0.47-0.04-0.63-0.06c0.19-2.66-0.37-2.34-0.38-2.47c-0.05-0.75,0.27-2.38,0.13-3.55c-1.13-0.23-2.49,0.2-2.41-0.32
		c1.16,0,2.26,0.06,3.42-0.13c0.18-0.03,0.09,0.36,0.25,0.19c0.2-2.89-0.21-5.86-0.13-8.74c0-0.1,0.25,0.01,0.25-0.19
		C64.58,5.73,64.58,5.73,66.1,5.73z"/>
	<path class="st36" d="M6.29,5.73c0.13,7.35,0.13,7.35,0.25,14.7c0.18-0.05,0.24,0.09,0.38,0.13c-0.06,5.1-0.06,5.1-0.13,10.2
		c1.39,0.03,1.39,0.03,2.79,0.06c0,0.19,0.26,0.09,0.25,0.19c-0.01,0.52,0.14,1.87,0.13,1.96c-0.01,0.08-0.18,0.67-0.32,0.76
		c-1.43,0.03-1.43,0.03-2.85,0.06c-0.01,5.22,0.01,10.43,0,15.65c0,0.87-0.25,1.15-0.25,1.96c0,1.13,0.13,2.27,0.13,3.42
		c0,0.1,0.25,0,0.25,0.19c0,0.02-0.25,0.1-0.25,0.19c0,3.25,0.31,6.32,0.25,8.3c0,0.03-0.22,0.2-0.25,0.63c-1.46,0-1.46,0-2.91,0
		C3.31,47.05,3.17,22.7,3.62,5.73C4.35,5.65,5.87,5.84,6.29,5.73z"/>
	<path class="st37" d="M63.06,3.07c-0.02,0.89,0.03,1.78,0,2.66c-0.01,0.2-0.25,0.09-0.25,0.19c-0.09,2.88,0.33,5.85,0.13,8.74
		c-0.16,0.17-0.07-0.22-0.25-0.19c0-4.21,0-4.21,0-8.43c-0.22-0.32-6.81,0.07-7.73,0.06c-1.53-0.01-3.04,0.01-4.56,0
		c-0.47,0-1.02-0.13-1.52-0.13c-1.27,0-2.55,0.13-3.8,0.13C38.14,6.09,31.21,6,24.28,5.98c-1.43,0-2.88,0.01-4.31,0
		c-0.56,0-1.18-0.12-1.77-0.13c-1.27,0-2.53-0.01-3.8,0c-2.53,0.02-5.07-0.06-7.6,0.06c-0.07,2.85,0.09,5.71,0,8.55
		c0,0.02-0.25,0.1-0.25,0.19c-0.06,1.92,0.05,3.85,0,5.77c-0.13-7.35-0.13-7.35-0.25-14.7C6.37,5.7,6.5,5.78,6.67,5.54
		c0-1.24,0-1.24,0-2.47C25.45,2.69,44.27,2.99,63.06,3.07z"/>
	<path class="st36" d="M59.13,63.64c1.18,0.07,2.31,0.1,3.49,0.13c0.1,0,0.05-0.25,0.06-0.25c0.26,0.01,0.47,0.38,0.51,0.38
		c-0.49-0.05-0.16,1.76-0.25,3.04c-18.74,0.47-37.53-0.66-56.27,0c0.05-0.92-0.06-1.87,0-2.79c0.03-0.44,0.25-0.6,0.25-0.63
		c-0.18,0.26,1.65,0.37,2.09,0.38c0.81,0.01,0.66-0.25,0.7-0.25c0.07,0-0.19,0.13,1.33,0.13c0.1,0,0-0.25,0.19-0.25
		c0.01,0-0.04,0.25,0.06,0.25c0.99,0,2.01-0.13,2.98-0.13c1.51,0,3.04,0.13,4.56,0.13c0.46,0,0.93,0,1.39,0c1.35,0,2.7,0,4.06,0
		c7.01,0,14.03,0.02,21.04,0c1.23,0,2.45,0.01,3.68,0c0.55,0,1.1,0,1.65,0c1.36-0.01,2.7-0.1,4.06-0.13
		c0.57-0.01,2.21,0.31,2.72,0.13c0.1-0.19,0.1-0.19,0.19-0.38C57.77,63.92,58.04,63.58,59.13,63.64z"/>
	<path class="st38" d="M63.19,63.9c0.57,0.02,2.41,0.14,2.53,0.13c0,1.43,0,1.43,0,2.85c-0.09,0.13-2.4,0.05-2.79,0.06
		C63.03,65.65,62.7,63.85,63.19,63.9z"/>
	<path class="st39" d="M6.67,64.15c-0.06,0.92,0.05,1.86,0,2.79c-1.43,0-1.43,0-2.85,0c-0.47-0.21-0.05-2.37-0.06-2.79
		C5.21,64.15,5.21,64.15,6.67,64.15z"/>
	<path class="st40" d="M6.67,3.07c0,1.24,0,1.24,0,2.47C6.5,5.78,6.37,5.7,6.29,5.73c-0.42,0.11-1.94-0.08-2.66,0
		c0.01-0.37-0.33-2.47-0.06-2.66C4.6,3.05,5.63,3.09,6.67,3.07z"/>
	<path class="st39" d="M66.1,5.73c-1.52,0-1.52,0-3.04,0c0.03-0.88-0.02-1.78,0-2.66c1.43,0,1.43,0,2.85,0
		C66.01,4.4,66.01,4.4,66.1,5.73z"/>
</g>
</svg>
