<?xml version="1.0" encoding="utf-8"?>
<!-- Generator: Adobe Illustrator 28.0.0, SVG Export Plug-In . SVG Version: 6.00 Build 0)  -->
<svg version="1.1" id="Camada_1" xmlns="http://www.w3.org/2000/svg" xmlns:xlink="http://www.w3.org/1999/xlink" x="0px" y="0px"
	 viewBox="0 0 60.29 109.46" style="enable-background:new 0 0 60.29 109.46;" xml:space="preserve"> 
<style type="text/css">
	.st0{display:none;}
	.st1{display:inline;fill:#B0B6BC;}
	.st2{display:inline;fill:#C4C9CF;}
	.st3{display:inline;fill:#FAFAFA;}
	.st4{fill:url(#SVGID_1_);}
	.st5{fill:#466084;}
	.st6{fill:#2E3F71;}
	.st7{fill:#6D87B1;}
	.st8{fill:#FAFAFA;}
	.st9{fill:#0D152B;}
	.st10{fill:#506D9F;}
	.st11{fill:#0C0C0A;}
	.st12{fill:#909EC3;}
	.st13{fill:url(#SVGID_00000086673925207187219220000005758528863778374814_);}
	.st14{fill:#A4B2D5;}
	.st15{fill:#DEE3E9;}
	.st16{fill:#C3D5E8;}
	.st17{fill:#C5D0EC;}
	.st18{fill:#B8ECFD;}
	.st19{fill:#E0EBFD;}
	.st20{fill:#6496D5;}
	.st21{fill:#7DA2C4;}
	.st22{fill:#122F56;}
	.st23{fill:#9FC9EA;}
	.st24{fill:#9DB9D8;}
	.st25{fill:#2098CC;}
	.st26{fill:#8EE6F8;}
	.st27{fill:#154578;}
	.st28{fill:#255695;}
	.st29{fill:#7AC3E7;}
	.st30{fill:#D5F2FB;}
	.st31{fill:#43AAD3;}
	.st32{fill:#0C121A;}
	.st33{fill:#1765A0;}
	.st34{fill:#A3D9F3;}
	.st35{fill:#0A0909;}
	.st36{fill:#EDD1BC;}
	.st37{fill:#F7E3CD;}
	.st38{fill:#BA9A9C;}
	.st39{fill:#937988;}
	.st40{fill:#A98E98;}
	.st41{fill:#D2B0A2;}
	.st42{fill:#B92E33;}
	.st43{fill:#EA6A4B;}
	.st44{fill:#E05345;}
	.st45{fill:#DA7B40;}
	.st46{fill:#FAF8F7;}
	.st47{fill:#BABBBD;}
	.st48{fill:#D7D5D7;}
	.st49{fill:#908F9B;}
	.st50{fill:#AAA5AD;}
	.st51{fill:#4D9290;}
	.st52{fill:#BEAAAE;}
	.st53{fill:#5E5F74;}
	.st54{fill:#645B73;}
	.st55{fill:#807997;}
	.st56{fill:#480B02;}
	.st57{fill:#C9CCAC;}
	.st58{fill:#E17C1F;}
	.st59{fill:#A08EA4;}
	.st60{fill:#B86F35;}
	.st61{fill:#E9C8A4;}
	.st62{fill:#9E2611;}
	.st63{display:inline;fill:#EAEBEE;}
	.st64{fill:#3F3B42;}
	.st65{fill:#484856;}
	.st66{fill:#F1865F;}
	.st67{fill:#E25D43;}
	.st68{fill:#190F0D;}
	.st69{fill:#080706;}
	.st70{fill:#BAB8B4;}
	.st71{fill:#7889A1;}
	.st72{fill:#28262F;}
	.st73{fill:#131822;}
	.st74{fill:#536F8D;}
	.st75{fill:#C73C3A;}
	.st76{fill:#A19D9E;}
	.st77{fill:#92888E;}
	.st78{fill:#73341B;}
	.st79{fill:#4A1C1F;}
	.st80{fill:#A91D24;}
	.st81{fill:#48120B;}
	.st82{fill:#A15330;}
	.st83{fill:#250C09;}
	.st84{fill:#19151D;}
	.st85{fill:#831A19;}
	.st86{fill:#671819;}
	.st87{fill:#D46E28;}
	.st88{fill:#E99F35;}
	.st89{fill:#E79546;}
	.st90{fill:#994F40;}
	.st91{fill:#D2CBC6;}
	.st92{fill:#BB4930;}
	.st93{fill:#37485C;}
	.st94{fill:#495B6E;}
	.st95{fill:#25170E;}
	.st96{fill:#202935;}
	.st97{fill:#632112;}
	.st98{fill:#3F4862;}
	.st99{fill:#B5A9A5;}
	.st100{fill:#7D7F83;}
	.st101{fill:#869DB4;}
	.st102{fill:#283951;}
	.st103{fill:#89432B;}
	.st104{fill:#65738D;}
	.st105{fill:#2B2526;}
	.st106{fill:#A63E28;}
	.st107{fill:#F4C774;}
	.st108{fill:#8E4B1C;}
	.st109{fill:#30180E;}
	.st110{fill:#AE6226;}
	.st111{fill:#BE7A2B;}
	.st112{fill:#F3A959;}
	.st113{fill:#513018;}
	.st114{fill:#DCAC41;}
	.st115{fill:#203342;}
	.st116{fill:#C7CCCF;}
	.st117{fill:#96BCCE;}
	.st118{fill:#131729;}
	.st119{fill:#90352A;}
	.st120{fill:#773138;}
	.st121{fill:#688398;}
	.st122{fill:#344A71;}
	.st123{fill:#375F91;}
	.st124{fill:#693611;}
	.st125{fill:#646A73;}
	.st126{display:inline;fill:#B5B8BC;}
	.st127{display:inline;fill:#F8F9F9;}
	.st128{display:inline;fill:#D0D3D7;}
	.st129{fill:#F8F9F9;}
	.st130{fill:#090908;}
	.st131{fill:#AD2C3E;}
	.st132{fill:#D0D3D7;}
	.st133{fill:#43120C;}
	.st134{fill:#3D171A;}
	.st135{fill:#5E1E15;}
	.st136{fill:#EEC89C;}
	.st137{fill:#FBC3E5;}
	.st138{fill:#CB545A;}
	.st139{fill:#CD6076;}
	.st140{fill:#20191C;}
	.st141{fill:#8E706C;}
	.st142{fill:#B69E98;}
	.st143{fill:#2F2831;}
	.st144{fill:#725B5C;}
	.st145{fill:#A52349;}
	.st146{fill:#EBD4B4;}
	.st147{fill:#C33C28;}
	.st148{fill:#99817B;}
	.st149{fill:#FCC49A;}
	.st150{fill:#3B2E30;}
	.st151{fill:#D2988D;}
	.st152{fill:#DE6D13;}
	.st153{fill:#D04619;}
	.st154{fill:#F4BC55;}
	.st155{fill:#321F30;}
	.st156{fill:#DED0C9;}
	.st157{fill:#897F66;}
	.st158{fill:#4D3C3C;}
	.st159{fill:#5D5050;}
	.st160{fill:#968271;}
	.st161{fill:#5E4648;}
	.st162{fill:#C1B8B6;}
	.st163{fill:#C7CFC6;}
	.st164{fill:#F8B26A;}
	.st165{fill:#CF5C10;}
	.st166{fill:#F2A83B;}
	.st167{fill:#EBED55;}
	.st168{fill:#F2CB56;}
	.st169{fill:#FCE8A0;}
	.st170{fill:#240601;}
	.st171{fill:#295687;}
	.st172{fill:#59769C;}
	.st173{fill:#85A2C8;}
	.st174{fill:#1A2952;}
	.st175{fill:#376499;}
	.st176{fill:#F3E97D;}
	.st177{fill:#F3901B;}
	.st178{fill:#3F4D71;}
	.st179{fill:#254072;}
	.st180{fill:#7789AA;}
	.st181{fill:#7294B3;}
	.st182{fill:#546186;}
	.st183{fill:#8F867F;}
	.st184{fill:#D97B7B;}
	.st185{fill:#EECFBB;}
	.st186{fill:#AD2C68;}
	.st187{fill:#D47763;}
	.st188{fill:#EAB4A0;}
	.st189{fill:#E0BBB2;}
	.st190{fill:#EDE4E1;}
	.st191{fill:#D1A798;}
	.st192{fill:#CABFAF;}
	.st193{fill:#7B675C;}
	.st194{fill:#878A85;}
	.st195{fill:#BC8D7E;}
	.st196{fill:#693B1E;}
	.st197{fill:#3D1D05;}
	.st198{fill:#F3B8B8;}
	.st199{fill:#D1CCED;}
	.st200{fill:#C83E54;}
	.st201{fill:#84340E;}
	.st202{fill:#DACDE1;}
	.st203{fill:#E7E3EE;}
	.st204{fill:#14141A;}
	.st205{fill:#5C4B73;}
	.st206{fill:#C6B9CF;}
	.st207{fill:#81709B;}
	.st208{fill:#1F1D2E;}
	.st209{fill:#453B60;}
	.st210{fill:#4E4B64;}
	.st211{fill:#6D5F89;}
	.st212{fill:#AE9DC6;}
	.st213{fill:#B3A6B8;}
	.st214{fill:#302843;}
	.st215{fill:#121515;}
	.st216{fill:#565656;}
	.st217{fill:#858387;}
	.st218{fill:#8B8A8E;}
	.st219{fill:#5F5A66;}
	.st220{fill:#917FAC;}
</style>
<g>
	<g id="Background_00000072247405224519190710000012954311573298462141_" class="st0">
		<path class="st126" d="M95.13-8.86c0,64.89,0,64.89,0,129.77c-64.89,0-64.89,0-129.77,0c0-64.89,0-64.89,0-129.77
			C30.24-8.86,30.24-8.86,95.13-8.86z"/>
		<path class="st127" d="M32.27,96.71c0.08-0.01,0.17,0.01,0.25,0c0,2.82,0,2.82,0,5.64c1.08,0.13,1.08,0.13,2.15,0.25
			c0,2.15,0,2.15,0,4.31c2.95,0.03,2.95,0.03,5.89,0.06c0.03,1.14,0.03,1.14,0.06,2.28c-2.71-0.13-4.81,0.17-7.54-1.27
			c-1.94,0.06-5.89-0.64-6.21,0.38c-3.02-0.64-1.83,0.66-2.15,0.89c-0.2,0.14-4.32-0.02-5.01,0c0.1-1.14,0.1-1.14,0.19-2.28
			c2.85,0,2.85,0,5.7,0c0.1-2.19,0.1-2.19,0.19-4.37c1.08-0.13,1.08-0.13,2.15-0.25c-0.13-0.75,0.16-5.47,0-5.7
			c-0.28-0.4-1.16,1.08-0.89-2.53c2.38-0.99,0.87,1.49,1.46,2.6C29.77,96.65,31.03,96.78,32.27,96.71z"/>
		<path class="st127" d="M14.65,88.85c0,2.34,0,2.34,0,4.69c-0.24-0.02-1.17,0.07-1.27-0.06C13.62,90.43,12.58,88.3,14.65,88.85z"/>
		<path class="st127" d="M15.03,68.95c0,1.05,0,1.05,0,2.09c-0.26,0.34-1.09,0.15-1.9,0.19c0-1.05,0-1.05,0-2.09
			C13.39,68.8,14.22,69,15.03,68.95z"/>
		<path class="st128" d="M9.96,63.12c2.69,0.24,2.97-0.88,2.79,1.77c-0.06,0-0.99,0.28-1.2,0.13c-0.18-0.13,0.05-0.89-0.13-1.01
			C11.13,63.81,8.82,64.53,9.96,63.12z"/>
		<path class="st128" d="M50.01,63.12c-0.24,0.07-0.74,0.16-0.76,0.19c-0.13,0.18,0.22,1.41-0.19,1.71
			c-0.08,0.06-1.07-0.14-1.2-0.13c0.05-0.3-0.1-1.66,0.06-1.77C48.02,63.06,49.6,63.17,50.01,63.12z"/>
	</g>
	<g>
		<path class="st129" d="M16.43,67.05c0.25,0.01,1.43-0.06,1.52,0.06c0.06,0.09-0.05,1.33,0,1.71c-0.09,0-1.16,0.12-1.77,0.13
			c-0.29,0-0.59-0.01-0.89,0c-0.5-0.28,0.02-1.07-0.13-1.96C15.71,66.77,16.19,67.04,16.43,67.05z"/>
		<g>
			<path class="st130" d="M28.72,0.14c0.05,0.33-0.1,1.91,0.06,2.03c0.12,0.09,2.58-0.07,3.04,0c0.1-1.08,0.1-1.08,0.19-2.15
				c0.78,0.01,1.51,0.09,2.28,0.13c-0.11,2.31,0.05,1.76,1.77,1.77c0.49,0,0.99,0.18,1.52,0.13c-0.19,1.77,0.34,1.18,2.28,1.27
				C39.89,3.48,40,3.42,40,3.43c0.03,0.32-0.05,1.51,0,1.58c0.14,0.19,1.51-0.07,1.65,0.13c0.14,0.2-0.23,2.41,0.19,2.6
				c3.14-0.36,1.47,0.97,2.15,1.27c0.15,0.07,2.17-0.03,2.72,0c0.13,0.01,0.25-0.01,0.38,0c0,0.76,0,0.76,0,1.52
				c-0.17,0.01-0.12,0.13-0.13,0.13c-1.05,0.06-2.12-0.04-3.17,0c0-0.01-0.25,0.04-0.25-0.06c0.03-0.73,0.03-0.73,0.06-1.46
				c-4.02-0.8-2.13,1.07-2.72,1.84c-0.15,0.2-0.9,0.16-1.14,0.19c-0.28,0.03-1.54-0.08-1.65,0.06c-0.06,0.09,0.11,1.08-0.13,1.77
				c0.16,0.21,0.43-0.33,0.63,0.82c0.12,0.71-0.05,3.56,0,4.94c-0.23-0.01-1.18,0.06-1.27-0.06c-0.12-0.73,0.16-5.35,0-5.58
				c-0.12-0.17-0.81,0.01-1.01-0.06c-0.02-0.01-0.23-0.19-0.25-0.25c-0.02-0.08-0.05-1.52,0-1.58c0.37-0.53,1.51,1.28,1.33-2.34
				c1.36-0.03,1.36-0.03,2.72-0.06c0-1.77,0-1.77,0-3.55c-0.13-0.19-2.08,0.03-2.22-0.06c-0.24-0.17,0.76-1.21-2.47-0.63
				c-0.22-0.03-0.33-0.15-0.38-0.38c-0.08-0.37,0.07-1.02,0-1.39c-0.04-0.18,0.08-0.34-0.19-0.51c-1.27,0-1.27,0-2.53,0
				c-0.29,0.18-0.15,0.4-0.19,0.63c-0.06,0.37,0.07,1.02,0,1.27c-0.01,0.02-0.12-0.06-0.19,0.38c-0.1,0.01-0.22-0.02-0.32,0
				c-2.16,0.41-3.55-1.19-3.17,1.9c-0.01,0,0.09,0.1-0.25,0.13c-0.77,0.05-1.57-0.04-2.34,0c-0.1,1.08-0.1,1.08-0.19,2.15
				c-0.29,0.01-1.81-0.06-1.9,0.06c0,0.65,0.01,1.31,0,1.96c-0.01,0.61,0.1,1.35-0.13,1.9c-0.37,0-2.58-0.05-2.66,0.06
				c0.07,2.97-0.09,5.96,0,8.93c-0.13-0.03-0.13-0.03-0.25-0.06c0.02-2.98-0.03-5.96,0-8.93c0.01-1.07-0.03-2.16,0-3.23
				c0-0.1,0.25-0.05,0.25-0.06c2.13,0.25,1.14-0.54,1.46-2.79c0.7-0.49,3.03,1.31,2.47-1.84c-4.33-0.99-2.46,0.96-3.04,1.77
				c-0.09,0.13-0.81,0.05-1.01,0.06c-0.37,0.03-2.13-0.06-2.22,0c-0.16,0.12-0.01,1.7-0.06,2.03c-0.12,0.01-0.13,0.12-0.25,0.13
				c-0.35,0.02-2.61,0.08-2.72,0c-0.16-0.12-0.01-1.7-0.06-2.03c0.08,0,0.17,0,0.25,0c4.02-0.14,1.84-0.23,2.53-1.2
				c0.14-0.19,1.35,0.04,1.58-0.06c0.36-0.16,0.07-0.89,0.25-1.01c0.75-0.52,2.72,1.44,2.22-2.15c0.8-0.02,1.58-0.16,2.41-0.13
				c0.4,0.02,0.44,0.12,0.51,0.13c-0.2,2.88,0.04,2.49,2.91,2.09c0-1.01,0-1.01,0-2.03c-0.1-0.14-1.6-0.04-1.9-0.06
				c-0.06-1.08-0.06-1.08-0.13-2.15C27.08,0.09,27.85,0.15,28.72,0.14z"/>
			<path class="st130" d="M55.33,17.25c0.27,0,0.28,0.12,0.38,0.13c-0.06,1.36-0.06,1.36-0.13,2.72c0.12,0.28,1.62,0.23,1.9,0.19
				c0.4,0.96-0.22,2.96,0.38,3.04c-0.02,0,0.11,0.14-0.38,0.13c-0.59-0.01-1.18,0.01-1.77,0c-0.02,0-0.36-0.25-0.38-0.25
				c0-1.3,0-1.3,0-2.6c-1.17-0.1-1.17-0.1-2.34-0.19c-0.46,0.21-0.06,2.49-0.06,2.91c0,0.99-0.26,2.04-0.13,3.04
				c-0.87,0-1.73,0-2.6,0c-0.13,0.09-0.05,0.92-0.06,1.14c-0.54,0.23-0.32-0.15-0.51-0.13c0.06-1.46,0.06-1.46,0.13-2.91
				c0-0.44,0-0.44,0-0.89c0.26,0.01,2.55-0.11,2.66-0.19c0.23-1.12-0.1-2.34,0.38-3.36c0.07,0,0.59,0.29,1.39,0.06
				c0-1.43,0-1.43,0-2.85C54.57,17.25,54.95,17.24,55.33,17.25z"/>
			<path class="st129" d="M59.77,34.86c0,0.19,0.25,0.09,0.25,0.19c0.01,3.27-0.04,6.55,0,9.82c-0.28-0.05-1.41,0.09-1.52-0.06
				c-0.28-0.4-0.2-9.31,0-9.76C58.65,34.72,59.47,34.91,59.77,34.86z"/>
			<path class="st129" d="M45.95,101.14c-0.69,0-1.43,0.11-1.65-0.19c0.44-1.03-0.15-6.9,0-7.22c0.11-0.23,1.31-0.14,1.39-0.25
				c0.05-0.08-0.02-1.51,0-1.84c1.36-0.86,1.58,1.14,1.27,1.84c-0.17,0.38-1.01,0.06-1.14,0.25
				C45.62,94.04,46.25,100.19,45.95,101.14z"/>
			<path class="st129" d="M46.71,9.01c-0.56-0.03-2.57,0.07-2.72,0c-0.68-0.3,0.99-1.63-2.15-1.27c-0.42-0.19-0.05-2.4-0.19-2.6
				C41.51,4.95,40.13,5.21,40,5.02c-0.05-0.08,0.03-1.27,0-1.58c3.05-0.78,1.67,1.07,2.28,1.46c0.29,0.18,0.98-0.11,1.14,0.25
				c0.16,0.37-0.14,2.05-0.13,2.15c0.02,0.17,3.18-0.06,3.36,0.06C46.81,7.47,46.66,8.72,46.71,9.01z"/>
			<path class="st129" d="M0.58,44.62c0.16-3.28,0.22-6.6,0.13-9.89c0.3,0.05,1.12-0.15,1.27,0.19c0.19,0.44-0.15,8.32,0,9.63
				C1.87,44.71,0.85,44.58,0.58,44.62z"/>
			<path class="st130" d="M53.3,14.59c0.13,0.13,0.13,0.13,0.25,0.25c0,1.2,0,1.2,0,2.41c-0.37,0-1.97,0.3-2.22,0.13
				c-0.35-0.25,0.78-1.1-2.09-0.89c-0.02-0.75-0.04-1.41,0.13-2.15c0.04-0.18-0.08-0.66,0.06-0.76
				C53.17,13.17,50.02,14.93,53.3,14.59z"/>
			<path class="st129" d="M48.62,10.4c2.28,0.02,0.73,0.69,1.58,1.01c0.21,0.08,1.03-0.08,1.14,0c0.19,0.13-0.06,1.26,0.13,1.39
				c0.54,0.38,2.65-1.11,1.84,1.77c-3.28,0.35-0.13-1.42-3.87-1.01c-0.14,0.1-0.02,0.58-0.06,0.76c-1.2,0-1.2,0-2.41,0
				c0.04-0.24,0-0.61,0-0.89c0-0.04,0-0.08,0-0.13c2.78-0.1,2.88,0.7,2.6-2.03c-1.3,0-1.3,0-2.6,0c0.06-0.32,0.27-0.59,0-0.63
				c0.01,0-0.04-0.12,0.13-0.13C47.77,10.5,48.31,10.4,48.62,10.4z"/>
			<path class="st129" d="M4.51,17.25c0,1.49,0,1.49,0,2.98c-0.19,0.42-1.76,0.04-1.96,0.19c-0.17,0.12-0.01,2.33-0.06,2.72
				c-0.44,0.46-1.57,0.05-1.65,0.06c0-1.81,0-1.81,0-3.61c2.22-0.93,1.46,1.06,2.09,0.57c0.17-0.13,0-2.43,0.06-2.85
				C3.08,17.18,4.26,17.26,4.51,17.25z"/>
			<path class="st129" d="M22.38,2.29c0.5,3.6-1.47,1.63-2.22,2.15c-0.18,0.13,0.11,0.85-0.25,1.01c-0.23,0.1-1.45-0.13-1.58,0.06
				c-0.69,0.97,1.49,1.07-2.53,1.2c-0.51-2.59,2-0.68,2.41-1.46c0.39-0.74-0.89-0.82,1.65-1.14C19.59,1.16,20.3,2.35,22.38,2.29z"/>
			<path class="st131" d="M14.14,82.64c-1.62-0.13-1.05,0.06-1.14,2.34c-3.75-0.24-1.76,1.17-2.28,1.9
				c-0.09,0.13-0.58,0.04-0.76,0.06c0-1.71,0-1.71,0-3.42c0.06,0,0.86,0.28,1.2,0.13c0.4-0.18-0.02-1.09,0.38-1.27
				c0.59-0.26,1.28,0.77,1.08-1.39C14.17,81.13,14.5,80.54,14.14,82.64z"/>
			<path class="st129" d="M15.54,6.73c0.05,0.33-0.1,1.91,0.06,2.03c0.11,0.08,2.37,0.02,2.72,0c0.84,3.68-1.21,1.88-2.79,2.15
				c-0.05-0.4,0.07-1.87,0-1.96c-0.09-0.13-1.26-0.05-1.52-0.06c0.15-0.42,0-0.36,0-0.38c0-0.3-0.05-1.64,0-1.71
				C14.11,6.66,15.28,6.74,15.54,6.73z"/>
			<path class="st129" d="M14.65,101.14c0.06-3.8,0.06-3.8,0.13-7.6c0.24,0.02,1.17-0.07,1.27,0.06c0,3.74,0,3.74,0,7.48
				C15.96,101.2,14.89,101.14,14.65,101.14z"/>
			<path class="st129" d="M59.39,23.33c-0.41-0.05-1.06,0-1.52,0c-0.6-0.08,0.02-2.08-0.38-3.04c1.02-0.15-0.21-0.27-0.25-0.32
				c-0.04-0.04,0.03-0.4,0-0.57C60.31,19.21,59.2,19.31,59.39,23.33z"/>
			<path class="st129" d="M32.01,0.01c-0.1,1.08-0.1,1.08-0.19,2.15c-0.46-0.07-2.92,0.09-3.04,0c-0.16-0.12-0.01-1.7-0.06-2.03
				C29.81,0.12,30.9-0.01,32.01,0.01z"/>
			<path class="st129" d="M15.28,11.16c-0.01,0.06,0.35,0.54,0,1.27c-0.8-0.05-1.61,0.04-2.41,0c-0.01-0.21,0.06-0.92-0.06-1.01
				c-0.94,0.05-1.91-0.07-2.85,0c-0.89-1.48,0.36-0.84,1.08-1.01c0.11-0.03,0.05-0.25,0.06-0.25c0.76-0.2,1.01,0.54,1.52-1.01
				C12.5,11.72,12.54,11.1,15.28,11.16z"/>
			<path class="st130" d="M9.96,83.53c0,1.71,0,1.71,0,3.42c-0.76,0.09-1.53-0.03-2.28-0.13c-0.02-0.63,0.03-1.27,0-1.9
				c-0.01-0.17,0.01-0.34,0-0.51C10.03,84.63,7.9,83.58,9.96,83.53z"/>
			<path class="st130" d="M12.88,8.88c0.37-0.02,0.77-0.02,1.14,0c0.26,0.01,1.43-0.07,1.52,0.06c0.07,0.1-0.05,1.56,0,1.96
				c-0.12,0.02-0.23,0.13-0.25,0.25c-2.74-0.06-2.78,0.56-2.66-2.03c0-0.06,0-0.06,0-0.13C12.64,9.01,12.54,8.9,12.88,8.88z"/>
			<path class="st129" d="M10.09,105.83c1.26,0.01,0.3,1.56,0.7,1.9c0.2,0.17,1.67-1.07,1.33,1.39c-0.39-0.03-2.55,0.09-2.66-0.06
				C9.62,106.78,8.95,105.83,10.09,105.83z"/>
			<path class="st129" d="M48.11,109.13c-0.37-3.01,2.16,0.41,1.65-3.23c0.18-0.03,0.39-0.17,0.51-0.19
				c1.02-0.17,0.52,2.59,0.63,3.23C50.73,109.31,49.04,109.05,48.11,109.13z"/>
			<path class="st130" d="M52.04,83.78c-0.06,0.63-0.09,1.26,0.63,1.39C52.61,86,52.61,86,52.54,86.82
				c-0.7,0.08-1.32,0.18-2.03,0.13c0-1.52,0-1.52,0-3.04C50.59,83.91,51.54,83.78,52.04,83.78z"/>
			<path class="st129" d="M1.98,55.01c0.06,0,0.06,0,0.13,0c-0.61,2.96,2.9,0,2.53,2.41c-0.19,0-0.09,0.25-0.19,0.25
				c-3.86,0.04-1.76-0.68-2.41-1.14c-0.17-0.12-1.53,0.21-1.71-0.19c-0.08-0.17,0.06-0.97,0-1.33C1.15,55.01,1.15,55.01,1.98,55.01z
				"/>
			<path class="st129" d="M43.67,67.18c0.25-0.01,1.57-0.05,1.65,0.06c0.03,0.56-0.05,1.15,0,1.71c-1-0.09-1.08,0.13-1.14,0.13
				c-0.57,0-1.16-0.16-1.77-0.13c-0.16-0.26-0.18-1.46-0.13-1.58C42.42,67.06,43.37,67.19,43.67,67.18z"/>
			<path class="st129" d="M53.56,78.97c-0.49-0.05-1.25,0.14-1.39-0.19c0-1.81,0-1.81,0-3.61c0.43,0.08,1.24-0.17,1.39,0.19
				C53.56,77.16,53.56,77.16,53.56,78.97z"/>
			<path class="st129" d="M9.71,11.54c0.66,2.78-0.98,1.44-1.46,1.77c-0.36,0.26,0.79,1.3-1.58,1.01c0.31-0.39-0.09-1.47,0.32-1.65
				c0.17-0.08,0.84,0.08,1.01,0c0.38-0.17,0.06-1.01,0.25-1.14C8.33,11.49,9.41,11.58,9.71,11.54z"/>
			<path class="st129" d="M57.23,19.4c0.03,0.17-0.04,0.53,0,0.57c0.04,0.05,1.27,0.17,0.25,0.32c-0.28,0.04-1.78,0.09-1.9-0.19
				c0.06-1.36,0.06-1.36,0.13-2.72c0.08,0.01,1.18-0.39,1.52,0.06C57.29,18.04,57.15,18.84,57.23,19.4z"/>
			<path class="st129" d="M47.98,71.36c-0.82-0.05-1.65,0.04-2.47,0c-0.15-0.1-0.03-1.92-0.06-2.28c2.27-0.62,1.28,0.61,1.52,0.95
				C47.16,70.3,48.27,69.5,47.98,71.36z"/>
			<path class="st129" d="M53.3,57.55c-0.16,2.27,0.66,4.6-1.27,3.42c0.08-1.07-0.06-2.16,0-3.23
				C52.26,57.42,52.79,57.58,53.3,57.55z"/>
			<path class="st129" d="M55.33,17.25c-0.38-0.01-0.76,0-1.14,0c-0.21,0-0.42,0-0.63,0c0-1.2,0-1.2,0-2.41
				C55.98,14.33,55.23,14.87,55.33,17.25z"/>
			<path class="st129" d="M6.54,14.46c0,1.36,0,1.36,0,2.72c-0.09,0.13-1.26,0.05-1.52,0.06C4.87,13.19,5.13,14.91,6.54,14.46z"/>
			<path class="st129" d="M54.45,83.65c0.62,0.1,0.94,0.82,0.63,1.33c-0.06,0.1-0.95,0.15-1.01,0.25c-0.12,0.19,0.21,1.41-0.19,1.58
				c-0.15,0.07-0.95-0.05-1.33,0c0.06-0.82,0.06-0.82,0.13-1.65c1.01,0.18,1.51-0.39,1.27-1.39c0.33,0.01,0.24-0.13,0.25-0.13
				C54.27,83.66,54.36,83.64,54.45,83.65z"/>
			<path class="st129" d="M8.19,60.97c-1.73,0.72-1-0.78-1.14-3.3c0.06,0,0.46-0.28,1.14-0.06C8.25,58.72,8.11,59.86,8.19,60.97z"/>
			<path class="st129" d="M5.91,83.53c0.06-0.03,0.26,0.03,0.38,0c0.34,1.27-0.31,1.51,1.39,1.39c0.03,0.63-0.02,1.27,0,1.9
				c-0.47-0.06-1.24,0.15-1.39-0.19c-0.09-0.2,0.09-1.19,0-1.39c-0.14-0.33-0.65-0.1-0.76-0.25C5.48,84.92,5.3,83.86,5.91,83.53z"/>
			<path class="st129" d="M8.06,75.29c0,1.87,0,1.87,0,3.74c-0.1,0.14-0.8,0.04-1.01,0.06c0-1.87,0-1.87,0-3.74
				C7.49,74.9,8.01,75.3,8.06,75.29z"/>
			<path class="st129" d="M39.87,3.31c-1.94-0.09-2.48,0.5-2.28-1.27c0.13-0.01-0.69-0.56,2.22-0.38
				C39.95,1.76,39.84,3.03,39.87,3.31z"/>
			<path class="st129" d="M36.07,1.91c-1.73-0.01-1.89,0.54-1.77-1.77C35.68,0.21,36.57-0.84,36.07,1.91z"/>
			<path class="st129" d="M26.18,0.14c0.06,1.08,0.06,1.08,0.13,2.15c-0.34-0.02-0.68,0.02-1.01,0c-0.07,0-0.11-0.11-0.51-0.13
				C24.71-0.89,24.75,0.21,26.18,0.14z"/>
			<path class="st129" d="M9.84,63c-0.6-0.07-1.37,0.14-1.52-0.19c-0.04-0.56,0.05-1.15,0-1.71C10.22,60.96,10.16,61.14,9.84,63z"/>
			<path class="st129" d="M58.37,56.41c0.21,1.6-0.04,1.29-2.22,1.27c-0.1,0-0.05-0.25-0.06-0.25C55.88,56.1,56.47,56.4,58.37,56.41
				z"/>
			<path class="st132" d="M48.36,102.41c-0.7-0.03-1.33-0.07-2.03-0.13c0-0.57,0-0.57,0-1.14c0.09,0,1.09-0.25,1.84-0.13
				C48.49,101.16,48.32,101.91,48.36,102.41z"/>
			<path class="st129" d="M51.91,61.22c-0.05,0.52,0.04,1.06,0,1.58c-0.16,0.36-1.2,0.11-1.52,0.19c0.05-0.38-0.06-1.62,0-1.71
				C50.5,61.13,51.63,61.27,51.91,61.22z"/>
			<path class="st129" d="M13.89,101.27c-0.04,0.29,0.05,0.75,0,0.89c-0.06,0.16-0.11,0.18-0.25,0.25c-0.9,0.1-1.56-0.12-1.65-0.13
				c0.22-0.5,0.05-1.17,0.19-1.27c0.07-0.05,1.39,0,1.65,0C13.93,101.02,13.88,101.27,13.89,101.27z"/>
			<path class="st129" d="M60.02,55.01c-0.04,0.3,0.1,1.13-0.06,1.52c-0.22,0.15-1.38-0.13-1.46-0.13
				c-0.04-0.74,0.16-1.37-0.25-1.27c0.19-0.19,0.19-0.19,0.38-0.38C58.51,55.18,59.21,54.97,60.02,55.01z"/>
			<path class="st133" d="M6.67,80.87c0,1.27,0,1.27,0,2.53c-0.49,0-0.36,0.12-0.38,0.13c-0.12,0.03-0.32-0.03-0.38,0
				c-0.19-0.8-0.17-1.96-0.13-2.79C6.09,80.85,6.35,80.85,6.67,80.87z"/>
			<path class="st129" d="M48.62,10.4c-0.3,0-0.85,0.1-1.52,0.13c0-0.76,0-0.76,0-1.52c0.38,0.02,1.09-0.05,1.2,0
				C48.69,9.18,48.32,9.95,48.62,10.4z"/>
			<path class="st132" d="M14.02,8.5c0,0.02,0.15-0.04,0,0.38c-0.37-0.02-0.77-0.02-1.14,0C11.15,7.74,14,6.7,14.02,8.5z"/>
			<path class="st129" d="M12.62,9.01c0,0.06,0,0.06,0,0.13c-0.51,1.56-0.76,0.81-1.52,1.01C10.86,8.15,11.91,9.06,12.62,9.01z"/>
			<path class="st129" d="M12.5,71.49c0.09,1.39-0.03,0.94-1.27,1.01C10.93,70.3,12.37,71.5,12.5,71.49z"/>
			<path class="st129" d="M49.38,72.5c-0.88-0.08-1.1,0.27-1.01-1.01C48.64,71.51,49.57,70.73,49.38,72.5z"/>
			<path class="st134" d="M19.59,104.44c-0.5-0.02-1.02,0.03-1.52,0c-2.67-0.16-4.15-0.71-3.42,1.39c-1.39-0.01-2.53,0.22-2.66-0.06
				c-0.2-4.85,0.29-2.63,1.65-3.36c0.14-0.08,0.19-0.09,0.25-0.25c2.48,0.2,2.22-0.36,2.34-0.38c3.97-0.49-0.17,2.95,3.42,2.41
				C19.81,104.25,19.58,104.32,19.59,104.44z"/>
			<path class="st135" d="M46.33,102.28c0.7,0.06,1.33,0.1,2.03,0.13c0.09,1.19-0.06,2.42,0,3.61c-0.05,0.08-0.92-0.28-1.77-0.32
				c0.17-0.22,0.19-1.31,0.06-1.39c-0.14-0.1-3.28-0.1-3.42,0c-0.12,0.09-0.11,1.18,0.06,1.39c-0.34-0.01-0.68,0.01-1.01,0
				c0.09-0.86-0.13-1.2-0.13-1.27c0-2.58-0.11-2.81,2.22-2.53c0.12,0.01,0.01,0.37,0.13,0.38C44.87,102.33,45.41,102.2,46.33,102.28
				z"/>
			<path class="st136" d="M11.23,80.74c0.4,0.01,0.99,0.22,1.39,0.25c0.21,2.17-0.49,1.14-1.08,1.39c-0.4,0.18,0.02,1.09-0.38,1.27
				c-0.34,0.15-1.14-0.13-1.2-0.13c-2.06,0.06,0.07,1.1-2.28,0.89c-0.03-0.31,0.02-0.64,0-0.95C7.6,83.34,6.85,83.4,6.67,83.4
				c0-1.27,0-1.27,0-2.53c1.23,0.05,1.44-0.13,1.52-0.13c0.01,0-0.04,0.25,0.06,0.25c0.97,0.03,1.94-0.02,2.91,0
				C11.27,81,11.22,80.74,11.23,80.74z"/>
			<path class="st132" d="M17.82,80.11c-0.01,0.16,0.12,0.12,0.13,0.13c0,0.57,0,0.57,0,1.14c0,0.06,0,0.06,0,0.13
				c0,1.36,0,1.36,0,2.72c-2.45,0.69-1.46-0.84-1.65-3.93C16.52,79.98,17.17,80.13,17.82,80.11z"/>
			<path class="st129" d="M18.07,104.44c-0.06,0.7-0.06,0.7-0.13,1.39c-1.09,0.04-2.2,0.01-3.3,0
				C13.93,103.73,15.4,104.28,18.07,104.44z"/>
			<path class="st129" d="M11.23,80.74c-0.01,0,0.04,0.26-0.06,0.25c-0.97-0.02-1.94,0.03-2.91,0c-0.1,0-0.05-0.25-0.06-0.25
				c0.05-0.26-0.09-1.28,0.06-1.39c0.11-0.08,2.66-0.06,2.79,0C11.4,79.51,11.16,80.45,11.23,80.74z"/>
			<path class="st129" d="M46.59,105.71c-1.09-0.05-2.2,0.03-3.3,0c-0.17-0.22-0.19-1.31-0.06-1.39c0.14-0.1,3.28-0.1,3.42,0
				C46.78,104.4,46.76,105.49,46.59,105.71z"/>
			<path class="st129" d="M51.78,80.87c-0.86-0.02-1.74-0.01-2.6,0c-0.1,0,0-0.26-0.19-0.25c-0.83-1.61,1.89-1.71,2.6-1.39
				C51.95,79.38,51.72,80.53,51.78,80.87z"/>
			<path class="st137" d="M32.52,96.71c-0.08,0.01-0.17-0.01-0.25,0c0.09-1.07-0.55-3.75,1.33-2.91c0.39,0.17,0.1,2.29,0.19,2.72
				C33.56,96.84,33.04,96.67,32.52,96.71z"/>
			<path class="st138" d="M19.59,104.44c0.29,1.84-0.26,1.34-1.65,1.39c0.06-0.7,0.06-0.7,0.13-1.39
				C18.58,104.47,19.09,104.42,19.59,104.44z"/>
			<path class="st139" d="M42.15,104.44c0,0.06,0.22,0.41,0.13,1.27c-0.27-0.01-1.56,0.07-1.65-0.06
				C40.41,105.33,40.42,104.04,42.15,104.44z"/>
			<path class="st140" d="M15.92,25.61c0.2,2.08-0.78,2.12,2.09,2.03c0.1-1.08,0.1-1.08,0.19-2.15c0.25-0.01,0.51,0,0.76,0
				c-0.12,0.74,0.13,1.93,0.13,2.03c0,0.01-0.25-0.04-0.25,0.06c-0.04,0.95,0.01,1.9,0,2.85c-0.76-0.11-1.53,0.1-2.28,0.13
				c-0.21,0.01-0.51-0.01-0.76,0c0-1.36,0-1.36,0-2.72c-1.17-0.1-1.17-0.1-2.34-0.19c-0.48,0.21-0.04,2.49-0.06,2.91
				c-0.01,0.2-0.25,0.09-0.25,0.19c-0.06,1.26,0.19,2.48-0.25,2.34c-0.01-0.78,0.01-1.56,0-2.34c-0.09-0.13-1.61-0.05-1.9-0.06
				c-0.08,0-0.17,0-0.25,0c0.08-0.96-0.13-0.96-0.13-1.01c0.01-0.5,0.03-0.89,0-1.39c-0.03-0.4,0.05-0.91,0-1.27
				c0.6,0.1-0.11,0.54,0.51,0.63c0.25,0.04,1.96,0.03,2.03-0.06c0.13-0.94-0.13-1.93-0.13-2.85c0-0.06,0.22-0.14,0.13-1.14
				c0.3,0,2.05-0.27,2.15-0.25c0.25,0.16,0.25,0.16,0.51,0.32c0.16,0.55-0.14,1.69-0.13,1.77C15.68,25.52,15.92,25.6,15.92,25.61z"
				/>
			<path class="st141" d="M12.88,16.87c0,1.2,0,1.2,0,2.41c-0.19,0-0.09,0.25-0.19,0.25c-0.52,0.01-1.07-0.05-1.58,0
				c-0.35,0.04-0.72-0.03-1.08,0c-0.1,0.07-0.08,0.72-0.06,0.89c-0.78,0.45-1.74-0.33-1.9,0.38c0.22-0.24-1.38-0.39-1.52-0.38
				c-0.31-4.95,0.69-1.99,1.71-3.55c0.58,0.1,1.15-0.08,1.71-0.13C10.93,16.66,11.95,16.9,12.88,16.87z"/>
			<path class="st142" d="M15.28,12.43c0.47,0.03,1.05,0.19,1.52,0.25c0,0.57,0,0.57,0,1.14c0,0.38,0,0.38,0,0.76
				c-0.3,0-0.81,0.09-1.14,0.13c-0.23,0.02-1.04-0.07-1.14,0.06c-0.02,2,0.46,2.01-1.65,2.09c-0.93,0.04-1.95-0.21-2.91-0.13
				c0.04-0.8-0.06-1.61,0-2.41c1.3,0.06,1.3,0.06,2.6,0.13c0.33-0.15,0.14-0.86,0.19-1.14c0.06-0.33,0.15-0.53,0.13-0.89
				C13.68,12.47,14.49,12.38,15.28,12.43z"/>
			<path class="st136" d="M4.13,47.54c-0.24-0.38-0.1-0.95-0.13-1.39c-0.03-0.51-0.11-3.67,0.19-3.8c1.88-0.83,1.33,1.38,1.65,1.52
				c0.33,0.15,2.03-0.24,2.22,0.19c-0.1,1.81-0.1,1.81-0.19,3.61C6,47.6,6,47.6,4.13,47.54z"/>
			<path class="st143" d="M11.99,35.62c-0.07,0.35,0.17,1.61-0.19,1.77c-0.35,0.16-6.61-0.12-7.73,0c-0.08-0.06-0.11-1.82-0.06-1.9
				c2.31,0.15,4.67-0.15,6.97-0.13C11.04,35.37,10.61,35.69,11.99,35.62z"/>
			<path class="st144" d="M6.16,23.33c0.55,0,1.1-0.01,1.65,0c0,1.46,0,1.46,0,2.91c-0.83,0-1.65,0.01-2.47,0.13
				c-0.13,0.09-0.04,0.8-0.06,1.01c-1.17,0-1.17,0-2.34,0c-0.11-0.08-0.08-1.97-0.06-2.28c0.45-0.05,1.42,0.07,1.58,0
				c0.36-0.16,0.12-1.31,0.19-1.65c0.12-0.01,0.6-0.25,0.63-0.25C5.32,23.2,5.4,23.33,6.16,23.33z"/>
			<path class="st145" d="M4.01,46.14c0.03,0.44-0.11,1.01,0.13,1.39c0.03,0.04-0.05,0.21,0.06,0.25c1.65,0,1.65,0,3.3,0
				c0.03,1.52,0.03,1.52,0.06,3.04c-0.36-0.05-0.79,0.05-1.14,0c-0.98-0.15-1.26-0.28-2.41-0.38c-0.06-0.46,0.08-2.49,0-2.6
				c-0.11-0.16-1.47-0.01-1.77-0.06c0-0.08-0.23-0.72-0.13-1.65C2.74,46.12,3.37,46.16,4.01,46.14z"/>
			<path class="st140" d="M10.98,33.34c0,0.68,0,1.35,0,2.03c-2.3-0.02-4.66,0.28-6.97,0.13c0.38-0.69,1.91,1.24,1.77-2.15
				C7.51,33.36,9.25,33.22,10.98,33.34z"/>
			<path class="st146" d="M4.01,50.45c1.14,0.1,1.43,0.23,2.41,0.38c0,1.2,0,1.2,0,2.41c-0.08-0.01-0.55,0.23-1.52,0.13
				C4.88,52.9,5,52.43,4.7,52.23c-1.24,0.03-1.24,0.03-2.47,0.06c0.03,1.3,0.03,1.3,0.06,2.6c0.97-0.1,2.12,0.3,2.47-0.38
				c0,0.13,0,0.25,0,0.38c0,0.12-0.13,0.14-0.13,0.25c-1.27-0.06-1.27-0.06-2.53-0.13c-0.06,0-0.06,0-0.13,0
				c-0.13-1.54,0.28-4.15-0.25-4.56c0.02,0,0.22-0.26,0.38-0.25c0.01,0-0.04,0.25,0.06,0.25C2.78,50.48,3.4,50.4,4.01,50.45z"/>
			<path class="st147" d="M10.6,50.83c0.01,1.59,0.25,3.21,0.13,4.82c-1.01,0.03-1.01,0.03-2.03,0.06
				C8.93,52.09,7.75,50.33,10.6,50.83z"/>
			<path class="st129" d="M7.81,26.25c0.88,0,1.83,0.26,2.72,0.13c0.13,0.09,0.04,0.47,0.06,0.63c0.05,0.36-0.03,0.86,0,1.27
				c-2.66-0.06-2.66-0.06-5.32-0.13c0.01-0.25-0.02-0.51,0-0.76c0.02-0.21-0.07-0.92,0.06-1.01C6.16,26.26,6.98,26.25,7.81,26.25z"
				/>
			<path class="st148" d="M15.79,30.55c-0.8,0.03-1.61-0.02-2.41,0c0.02-0.42-0.41-2.7,0.06-2.91c1.17,0.1,1.17,0.1,2.34,0.19
				C15.79,29.19,15.79,29.19,15.79,30.55z"/>
			<path class="st149" d="M2.1,46.14C2,47.07,2.23,47.71,2.23,47.79c0,0.77-0.26,1.62-0.13,2.41c-0.16-0.01-0.36,0.26-0.38,0.25
				c-0.39-0.03-0.8,0.13-1.01-0.19c0-1.96,0-1.96,0-3.93C0.93,46.02,1.52,46.16,2.1,46.14z"/>
			<path class="st150" d="M18.83,30.43c-0.01,0.84,0.09,1.71-0.13,2.53c-0.72,0.01-1.44-0.02-2.15,0c0-1.2,0-1.2,0-2.41
				C17.3,30.52,18.07,30.32,18.83,30.43z"/>
			<path class="st151" d="M7.55,50.83c0.27,0.04,0.56-0.11,0.76,0.19c-0.01,0.82,0.02,1.65,0,2.47c-2.35,0.13-1.8-0.25-1.9-0.25
				c0-1.2,0-1.2,0-2.41C6.76,50.89,7.2,50.78,7.55,50.83z"/>
			<g>
				<path class="st130" d="M12.88,12.43c0.02,0.36-0.07,0.56-0.13,0.89c-1.3,0-1.3,0-2.6,0c-0.37,0.32-0.19,0.96-0.19,1.01
					c-0.06,0.8,0.04,1.61,0,2.41c-0.57,0.05-1.13,0.22-1.71,0.13c-1.02,1.55-2.02-1.4-1.71,3.55c-0.12,0.01-0.13,0.11-0.25,0.13
					c-0.37,0.04-0.79-0.14-1.01,0.19c0,1.24,0,1.24,0,2.47c-0.03,0-0.51,0.25-0.63,0.25c-0.08,0.01-1.14-0.26-1.58-0.13
					c-0.34,0.25-0.15,1.01-0.19,1.77c-0.02,0.31-0.04,2.21,0.06,2.28c1.17,0,1.17,0,2.34,0c-0.02,0.25,0.01,0.51,0,0.76
					c0,0.08,0,0.17,0,0.25c-3.08-0.37-1.77,0.52-2.03,4.69c0.03,0.13,0.03,0.13,0.06,0.25c0.82,0,1.65-0.01,2.47,0
					c0.13,3.39-1.4,1.47-1.77,2.15c-0.05,0.08-0.02,1.84,0.06,1.9c1.12-0.12,7.38,0.16,7.73,0c0.36-0.16,0.12-1.42,0.19-1.77
					c0.19-0.01,0.8,0.06,0.89-0.06c0.01-0.78-0.01-1.56,0-2.34c0-0.04,0-0.08,0-0.13c0.45,0.13,0.19-1.09,0.25-2.34
					c0-0.1,0.24,0.01,0.25-0.19c0.8-0.02,1.61,0.03,2.41,0c0.25-0.01,0.55,0.01,0.76,0c0,1.2,0,1.2,0,2.41
					c-0.72,0.02-2.26-0.14-2.41,0.19c-0.02,0.82,0.03,1.65,0,2.47c-0.01,0.41,0.06,2.24,0,2.34c-0.11,0.21-1.19,0.15-1.27,0.25
					c-0.43,0.61,1.27,1.26-2.15,1.33c-0.02,0.63,0.03,1.27,0,1.9c-0.12,3.05-0.15,6.33-0.13,9.38c-2.84-0.5-1.67,1.26-1.9,4.88
					c1.01-0.03,1.01-0.03,2.03-0.06c0.06,0.06,0.06,0.06,0.13,0.13c-0.19,1.28-0.18,2.64-0.13,3.93c0.03,0.65-0.02,1.31,0,1.96
					c0.4,0.46,1.2,0.06,1.27,0.06c0.24,0.02,1.32,0.26,1.39,0.25c-0.35,3.08,0.61,1.75,4.18,2.03c0,0.25,0,0.51,0,0.76
					c0.01,0.7-0.15,1.18,0.06,1.27c0.36,0.14,6.51-0.1,7.79,0c0.34,0.03,0.24,0.13,0.25,0.13c0.04,0.33-0.06,1.25,0,1.33
					c0.11,0.15,1.13,0.02,1.39,0.06c0.07,0.55,0.16,1.09,0.19,1.65c2.85,0,2.85,0,5.7,0c0.02-0.51,0.13-1.02,0.19-1.52
					c2.59,0.43,1.01-1.34,1.71-1.65c0.5-0.22,7.66,0.23,7.98,0c0.16-0.12,0.01-1.7,0.06-2.03c0.1-0.01,0.11-0.12,0.38-0.13
					c3.73-0.14,4.2,0.74,3.93-1.65c0-0.19,0-0.19,0-0.38c0.43-0.02,0.95-0.09,1.39-0.13c0.5-0.04,1.04,0.14,1.27-0.19
					c0.02-0.57-0.03-1.14,0-1.71c0.06-1.3-0.04-2.62,0-3.93c0.04,0,0.08,0,0.13,0c0.68-0.02,1.35,0.01,2.03,0
					c2.18-0.03,4.47,0.33,4.06-0.63c0.08-0.27,0.81-0.05,1.39-0.13c0.24-0.03,0.51,0.02,0.76,0c0.41-0.11,0.21,0.52,0.25,1.27
					c-0.04,0-0.08,0-0.13,0c-1.91,0-2.49-0.31-2.28,1.01c-0.86-0.01-1.92,0.07-2.79,0.13c-0.52,0.03-1.05-0.13-1.27,0.19
					c-0.06,1.07,0.08,2.17,0,3.23c-0.03,0.34-0.13,0.24-0.13,0.25c-0.28,0.05-1.41-0.09-1.52,0.06c-0.06,0.09,0.05,1.33,0,1.71
					c-0.1,0.02-0.24,0.09-0.38,0.13c-0.41,0.05-1.99-0.07-2.09,0c-0.16,0.11-0.01,1.47-0.06,1.77c-1.3,0.09-2.56,0.2-3.87,0.13
					c-0.16,1.08-0.16,1.08-0.32,2.15c-0.31,0.01-1.26-0.12-1.39,0.19c-0.06,0.13-0.04,1.32,0.13,1.58
					c-0.39,0.02-2.36,0.08-2.47,0.13c-0.39,0.17-0.05,1.13-0.25,1.27c-0.4,0.28-1.92-0.8-1.58,1.27c-0.53,0.01-1.06-0.11-1.27,0.19
					c0.03,0.57-0.04,1.15,0,1.71c-0.38,0.05-1.62-0.06-1.71,0c-0.12,0.09-0.06,1.39-0.06,1.65c0,0.12-0.13,0.13-0.13,0.25
					c-2.59,0.09-2.82-0.59-2.66,1.65c-0.17,0.01-0.34-0.01-0.51,0c-1.55,0.08-3.13-0.06-4.69,0c0.01-0.16-0.12-0.12-0.13-0.13
					c-0.32-0.72,0.89-1.81-1.39-1.52c-0.03-0.47-0.24-1.14-0.13-1.71c-0.98-0.1-0.98-0.1-1.96-0.19c-0.28-1.81,0.6-1.83-1.33-2.03
					c0.26-1.84-0.74-0.9-1.08-1.14c-0.2-0.14,0.13-1.1-0.25-1.27c-0.17-0.07-2.21,0.03-2.79,0c-0.1-0.01-0.05-0.25-0.06-0.25
					c-0.05-0.38,0.06-1.62,0-1.71c-0.09-0.13-1.27-0.05-1.52-0.06c-0.16-1.01-0.16-1.01-0.32-2.03c-1.13,0.09-2.24-0.06-3.36-0.13
					c0.18-2.65-0.1-1.54-2.79-1.77c-0.01,0,0.04-0.11-0.13-0.13c0.33-1.86,0.39-2.04-1.52-1.9c-0.02-0.17-0.13-0.12-0.13-0.13
					c-0.08-1.11,0.06-2.25,0-3.36c-0.68-0.22-1.08,0.07-1.14,0.06c-0.74-0.05-1.68-0.25-2.41-0.25C5,55.01,1.5,57.98,2.1,55.01
					c1.27,0.06,1.27,0.06,2.53,0.13c0.01,0.15-0.06,0.55,0.06,0.63c1.71,0,1.71,0,3.42,0c0.32-0.22,0.15-0.69,0.19-1.14
					c0.03-0.37-0.01-0.76,0-1.14c0.02-0.82-0.01-1.65,0-2.47c-0.2-0.3-0.49-0.15-0.76-0.19c-0.03-1.52-0.03-1.52-0.06-3.04
					c-1.65,0-1.65,0-3.3,0c-0.12-0.04-0.04-0.21-0.06-0.25C6,47.6,6,47.6,7.87,47.66c0.1-1.81,0.1-1.81,0.19-3.61
					c-0.19-0.43-1.89-0.04-2.22-0.19c-0.31-0.14,0.23-2.35-1.65-1.52c-0.3,0.13-0.22,3.29-0.19,3.8c-0.63,0.02-1.27-0.02-1.9,0
					c-0.59,0.02-1.18-0.12-1.39,0.19c0,1.96,0,1.96,0,3.93c0.22,0.32,0.63,0.16,1.01,0.19c0.54,0.41,0.13,3.03,0.25,4.56
					c-0.82,0-0.82,0-1.65,0c0-0.01-0.24,0.04-0.25-0.06c-0.24-1.95,0.18-7.46,0-10.14c0.03-0.12,0.4-0.17,0.51-0.19
					c0.26-0.04,1.29,0.09,1.39-0.06c-0.15-1.31,0.19-9.19,0-9.63c-0.15-0.34-0.97-0.14-1.27-0.19c0-0.02-0.38,0.05-0.38-0.06
					c-0.1-3.75,0.08-7.52,0-11.28c0.53-0.05,0.48-0.19,0.51-0.19c0.08-0.01,1.2,0.4,1.65-0.06c0.06-0.39-0.1-2.61,0.06-2.72
					c0.21-0.15,1.78,0.23,1.96-0.19c0-1.49,0-1.49,0-2.98c0.17-0.01,0.34,0.01,0.51,0c0.26-0.01,1.43,0.07,1.52-0.06
					c0-1.36,0-1.36,0-2.72c0.17-0.05,0.11-0.1,0.13-0.13c2.38,0.29,1.22-0.76,1.58-1.01c0.48-0.34,2.12,1,1.46-1.77
					c0.12-0.01,0.13-0.12,0.25-0.13c0.94-0.07,1.91,0.05,2.85,0C12.94,11.51,12.86,12.23,12.88,12.43z"/>
				<path class="st152" d="M32.01,73.64c-0.92,0.07-3.76,0.06-4.69,0c-0.04,0-0.08,0-0.13,0c0.06-1.33,0.06-1.33,0.13-2.66
					c0.29,0.07,5.77,0.17,6.02,0c0.13-0.1-0.01-1.57,0.25-1.9c1.49,0.11,3.88-0.55,3.1,1.2c-0.17,0.39-1.12,0.05-1.27,0.25
					c-0.09,0.13,0.18,1.04-0.19,1.2c-0.21,0.09-1.2-0.12-1.33,0.06c-0.09,0.13,0.12,1.58-0.06,1.71
					C33.78,73.57,32.31,73.62,32.01,73.64z"/>
				<path class="st153" d="M27.32,70.98c-0.06,1.33-0.06,1.33-0.13,2.66c-0.52-0.03-1.04,0.13-1.27-0.19
					c-0.08-0.4,0.19-2.05-0.19-2.22c-1-0.44-2.17,1.28-1.84-2.09c1.43-0.1,1.43-0.1,2.85-0.19C27.33,69.66,26.45,70.76,27.32,70.98z
					"/>
				<path class="st154" d="M32.01,73.64c-0.1,0.89-0.1,0.89-0.19,1.77c-3.62-0.24-4.92,0.94-4.5-1.77
					C28.25,73.71,31.09,73.71,32.01,73.64z"/>
				<path class="st155" d="M5.84,39.43c0.09-0.07,2.19-0.07,2.28,0c0.17,0.12,0.88,2.77-2.15,2.03C5.65,41.31,5.76,39.48,5.84,39.43
					z"/>
			</g>
			<path class="st129" d="M12.88,33.09c0,0.04,0,0.08,0,0.13c-0.95,0-0.95,0-1.9,0c0-0.84,0-1.69,0-2.53
				c0.29,0.01,1.81-0.06,1.9,0.06C12.89,31.53,12.86,32.31,12.88,33.09z"/>
			<path class="st156" d="M8.06,20.8C8,22.06,8,22.06,7.93,23.33c-0.04,0-0.08,0-0.13,0c-0.55-0.01-1.1,0-1.65,0
				c0.42-0.91,0.16-1.83,0.13-2.79c0.12-0.01,0.14-0.12,0.25-0.13C6.68,20.41,8.28,20.55,8.06,20.8z"/>
			<path class="st157" d="M12.88,33.22c-0.01,0.78,0.01,1.56,0,2.34c-0.09,0.12-0.7,0.05-0.89,0.06c-1.38,0.06-0.95-0.25-1.01-0.25
				c0-0.68,0-1.35,0-2.03c0-0.04,0-0.08,0-0.13C11.93,33.22,11.93,33.22,12.88,33.22z"/>
			<path class="st129" d="M12.75,13.32c-0.05,0.29,0.14,0.99-0.19,1.14c-1.3-0.06-1.3-0.06-2.6-0.13c0-0.05-0.18-0.69,0.19-1.01
				C11.45,13.32,11.45,13.32,12.75,13.32z"/>
			<path class="st129" d="M4.64,23.46c-0.07,0.34,0.17,1.49-0.19,1.65c-0.17,0.07-1.14-0.05-1.58,0c0.04-0.76-0.14-1.53,0.19-1.77
				C3.49,23.2,4.56,23.46,4.64,23.46z"/>
			<path class="st156" d="M6.29,20.54c0.03,0.95,0.29,1.87-0.13,2.79c-0.76,0-0.84-0.13-0.89-0.13c0-1.24,0-1.24,0-2.47
				C5.5,20.41,5.92,20.59,6.29,20.54z"/>
			<path class="st143" d="M36.32,13.06c0.2,0.08,0.89-0.11,1.01,0.06c0.16,0.23-0.12,4.85,0,5.58c0.09,0.13,1.04,0.05,1.27,0.06
				c0.06,1.6-0.39,1.96,1.01,1.77c0,1.52,0,1.52,0,3.04c-0.06,0-0.55,0.17-1.27,0.19c-0.06,1.43-0.06,1.43-0.13,2.85
				c-0.83,0.01-1.72,0.11-2.53,0.25c-0.1-0.36-0.37-0.06-0.51-1.14c-1.45,0.06-1.8-0.37-1.65,0.89c-0.17,0.03-0.12,0.12-0.13,0.13
				c-0.03,0.02-0.21-0.06-0.38,0.19c0.21,0.5,0.15,1.44,0.13,2.03c0,0.1,0.25,0.05,0.25,0.06c-0.01,0.2-0.25,0.09-0.25,0.19
				c-0.04,0.64,0.34,2.3-0.89,1.52c-0.06-3.93-0.06-3.93-0.13-7.86c0.13-0.19,1.96,0.03,2.09-0.06c0.08-0.06,0.1-1.28,0.06-1.33
				c-0.13-0.19-1.96,0.03-2.09-0.06c-0.15-0.1-0.85-2.31,1.96-1.84c0.09-0.59-0.12-4.13,0-4.31c0.14-0.2,1.64,0.07,1.77-0.13
				C36.13,14.89,35.56,12.83,36.32,13.06z"/>
			<path class="st158" d="M50.26,33.34c-0.14-0.62,0.13-1.31,0.13-1.9c1.05-0.13,1.05-0.13,2.09-0.25c0.1-0.89,0.1-0.89,0.19-1.77
				c2.31,0,2.52,0.26,2.66-0.51c2.62-0.65,1.78,1.79,1.58,4.44C54.7,33.38,52.48,33.3,50.26,33.34z"/>
			<path class="st155" d="M46.33,24.47c0.09,1.25-0.41,1.83,0.76,1.9c-0.82,0.3-1.76,0.04-2.6,0.13c-0.2,0.32-0.13,2.13-0.19,2.22
				c-0.16,0.23-1.84-0.17-2.03,0.25c-0.03,1.11-0.03,1.11-0.06,2.22c-0.3,0.18-1.84-0.14-2.22-0.13c-0.04-0.69-0.15-1.47-0.13-2.15
				c0.02-0.65,0.25-1.36,0.13-2.03c0.1,0,0.11-0.13,0.38-0.13c3.1-0.01,1.2-0.82,1.84-1.27c0.37-0.26,1.63,0.8,1.33-1.39
				c0.92,0.08,1.82,0.05,2.72,0.13C46.38,24.23,46.32,24.47,46.33,24.47z"/>
			<path class="st148" d="M20.86,8.63c0,0.63,0.13,0.72,0.13,0.76c0,0.01-0.25-0.04-0.25,0.06c-0.03,1.07,0.01,2.16,0,3.23
				c-2.12-0.2-1.13,0.47-1.46,0.89c-0.17,0.21-0.94,0.08-1.2,0.13c0.13-1.51-0.21-0.87-1.27-1.01c-0.48-0.07-1.05-0.22-1.52-0.25
				c0.35-0.73-0.01-1.2,0-1.27c0.02-0.12,0.13-0.23,0.25-0.25c1.58-0.28,3.62,1.53,2.79-2.15c0.12-0.01,0.13-0.12,0.25-0.13
				C19.33,8.57,20.11,8.31,20.86,8.63z"/>
			<path class="st143" d="M48.74,35.62c0.21,0.01,0.42,0,0.63,0c0.84-0.01,6.5-0.32,6.78-0.13c0.1,0.07,0.1,1.83,0,1.9
				c-0.3,0.22-7.17,0.22-7.48,0C48.56,37.31,48.56,35.87,48.74,35.62z"/>
			<path class="st141" d="M38.22,26.63c0.12,0,0.13,0.13,0.25,0.13c-0.12,0.89,0.13,2.17,0.13,2.28c-0.01,0.12-0.4-0.37-0.25,2.15
				c-0.37-0.01-2.44,0.06-2.53-0.06c-0.08-1.03,0.08-3.48-0.13-4.25C36.5,26.73,37.4,26.64,38.22,26.63z"/>
			<path class="st129" d="M15.28,19.66c-0.24,1.61,0.68,0.79,0.89,1.08c0.48,0.68-1.26,3.32,1.77,2.72
				c0.03,0.66,0.24,1.35,0.13,2.03c-0.7,0.03-1.43,0.24-2.15,0.13c0-0.02-0.24-0.09-0.25-0.19c-0.01-0.09,0.28-1.23,0.13-1.77
				c-0.25-0.16-0.25-0.16-0.51-0.32c0-1.24,0-1.24,0-2.47c-1.76-0.27-2.02,0.39-2.15-0.7c-0.03-0.24-0.01-0.43,0.13-0.63
				C13.95,19.54,14.61,19.63,15.28,19.66z"/>
			<path class="st148" d="M55.33,28.91c-0.14,0.76-0.35,0.51-2.66,0.51c-1.14,0-1.14,0-2.28,0c0-0.36-0.12-0.84-0.13-1.27
				c3.16-0.17,4.35,0.79,3.68-1.77c0.46,0.01,0.99-0.09,1.39,0.13c-0.01,0.17-0.05,0.68,0.06,0.76c0.39-0.05,1.68,0.06,1.77,0
				c0.16-0.11,0.01-1.59,0.06-1.9c0.06,0,0.06,0,0.13,0c-0.02,0.33,0.06,2.01,0,2.09c-0.13,0.19-1.83-0.03-1.96,0.06
				C55.24,27.62,55.38,28.64,55.33,28.91z"/>
			<path class="st158" d="M17.82,19.66c0.03,1.25,0.07,2.55,0.13,3.8c-3.03,0.59-1.3-2.05-1.77-2.72c-0.2-0.29-1.13,0.53-0.89-1.08
				c0.04,0,0.08,0,0.13,0C16.21,19.69,17.02,19.63,17.82,19.66z"/>
			<path class="st142" d="M47.73,24.47c0.67,0.03,1.35-0.02,2.03,0c-0.06,1.46-0.06,1.46-0.13,2.91c-0.07,0.01,0.35,0.37-1.27,0.25
				c-0.25-0.02-0.72,0.07-0.89-0.06c-0.21-0.39-0.09-0.8-0.13-1.2c-0.04-0.47-0.07-1.51,0.13-1.9
				C47.56,24.48,47.64,24.47,47.73,24.47z"/>
			<path class="st142" d="M17.82,16.87c0.03,0.95-0.02,1.86,0,2.79c-0.8-0.02-1.61,0.03-2.41,0c-0.1-0.93,0.08-1.86,0.13-2.79
				C16.68,16.87,16.68,16.87,17.82,16.87z"/>
			<path class="st129" d="M22.13,27.51c0,0.95,0,0.95,0,1.9c-0.44-0.02-1.05,0.05-1.27,0c-1.15-0.29,0.82-2.35-1.77-1.9
				c0-0.1-0.25-1.29-0.13-2.03c0.26,0,1.52-0.05,1.58,0c0.19,0.13-0.03,1.71,0.06,1.84C20.65,27.38,21.9,27.49,22.13,27.51z"/>
			<path class="st150" d="M22.13,29.41c0.6,0.03,1.17,0.16,1.77,0.13c-0.01,0.27,0.33,1.59,0.06,1.77c-3.08-0.14-3.64,0.76-3.1-1.9
				C21.08,29.47,21.69,29.39,22.13,29.41z"/>
			<path class="st158" d="M50.14,27.51c-0.03,0.5,0.13,0.57,0.13,0.63c0,0.43,0.13,0.91,0.13,1.27c0,0.06-0.25,1.08-0.25,1.14
				c-0.46-0.02-0.61-0.08-0.76,0.38c0.16-0.32-0.68-0.32-1.14-0.25c0.06-1.52,0.06-1.52,0.13-3.04c1.62,0.12,1.19-0.24,1.27-0.25
				C49.82,27.36,49.59,27.74,50.14,27.51z"/>
			<path class="st129" d="M33.41,26.75c1.01,0.1,1.01,0.1,2.03,0.19c-0.05,0.41,0.07,1.93,0,2.03c-0.12,0.16-1.7,0.01-2.03,0.06
				c0-0.01-0.26,0.04-0.25-0.06c0.02-0.59,0.08-1.53-0.13-2.03C33.2,26.69,33.37,26.77,33.41,26.75z"/>
			<g>
				<path class="st130" d="M20.73,12.68c-0.03,2.98,0.02,5.96,0,8.93c0.13,0.03,0.13,0.03,0.25,0.06c0.01,0.36-0.07,2.25,0,2.34
					c0.17,0.24,1.36-0.21,1.27,0.32c-0.35,1.66,0.37,1.21,1.52,1.27c0.31,0.01,1.93-0.07,2.03,0.06c0.1,0.13-0.13,1.96,0.06,2.09
					c0.92,0.05,1.87-0.06,2.79,0c0.1,0.01,0.05,0.25,0.06,0.25c0.06,0.45-0.08,2.61,0,2.72c0.06,0.08,1.52,0.11,1.58,0.06
					c0.17-0.12,0-2.45,0.06-2.85c-0.08-0.13-0.37-0.04-0.51-0.06c0.13-1.15-0.18-7.93,0-8.3c0.14-0.3,0.55-0.12,0.63-0.25
					c0.08-0.14-0.08-1.4,0-1.52c0.14-0.19,0.97,0.12,1.14-0.25c0.16-0.37-0.25-2.15,0.19-2.34c0.98-0.44,1.59,1.3,1.52-2.28
					c1.36-0.06,1.36-0.06,2.72-0.13c0.02,0.07,0.24,0.25,0.25,0.25c-0.76-0.23-0.19,1.82-0.38,2.09c-0.14,0.2-1.64-0.07-1.77,0.13
					c-0.12,0.18,0.09,3.71,0,4.31c-2.81-0.47-2.11,1.73-1.96,1.84c0.13,0.1,1.96-0.13,2.09,0.06c0.04,0.05,0.02,1.27-0.06,1.33
					c-0.13,0.09-1.96-0.13-2.09,0.06c0.06,3.93,0.06,3.93,0.13,7.86c1.23,0.78,0.85-0.88,0.89-1.52c0.01-0.1,0.25,0.01,0.25-0.19
					c0.33-0.05,1.91,0.1,2.03-0.06c0.07-0.1-0.05-1.62,0-2.03c-1.01-0.1-1.01-0.1-2.03-0.19c0.01,0-0.05-0.09,0.13-0.13
					c1.07-0.2,1.86,0.57,1.65-0.89c0.13,1.08,0.41,0.78,0.51,1.14c0.2,0.76,0.05,3.21,0.13,4.25c0.09,0.13,2.17,0.05,2.53,0.06
					c0.68,0.02,1.14-0.11,1.65-0.13c0.38-0.01,1.92,0.3,2.22,0.13c0.03-1.11,0.03-1.11,0.06-2.22c0.19-0.42,1.86-0.02,2.03-0.25
					c0.06-0.09-0.01-1.9,0.19-2.22c0.84-0.08,1.78,0.17,2.6-0.13c0.05-0.02,0.17,0.01,0.25,0c0.04,0.41-0.08,0.81,0.13,1.2
					c0.17,0.13,0.64,0.04,0.89,0.06c-0.06,1.52-0.06,1.52-0.13,3.04c-1.16,0.17-0.53,0.59-0.51,2.53c0,0.11-0.24,1.23-0.13,2.22
					c0.21,0.31,0.68,0.17,1.14,0.19c-0.19,0.25-0.18,1.69-0.06,1.77c0.3,0.22,7.17,0.22,7.48,0c0.1-0.07,0.1-1.83,0-1.9
					c-0.28-0.2-5.94,0.12-6.78,0.13c0-1.08,0-1.08,0-2.15c0.28-0.19,0.58-0.12,0.89-0.13c2.22-0.04,4.44,0.03,6.65,0
					c0.2-2.65,1.04-5.09-1.58-4.44c0.05-0.26-0.09-1.28,0.06-1.39c0.13-0.09,1.83,0.12,1.96-0.06c0.06-0.09-0.02-1.76,0-2.09
					c0.03-0.62,0.24-1.27,0.13-1.9c0.49,0.01,0.36-0.13,0.38-0.13c0.46,0,1.11-0.05,1.52,0c0.27,0.03,0.56-0.11,0.76,0.19
					c0.04,3.76-0.13,7.52-0.13,11.28c0,0.1-0.25,0.05-0.25,0.06c-0.3,0.05-1.12-0.15-1.27,0.19c-0.2,0.45-0.28,9.36,0,9.76
					c0.11,0.16,1.24,0.01,1.52,0.06c0,0.02,0.25,0.1,0.25,0.19c0.04,3.25-0.03,6.51,0,9.76c-0.15,0.2-0.25,0.17-0.25,0.19
					c-0.81-0.05-1.51,0.17-1.39-0.25c0-4.15,0-4.15,0-8.3c-0.45-0.45-1.32-0.06-1.39-0.06c-0.03,0-0.12-0.22-0.63-0.13
					c-0.08-0.54,0.11-3.71,0-3.87c-0.05-0.08-1.64-0.11-1.71-0.06c-0.06,0.04-0.18,1.33-0.19,1.52c-2.65-0.25-2.55,0.09-2.09,3.68
					c0.74-0.1,2.98,0.14,3.36,0c-0.01,0.1,0.02,0.23,0,0.25c-0.38,0.55-0.25,0.84-0.76,0.76c-0.16-0.25-0.16-0.25-0.32-0.51
					c-1.01-0.06-1.01-0.06-2.03-0.13c-0.03,1.46-0.03,1.46-0.06,2.91c-0.04,0-0.16,0.15-0.89,0.13c-0.61-0.02-1.27-0.25-1.9-0.13
					c-0.1-3.16,0.13-6.35,0-9.5c-0.03-0.69,0.14-1.88-0.19-2.03c-1.05,0-1.05,0-2.09,0c0.07-1.6-0.94-0.79-1.14-1.08
					c-0.08-0.11,0.02-2.2,0-2.6c-0.01-0.38,0.07-2.57-0.06-2.66c-9.27,0.1-18.55-0.14-27.82,0c0.22-0.83,0.12-1.69,0.13-2.53
					c0.01-0.95-0.04-1.91,0-2.85c0-0.1,0.25-0.05,0.25-0.06c2.59-0.45,0.62,1.61,1.77,1.9c-0.54,2.66,0.03,1.76,3.1,1.9
					c0.26-0.19-0.07-1.5-0.06-1.77c0-0.09,0.24-0.92,0.13-1.84c-0.16-0.36-1.23-0.12-1.9-0.19c-0.23-0.03-1.48-0.13-1.52-0.19
					c-0.09-0.13,0.12-1.71-0.06-1.84c-0.06-0.05-1.32,0-1.58,0c-0.25,0-0.51-0.01-0.76,0c-0.04,0-0.08,0-0.13,0
					c0.11-0.68-0.1-1.37-0.13-2.03c-0.05-1.25-0.1-2.55-0.13-3.8c-0.02-0.92,0.03-1.84,0-2.79c-0.02-0.72,0.01-1.44,0-2.15
					c0-0.44,0-0.44,0-0.89c0.34-0.02,0.24-0.12,0.25-0.13c0.26-0.05,1.04,0.08,1.2-0.13C19.61,13.16,18.61,12.48,20.73,12.68z"/>
				<path class="st148" d="M44.62,27.64c0.09-0.06,1.97-0.07,2.09,0.19c-0.17,2.41,0.81,3.23-2.15,2.79
					C44.62,30.19,44.46,27.76,44.62,27.64z"/>
				<path class="st155" d="M52.1,39.3c2.4-0.04,2.58-0.38,2.03,2.28c-1.05-0.1-1.05-0.1-2.09-0.19
					C52.07,40.34,52.07,40.34,52.1,39.3z"/>
			</g>
			<path class="st158" d="M17.82,14.71c0.01,0.72-0.02,1.44,0,2.15c-1.14,0-1.14,0-2.28,0c0.03-0.7-0.12-1.51,0.13-2.15
				c0.33-0.03,0.85-0.13,1.14-0.13C16.86,14.59,17.12,14.8,17.82,14.71z"/>
			<path class="st129" d="M29.86,27.89c0.14,0.03,0.43-0.07,0.51,0.06c-0.06,0.4,0.1,2.73-0.06,2.85c-0.06,0.05-1.53,0.02-1.58-0.06
				c-0.08-0.11,0.06-2.27,0-2.72C28.78,28.02,29.21,27.77,29.86,27.89z"/>
			<path class="st159" d="M18.2,25.48c-0.1,1.08-0.1,1.08-0.19,2.15c-2.87,0.1-1.89,0.05-2.09-2.03c0.72,0.11,1.45-0.1,2.15-0.13
				C18.12,25.48,18.16,25.49,18.2,25.48z"/>
			<path class="st129" d="M48.24,30.68c0.46-0.07,1.3-0.06,1.14,0.25c-0.06,0.17,0,1.73,0,2.28c-0.82,0-0.82,0-1.65,0
				C47.71,31.27,47.08,30.85,48.24,30.68z"/>
			<path class="st160" d="M49.38,33.22c0,0.08,0,0.17,0,0.25c0,1.08,0,1.08,0,2.15c-0.21,0-0.42,0.01-0.63,0
				c-0.46-0.02-0.93,0.12-1.14-0.19c-0.12-0.99,0.13-2.11,0.13-2.22C48.55,33.22,48.55,33.22,49.38,33.22z"/>
			<path class="st161" d="M22.76,23.84c-0.01,0.04-0.39-0.06-0.51,0.51c0.09-0.52-1.1-0.08-1.27-0.32c-0.07-0.1,0.01-1.98,0-2.34
				C21.8,21.97,23.3,20.65,22.76,23.84z"/>
			<path class="st129" d="M57.49,23.46c0.11,0.64-0.1,1.28-0.13,1.9c-0.06,0-0.06,0-0.13,0c-0.89-0.06-0.89-0.06-1.77-0.13
				c0.03-0.57-0.06-1.26,0.25-1.77C56.3,23.47,56.9,23.44,57.49,23.46z"/>
			<path class="st159" d="M23.9,29.54c-0.6,0.03-1.18-0.09-1.77-0.13c0-0.95,0-0.95,0-1.9c0.67,0.07,1.74-0.17,1.9,0.19
				C24.14,28.62,23.91,29.45,23.9,29.54z"/>
			<path class="st140" d="M39.87,28.91c-0.02,0.69,0.09,1.46,0.13,2.15c-0.51,0.02-0.96,0.14-1.65,0.13
				c-0.15-2.52,0.25-2.04,0.25-2.15C39.24,28.97,39.24,28.97,39.87,28.91z"/>
			<path class="st158" d="M22.76,23.84c1.42-0.18,0.95,0.46,1.01,1.77c-1.15-0.05-1.87,0.39-1.52-1.27
				C22.38,23.78,22.76,23.87,22.76,23.84z"/>
			<path class="st140" d="M50.14,30.55c0,0.09,0.25,0.8,0.25,0.89c0,0.59-0.26,1.28-0.13,1.9c-0.31,0.01-0.61-0.07-0.89,0.13
				c0-0.08,0-0.17,0-0.25c0-0.55-0.06-2.11,0-2.28C49.53,30.47,49.68,30.53,50.14,30.55z"/>
			<path class="st144" d="M47.47,24.47c-0.19,0.39-0.17,1.43-0.13,1.9c-0.09,0.01-0.2-0.02-0.25,0c-1.17-0.07-0.67-0.65-0.76-1.9
				C46.41,24.48,46.89,24.43,47.47,24.47z"/>
			<path class="st130" d="M35.18,25.74c0.22,1.45-0.58,0.68-1.65,0.89C33.38,25.37,33.73,25.8,35.18,25.74z"/>
			<path class="st158" d="M18.07,13.7c-0.01,0,0.09,0.1-0.25,0.13c-0.05,0-0.32-0.14-1.01,0c0-0.57,0-0.57,0-1.14
				C17.87,12.83,18.21,12.19,18.07,13.7z"/>
			<path class="st159" d="M17.82,13.83c0,0.44,0,0.44,0,0.89c-0.7,0.09-0.96-0.13-1.01-0.13c0-0.38,0-0.38,0-0.76
				C17.5,13.69,17.77,13.83,17.82,13.83z"/>
			<path class="st129" d="M20.99,9.39c0-0.04-0.13-0.13-0.13-0.76c0-0.68,0-1.35,0-2.03c0.21-0.02,0.92,0.07,1.01-0.06
				c0.58-0.81-1.28-2.77,3.04-1.77c0.56,3.14-1.78,1.34-2.47,1.84C22.13,8.85,23.11,9.64,20.99,9.39z"/>
			<path class="st143" d="M43.8,10.66c0,0.04,0,0.08,0,0.13c-0.46,0.01-0.93-0.02-1.39,0c-0.48,0.02-0.94-0.05-1.39,0.19
				c0,1.14,0,1.14,0,2.28c1.39,0.1,1.39,0.1,2.79,0.19c0.64,0.78-2.65,0.23-4.06,0.25c0-1.27,0-1.27,0-2.53
				c0.25-0.03,0.99,0.01,1.14-0.19c0.6-0.76-1.29-2.63,2.72-1.84c-0.03,0.73-0.03,0.73-0.06,1.46C43.55,10.7,43.8,10.64,43.8,10.66z
				"/>
			<path class="st148" d="M46.97,10.66c0.27,0.04,0.06,0.31,0,0.63c-0.15,0.81,0.01,1.28,0,2.03c0,0.04,0,0.08,0,0.13
				c-0.57-0.14-2.73-0.22-3.04-0.13c-0.06-1.2-0.06-1.2-0.13-2.41c0-0.04,0-0.08,0-0.13c0-0.04,0-0.08,0-0.13
				C44.85,10.61,45.92,10.72,46.97,10.66z"/>
			<path class="st129" d="M26.31,2.29c0.3,0.02,1.8-0.07,1.9,0.06c0,1.01,0,1.01,0,2.03c-2.88,0.4-3.12,0.79-2.91-2.09
				C25.63,2.31,25.98,2.27,26.31,2.29z"/>
			<path class="st129" d="M31.63,4.57c0.16,0.34,0.2,1.35,0.13,1.65c-0.05,0.2-0.5,0.35-0.51,0.38c-0.9-0.2-1.88-0.17-2.79-0.13
				C28.08,3.38,29.48,4.99,31.63,4.57z"/>
			<path class="st143" d="M33.91,4.45c0.06,0.89,0.06,0.89,0.13,1.77c-0.04,0-0.35,0.38-0.63,0.38c-0.27,0-1.82-0.13-1.65-0.38
				c0.07-0.29,0.03-1.31-0.13-1.65c0.1-0.02,0.21,0.01,0.32,0c0.07-0.44,0.18-0.36,0.19-0.38C31.97,4.54,32.89,4.48,33.91,4.45z"/>
			<path class="st129" d="M35.06,2.8c0.07,0.38-0.08,1.03,0,1.39c-0.25,0.4-0.69,0.24-1.14,0.25c-1.03,0.03-1.95,0.09-1.77-0.25
				c0.07-0.25-0.06-0.89,0-1.27C33.6,2.86,33.6,2.86,35.06,2.8z"/>
			<path class="st162" d="M20.86,6.6c0,0.68,0,1.35,0,2.03c-0.75-0.32-1.53-0.06-2.28,0c0.05-0.33-0.1-1.91,0.06-2.03
				C18.73,6.54,20.49,6.63,20.86,6.6z"/>
			<path class="st158" d="M39.74,11.16c0,1.27,0,1.27,0,2.53c-0.06,0-0.1,0.22-1.14,0.13c-0.2-1.15-0.47-0.61-0.63-0.82
				c0.24-0.7,0.06-1.69,0.13-1.77C38.2,11.08,39.46,11.2,39.74,11.16z"/>
			<path class="st163" d="M35.06,2.8c-1.46,0.06-1.46,0.06-2.91,0.13c0.04-0.24-0.1-0.45,0.19-0.63c1.27,0,1.27,0,2.53,0
				C35.13,2.46,35.02,2.62,35.06,2.8z"/>
			<path class="st155" d="M52.8,20.04c-0.48,1.02-0.15,2.24-0.38,3.36c-0.11,0.08-2.4,0.2-2.66,0.19c-0.39-0.02-0.36-0.25-0.38-0.25
				c0-0.7,0-0.7,0-1.39c-0.06-0.82-0.06-0.82-0.13-1.65c0.2-0.01,0.09-0.25,0.19-0.25C50.55,19.98,51.69,20.03,52.8,20.04z"/>
			<path class="st144" d="M55.71,23.46c-0.32,0.51-0.23,1.2-0.25,1.77c-0.04,0.83-0.12,1.2-0.13,1.27
				c-0.41-0.21-0.94-0.12-1.39-0.13c-0.38,0-0.76,0-1.14,0c-0.13-1.01,0.12-2.05,0.13-3.04c0.96,0.12,2.29-0.13,2.41-0.13
				C55.36,23.2,55.69,23.46,55.71,23.46z"/>
			<path class="st129" d="M55.33,23.2c-0.12,0-1.45,0.25-2.41,0.13c0-0.43-0.4-2.71,0.06-2.91c1.17,0.1,1.17,0.1,2.34,0.19
				C55.33,21.9,55.33,21.9,55.33,23.2z"/>
			<path class="st129" d="M52.8,26.37c0.38,0,0.76,0,1.14,0c0.68,2.57-0.52,1.61-3.68,1.77c0-0.07-0.15-0.14-0.13-0.63
				c0.01-0.22-0.06-1.05,0.06-1.14C51.07,26.37,51.93,26.37,52.8,26.37z"/>
			<path class="st140" d="M49.38,23.33c0.02,0-0.01,0.24,0.38,0.25c0,0.44,0,0.44,0,0.89c-0.67-0.02-1.35,0.03-2.03,0
				c-0.13-1.09,0.24-1.04,0.25-1.14C48.44,23.36,48.92,23.29,49.38,23.33z"/>
			<path class="st142" d="M49.38,14.33c-0.16,0.74-0.14,1.41-0.13,2.15c-0.03,0,0.06,0.3-0.51,0.38c-0.06,0.01-0.98-0.28-1.2-0.13
				c-0.29,0.21,0.52,1.4-1.08,1.14c0.04-0.54-0.06-1.12,0-1.65c0.17-1.55,0.33-0.84,0.51-1.9C48.17,14.33,48.17,14.33,49.38,14.33z"
				/>
			<path class="st130" d="M46.97,13.32c0.01-0.75-0.15-1.21,0-2.03c1.3,0,1.3,0,2.6,0C49.85,14.01,49.75,13.22,46.97,13.32z"/>
			<path class="st131" d="M6.67,83.4c0.19,0,0.93-0.06,1.01,0.06c0.02,0.31-0.03,0.64,0,0.95c0.01,0.17-0.01,0.34,0,0.51
				c-1.71,0.11-1.05-0.13-1.39-1.39C6.31,83.52,6.18,83.4,6.67,83.4z"/>
			<g>
				<path class="st131" d="M48.11,80.87c-0.68,2.43,0.92,1.39,1.14,1.71c0.43,0.61-0.95,1.19,1.27,1.33c0,1.52,0,1.52,0,3.04
					c-0.22-0.02-1.05,0.07-1.14-0.06c-0.09-0.13,0.12-1.58-0.06-1.71c-0.22-0.16-2.03,0.24-2.22-0.19
					c-0.12-1.94,0.39-2.35-0.51-2.47c0.05-0.43-0.07-1.3,0-1.46C46.73,80.73,47.79,80.89,48.11,80.87z"/>
				<path class="st136" d="M51.78,80.87c0.33,0.01,2.06-0.06,2.15,0.06c0.08,1.24-0.22,2.81,0.25,2.72c-0.01,0,0.07,0.14-0.25,0.13
					c-0.63-0.03-1.27,0.01-1.9,0c-0.5-0.01-1.44,0.13-1.52,0.13c-2.22-0.14-0.84-0.72-1.27-1.33c-0.22-0.32-1.82,0.72-1.14-1.71
					c1.29-0.11,0.83-0.25,0.89-0.25c0.19,0,0.09,0.25,0.19,0.25C50.05,80.85,50.92,80.84,51.78,80.87z"/>
				<path class="st131" d="M53.94,83.78c0.24,1-0.26,1.58-1.27,1.39c-0.72-0.13-0.69-0.76-0.63-1.39
					C52.67,83.79,53.31,83.75,53.94,83.78z"/>
			</g>
			<g>
				<path class="st164" d="M42.28,71.36c-0.16,0.91,0.21,6.87,0,7.16c-0.44,0.62-2.08-1.6-1.84,2.98c-1.17,0.1-1.17,0.1-2.34,0.19
					c0,1.49,0,1.49,0,2.98c-0.09,0.01,0.39,0.25-1.65,0.38c-0.07,0-1.02-0.31-1.39-0.06c0.08,1.56-0.5,2.45,1.2,2.09
					c0.04-0.01,0.17-0.38,0.19-0.38c0.93-0.12,1.95-0.05,2.91-0.13c0.17-0.01,0.34,0.02,0.51,0c0,0.82,0,0.82,0,1.65
					c-5.4,0.18-10.82,0.19-16.22,0.13c0-0.06,0-0.06,0-0.13c1.52-0.04,3.05,0.05,4.56,0c0.53-0.02,3.94-0.02,4.06-0.19
					c0.06-0.08,0.02-1.91-0.06-1.96c-0.16-0.11-3.33,0.02-3.87,0c-1.56-0.05-3.13-0.12-4.69-0.13c0.36-4.28-0.88-2.31-1.27-2.85
					c-0.13-0.18,0.1-3.83,0-4.44c-0.16-0.37-1.08-0.11-1.39-0.19c-0.59-0.16-0.45-0.81-0.25-1.33c-0.57-0.09-0.44-5.23-0.38-5.51
					c0.96,0.08,0.84-0.12,0.89-0.13c0.06-0.01,0.83-0.01,0.89,0c1.93,0.19,1.05,0.22,1.33,2.03c0.98,0.1,0.98,0.1,1.96,0.19
					c-0.11,0.57,0.1,1.24,0.13,1.71c0.07,1.25-0.95,1.68,1.39,1.52c0,0.01,0.14-0.03,0.13,0.13c-0.34,1.91,2.86,0.72,4.69,1.14
					c0.19,0.66-0.2,4.17-0.13,4.37c0.09,0.27,1.28,0.23,1.33,0.19c0.24-0.17,0.02-5.09,0.06-5.83c0.7-0.08,1.38-0.2,2.09-0.13
					c0.28-1.71-0.19-1.31-0.19-1.39c0-0.12,0.13-0.13,0.13-0.25c1.43-0.6,2.24,0.88,2.03-1.58c-0.01-0.11-0.25-0.05-0.25-0.06
					c-0.04-0.57,0.03-1.14,0-1.71c0.21-0.3,0.74-0.18,1.27-0.19c0.7-0.02,0.84,0.16,1.65,0c0.04-0.01,0.45,0.51,0.38-0.38
					c0.74-0.16,1.35-0.13,2.09-0.13C42.32,71.11,42.27,71.36,42.28,71.36z"/>
				<path class="st165" d="M22.13,71.49c-0.05-0.01-0.83-0.01-0.89,0c0.03-0.51-0.74-0.5-0.89,0.13c-0.06,0.28-0.19,5.42,0.38,5.51
					c-0.2,0.52-0.33,1.17,0.25,1.33c-0.72,0.19-0.17,1.56-0.57,2.79c-2.16-0.12-2.14,0.6-2.34-1.27c-0.18-1.61,0.25-8.45,0-8.81
					c-0.4-0.56-2.78,1.29-1.9-2.22c0.62,0,1.69-0.13,1.77-0.13c0.01,0-0.04,0.25,0.06,0.25c0.58,0.03,2.62-0.07,2.79,0
					c0.39,0.17,0.05,1.13,0.25,1.27C21.39,70.59,22.39,69.65,22.13,71.49z"/>
				<path class="st165" d="M23.65,85.94c0,1.14,0,1.14,0,2.28c0,0.06,0,0.06,0,0.13c-1.82-0.02-3.64,0.07-5.45-0.06
					c0-1.84,0-1.84,0-3.68c1.14-0.06,1.14-0.06,2.28-0.13c0-1.46,0-1.46,0-2.91c-1.27-0.03-1.27-0.03-2.53-0.06
					c0-0.06,0-0.06,0-0.13c0.24-0.24,0.17-0.87,0-1.14c0-0.01-0.14,0.03-0.13-0.13c0.14,0,0.26,0.04,0.25-0.13
					c0.2,1.87,0.19,1.15,2.34,1.27c0.4-1.23-0.15-2.6,0.57-2.79c0.31,0.08,1.23-0.18,1.39,0.19c0.1,0.61-0.13,4.25,0,4.44
					C22.77,83.63,24.01,81.65,23.65,85.94z"/>
				<path class="st165" d="M44.18,69.08c0.12,1.97,0.14,2.28-1.9,2.28c-0.01,0,0.04-0.25-0.06-0.25c-0.74,0-1.35-0.04-2.09,0.13
					c-0.04,0.01-0.44-0.51-0.38,0.38c-0.81,0.16-0.95-0.02-1.65,0c-0.34-2.06,1.18-0.98,1.58-1.27c0.2-0.14-0.13-1.1,0.25-1.27
					c0.11-0.05,2.08-0.1,2.47-0.13C43.01,68.92,43.61,69.08,44.18,69.08z"/>
				<path class="st165" d="M39.87,88.22c0-0.82,0-0.82,0-1.65c0.24-0.03,1.17,0.08,1.27-0.06c0.06-0.09-0.05-1.33,0-1.71
					c0.06,0,0.26-0.29,1.14-0.06c0,1.71,0,1.71,0,3.42C42.07,88.62,40.24,88.21,39.87,88.22z"/>
				<path class="st166" d="M39.36,84.67c0,0.95,0,0.95,0,1.9c-0.96,0.08-1.99,0.01-2.91,0.13c0-0.82,0-0.82,0-1.65
					c2.04-0.13,1.56-0.37,1.65-0.38C38.51,84.64,38.94,84.68,39.36,84.67z"/>
				<path class="st167" d="M41.14,84.8c-0.05,0.38,0.06,1.62,0,1.71c-0.1,0.14-1.03,0.03-1.27,0.06c-0.17,0.02-0.34-0.01-0.51,0
					c0-0.95,0-0.95,0-1.9C39.99,84.65,40.53,84.75,41.14,84.8z"/>
				<path class="st167" d="M33.03,76.94c-0.04,0.74,0.17,5.66-0.06,5.83c-0.05,0.04-1.24,0.08-1.33-0.19
					c-0.07-0.21,0.32-3.72,0.13-4.37c0-0.57,0-0.57,0-1.14c0.17-0.01,0.34,0.01,0.51,0C32.51,77.05,32.77,76.97,33.03,76.94z"/>
				<path class="st168" d="M31.76,77.06c0,0.57,0,0.57,0,1.14c-1.83-0.42-5.03,0.77-4.69-1.14C28.63,77,30.21,77.15,31.76,77.06z"/>
				<path class="st168" d="M34.93,75.42c0,0.08,0.47-0.32,0.19,1.39c-0.71-0.07-1.39,0.04-2.09,0.13c-0.26,0.03-0.52,0.11-0.76,0.13
					C32.11,74.82,32.34,75.51,34.93,75.42z"/>
				<path class="st168" d="M36.83,73.52c0,0.01,0.24-0.04,0.25,0.06c0.21,2.46-0.59,0.98-2.03,1.58c0-0.26-0.06-1.56,0.06-1.65
					C35.21,73.45,36.45,73.56,36.83,73.52z"/>
				<path class="st169" d="M26.94,76.94c-2.34,0.16-1.32-0.27-1.39-1.52C27.83,75.13,26.62,76.21,26.94,76.94z"/>
				<path class="st166" d="M28.34,86.06c-0.06,1.08-0.06,1.08-0.13,2.15c-1.52,0.05-3.04-0.04-4.56,0c0-1.14,0-1.14,0-2.28
					C25.21,85.94,26.78,86.02,28.34,86.06z"/>
				<path class="st166" d="M28.21,88.22c0.06-1.08,0.06-1.08,0.13-2.15c0.54,0.02,3.71-0.11,3.87,0c0.08,0.06,0.12,1.88,0.06,1.96
					C32.15,88.19,28.75,88.2,28.21,88.22z"/>
				<path class="st167" d="M36.45,85.05c0,0.82,0,0.82,0,1.65c-0.02,0-0.15,0.37-0.19,0.38c-1.7,0.35-1.12-0.53-1.2-2.09
					C35.43,84.74,36.38,85.05,36.45,85.05z"/>
				<path class="st170" d="M21.24,71.49c-0.04,0,0.07,0.2-0.89,0.13C20.5,70.99,21.27,70.98,21.24,71.49z"/>
				<path class="st170" d="M40.12,71.24c0.07,0.89-0.34,0.37-0.38,0.38C39.68,70.73,40.08,71.24,40.12,71.24z"/>
				<path class="st133" d="M17.95,81.37c0-0.57,0-0.57,0-1.14C18.11,80.51,18.19,81.13,17.95,81.37z"/>
			</g>
			<g>
				<path class="st130" d="M15.28,68.95c0.29-0.01,0.59,0,0.89,0c-0.88,3.51,1.5,1.66,1.9,2.22c0.25,0.36-0.18,7.19,0,8.81
					c0.01,0.17-0.11,0.12-0.25,0.13c-0.65,0.02-1.3-0.13-1.52,0.19c0.19,3.09-0.81,4.62,1.65,3.93c0-1.36,0-1.36,0-2.72
					c1.27,0.03,1.27,0.03,2.53,0.06c0,1.46,0,1.46,0,2.91c-1.14,0.06-1.14,0.06-2.28,0.13c0,1.84,0,1.84,0,3.68
					c1.81,0.13,3.63,0.04,5.45,0.06c5.4,0.06,10.82,0.05,16.22-0.13c0.37-0.01,2.2,0.4,2.41-0.06c0-1.71,0-1.71,0-3.42
					c-0.88-0.23-1.08,0.07-1.14,0.06c-0.61-0.04-1.15-0.15-1.77-0.13c-0.42,0.01-0.85-0.03-1.27,0c0-1.49,0-1.49,0-2.98
					c1.17-0.1,1.17-0.1,2.34-0.19c-0.24-4.58,1.4-2.36,1.84-2.98c0.21-0.29-0.16-6.25,0-7.16c2.04,0,2.02-0.31,1.9-2.28
					c0.06,0,0.14-0.22,1.14-0.13c0.01,0.17,0.13,0.12,0.13,0.13c0.03,0.36-0.08,2.18,0.06,2.28c0.82,0.04,1.65-0.05,2.47,0
					c0.51,0.03,0.36,0.12,0.38,0.13c-0.08,1.29,0.13,0.94,1.01,1.01c0.48,0.04,0.98-0.03,1.46,0c0.1,1.24,0.1,1.24,0.19,2.47
					c0.39,0.03,0.76,0.12,1.14,0.19c0,1.81,0,1.81,0,3.61c0.15,0.33,0.9,0.14,1.39,0.19c0.2,0.02,0.79-0.07,0.89,0.06
					c0,2.31,0,2.31,0,4.63c-0.08-0.01-0.17,0-0.25,0c-0.48,0.09-0.17-1.48-0.25-2.72c-0.09-0.13-1.83-0.05-2.15-0.06
					c-0.07-0.34,0.17-1.49-0.19-1.65c-0.71-0.31-3.43-0.21-2.6,1.39c-0.05,0,0.41,0.14-0.89,0.25c-0.32,0.03-1.38-0.14-1.52,0.19
					c-0.07,0.16,0.05,1.02,0,1.46c-0.15-0.02-0.69-0.04-0.76,0.06c-0.26,0.37,0.04,6.9-0.13,9.06c-0.02,0.33,0.05,1.76,0,1.84
					c-0.08,0.11-1.29,0.03-1.39,0.25c-0.15,0.33,0.44,6.2,0,7.22c0.21,0.3,0.96,0.19,1.65,0.19c0.13,0,0.25,0,0.38,0
					c0,0.57,0,0.57,0,1.14c-0.92-0.08-1.46,0.04-1.84,0c-0.12-0.01-0.01-0.37-0.13-0.38c-2.33-0.28-2.21-0.04-2.22,2.53
					c-1.73-0.4-1.74,0.89-1.52,1.2c0.09,0.13,1.38,0.05,1.65,0.06c0.34,0.01,0.68-0.01,1.01,0c1.1,0.03,2.2-0.05,3.3,0
					c0.85,0.04,1.73,0.4,1.77,0.32c-0.06-1.19,0.09-2.42,0-3.61c0.3,0.01,1.81-0.07,1.9,0.06c0,1.62,0,1.62,0,3.23
					c-0.11,0.02-0.33,0.16-0.51,0.19c0.51,3.64-2.02,0.22-1.65,3.23c-0.01,0,0.04,0.25-0.06,0.25c-2.42,0.18-4.99-0.01-7.41-0.13
					c-0.03-1.14-0.03-1.14-0.06-2.28c-2.95-0.03-2.95-0.03-5.89-0.06c0-2.15,0-2.15,0-4.31c-1.08-0.13-1.08-0.13-2.15-0.25
					c0-2.82,0-2.82,0-5.64c0.52-0.03,1.04,0.13,1.27-0.19c-0.09-0.43,0.2-2.55-0.19-2.72c-1.88-0.84-1.24,1.84-1.33,2.91
					c-1.24,0.08-2.5-0.06-3.74,0c-0.58-1.11,0.92-3.59-1.46-2.6c-0.27,3.62,0.61,2.14,0.89,2.53c0.16,0.23-0.13,4.96,0,5.7
					c-1.08,0.13-1.08,0.13-2.15,0.25c-0.1,2.19-0.1,2.19-0.19,4.37c-2.85,0-2.85,0-5.7,0c-0.1,1.14-0.1,1.14-0.19,2.28
					c-2.49,0.07-5.05,0.3-7.54,0.13c-0.1-0.01-0.05-0.25-0.06-0.25c0.34-2.46-1.14-1.22-1.33-1.39c-0.4-0.35,0.56-1.9-0.7-1.9
					c0-1.74,0-1.74,0-3.49c0.08-0.11,1.63-0.08,1.9-0.06c0.08,0,0.75,0.23,1.65,0.13c-1.35,0.73-1.85-1.49-1.65,3.36
					c0.13,0.29,1.27,0.05,2.66,0.06c1.09,0.01,2.21,0.04,3.3,0c1.38-0.06,1.94,0.45,1.65-1.39c-0.02-0.12,0.22-0.19,0.06-0.25
					c-3.59,0.54,0.55-2.9-3.42-2.41c-0.13,0.02,0.13,0.58-2.34,0.38c0.05-0.14-0.04-0.59,0-0.89c0.04,0,0.12-0.12,0.76-0.13
					c0.24,0,1.31,0.06,1.39-0.06c0-3.74,0-3.74,0-7.48c-0.1-0.13-1.03-0.04-1.27-0.06c-0.04,0-0.08,0-0.13,0c0-2.34,0-2.34,0-4.69
					c0-3.07,0-3.07,0-6.15c-0.28-0.38-0.38-0.05-0.51-0.06c0.35-2.1,0.03-1.51-1.52-1.65c-0.41-0.04-0.99-0.25-1.39-0.25
					c-0.07-0.29,0.17-1.23-0.19-1.39c-0.13-0.06-2.67-0.08-2.79,0c-0.15,0.11-0.02,1.13-0.06,1.39c-0.08,0-0.29,0.17-1.52,0.13
					c-0.32-0.01-0.58-0.01-0.89-0.13c0.03-0.48-0.02-0.97,0-1.46c0.15-0.33,0.83-0.14,1.27-0.19c0.21-0.02,0.92,0.07,1.01-0.06
					c0-1.87,0-1.87,0-3.74c0.23-0.03,1.19-0.14,1.27-0.32c0.1-1.24,0.1-1.24,0.19-2.47c0.57-0.02,1.14,0.03,1.71,0
					c1.24-0.07,1.36,0.38,1.27-1.01c0.04,0-0.32-0.2,0.63-0.25c0.82-0.04,1.64,0.15,1.9-0.19c0-1.05,0-1.05,0-2.09
					C15.12,68.95,15.2,68.96,15.28,68.95z"/>
				<g>
					<path class="st171" d="M36.45,90.37c-0.17,2.4-1.12,0.59-1.65,2.15c-0.04,0.01-0.09-0.01-0.13,0c-1.62,0.22-6.55-0.17-8.87,0
						c-0.03-0.19,0.07-0.34-0.19-0.51c-0.16-0.05-2.9,0.28-3.36,0.25c-0.01,0,0.04-0.25-0.06-0.25c-0.58-0.03-1.19,0.16-1.71,0.13
						c-1.24-0.07-1.32-0.37-1.39-0.38c0.16-0.63,0.16-0.63,0.32-1.27C25.09,90.49,30.76,90.32,36.45,90.37z"/>
					<path class="st172" d="M42.41,93.16c0,0.67,0.02,1.35,0,2.03c-0.02,0.8,0.04,1.61,0,2.41c-0.05,0.86-0.23,1.72-0.13,2.6
						c-0.08,0.18-2.08,0.31-2.41,0.32c-0.04,0,0.06-0.14-0.76-0.13c-0.07-0.87-0.28-1.93-0.25-2.79c0-0.01,0.25,0.04,0.25-0.06
						c0.04-1.43-0.03-2.87,0-4.31C40.76,93.19,40.76,93.19,42.41,93.16z"/>
					<path class="st173" d="M42.53,91.89c0.01,0.44-0.13,0.85-0.13,1.27c-1.65,0.03-1.65,0.03-3.3,0.06c-0.03,1.43,0.04,2.87,0,4.31
						c0,0.1-0.25,0.05-0.25,0.06c-1.39,0-1.39,0-2.79,0c-0.08-0.65-0.01-3.83-0.13-3.99c-0.17-0.24-1.36,0.21-1.27-0.32
						c0.05-0.19-0.03-0.53,0-0.76c0.04-0.01,0.09,0.01,0.13,0c0.45-0.1,0.47,0.07,0.57-0.63C38.95,91.89,38.95,91.89,42.53,91.89z"
						/>
					<path class="st174" d="M36.07,97.6c0.04,0.38-0.07,1.18,0,1.33c0.28,0.63,1.9-0.65,1.52,1.33c-0.04,0-0.15,0.15-0.89,0.13
						c-0.75-0.03-2.26,0.14-2.41-0.19c0.01-2.38-0.18-4.61,0.38-6.91c-0.09,0.52,1.1,0.08,1.27,0.32
						C36.06,93.77,35.99,96.95,36.07,97.6z"/>
					<path class="st175" d="M42.53,91.89c-3.58,0-3.58,0-7.16,0c-0.1,0.7-0.12,0.53-0.57,0.63c0.52-1.56,1.48,0.25,1.65-2.15
						c1.96,0.02,3.93-0.01,5.89,0C42.65,90.59,42.51,91.24,42.53,91.89z"/>
					<g>
						<path class="st152" d="M47.35,75.16c-0.39,3.63,1.38,0.43,1.01,3.68c-0.05,0.45-0.17,0.93-0.19,1.39
							c-1.74-0.03-1.74-0.03-3.49-0.06c-0.01-2.26,0.02-4.52,0-6.78C47.43,72.88,44.78,75.58,47.35,75.16z"/>
						<g>
							<path class="st168" d="M48.36,78.84c0.36-3.25-1.41-0.05-1.01-3.68c0.45-0.07,1.01-0.31,1.14-0.76
								c0.92,0.06,0.92,0.06,1.84,0.13c0.06,0.49,0.19,4.07,0.06,4.25C50.27,78.94,48.69,78.79,48.36,78.84z"/>
							<path class="st176" d="M48.49,74.4c-0.13,0.45-0.7,0.69-1.14,0.76c-2.56,0.42,0.08-2.28-2.66-1.77c0-0.29-0.39-1.75,0.06-1.9
								c3.75-0.01,1.86,1.04,2.34,1.71C47.27,73.45,48.97,72.71,48.49,74.4z"/>
						</g>
					</g>
					<path class="st139" d="M42.09,106.47c0.23-0.16,5.35-0.16,5.58,0c0.08,0.06,0.11,1.1,0.06,1.2c-0.11,0.25-5.26,0.3-5.51,0.19
						C41.91,107.73,42,106.53,42.09,106.47z"/>
					<path class="st139" d="M12.94,106.34c0.2-0.14,4.74-0.14,4.94,0c0.08,0.06,0.11,1.4,0.06,1.46c-0.14,0.2-4.66,0.16-4.88,0.06
						C12.76,107.72,12.85,106.4,12.94,106.34z"/>
					<path class="st171" d="M39.11,100.38c0.82-0.02,0.72,0.13,0.76,0.13c-0.07,0.35,0.17,1.61-0.19,1.77
						c-0.13,0.06-2.8,0.08-2.91,0c-0.16-0.11-0.01-1.59-0.06-1.9c0.73,0.03,0.84-0.13,0.89-0.13
						C38.08,100.27,38.59,100.39,39.11,100.38z"/>
					<path class="st129" d="M42.6,80.23c0.05-0.04,1.27-0.02,1.33,0.06c0.12,0.17,0.09,3.88,0,4.06c-0.1,0.2-1.24,0.34-1.39,0
						C42.45,84.16,42.43,80.35,42.6,80.23z"/>
					<path class="st129" d="M42.41,97.6c0.04-0.8-0.02-1.61,0-2.41c0.34,0.07,1.49-0.17,1.65,0.19
						C44.26,95.85,44.47,98.66,42.41,97.6z"/>
					<g>
						<path class="st152" d="M15.79,73.52c0.07,2.13-0.05,4.27,0,6.4c-2.75-0.03-4.54,0.69-4.06-1.08c1.04-0.22,0.33-1.49,0.38-1.58
							c0.07-0.14,0.49,0.05,0.63-0.25c0.09-0.19-0.09-1.4,0-1.52c0.13-0.19,1.26,0.06,1.39-0.13C14.51,74.83,13.1,73.11,15.79,73.52
							z"/>
						<path class="st176" d="M15.79,73.52c-2.69-0.41-1.28,1.32-1.65,1.84c-0.13,0.19-1.26-0.06-1.39,0.13
							c-0.09,0.12,0.09,1.33,0,1.52c-0.14,0.3-0.56,0.12-0.63,0.25c-0.05,0.1,0.66,1.36-0.38,1.58c-0.07,0.02-0.17-0.01-0.25,0
							c-0.01-1.22,0.02-2.45,0-3.68c-0.01-0.34,0.08-0.7-0.13-1.01c0.46-0.06,0.71,0.18,0.82-0.51c2.85,0.23-0.92-1.89,3.55-2.03
							C15.85,71.7,15.78,73.21,15.79,73.52z"/>
						<path class="st177" d="M11.48,75.16c0.02,1.22-0.01,2.45,0,3.68c-0.24,0.03-1.7,0.04-1.77-0.06c0.02-1.24-0.07-2.5,0.13-3.74
							C10.66,75.1,10.66,75.1,11.48,75.16z"/>
						<path class="st166" d="M11.36,74.15c0.2,0.31,0.12,0.67,0.13,1.01c-0.82-0.06-0.82-0.06-1.65-0.13
							c0.03-0.2-0.08-0.79,0.06-0.89C9.98,74.09,11.05,74.19,11.36,74.15z"/>
					</g>
					<path class="st178" d="M38.86,97.6c-0.03,0.86,0.18,1.92,0.25,2.79c-0.52,0.01-1.03-0.12-1.52-0.13
						c0.38-1.98-1.24-0.7-1.52-1.33c-0.07-0.15,0.04-0.95,0-1.33C37.46,97.6,37.46,97.6,38.86,97.6z"/>
					<g>
						<path class="st179" d="M25.68,93.54c0.1,2.27,0.19,4.51,0.13,6.78c-2.19,0.7-2.49-0.9-2.47,1.96
							c-2.73-0.11-3.03,0.63-2.85-1.65c0.14,0,1.04-0.37,2.79-0.32c0.12-1.04-0.13-2.35-0.13-2.47c0.04-1.35,0.34-2.71,0-4.06
							c0.01,0-0.04-0.24,0.06-0.25C24.02,93.47,24.86,93.59,25.68,93.54z"/>
						<path class="st174" d="M19.09,96.83c0.51,0,0.51,0,1.01,0c0,0.05,0.15,0.12,0.19,1.01c1.43,0,1.43,0,2.85,0
							c0,0.12,0.25,1.43,0.13,2.47c-1.75-0.06-2.65,0.32-2.79,0.32c-0.73,0.01-1.65-0.22-2.41-0.19c-0.19-0.27,0.13-3.08,0.13-3.61
							C18.64,96.83,18.64,96.83,19.09,96.83z"/>
						<path class="st171" d="M22.26,92.27c-0.19,0.97,1.81,0.22,3.55,0.63c0.05,0.47-0.13,0.57-0.13,0.63
							c-0.82,0.05-1.66-0.07-2.47,0c-0.11,0.01-0.05,0.25-0.06,0.25c-0.95,0.07-1.85-0.09-2.79-0.13c0.06-0.76,0.06-0.76,0.13-1.52
							c0.52,0.03,1.14-0.16,1.71-0.13C22.3,92.03,22.24,92.27,22.26,92.27z"/>
						<path class="st180" d="M19.09,91.77c0.08,0.01,0.15,0.31,1.39,0.38c-0.06,0.76-0.06,0.76-0.13,1.52c-0.04,0-0.08,0-0.13,0
							c-0.42-0.02-0.85,0.01-1.27,0c-0.38,0-0.38,0-0.76,0c0.05-0.61-0.03-1.23,0-1.84C18.27,91.73,18.92,91.75,19.09,91.77z"/>
						<path class="st178" d="M18.96,93.67c0.06,1.58,0.06,1.58,0.13,3.17c-0.44,0-0.44,0-0.89,0c-0.01-1.12-0.09-2.03,0-3.17
							C18.58,93.67,18.58,93.67,18.96,93.67z"/>
						<path class="st181" d="M25.8,92.53c0.02,0.12-0.01,0.26,0,0.38c-1.73-0.41-3.74,0.34-3.55-0.63c0.46,0.02,3.2-0.3,3.36-0.25
							C25.87,92.19,25.77,92.33,25.8,92.53z"/>
						<path class="st173" d="M23.14,93.79c0.34,1.35,0.04,2.71,0,4.06c-1.43,0-1.43,0-2.85,0c-0.04-0.9-0.19-0.96-0.19-1.01
							c-0.01-0.16,0.26-2.1,0.13-3.17c0.04,0,0.08,0,0.13,0C21.29,93.7,22.19,93.86,23.14,93.79z"/>
						<path class="st182" d="M20.23,93.67c0.13,1.07-0.14,3.01-0.13,3.17c-0.51,0-0.51,0-1.01,0c-0.06-1.58-0.06-1.58-0.13-3.17
							C19.38,93.68,19.81,93.65,20.23,93.67z"/>
					</g>
				</g>
			</g>
			<path class="st130" d="M10.22,23.33c0.33,0,0.68,0.05,0.89,0.38c0,0.34,0,0.68,0,1.01c0,0.97,0,1.94,0,2.91
				c-0.62-0.09,0.09-0.53-0.51-0.63c-0.02-0.17,0.07-0.54-0.06-0.63c-0.9,0.14-1.85-0.13-2.72-0.13c0-1.46,0-1.46,0-2.91
				c0.04,0,0.08,0,0.13,0C8.72,23.35,9.45,23.32,10.22,23.33z"/>
			<path class="st183" d="M15.28,23.33c-0.11-0.02-1.85,0.25-2.15,0.25c-0.5,0-1.11-0.26-1.65-0.13c0.25-0.31,1.37,0.02,1.52-0.19
				c0.09-0.12,0.03-2.47-0.13-2.98c0.13-0.01,0.14-0.13,0.25-0.13c0.14,1.09,0.39,0.43,2.15,0.7
				C15.28,22.09,15.28,22.09,15.28,23.33z"/>
			<path class="st142" d="M13,24.72c0,0.92,0.26,1.91,0.13,2.85c-0.06,0.09-1.78,0.1-2.03,0.06c0-0.97,0-1.94,0-2.91
				C12.05,24.72,12.05,24.72,13,24.72z"/>
			<g>
				<g>
					<path class="st158" d="M5.27,28.4c0,0.46-0.05,1.13,0,1.52c0.02,0.18-0.02,0.38,0,0.57c0.22,0.34,4.66,0.17,5.45,0.19
						c-0.02,0.23-0.14,1.19-0.32,1.27c-1.1,0.15-3.7-0.17-4.44,0c-1.48,0.35,0.38,1.48-2.72,1.14C3.5,28.92,2.2,28.03,5.27,28.4z"/>
					<path class="st158" d="M10.98,30.68c0,0.84,0,1.69,0,2.53c0,0.04,0,0.08,0,0.13c-1.73-0.13-3.47,0.01-5.2,0
						c-0.82-0.01-1.65,0-2.47,0c-0.03-0.13-0.03-0.13-0.06-0.25c3.1,0.34,1.24-0.79,2.72-1.14c0.73-0.17,3.33,0.15,4.44,0
						c0.17-0.08,0.3-1.03,0.32-1.27C10.81,30.68,10.89,30.68,10.98,30.68z"/>
				</g>
				<path class="st144" d="M10.6,28.27c0.03,0.51,0.01,0.89,0,1.39c-1.77,0.11-3.64-0.27-5.32,0.25c-0.05-0.39,0-1.07,0-1.52
					c0-0.08,0-0.17,0-0.25C7.93,28.21,7.93,28.21,10.6,28.27z"/>
				<path class="st144" d="M10.6,29.67c0,0.05,0.21,0.05,0.13,1.01c-0.79-0.02-5.23,0.15-5.45-0.19c-0.02-0.19,0.02-0.39,0-0.57
					C6.96,29.4,8.83,29.78,10.6,29.67z"/>
			</g>
			<path class="st158" d="M11.48,23.46c0.53-0.13,1.15,0.13,1.65,0.13c0.09,1-0.13,1.08-0.13,1.14c-0.95,0-0.95,0-1.9,0
				c0-0.34,0-0.68,0-1.01c0-0.33,0.13-0.24,0.13-0.25C11.36,23.46,11.36,23.46,11.48,23.46z"/>
			<path class="st130" d="M28.97,57.93c1.56,0.01,3.12,0.11,4.69,0.13c0.89,0.01,1.77,0,2.66,0c-0.11,0.68,0.1,1.37,0.13,2.03
				c0,0.08,0,0.17,0,0.25c-3.66,0.43-7.46-0.13-11.15,0.13c-0.46,0.11-0.18-1.22-0.25-2.41C26.34,58.03,27.67,57.92,28.97,57.93z"/>
			<path class="st155" d="M9.96,20.42c0,0.02,0.25,0.1,0.25,0.19c0.05,0.9-0.04,1.82,0,2.72c-0.76-0.01-1.5,0.02-2.28,0
				C8,22.06,8,22.06,8.06,20.8C8.23,20.09,9.18,20.87,9.96,20.42z"/>
			<path class="st130" d="M11.1,19.53c0,0.38,0,0.38,0,0.76c-0.14,1.05,0.13,2.14,0.13,3.17c0,0.01-0.13-0.08-0.13,0.25
				c-0.2-0.33-0.56-0.38-0.89-0.38c-0.04-0.9,0.05-1.82,0-2.72c-0.01-0.09-0.25-0.17-0.25-0.19c-0.02-0.17-0.04-0.81,0.06-0.89
				C10.38,19.5,10.75,19.56,11.1,19.53z"/>
			<path class="st144" d="M13.26,19.53c-0.14,0.2-0.16,0.4-0.13,0.63c-0.11-0.01-0.13,0.11-0.25,0.13c-0.57,0.06-1.2-0.04-1.77,0
				c0-0.38,0-0.38,0-0.76c0.52-0.05,1.07,0.01,1.58,0c0.1,0,0-0.25,0.19-0.25C12.9,19.27,12.68,19.52,13.26,19.53z"/>
			<path class="st184" d="M4.01,50.45c-0.6-0.05-1.23,0.03-1.84,0c-0.1,0-0.05-0.25-0.06-0.25c-0.13-0.79,0.13-1.64,0.13-2.41
				c0.3,0.05,1.66-0.1,1.77,0.06C4.08,47.96,3.95,49.99,4.01,50.45z"/>
			<g>
				<path class="st146" d="M58.63,54.76c-0.19,0.19-0.19,0.19-0.38,0.38c-0.25,0.02-0.52-0.03-0.76,0c0.1-0.98-0.07-1.94-0.13-2.91
					c-0.04-0.8-0.11-1.6-0.13-2.41c-0.02-1.14,0.01-2.28,0-3.42c0.07,0,0.94-0.39,1.39,0.06C58.63,50.61,58.63,50.61,58.63,54.76z"
					/>
				<path class="st131" d="M51.91,50.96c-0.09,0.79,0.13,1.08,0.13,1.14c0,0.38-0.13,0.85-0.13,1.27c0,0.51-0.01,1.01,0,1.52
					c0.01,0.34-0.08,0.7,0.13,1.01c-0.68,0.01-1.35-0.02-2.03,0c0-2.53,0-2.53,0-5.07C50.64,50.71,51.3,50.94,51.91,50.96z"/>
				<path class="st151" d="M57.36,52.23c0.05,0.97,0.22,1.93,0.13,2.91c-0.58,0.08-1.32-0.15-1.39,0.13c-0.15,0-0.07-0.12-0.25-0.25
					c-0.06-0.04,0.42-0.25-0.38-0.32c0.1-0.67-0.15-1.2-0.13-1.46C55.47,51.64,55.96,52.37,57.36,52.23z"/>
				<path class="st129" d="M55.84,55.01c0.19,0.13,0.1,0.26,0.25,0.25c0.41,0.96-1.88,0.6-4.06,0.63c-0.2-0.31-0.12-0.67-0.13-1.01
					C53.87,54.95,53.87,54.95,55.84,55.01z"/>
				<path class="st145" d="M56.6,46.27c0.51-0.09,0.6,0.13,0.63,0.13c0.01,1.14-0.02,2.28,0,3.42c0.44,0.89-2.96,0.8-3.93,1.14
					c-0.01-0.08-0.48-0.13-0.51-0.13c0.03-1.46,0.03-1.46,0.06-2.91c1.01,0.06,1.01,0.06,2.03,0.13c0.16,0.25,0.16,0.25,0.32,0.51
					c-0.99,2.27,1.67,1.73,1.77,1.58c0.1-0.13,0.34-3.2-1.01-2.34c0.02-0.02-0.01-0.15,0-0.25c0.3-0.11,0.45,0.3,0.38-1.01
					C56.39,46.41,56.25,46.22,56.6,46.27z"/>
				<path class="st185" d="M54.7,43.86c-0.02,0.38,0.26,0.22,0.25,0.32c-0.02,0.62-0.34,2.57-0.13,3.04
					c0.12,0.27,1.28,0.23,1.33,0.19c0.07-0.05,0.05-0.5,0.19-0.89c0.07,1.31-0.08,0.9-0.38,1.01c-0.38,0.14-2.62-0.1-3.36,0
					C52.15,43.95,52.05,43.61,54.7,43.86z"/>
				<path class="st146" d="M56.6,46.27c-0.35-0.05-0.21,0.14-0.25,0.25c-0.14,0.38-0.12,0.84-0.19,0.89
					c-0.05,0.04-1.21,0.08-1.33-0.19c-0.21-0.47,0.11-2.43,0.13-3.04c0-0.1-0.27,0.06-0.25-0.32c0.01-0.19,0.13-1.48,0.19-1.52
					c0.07-0.05,1.66-0.01,1.71,0.06C56.71,42.56,56.52,45.73,56.6,46.27z"/>
				<path class="st186" d="M55.21,48.55c0.51,0.08,0.38-0.21,0.76-0.76c1.36-0.86,1.11,2.21,1.01,2.34
					C56.88,50.28,54.21,50.82,55.21,48.55z"/>
				<path class="st187" d="M53.3,50.96c0.09,0.79-0.13,1.08-0.13,1.14c-0.57,0-0.57,0-1.14,0c0-0.06-0.22-0.35-0.13-1.14
					c0.73,0.03,0.84-0.13,0.89-0.13C52.82,50.83,53.29,50.88,53.3,50.96z"/>
				<path class="st146" d="M57.36,52.23c-1.4,0.14-1.89-0.59-2.03,1.01c-0.62,0.16-1.47-0.16-2.03-0.13
					c0.08-0.95-0.13-0.96-0.13-1.01c0-0.06,0.22-0.36,0.13-1.14c0.97-0.34,4.37-0.25,3.93-1.14C57.25,50.62,57.32,51.42,57.36,52.23
					z"/>
				<path class="st188" d="M55.33,53.24c-0.02,0.26,0.22,0.79,0.13,1.46c0.8,0.07,0.32,0.28,0.38,0.32
					c-1.96-0.06-1.96-0.06-3.93-0.13c-0.01-0.51,0-1.01,0-1.52c1.34,0.14,1.32-0.25,1.39-0.25C53.86,53.08,54.72,53.4,55.33,53.24z"
					/>
				<path class="st188" d="M53.18,52.1c0,0.05,0.21,0.07,0.13,1.01c-0.08,0-0.05,0.39-1.39,0.25c0-0.42,0.13-0.89,0.13-1.27
					C52.61,52.1,52.61,52.1,53.18,52.1z"/>
			</g>
			<g>
				<path class="st189" d="M30.75,8.76c0.88,2.51-0.08,2.01-2.22,2.03c-0.13,1.01-0.13,1.01-0.25,2.03
					c-1.54,0.12-3.1-0.11-4.63-0.13c0.22-0.55,0.12-1.29,0.13-1.9c3.94-0.23,4.77,0.99,4.44-2.03c0.06-0.06,0.06-0.06,0.13-0.13
					C29.06,8.85,29.98,8.76,30.75,8.76z"/>
				<path class="st141" d="M25.68,8.76c0.84-0.03,1.69,0.02,2.53,0c0.34,3.01-0.5,1.8-4.44,2.03c0.01-0.65,0-1.31,0-1.96
					C23.87,8.69,25.38,8.77,25.68,8.76z"/>
				<path class="st144" d="M31.25,6.6c-0.08,0.41-0.03,1.69,0.13,2.15C31.08,8.77,31,8.75,30.81,8.5c-0.1,0-0.05,0.25-0.06,0.25
					c-0.77,0-1.68,0.1-2.41-0.13c-0.06-1.01-0.06-1.01-0.13-2.03c0.34-0.02,0.24-0.13,0.25-0.13C29.37,6.43,30.36,6.4,31.25,6.6z"/>
				<path class="st129" d="M28.21,6.6c0.06,1.01,0.06,1.01,0.13,2.03c-0.06,0.06-0.06,0.06-0.13,0.13c-0.84,0.02-1.69-0.03-2.53,0
					c0.1-1.08,0.1-1.08,0.19-2.15C26.64,6.56,27.44,6.65,28.21,6.6z"/>
				<path class="st190" d="M35.44,4.57c-0.06,0.92-0.06,0.92-0.13,1.84c-1.57,0.28-1.19-0.2-1.27-0.19
					c-0.06-0.89-0.06-0.89-0.13-1.77c0.45-0.01,0.89,0.14,1.14-0.25C35.1,4.43,35.21,4.54,35.44,4.57z"/>
				<g>
					<path class="st141" d="M36.07,12.81c-1.36,0.06-1.36,0.06-2.72,0.13c0.07,3.58-0.54,1.84-1.52,2.28
						c-0.44,0.2-0.03,1.98-0.19,2.34c-0.17,0.38-1.01,0.06-1.14,0.25c-0.08,0.12,0.08,1.38,0,1.52c-0.08,0.14-0.49-0.05-0.63,0.25
						c-0.18,0.38,0.13,7.16,0,8.3c-0.65-0.13-1.08,0.13-1.14,0.13c-0.01,0,0.04-0.25-0.06-0.25c-0.92-0.06-1.86,0.05-2.79,0
						c-0.19-0.13,0.03-1.96-0.06-2.09c-0.09-0.13-1.72-0.05-2.03-0.06c-0.07-1.31,0.41-1.96-1.01-1.77
						c0.54-3.19-0.97-1.87-1.77-2.15c-0.09-2.97,0.07-5.96,0-8.93c0.08-0.12,2.3-0.07,2.66-0.06c1.53,0.02,3.09,0.25,4.63,0.13
						c0.13-1.01,0.13-1.01,0.25-2.03c2.14-0.01,3.1,0.49,2.22-2.03c0.01,0-0.04-0.25,0.06-0.25c0.19,0.25,0.27,0.26,0.57,0.25
						c0.64-0.02,1.89,0.13,2.03-0.19c0.08-0.19-0.06-1.47,0-1.96c0.28,0,0.6-0.38,0.63-0.38c0.07-0.01-0.3,0.47,1.27,0.19
						c0.06-0.92,0.06-0.92,0.13-1.84c3.23-0.58,2.23,0.46,2.47,0.63c0.14,0.1,2.08-0.13,2.22,0.06c0,1.77,0,1.77,0,3.55
						c-1.36,0.03-1.36,0.03-2.72,0.06c0.18,3.62-0.96,1.82-1.33,2.34C36.02,11.29,36.04,12.74,36.07,12.81z"/>
					<path class="st191" d="M22.95,14.33c4.45-0.25,2.73,0.54,3.1,1.08c0.13,0.18,0.85-0.11,1.01,0.25c0.03,0.08,0.05,1.58,0,1.65
						c-0.12,0.17-3.71,0-4.25,0.06C22.89,15.85,22.89,15.85,22.95,14.33z"/>
					<path class="st192" d="M22.95,19.4c1.96,0,1.96,0,3.93,0c0.4,3.21-0.06,2.1-3.93,2.28C22.95,20.54,22.95,20.54,22.95,19.4z"/>
				</g>
				<path class="st189" d="M33.41,6.6c-0.06,0.5,0.08,1.77,0,1.96c-0.14,0.32-1.38,0.17-2.03,0.19c-0.16-0.46-0.2-1.74-0.13-2.15
					c0.01-0.03,0.46-0.18,0.51-0.38C31.59,6.48,33.14,6.6,33.41,6.6z"/>
			</g>
			<path class="st140" d="M42.41,20.16c-0.06,1.68-0.06,1.68-0.13,3.36c-1.04,0.7-2,0.07-2.66,0.06c0-1.52,0-1.52,0-3.04
				c0.48-0.06,0.65,0.17,0.76-0.51C41.39,20.1,41.39,20.1,42.41,20.16z"/>
			<path class="st130" d="M42.53,23.84c-1.3,0.25-0.21,1.12-0.82,1.39c-0.68,0.3-1.95-0.78-1.33,1.52c-0.27,0-0.28,0.13-0.38,0.13
				c-0.08,0,0.45-0.13-1.52-0.13c-0.12,0-0.13-0.13-0.25-0.13c0.06-1.43,0.06-1.43,0.13-2.85c0.71-0.02,1.2-0.19,1.27-0.19
				c0.66,0.01,1.62,0.64,2.66-0.06c0.06-1.68,0.06-1.68,0.13-3.36c0.06,0,0.06,0,0.13,0C42.53,22,42.53,22,42.53,23.84z"/>
			<path class="st158" d="M52.67,29.41c-0.1,0.89-0.1,0.89-0.19,1.77c-1.05,0.13-1.05,0.13-2.09,0.25c0-0.09-0.25-0.8-0.25-0.89
				c0-0.06,0.25-1.08,0.25-1.14C51.53,29.41,51.53,29.41,52.67,29.41z"/>
			<path class="st158" d="M44.05,20.16c0.01,0.19,0.22,0.82,0.13,1.71c0.82,0.23,1.32-0.07,1.39-0.06c0.74,0.04,1.68,0.25,2.41,0.25
				c-0.04,0.4,0.06,0.9,0,1.27c-0.02,0.1-0.38,0.05-0.25,1.14c-0.08,0-0.17,0.01-0.25,0c-0.59-0.04-1.06,0.01-1.14,0
				c-0.01,0,0.04-0.24-0.06-0.25c-0.9-0.08-1.8-0.05-2.72-0.13c-0.06,0-0.14-0.42-1.01-0.25c0-1.84,0-1.84,0-3.68
				C43.29,20.16,43.29,20.16,44.05,20.16z"/>
			<path class="st129" d="M42.53,23.84c0.88-0.17,0.96,0.25,1.01,0.25c0.3,2.19-0.96,1.13-1.33,1.39c-0.64,0.45,1.26,1.25-1.84,1.27
				c-0.62-2.3,0.65-1.22,1.33-1.52C42.32,24.96,41.23,24.09,42.53,23.84z"/>
			<path class="st129" d="M40,26.88c0.12,0.67-0.11,1.38-0.13,2.03c-0.63,0.06-0.63,0.06-1.27,0.13c0.01-0.11-0.25-1.4-0.13-2.28
				C40.45,26.75,39.91,26.88,40,26.88z"/>
			<path class="st193" d="M57.23,25.36c-0.05,0.31,0.1,1.79-0.06,1.9c-0.09,0.06-1.39-0.05-1.77,0c-0.11-0.08-0.07-0.59-0.06-0.76
				c0-0.06,0.09-0.44,0.13-1.27C56.35,25.29,56.35,25.29,57.23,25.36z"/>
			<path class="st130" d="M46.46,16.23c-0.06,0.53,0.04,1.11,0,1.65c0,0.06,0,0.06,0,0.13c0,0.57,0,0.57,0,1.14
				c-0.05,0-0.31,0.15-0.89,0.19c0,1.24,0,1.24,0,2.47c-0.07,0-0.58,0.29-1.39,0.06c0.1-0.89-0.12-1.53-0.13-1.71
				c-0.1-3.12,0.98-1.68,1.27-2.09C45.66,17.6,44.83,15.44,46.46,16.23z"/>
			<g>
				<path class="st141" d="M46.97,13.45c0,0.28,0.04,0.65,0,0.89c-0.17,1.07-0.34,0.35-0.51,1.9c-1.63-0.79-0.81,1.37-1.14,1.84
					c-0.29,0.41-1.36-1.03-1.27,2.09c-0.76,0-0.76,0-1.52,0c-0.06,0-0.06,0-0.13,0c-1.01-0.06-1.01-0.06-2.03-0.13
					c0.01-0.04,0-0.09,0-0.13c1.27,0.17,1.08-0.28,1.14-1.27c0.06-0.92,0.26-2.55-1.2-1.9c-0.45,0.2-0.07,1.58-0.06,1.9
					c0,0.08,0,0.17,0,0.25c-0.38-0.4-0.77-0.09-1.65-0.13c-0.05-1.38,0.12-4.23,0-4.94c1.04,0.09,1.08-0.13,1.14-0.13
					c1.4-0.02,4.7,0.53,4.06-0.25c-0.01-0.14,0.07-0.11,0.13-0.13C44.23,13.22,46.39,13.31,46.97,13.45z"/>
				<path class="st148" d="M40.25,18.89c0,1.09,0.13,0.96,0.13,1.01c0,0.04,0.01,0.09,0,0.13c-0.11,0.67-0.28,0.44-0.76,0.51
					c-1.4,0.18-0.96-0.18-1.01-1.77C39.48,18.81,39.87,18.49,40.25,18.89z"/>
				<path class="st129" d="M41.52,18.64c-0.63,0-0.63,0-1.27,0c0-0.32-0.39-1.7,0.06-1.9C41.78,16.09,41.58,17.72,41.52,18.64z"/>
				<path class="st144" d="M41.52,18.64c-0.06,0.99,0.13,1.44-1.14,1.27c0-0.05-0.13,0.08-0.13-1.01c0-0.08,0-0.17,0-0.25
					C40.88,18.64,40.88,18.64,41.52,18.64z"/>
			</g>
			<g>
				<path class="st129" d="M42.41,10.78c-0.51,1.27,1.22,1.18,1.27,1.08c0.02-0.04,0.12-0.85,0.13-0.95c0.06,1.2,0.06,1.2,0.13,2.41
					c-0.06,0.02-0.14-0.02-0.13,0.13c-1.39-0.1-1.39-0.1-2.79-0.19c0-1.14,0-1.14,0-2.28C41.46,10.73,41.92,10.8,42.41,10.78z"/>
				<path class="st190" d="M43.8,10.78c0,0.04,0,0.08,0,0.13c-0.01,0.1-0.11,0.91-0.13,0.95c-0.05,0.1-1.78,0.19-1.27-1.08
					C42.87,10.77,43.34,10.8,43.8,10.78z"/>
			</g>
			<path class="st191" d="M49.25,20.29c0.06,0.82,0.06,0.82,0.13,1.65c-0.92-0.1-1.32,0.13-1.39,0.13c-0.73,0-1.67-0.22-2.41-0.25
				c0-1.24,0-1.24,0-2.47c0.58-0.04,0.84-0.19,0.89-0.19C48.58,19.07,46.01,20.52,49.25,20.29z"/>
			<g>
				<path class="st141" d="M53.56,17.25c0.21,0,0.42,0,0.63,0c0,1.43,0,1.43,0,2.85c-0.8,0.22-1.32-0.06-1.39-0.06
					c-1.11,0-2.25-0.05-3.36,0c-0.1,0,0.01,0.24-0.19,0.25c-3.24,0.23-0.67-1.22-2.79-1.14c0-0.57,0-0.57,0-1.14
					c1.28-0.12,2.59,0.9,2.28-1.14c0.57-0.08,0.48-0.38,0.51-0.38c2.87-0.21,1.74,0.64,2.09,0.89
					C51.59,17.54,53.19,17.25,53.56,17.25z"/>
				<path class="st158" d="M48.74,16.87c0.31,2.04-1.01,1.02-2.28,1.14c0-0.06,0-0.06,0-0.13c1.59,0.26,0.79-0.93,1.08-1.14
					C47.76,16.58,48.68,16.88,48.74,16.87z"/>
			</g>
			<path class="st141" d="M49.38,21.94c0,0.7,0,0.7,0,1.39c-0.46-0.04-0.93,0.03-1.39,0c0.06-0.37-0.04-0.87,0-1.27
				C48.05,22.06,48.46,21.84,49.38,21.94z"/>
			<path class="st144" d="M12.88,20.29c0.15,0.51,0.21,2.86,0.13,2.98c-0.15,0.22-1.27-0.12-1.52,0.19c-0.13,0-0.13,0-0.25,0
				c0-1.03-0.26-2.12-0.13-3.17C11.68,20.25,12.31,20.35,12.88,20.29z"/>
			<g>
				<path class="st130" d="M15.67,14.71c-0.25,0.65-0.09,1.45-0.13,2.15c-0.04,0.92-0.23,1.85-0.13,2.79c-0.04,0-0.08,0-0.13,0
					c-0.67-0.03-1.34-0.12-2.03-0.13c-0.58-0.01-0.36-0.25-0.38-0.25c0-1.2,0-1.2,0-2.41c2.11-0.08,1.62-0.09,1.65-2.09
					C14.62,14.64,15.44,14.73,15.67,14.71z"/>
				<path class="st194" d="M13.45,16.99c1.26-0.56,1.17,1.16,0.89,1.27C13.04,18.74,13.04,17.17,13.45,16.99z"/>
			</g>
			<g>
				<path class="st151" d="M16.55,32.96c0.72-0.02,1.44,0.01,2.15,0c9.27-0.14,18.55,0.1,27.82,0c0.13,0.09,0.05,2.28,0.06,2.66
					c-1.85-0.16-3.74,0.15-5.58,0.13c-0.51-0.01-1.01,0.01-1.52,0c-0.01,0,0.04-0.25-0.06-0.25c-5.64-0.08-11.28,0.06-16.92,0.13
					c-0.51,0.01-1.01-0.01-1.52,0c-2.28,0.03-4.56-0.02-6.84,0c0.03-0.82-0.02-1.65,0-2.47C14.29,32.82,15.83,32.99,16.55,32.96z"/>
				<path class="st151" d="M45.32,58.31c-0.27,0.71-0.12,1.32-0.13,2.03c0,0.51-0.1,0.97-0.13,1.46c-0.01,0.1,0.25,0.05,0.25,0.06
					c0,0.04-0.07,0.14-0.13,0.38c-0.04,0.18,0.08,0.47-0.06,0.63c-0.23,0.16-3.81-0.47-1.84,1.01c-0.27,0.01-0.28,0.12-0.38,0.13
					c-0.99,0.07-0.96-0.76-1.33,0.89c-0.79-0.29-5.97,0.06-6.15-0.19c-0.04-0.06-0.03-1.33,0-1.39c0.14-0.3,0.52-0.12,0.63-0.25
					c0.21-0.25-0.77-0.9,1.71-0.7c0.06-3.26,2.33-0.43,2.22-2.41c0.32,0.02,0.24-0.13,0.25-0.13c2.19,0.18,0.86-0.43,1.33-0.76
					c0.11-0.08,1.28,0.08,1.39,0C43.26,58.87,42.19,58.07,45.32,58.31z"/>
				<path class="st151" d="M21.62,58.18c0,0.7,0,0.7,0,1.39c-0.43,0.11-0.57,0.93-0.38,1.2c0.39,0.55,2.09-1.26,1.65,2.15
					c1.01,0.1,1.01,0.1,2.03,0.19c0,0.32-0.01,1.57,0,1.65c-3.68,0-3.68,0-7.35,0c0-0.25,0-0.51,0-0.76c0-0.05,0.28-0.43,0.06-1.01
					c-2.53-0.12-2.73,0.57-2.85-1.14c0.11-0.03,0.31,0.06,0.38-0.06c0.03-0.31-0.04-0.65,0-0.95c1.3-0.1,2.63-0.02,3.93-0.13
					c0.25-0.02,1.3,0.07,1.39-0.06c-0.01-0.87,0.01-1.73,0-2.6C21.27,57.97,21.56,58.18,21.62,58.18z"/>
				<path class="st188" d="M34.8,63.63c-0.04,0.72-0.33,1.5,0,2.22c-0.14,0.4-1.5,0.04-1.65,0.25c-0.06,0.09,0.03,1.31,0,1.58
					c-0.06,0.5-0.17,1.01-0.19,1.52c-2.85,0-2.85,0-5.7,0c-0.03-0.56-0.12-1.1-0.19-1.65c-0.01-0.07,0.31-0.1-0.06-1.39
					c-0.43-0.04-0.9,0.05-1.33,0c-0.01,0,0.09-0.1-0.25-0.13c0.02-0.28-0.13-0.14-0.25-0.51c0.17-0.03,0.15-0.33,0.32-0.38
					c0.8-0.22,7.42,0.22,7.73,0c0.08-0.06,0.16-1.24-0.06-1.39c0.01,0-0.04-0.12,0.13-0.13C33.78,63.6,34.3,63.65,34.8,63.63z"/>
				<path class="st190" d="M39.11,59.7c1.29,0.06,0.83,0.25,0.89,0.25c0.11,1.98-2.16-0.85-2.22,2.41c-2.48-0.2-1.5,0.45-1.71,0.7
					c-0.11,0.14-0.49-0.04-0.63,0.25c-0.03,0.06-0.04,1.34,0,1.39c0.18,0.25,5.36-0.1,6.15,0.19c0.37-1.64,0.34-0.82,1.33-0.89
					c-0.05,0.33,0.1,1.91-0.06,2.03c-0.33,0.23-7.49-0.22-7.98,0c-0.7,0.31,0.88,2.08-1.71,1.65c0.03-0.28-0.06-1.5,0-1.58
					c0.15-0.22,1.51,0.15,1.65-0.25c-0.33-0.72-0.04-1.5,0-2.22c0.02-0.38-0.03-0.77,0-1.14c0.2-2.2,0.51-0.66,1.58-1.14
					c0.41-0.32,0.08-0.71,0.06-1.01c0-0.08,0-0.17,0-0.25C36.25,59.57,37.91,59.65,39.11,59.7z"/>
				<path class="st129" d="M11.86,41.45c0.06,5.99,0.06,5.99,0.13,11.98c0.07,0.1,1.08,0.09,1.27,0.06c0.02,0.76-0.03,1.52,0,2.28
					c-1.2,0-1.2,0-2.41,0c-0.06-0.06-0.06-0.06-0.13-0.13c0.13-1.6-0.11-3.22-0.13-4.82c-0.03-3.05,0.01-6.33,0.13-9.38
					C11.29,41.45,11.29,41.45,11.86,41.45z"/>
				<path class="st129" d="M50.01,41.33c0.13,3.16-0.1,6.34,0,9.5c0,2.53,0,2.53,0,5.07c-0.04,0-0.08,0-0.13,0
					c-0.42,0.01-0.85-0.02-1.27,0c0.06-7.22,0.06-7.22,0.13-14.45C48.81,41.45,48.98,41.23,50.01,41.33z"/>
				<path class="st195" d="M48.62,55.9c0.42-0.02,0.85,0.01,1.27,0c-0.04,1.31,0.06,2.62,0,3.93c-1.72-0.11-1.21-0.02-1.27,1.9
					c-0.44,0.04-0.96,0.11-1.39,0.13c-0.63,0.03-1.27-0.02-1.9,0c0-0.01-0.26,0.04-0.25-0.06c0.03-0.48,0.12-0.95,0.13-1.46
					c2.76,0.2,1.69-0.29,1.77-2.03c0.04-0.77,0.23-1.56,0.13-2.34C47.19,55.83,48.36,55.91,48.62,55.9z"/>
				<path class="st151" d="M13.26,55.77c0.03,0.73,0.27,1.7,0.25,2.41c-0.01,0.35-0.23,1.19-0.25,1.65c-0.41,0-0.87,0.03-1.27,0
					c-0.06,0-0.42-0.22-1.27-0.13c-0.05-1.29-0.07-2.65,0.13-3.93C12.05,55.77,12.05,55.77,13.26,55.77z"/>
				<path class="st129" d="M24.92,64.77c0,0.04,0.2,0.61,0.25,0.76c0.12,0.36,0.28,0.22,0.25,0.51c-1.28-0.1-7.43,0.14-7.79,0
					c-0.21-0.09-0.06-0.57-0.06-1.27C21.24,64.77,21.24,64.77,24.92,64.77z"/>
				<path class="st195" d="M13.26,59.83c0.68,0,1.21-0.23,1.9,0c-0.01,0.29,0.1,0.33,0,1.01c-0.04,0.3,0.03,0.64,0,0.95
					c-0.07,0.12-0.27,0.04-0.38,0.06c-0.07,0.02-1.22,0.12-1.39,0.13c-0.07,0-1.15-0.23-1.39-0.25c0-0.95,0-0.95,0-1.9
					C12.39,59.85,12.85,59.83,13.26,59.83z"/>
				<path class="st129" d="M14.78,61.86c0.12,1.71,0.33,1.02,2.85,1.14c0.22,0.59-0.06,0.96-0.06,1.01
					c-3.57-0.27-4.53,1.05-4.18-2.03C13.56,61.98,14.71,61.87,14.78,61.86z"/>
				<path class="st191" d="M14.4,40.19c-0.21,0.35-0.12,0.76-0.13,1.14c-1.2,0.06-1.2,0.06-2.41,0.13c-0.57,0-0.57,0-1.14,0
					c0.03-0.63-0.02-1.27,0-1.9c3.05-0.23,1.96,0.5,2.34,0.63C13.23,40.24,13.98,40.16,14.4,40.19z"/>
				<path class="st189" d="M8.31,53.49c-0.01,0.38,0.03,0.77,0,1.14c-1.77,0.13-1.77,0.13-3.55,0.25c0-0.13,0-0.25,0-0.38
					c0.03-0.72,0.13-1.08,0.13-1.14c0.97,0.1,1.44-0.13,1.52-0.13C6.52,53.25,5.96,53.62,8.31,53.49z"/>
				<path class="st129" d="M8.31,54.63c-0.04,0.45,0.13,0.92-0.19,1.14c-1.71,0-1.71,0-3.42,0c-0.12-0.08-0.06-0.48-0.06-0.63
					c0-0.12,0.13-0.13,0.13-0.25C6.54,54.76,6.54,54.76,8.31,54.63z"/>
				<path class="st129" d="M11.99,59.83c0,0.95,0,0.95,0,1.9c-0.06-0.01-0.86,0.39-1.27-0.06c-0.02-0.65,0.03-1.31,0-1.96
					C11.57,59.61,11.93,59.83,11.99,59.83z"/>
				<path class="st129" d="M49.88,59.83c-0.03,0.57,0.02,1.14,0,1.71c-0.23,0.33-0.76,0.15-1.27,0.19
					C48.68,59.81,48.17,59.71,49.88,59.83z"/>
				<path class="st129" d="M27.07,67.56c-0.26-0.05-1.28,0.09-1.39-0.06c-0.06-0.08,0.04-1,0-1.33c0.43,0.05,0.9-0.04,1.33,0
					C27.38,67.46,27.06,67.49,27.07,67.56z"/>
				<g>
					<path class="st129" d="M47.22,62.24c0.27,2.39-0.2,1.5-3.93,1.65c-1.97-1.48,1.61-0.85,1.84-1.01
						c0.14-0.16,0.02-0.45,0.06-0.63C46.21,62.24,46.21,62.24,47.22,62.24z"/>
					<path class="st192" d="M47.22,61.86c0,0.19,0,0.19,0,0.38c-1.01,0-1.01,0-2.03,0c0.06-0.24,0.12-0.34,0.13-0.38
						C45.95,61.83,46.59,61.89,47.22,61.86z"/>
				</g>
				<path class="st142" d="M50.01,41.33c-1.03-0.09-1.2,0.13-1.27,0.13c-0.77,0-1.62-0.26-2.41-0.13c0-0.57,0-0.57,0-1.14
					c0.36-0.02,0.72,0.02,1.08,0c0.15-0.09,0.31-0.8,0.32-0.89c1.05,0,1.05,0,2.09,0C50.15,39.44,49.98,40.63,50.01,41.33z"/>
				<path class="st190" d="M32.27,56.79c-0.78-0.09-2.47,0.12-2.91,0c-0.02-0.01,0.06-0.11-0.38-0.19c0.06-7,0.06-7,0.13-14
					c0.44,0.02,3.07-0.07,3.17,0.06C32.48,46.06,31.98,54.66,32.27,56.79z"/>
				<path class="st188" d="M39.49,35.75c0,0.95,0,0.95,0,1.9c-2.59,0.25-14.07,0.16-17.11,0c0.06-1.01,0.06-1.01,0.13-2.03
					c5.64-0.06,11.28-0.2,16.92-0.13C39.53,35.5,39.48,35.75,39.49,35.75z"/>
				<path class="st146" d="M29.1,42.59c-0.06,7-0.06,7-0.13,14c0.44,0.08,0.36,0.18,0.38,0.19c-0.58-0.02,0.14,0.77-0.63,1.01
					c-1.24-0.06-1.2,0.36-1.39-1.01c-0.08-0.54,0.15-1.29-0.13-1.77c-0.14-0.25-0.49-0.02-0.63-0.32
					c-0.26-0.55,0.12-10.76,0.19-12.23C27.53,42.56,28.32,42.56,29.1,42.59z"/>
				<path class="st146" d="M23.65,46.02c-4.66,0-4.66,0-9.31,0c-0.05,2.48-0.15,4.99-0.06,7.48c0.01,0.34-0.07,2.19,0.06,2.28
					c2.56,0.01,5.11,0.13,7.67,0.13c0.54,0,1.03,0.07,1.01-0.13c0,0.02,0.21-0.21,0.25,0.38c-1.43,0-1.43,0-2.85,0
					c-0.26,0.18,0.06,1.61,0.06,1.9c0.01,0.87-0.01,1.73,0,2.6c-0.1,0.14-1.14,0.04-1.39,0.06c-0.1-1.27-0.1-1.27-0.19-2.53
					c-1.81,0-1.81,0-3.61,0c-0.89,0-0.89,0-1.77,0c0.01-0.71-0.22-1.68-0.25-2.41c-0.03-0.76,0.02-1.52,0-2.28
					c0.27-0.04,0.52-0.07,0.76-0.19c0.03-1.1-0.27-7,0.19-7.41c4.69-0.06,4.69-0.06,9.38-0.13C23.62,45.89,23.62,45.89,23.65,46.02z
					"/>
				<path class="st130" d="M14.27,41.33c0.01-0.38-0.08-0.79,0.13-1.14c2.54,0.14,5.12-0.1,7.67,0c0.1,1.62,0.1,1.62,0.19,3.23
					c-3.9,0.1-3.9,0.1-7.79,0.19C14.15,43.47,14.27,41.7,14.27,41.33z"/>
				<path class="st130" d="M46.33,40.19c0,0.57,0,0.57,0,1.14c-0.03,1.14-0.03,1.14-0.06,2.28c-3.9-0.03-3.9-0.03-7.79-0.06
					c0.1-1.68,0.1-1.68,0.19-3.36C41.21,40.07,43.8,40.34,46.33,40.19z"/>
				<path class="st188" d="M45.7,53.62c-0.06,1.14-0.06,1.14-0.13,2.28c-1.8,0.18-3.73,0.02-5.58,0.13
					c-2.46,0.15-2.38-0.44-2.53,0.63c-2.35,0.13-1.8-0.25-1.9-0.25c-0.41-1.97,1.38-0.82,1.84-1.14c0.18-0.13-0.11-0.85,0.25-1.01
					c0.19-0.08,1.15,0.08,1.27,0c0.16-0.11-0.03-0.52,0.13-0.63C39.32,53.43,45.37,53.57,45.7,53.62z"/>
				<path class="st188" d="M21.75,53.49c0,0.12,0.44,0.78,0.25,2.41c-2.56,0.01-5.11-0.12-7.67-0.13c-0.13-0.09-0.05-1.94-0.06-2.28
					C18.01,53.49,18.01,53.49,21.75,53.49z"/>
				<path class="st188" d="M27.2,55.01c0.27,0.49,0.05,1.23,0.13,1.77c-2.03,0-2.03,0-4.06,0c0-0.21,0.02-0.43,0-0.63
					c-0.04-0.59-0.25-0.36-0.25-0.38c-0.02-0.16-0.04-0.69,0.06-0.76C25.14,55.01,25.14,55.01,27.2,55.01z"/>
				<path class="st130" d="M40,56.03c0.91,0.22,0.13,1.91,0.13,2.03c-0.44,0-0.44,0-0.89,0c-0.58,0.13-1.23-0.13-1.77-0.13
					c0.04-0.4-0.06-0.88,0-1.27C37.62,55.59,37.54,56.17,40,56.03z"/>
				<path class="st129" d="M35.56,56.41c0.1,0.01-0.45,0.39,1.9,0.25c-0.06,0.38,0.04,0.87,0,1.27c-0.06,0-0.16,0.13-1.14,0.13
					c-0.89,0-1.77,0.01-2.66,0c0-0.13,0-0.13,0-0.25C33.66,56.61,33.31,56.28,35.56,56.41z"/>
				<path class="st188" d="M29.35,56.79c0.44,0.12,2.14-0.09,2.91,0c0.01,0.04,0.37,0.48,0.19,0.89c0.6,0.06,0.6,0.06,1.2,0.13
					c0,0.13,0,0.13,0,0.25c-1.56-0.01-3.13-0.12-4.69-0.13c0.01-0.17-0.11-0.12-0.25-0.13C29.49,57.56,28.78,56.77,29.35,56.79z"/>
				<path class="st151" d="M46.97,58.31c-0.09,1.73,0.99,2.22-1.77,2.03c0-0.71-0.14-1.32,0.13-2.03
					C46.14,58.31,46.14,58.31,46.97,58.31z"/>
				<path class="st196" d="M22.51,35.62c-0.06,1.01-0.06,1.01-0.13,2.03c-0.24-0.01-1.3,0.07-1.39-0.06c-0.07-0.1,0.05-1.56,0-1.96
					C21.49,35.62,22,35.63,22.51,35.62z"/>
				<path class="st197" d="M41.01,35.75c-0.14,2.53,0.27,1.73-1.52,1.9c0-0.95,0-0.95,0-1.9C40,35.76,40.5,35.74,41.01,35.75z"/>
				<path class="st189" d="M40.12,58.05c0,0.09,0.24,1,0.13,1.77c-0.01,0,0.07,0.14-0.25,0.13c-0.05,0,0.4-0.2-0.89-0.25
					c0.06-0.82,0.06-0.82,0.13-1.65C39.68,58.05,39.68,58.05,40.12,58.05z"/>
				<path class="st185" d="M45.57,55.9c0.06-1.14,0.06-1.14,0.13-2.28c0.17,0.03,0.51-0.07,0.63,0.06c0.07,0.08,0.19,1.89,0.13,2.03
					C46.24,56.02,45.89,55.87,45.57,55.9z"/>
				<path class="st185" d="M27.07,62.62c0.01,0.16,0.17,1.08,0.32,1.14c0.48,0.02,0.97-0.03,1.46,0c1.13,0.06,3.16,0.06,4.31,0
					c0.23,0.16,0.15,1.34,0.06,1.39c-0.32,0.22-6.93-0.22-7.73,0c-0.17,0.05-0.14,0.35-0.32,0.38c-0.05-0.15-0.25-0.72-0.25-0.76
					c-0.01-0.08,0-1.33,0-1.65c0-0.04,0.25-0.4,0.25-0.76C25.04,62.8,26.01,62.56,27.07,62.62z"/>
				<path class="st151" d="M19.09,60.72c-1.3,0.11-2.62,0.02-3.93,0.13c0.1-0.69-0.01-0.72,0-1.01c0-0.08,0.23-0.75,0.13-1.65
					c1.81,0,1.81,0,3.61,0C18.99,59.45,18.99,59.45,19.09,60.72z"/>
				<path class="st131" d="M25.04,58.05c0.07,1.19-0.21,2.52,0.25,2.41c-0.64,0.04-1.17,0.16-1.77,0.38
					c-0.07-0.35,0.48-1.9-1.9-1.27c0-0.7,0-0.7,0-1.39c0.32,0,1.31-0.24,1.65-0.25C23.86,57.91,24.49,58.06,25.04,58.05z"/>
				<path class="st190" d="M21.62,59.58c2.38-0.63,1.83,0.91,1.9,1.27c0.26,1.38,1.66-0.6,1.65,1.52c0,0.36-0.25,0.72-0.25,0.76
					c-1.01-0.1-1.01-0.1-2.03-0.19c0.44-3.41-1.26-1.6-1.65-2.15C21.05,60.51,21.19,59.69,21.62,59.58z"/>
				<path class="st130" d="M23.27,56.15c0.02,0.21,0,0.42,0,0.63c0,0.38,0,0.76,0,1.14c-0.34,0.01-1.33,0.25-1.65,0.25
					c-0.06,0-0.35-0.22-1.14-0.13c0-0.29-0.32-1.72-0.06-1.9C21.84,56.15,21.84,56.15,23.27,56.15z"/>
				<path class="st131" d="M34.8,62.49c-1.56,0.03-1.61-0.36-1.52,1.14c-0.17,0.01-0.12,0.13-0.13,0.13c-1.15,0.06-3.18,0.06-4.31,0
					c0.97-2.65-1.82-2.66-1.77-1.14c-1.06-0.06-2.03,0.19-1.9-0.25c0.01-2.12-1.39-0.14-1.65-1.52c0.6-0.22,1.14-0.34,1.77-0.38
					c3.69-0.26,7.49,0.31,11.15-0.13c0.01,0.31,0.35,0.7-0.06,1.01C35.31,61.83,35,60.29,34.8,62.49z"/>
				<path class="st198" d="M34.8,62.49c-0.03,0.37,0.02,0.76,0,1.14c-0.5,0.02-1.02-0.03-1.52,0C33.19,62.13,33.25,62.52,34.8,62.49
					z"/>
				<path class="st131" d="M39.24,58.05c-0.06,0.82-0.06,0.82-0.13,1.65c-1.2-0.05-2.86-0.14-2.66,0.38
					c-0.03-0.66-0.24-1.35-0.13-2.03c0.98,0,1.08-0.13,1.14-0.13C38.01,57.93,38.66,58.19,39.24,58.05z"/>
				<path class="st151" d="M15.28,58.18c0.1,0.9-0.12,1.56-0.13,1.65c-0.7-0.23-1.22,0-1.9,0c0.03-0.46,0.25-1.29,0.25-1.65
					C14.4,58.18,14.4,58.18,15.28,58.18z"/>
				<path class="st151" d="M4.89,53.37c0,0.06-0.1,0.42-0.13,1.14c-0.35,0.68-1.5,0.28-2.47,0.38c-0.03-1.3-0.03-1.3-0.06-2.6
					c1.24-0.03,1.24-0.03,2.47-0.06C5,52.43,4.88,52.9,4.89,53.37z"/>
				<g>
					<path class="st185" d="M20.99,35.62c0.05,0.4-0.07,1.87,0,1.96c0.09,0.13,1.15,0.05,1.39,0.06c3.04,0.16,14.52,0.25,17.11,0
						c1.79-0.17,1.38,0.63,1.52-1.9c1.83,0.03,3.73-0.28,5.58-0.13c0.02,0.4-0.08,2.49,0,2.6c0.21,0.29,1.21-0.53,1.14,1.08
						c0,0.09-0.17,0.8-0.32,0.89c-0.36,0.02-0.72-0.02-1.08,0c-2.54,0.15-5.12-0.11-7.67,0c-0.1,1.68-0.1,1.68-0.19,3.36
						c3.9,0.03,3.9,0.03,7.79,0.06c0.03-1.14,0.03-1.14,0.06-2.28c0.79-0.13,1.64,0.13,2.41,0.13c-0.06,7.22-0.06,7.22-0.13,14.45
						c-0.26,0.01-1.43-0.07-1.52,0.06c0.11,0.79-0.09,1.57-0.13,2.34c-0.82,0-0.82,0-1.65,0c-3.13-0.24-2.06,0.57-2.34,0.76
						c-0.11,0.08-1.28-0.08-1.39,0c-0.47,0.33,0.86,0.94-1.33,0.76c0.12-0.78-0.13-1.69-0.13-1.77c0.01-0.12,0.79-1.8-0.13-2.03
						c1.84-0.11,3.77,0.06,5.58-0.13c0.32-0.03,0.67,0.12,0.89-0.19c0.06-0.14-0.06-1.95-0.13-2.03c-0.12-0.13-0.46-0.04-0.63-0.06
						c-0.33-0.05-6.38-0.19-6.65,0c-0.16,0.11,0.03,0.52-0.13,0.63c-0.11,0.08-1.08-0.08-1.27,0c-0.36,0.16-0.07,0.89-0.25,1.01
						c-0.46,0.32-2.24-0.83-1.84,1.14c-2.25-0.13-1.9,0.2-1.9,1.39c-0.6-0.06-0.6-0.06-1.2-0.13c0.18-0.41-0.18-0.84-0.19-0.89
						c-0.28-2.13,0.21-10.72,0-14.13c-0.1-0.14-2.73-0.05-3.17-0.06c-0.78-0.03-1.57-0.04-2.34-0.13
						c-0.07,1.47-0.45,11.68-0.19,12.23c0.14,0.3,0.49,0.06,0.63,0.32c-2.06,0-2.06,0-4.12,0c-0.1,0.07-0.08,0.6-0.06,0.76
						c0.02,0.2-0.47,0.13-1.01,0.13c0.18-1.62-0.25-2.28-0.25-2.41c0.02-2.32,1.7-0.71,2.03-1.46c-0.06-3.01-0.06-3.01-0.13-6.02
						c-0.03-0.13-0.03-0.13-0.06-0.25c-4.69,0.06-4.69,0.06-9.38,0.13c-0.46,0.41-0.16,6.32-0.19,7.41
						c-0.24,0.12-0.5,0.15-0.76,0.19c-0.18,0.03-1.2,0.03-1.27-0.06c-0.06-5.99-0.06-5.99-0.13-11.98c1.2-0.06,1.2-0.06,2.41-0.13
						c-0.01,0.38-0.12,2.14,0.19,2.28c3.9-0.1,3.9-0.1,7.79-0.19c-0.1-1.62-0.1-1.62-0.19-3.23c-2.54-0.1-5.13,0.14-7.67,0
						c-0.42-0.02-1.17,0.06-1.33,0c-0.39-0.13,0.71-0.87-2.34-0.63c3.43-0.07,1.73-0.72,2.15-1.33c0.08-0.11,1.15-0.04,1.27-0.25
						c0.06-0.1-0.01-1.93,0-2.34C16.42,35.6,18.71,35.65,20.99,35.62z"/>
					<g>
						<path class="st130" d="M38.41,46.14c3.99,0,3.99,0,7.98,0c0.03,3.64,0.03,3.64,0.06,7.29c-0.98,0-6.83,0.21-7.16,0.06
							c-0.37-0.16-0.1-0.93-0.19-1.2c-0.1-0.3-0.67,0-0.76-0.25C38.22,51.67,38.4,47.08,38.41,46.14z"/>
						<path class="st199" d="M42.15,49.06c0.08,0.96-0.06,1.95,0,2.91c-0.09,0-1.29,0.4-1.77-0.06c0-1.84,0-1.84,0-3.68
							c0.12-0.27,1.64-0.24,1.71-0.19C42.22,48.14,42.14,48.85,42.15,49.06z"/>
						<path class="st152" d="M42.15,51.97c-0.06-0.96,0.08-1.96,0-2.91c1.14,0.1,1.14,0.1,2.28,0.19c0,1.33,0,1.33,0,2.66
							C44.24,52.35,42.53,51.99,42.15,51.97z"/>
					</g>
				</g>
				<path class="st129" d="M27.32,56.79c0.19,1.37,0.15,0.96,1.39,1.01c0.14,0.01,0.26-0.04,0.25,0.13
					c-1.31-0.01-2.63,0.11-3.93,0.13c-0.55,0.01-1.18-0.15-1.77-0.13c0-0.38,0-0.76,0-1.14C25.3,56.79,25.3,56.79,27.32,56.79z"/>
				<path class="st200" d="M28.85,63.76c-0.48-0.03-0.97,0.02-1.46,0c-0.15-0.07-0.31-0.98-0.32-1.14
					C27.02,61.1,29.81,61.1,28.85,63.76z"/>
				<g>
					<path class="st130" d="M23.65,46.02c0.06,3.01,0.06,3.01,0.13,6.02c-0.33,0.75-2.01-0.86-2.03,1.46c-3.74,0-3.74,0-7.48,0
						c-0.08-2.48,0.01-4.99,0.06-7.48C18.99,46.02,18.99,46.02,23.65,46.02z"/>
					<path class="st199" d="M17.95,48.68c0.01,0.06-0.22,0.3-0.13,1.2c0.05,0.11,0.25,0.05,0.25,0.06c0.02,0.2-0.27,1.26-0.13,1.58
						c0.1,0.22,1.88,0.99,1.39-1.58c0.04,0,0.08,0,0.13,0c0.06,0.95,0.06,0.95,0.13,1.9c-0.49,0.01-3.22,0.39-3.42-0.06
						c0.08-0.74-0.11-3.31,0-3.55C16.28,47.98,17.79,47.69,17.95,48.68z"/>
					<path class="st153" d="M19.59,51.85c-0.06-0.95-0.06-0.95-0.13-1.9c0.66-0.04,0.48-0.13,0.51-0.13c0.26,0,1.56-0.06,1.65,0.06
						C21.75,52.81,21.66,51.79,19.59,51.85z"/>
					<path class="st201" d="M19.97,49.82c-0.03,0,0.16,0.09-0.51,0.13c-0.04,0-0.08,0-0.13,0c-0.42,0.02-0.85-0.01-1.27,0
						c0-0.01-0.21,0.05-0.25-0.06c-0.09-0.9,0.14-1.14,0.13-1.2C19.56,48.76,20.17,48.22,19.97,49.82z"/>
					<path class="st129" d="M19.34,49.94c0.48,2.57-1.3,1.8-1.39,1.58c-0.14-0.32,0.15-1.39,0.13-1.58
						C18.49,49.93,18.92,49.96,19.34,49.94z"/>
				</g>
			</g>
		</g>
	</g>
</g>
</svg>
